<svg width="24" height="24" viewBox="0 0 24 24" fill="none" xmlns="http://www.w3.org/2000/svg">
<path d="M17.4396 9.33006H16.3396V6.40006C16.3396 5.24902 15.8823 4.14512 15.0684 3.33122C14.2545 2.51731 13.1506 2.06006 11.9996 2.06006C10.8485 2.06006 9.74463 2.51731 8.93073 3.33122C8.11682 4.14512 7.65957 5.24902 7.65957 6.40006V9.33006H6.55957C5.89653 9.33006 5.26064 9.59345 4.7918 10.0623C4.32296 10.5311 4.05957 11.167 4.05957 11.8301V19.4401C4.06142 20.1025 4.3254 20.7373 4.79384 21.2058C5.26228 21.6742 5.8971 21.9382 6.55957 21.9401H17.4396C18.102 21.9382 18.7369 21.6742 19.2053 21.2058C19.6737 20.7373 19.9377 20.1025 19.9396 19.4401V11.8301C19.9396 11.167 19.6762 10.5311 19.2073 10.0623C18.7385 9.59345 18.1026 9.33006 17.4396 9.33006ZM8.65957 6.40006C8.65957 5.51424 9.01146 4.66469 9.63783 4.03832C10.2642 3.41195 11.1137 3.06006 11.9996 3.06006C12.8854 3.06006 13.7349 3.41195 14.3613 4.03832C14.9877 4.66469 15.3396 5.51424 15.3396 6.40006V9.33006H8.65957V6.40006ZM18.9396 19.4401C18.9367 19.837 18.7777 20.2169 18.497 20.4975C18.2164 20.7782 17.8365 20.9372 17.4396 20.9401H6.55957C6.16264 20.9372 5.78278 20.7782 5.50209 20.4975C5.22141 20.2169 5.06245 19.837 5.05957 19.4401V11.8301C5.05957 11.4322 5.21761 11.0507 5.49891 10.7694C5.78022 10.4881 6.16175 10.3301 6.55957 10.3301H17.4396C17.8374 10.3301 18.2189 10.4881 18.5002 10.7694C18.7815 11.0507 18.9396 11.4322 18.9396 11.8301V19.4401Z" fill="#5C5C5C"/>
<path d="M13 14.95C13.0006 15.1248 12.9546 15.2966 12.8667 15.4478C12.7788 15.5989 12.6522 15.724 12.5 15.81V17.31C12.5 17.4426 12.4473 17.5697 12.3536 17.6635C12.2598 17.7573 12.1326 17.81 12 17.81C11.8674 17.81 11.7402 17.7573 11.6465 17.6635C11.5527 17.5697 11.5 17.4426 11.5 17.31V15.81C11.3478 15.724 11.2212 15.5989 11.1333 15.4478C11.0454 15.2966 10.9994 15.1248 11 14.95C11 14.6847 11.1054 14.4304 11.2929 14.2428C11.4804 14.0553 11.7348 13.95 12 13.95C12.2652 13.95 12.5196 14.0553 12.7071 14.2428C12.8946 14.4304 13 14.6847 13 14.95Z" fill="#5C5C5C"/>
</svg>
