<svg width="24" height="24" viewBox="0 0 24 24" fill="none" xmlns="http://www.w3.org/2000/svg">
<path d="M16.0419 11.1327L16.0418 11.1327L11.5418 15.6327C11.343 15.8315 11.0207 15.8315 10.8219 15.6327C10.8219 15.6327 10.8219 15.6327 10.8219 15.6326L7.9582 12.7691L7.9582 12.7691C7.75941 12.5703 7.75937 12.2479 7.95819 12.0492C7.95819 12.0492 7.9582 12.0491 7.95821 12.0491M16.0419 11.1327L8.60745 12.1198C8.44769 11.9601 8.18866 11.9601 8.02891 12.1199L7.95821 12.0491M16.0419 11.1327C16.2406 10.9339 16.2406 10.6116 16.0419 10.4127L16.0418 10.4127C15.843 10.2139 15.5207 10.2139 15.3218 10.4127L15.3218 10.4127L11.1818 14.5527M16.0419 11.1327L11.1818 14.5527M7.95821 12.0491C8.15702 11.8503 8.47935 11.8503 8.67815 12.0491L8.67816 12.0491L11.1818 14.5527M7.95821 12.0491L11.1818 14.5527M8.00909 3.40909C8.00909 3.12793 7.78116 2.9 7.5 2.9C7.21884 2.9 6.99091 3.12793 6.99091 3.40909V4.53636H5.45455C4.04371 4.53636 2.9 5.68008 2.9 7.09091V18.5455C2.9 19.9563 4.04371 21.1 5.45455 21.1H18.5455C19.9563 21.1 21.1 19.9563 21.1 18.5455V7.09091C21.1 5.68008 19.9563 4.53636 18.5455 4.53636H17.0091V3.40909C17.0091 3.12792 16.7811 2.9 16.5 2.9C16.2189 2.9 15.9909 3.12792 15.9909 3.40909V4.53636H8.00909V3.40909ZM3.91818 7.09091C3.91818 6.2424 4.60603 5.55455 5.45455 5.55455H18.5455C19.394 5.55455 20.0818 6.2424 20.0818 7.09091V18.5455C20.0818 19.394 19.394 20.0818 18.5455 20.0818H5.45455C4.60603 20.0818 3.91818 19.394 3.91818 18.5455V7.09091Z" fill="black" stroke="#5C5C5C" stroke-width="0.2"/>
</svg>
