<svg width="24" height="24" viewBox="0 0 24 24" fill="none" xmlns="http://www.w3.org/2000/svg">
<path d="M17.8529 4.5H0.253906L0.499906 5.074V19.5H6.68241H6.99991H23.7459L17.8529 4.5ZM1.49991 18.5V7.4075L6.25391 18.5H1.49991ZM1.77041 5.5H17.1714L22.2784 18.5H7.34191L1.77041 5.5Z" fill="#5C5C5C"/>
<path d="M3.5 7H17V8H3.5V7Z" fill="#5C5C5C"/>
<path d="M12.7617 9.25C10.5562 9.25 8.76172 11.0445 8.76172 13.25C8.76172 15.4555 10.5562 17.25 12.7617 17.25C14.9672 17.25 16.7617 15.4555 16.7617 13.25C16.7617 11.0445 14.9677 9.25 12.7617 9.25ZM12.7617 16.25C11.1072 16.25 9.76172 14.9045 9.76172 13.25C9.76172 11.5955 11.1072 10.25 12.7617 10.25C14.4162 10.25 15.7617 11.5955 15.7617 13.25C15.7617 14.9045 14.4162 16.25 12.7617 16.25Z" fill="#5C5C5C"/>
<path d="M12.2968 13.373L11.6118 12.688L10.9048 13.395L12.3133 14.8035L14.6198 12.3865L13.8963 11.6965L12.2968 13.373Z" fill="#5C5C5C"/>
</svg>
