<svg width="421" height="330" viewBox="0 0 421 330" fill="none" xmlns="http://www.w3.org/2000/svg">
<path d="M95.9168 35.7928C94.3874 34.6357 92.1569 34.504 90.5032 35.4749C88.3084 31.0307 82.1916 29.0695 77.8293 31.4108C76.6915 26.6222 71.9819 22.9413 67.0692 23.0007C62.1559 23.0601 57.537 26.8528 56.5143 31.6679C56.3514 32.4333 56.2442 33.271 55.6982 33.8302C54.8106 34.7381 53.3291 34.4338 52.0648 34.3343C48.0863 34.0235 44.0827 36.8217 43 40.6709L97.7928 40.4711C98.2716 38.6124 97.4462 36.9505 95.9168 35.7928Z" fill="#E6E6E6"/>
<path d="M362.554 107.112C361.584 106.378 360.169 106.295 359.121 106.91C357.729 104.092 353.85 102.849 351.085 104.333C350.363 101.297 347.377 98.9632 344.262 99.0004C341.146 99.0377 338.217 101.443 337.569 104.496C337.466 104.981 337.397 105.513 337.051 105.868C336.489 106.443 335.549 106.25 334.747 106.188C332.225 105.991 329.686 107.765 329 110.205L363.744 110.078C364.047 108.899 363.523 107.846 362.554 107.112Z" fill="#F5F5F5"/>
<path d="M61.9168 168.235C60.3874 167.077 58.1569 166.946 56.5032 167.917C54.3084 163.473 48.1916 161.511 43.8293 163.853C42.6915 159.064 37.9819 155.383 33.0693 155.443C28.1559 155.502 23.537 159.295 22.5143 164.11C22.3521 164.875 22.2442 165.713 21.6982 166.272C20.8106 167.18 19.3291 166.876 18.0648 166.776C14.0863 166.465 10.0827 169.264 9 173.113L63.7935 172.913C64.2716 171.054 63.4462 169.392 61.9168 168.235Z" fill="#E6E6E6"/>
<path d="M372.992 254.127L372.389 221.06H353.889V228.601H340.268V146H314.077V178.511H306.219V162.277H285.783V241.452H256.967V213.479H238.9V152.828H216.601V193.262H195.643V280.367H179.405V237.951H162.638V210.658H144.827V189.702L124.954 200.205V256.268H103.996V244.703H76V325.961L401.865 326.118V254.127H372.992Z" fill="#EBEBEB"/>
<path d="M164.004 326.004V205.108H141.738V326.119C148.785 325.944 164.004 326.004 164.004 326.004Z" fill="#E6E6E6"/>
<path d="M143.725 326.118V259.628H97.9014V325.972L143.725 326.118Z" fill="#FAFAFA"/>
<path d="M199.402 326.021V228.411H173.443V326.008L199.402 326.021Z" fill="#E0E0E0"/>
<path d="M178.561 232.235H175.414V238.739H178.561V232.235Z" fill="#FAFAFA"/>
<path d="M184.854 232.235H181.707V238.739H184.854V232.235Z" fill="#FAFAFA"/>
<path d="M191.147 232.235H188V238.739H191.147V232.235Z" fill="#FAFAFA"/>
<path d="M197.441 232.235H194.294V238.739H197.441V232.235Z" fill="#FAFAFA"/>
<path d="M178.561 243.144H175.414V249.648H178.561V243.144Z" fill="#FAFAFA"/>
<path d="M184.854 243.144H181.707V249.648H184.854V243.144Z" fill="#FAFAFA"/>
<path d="M191.147 243.144H188V249.648H191.147V243.144Z" fill="#FAFAFA"/>
<path d="M197.441 243.144H194.294V249.648H197.441V243.144Z" fill="#FAFAFA"/>
<path d="M178.561 254.045H175.414V260.549H178.561V254.045Z" fill="#FAFAFA"/>
<path d="M184.854 254.045H181.707V260.549H184.854V254.045Z" fill="#FAFAFA"/>
<path d="M191.147 254.045H188V260.549H191.147V254.045Z" fill="#FAFAFA"/>
<path d="M197.441 254.045H194.294V260.549H197.441V254.045Z" fill="#FAFAFA"/>
<path d="M178.561 264.946H175.414V271.45H178.561V264.946Z" fill="#FAFAFA"/>
<path d="M184.854 264.946H181.707V271.45H184.854V264.946Z" fill="#FAFAFA"/>
<path d="M191.147 264.946H188V271.45H191.147V264.946Z" fill="#FAFAFA"/>
<path d="M197.441 264.946H194.294V271.45H197.441V264.946Z" fill="#FAFAFA"/>
<path d="M178.561 275.847H175.414V282.351H178.561V275.847Z" fill="#FAFAFA"/>
<path d="M184.854 275.847H181.707V282.351H184.854V275.847Z" fill="#FAFAFA"/>
<path d="M191.147 275.847H188V282.351H191.147V275.847Z" fill="#FAFAFA"/>
<path d="M197.441 275.847H194.294V282.351H197.441V275.847Z" fill="#FAFAFA"/>
<path d="M178.561 286.747H175.414V293.251H178.561V286.747Z" fill="#FAFAFA"/>
<path d="M184.854 286.747H181.707V293.251H184.854V286.747Z" fill="#FAFAFA"/>
<path d="M191.147 286.747H188V293.251H191.147V286.747Z" fill="#FAFAFA"/>
<path d="M197.441 286.747H194.294V293.251H197.441V286.747Z" fill="#FAFAFA"/>
<path d="M178.561 297.647H175.414V304.151H178.561V297.647Z" fill="#FAFAFA"/>
<path d="M184.854 297.647H181.707V304.151H184.854V297.647Z" fill="#FAFAFA"/>
<path d="M191.147 297.647H188V304.151H191.147V297.647Z" fill="#FAFAFA"/>
<path d="M197.441 297.647H194.294V304.151H197.441V297.647Z" fill="#FAFAFA"/>
<path d="M178.561 308.556H175.414V315.061H178.561V308.556Z" fill="#FAFAFA"/>
<path d="M184.854 308.556H181.707V315.061H184.854V308.556Z" fill="#FAFAFA"/>
<path d="M191.147 308.556H188V315.061H191.147V308.556Z" fill="#FAFAFA"/>
<path d="M197.441 308.556H194.294V315.061H197.441V308.556Z" fill="#FAFAFA"/>
<path d="M289.608 326.065V214.507H235.786V326.102C235.786 326.102 289.196 326.118 289.608 326.065Z" fill="#F5F5F5"/>
<path d="M246.352 218.954H239.827V226.445H246.352V218.954Z" fill="#E6E6E6"/>
<path d="M259.41 218.954H252.885V226.445H259.41V218.954Z" fill="#E6E6E6"/>
<path d="M272.459 218.954H265.935V226.445H272.459V218.954Z" fill="#E6E6E6"/>
<path d="M285.518 218.954H278.993V226.445H285.518V218.954Z" fill="#E6E6E6"/>
<path d="M246.352 231.522H239.827V239.013H246.352V231.522Z" fill="#E6E6E6"/>
<path d="M259.41 231.522H252.885V239.013H259.41V231.522Z" fill="#E6E6E6"/>
<path d="M272.459 231.522H265.935V239.013H272.459V231.522Z" fill="#E6E6E6"/>
<path d="M285.518 231.522H278.993V239.013H285.518V231.522Z" fill="#E6E6E6"/>
<path d="M246.352 244.081H239.827V251.572H246.352V244.081Z" fill="#E6E6E6"/>
<path d="M259.41 244.081H252.885V251.572H259.41V244.081Z" fill="#E6E6E6"/>
<path d="M272.459 244.081H265.935V251.572H272.459V244.081Z" fill="#E6E6E6"/>
<path d="M285.518 244.081H278.993V251.572H285.518V244.081Z" fill="#E6E6E6"/>
<path d="M246.352 256.641H239.827V264.132H246.352V256.641Z" fill="#E6E6E6"/>
<path d="M259.41 256.641H252.885V264.132H259.41V256.641Z" fill="#E6E6E6"/>
<path d="M272.459 256.641H265.935V264.132H272.459V256.641Z" fill="#E6E6E6"/>
<path d="M285.518 256.641H278.993V264.132H285.518V256.641Z" fill="#E6E6E6"/>
<path d="M246.352 269.209H239.827V276.7H246.352V269.209Z" fill="#E6E6E6"/>
<path d="M259.41 269.209H252.885V276.7H259.41V269.209Z" fill="#E6E6E6"/>
<path d="M272.459 269.209H265.935V276.7H272.459V269.209Z" fill="#E6E6E6"/>
<path d="M285.518 269.209H278.993V276.7H285.518V269.209Z" fill="#E6E6E6"/>
<path d="M246.352 281.769H239.827V289.26H246.352V281.769Z" fill="#E6E6E6"/>
<path d="M259.41 281.769H252.885V289.26H259.41V281.769Z" fill="#E6E6E6"/>
<path d="M272.459 281.769H265.935V289.26H272.459V281.769Z" fill="#E6E6E6"/>
<path d="M285.518 281.769H278.993V289.26H285.518V281.769Z" fill="#E6E6E6"/>
<path d="M246.352 294.337H239.827V301.828H246.352V294.337Z" fill="#E6E6E6"/>
<path d="M259.41 294.337H252.885V301.828H259.41V294.337Z" fill="#E6E6E6"/>
<path d="M272.459 294.337H265.935V301.828H272.459V294.337Z" fill="#E6E6E6"/>
<path d="M285.518 294.337H278.993V301.828H285.518V294.337Z" fill="#E6E6E6"/>
<path d="M246.352 306.897H239.827V314.388H246.352V306.897Z" fill="#E6E6E6"/>
<path d="M259.41 306.897H252.885V314.388H259.41V306.897Z" fill="#E6E6E6"/>
<path d="M272.459 306.897H265.935V314.388H272.459V306.897Z" fill="#E6E6E6"/>
<path d="M285.518 306.897H278.993V314.388H285.518V306.897Z" fill="#E6E6E6"/>
<path d="M151.856 213.325H145.844V220.228H151.856V213.325Z" fill="#FAFAFA"/>
<path d="M151.856 224.899H145.844V231.802H151.856V224.899Z" fill="#FAFAFA"/>
<path d="M151.856 236.48H145.844V243.383H151.856V236.48Z" fill="#FAFAFA"/>
<path d="M151.856 248.054H145.844V254.957H151.856V248.054Z" fill="#FAFAFA"/>
<path d="M151.856 259.628H145.844V266.531H151.856V259.628Z" fill="#FAFAFA"/>
<path d="M151.856 271.21H145.844V278.113H151.856V271.21Z" fill="#FAFAFA"/>
<path d="M151.856 282.784H145.844V289.687H151.856V282.784Z" fill="#FAFAFA"/>
<path d="M151.856 294.366H145.844V301.269H151.856V294.366Z" fill="#FAFAFA"/>
<path d="M159.898 213.325H153.886V220.228H159.898V213.325Z" fill="#FAFAFA"/>
<path d="M159.898 224.899H153.886V231.802H159.898V224.899Z" fill="#FAFAFA"/>
<path d="M159.898 236.48H153.886V243.383H159.898V236.48Z" fill="#FAFAFA"/>
<path d="M159.898 248.054H153.886V254.957H159.898V248.054Z" fill="#FAFAFA"/>
<path d="M159.898 259.628H153.886V266.531H159.898V259.628Z" fill="#FAFAFA"/>
<path d="M159.898 271.21H153.886V278.113H159.898V271.21Z" fill="#FAFAFA"/>
<path d="M159.898 282.784H153.886V289.687H159.898V282.784Z" fill="#FAFAFA"/>
<path d="M159.898 294.366H153.886V301.269H159.898V294.366Z" fill="#FAFAFA"/>
<path d="M228.226 160.851H221.701V168.342H228.226V160.851Z" fill="#FAFAFA"/>
<path d="M228.226 173.411H221.701V180.901H228.226V173.411Z" fill="#FAFAFA"/>
<path d="M228.226 185.115H221.701V192.606H228.226V185.115Z" fill="#FAFAFA"/>
<path d="M228.226 197.675H221.701V205.166H228.226V197.675Z" fill="#FAFAFA"/>
<path d="M228.226 210.235H221.701V217.725H228.226V210.235Z" fill="#FAFAFA"/>
<path d="M228.226 222.802H221.701V230.293H228.226V222.802Z" fill="#FAFAFA"/>
<path d="M228.226 235.363H221.701V242.853H228.226V235.363Z" fill="#FAFAFA"/>
<path d="M228.226 247.931H221.701V255.422H228.226V247.931Z" fill="#FAFAFA"/>
<path d="M326.241 149.957H319.716V157.448H326.241V149.957Z" fill="#FAFAFA"/>
<path d="M326.241 162.517H319.716V170.008H326.241V162.517Z" fill="#FAFAFA"/>
<path d="M326.241 175.085H319.716V182.576H326.241V175.085Z" fill="#FAFAFA"/>
<path d="M326.241 187.646H319.716V195.136H326.241V187.646Z" fill="#FAFAFA"/>
<path d="M326.241 200.213H319.716V207.704H326.241V200.213Z" fill="#FAFAFA"/>
<path d="M326.241 212.773H319.716V220.264H326.241V212.773Z" fill="#FAFAFA"/>
<path d="M326.241 225.341H319.716V232.832H326.241V225.341Z" fill="#FAFAFA"/>
<path d="M326.241 237.901H319.716V245.392H326.241V237.901Z" fill="#FAFAFA"/>
<path d="M372.992 207.671H333.693V326.118H372.992V207.671Z" fill="#E6E6E6"/>
<path d="M351.024 213.512H339.506V221.003H351.024V213.512Z" fill="#FAFAFA"/>
<path d="M351.024 226.08H339.506V233.57H351.024V226.08Z" fill="#FAFAFA"/>
<path d="M351.024 238.64H339.506V246.13H351.024V238.64Z" fill="#FAFAFA"/>
<path d="M351.024 251.208H339.506V258.698H351.024V251.208Z" fill="#FAFAFA"/>
<path d="M351.024 263.768H339.506V271.258H351.024V263.768Z" fill="#FAFAFA"/>
<path d="M351.024 276.328H339.506V283.818H351.024V276.328Z" fill="#FAFAFA"/>
<path d="M351.024 288.896H339.506V296.387H351.024V288.896Z" fill="#FAFAFA"/>
<path d="M351.024 301.456H339.506V308.947H351.024V301.456Z" fill="#FAFAFA"/>
<path d="M366.434 213.512H354.916V221.003H366.434V213.512Z" fill="#FAFAFA"/>
<path d="M366.434 226.08H354.916V233.57H366.434V226.08Z" fill="#FAFAFA"/>
<path d="M366.434 238.64H354.916V246.13H366.434V238.64Z" fill="#FAFAFA"/>
<path d="M366.434 251.208H354.916V258.698H366.434V251.208Z" fill="#FAFAFA"/>
<path d="M366.434 263.768H354.916V271.258H366.434V263.768Z" fill="#FAFAFA"/>
<path d="M366.434 276.328H354.916V283.818H366.434V276.328Z" fill="#FAFAFA"/>
<path d="M366.434 288.896H354.916V296.387H366.434V288.896Z" fill="#FAFAFA"/>
<path d="M366.434 301.456H354.916V308.947H366.434V301.456Z" fill="#FAFAFA"/>
<path d="M312.264 326.075V244.081H295.123V326.067L312.264 326.075Z" fill="#E0E0E0"/>
<path d="M298.501 247.4H296.423V252.983H298.501V247.4Z" fill="#FAFAFA"/>
<path d="M302.658 247.4H300.58V252.983H302.658V247.4Z" fill="#FAFAFA"/>
<path d="M306.807 247.4H304.729V252.983H306.807V247.4Z" fill="#FAFAFA"/>
<path d="M310.964 247.4H308.886V252.983H310.964V247.4Z" fill="#FAFAFA"/>
<path d="M298.501 256.766H296.423V262.349H298.501V256.766Z" fill="#FAFAFA"/>
<path d="M302.658 256.766H300.58V262.349H302.658V256.766Z" fill="#FAFAFA"/>
<path d="M306.807 256.766H304.729V262.349H306.807V256.766Z" fill="#FAFAFA"/>
<path d="M310.964 256.766H308.886V262.349H310.964V256.766Z" fill="#FAFAFA"/>
<path d="M298.501 266.132H296.423V271.715H298.501V266.132Z" fill="#FAFAFA"/>
<path d="M302.658 266.132H300.58V271.715H302.658V266.132Z" fill="#FAFAFA"/>
<path d="M306.807 266.132H304.729V271.715H306.807V266.132Z" fill="#FAFAFA"/>
<path d="M310.964 266.132H308.886V271.715H310.964V266.132Z" fill="#FAFAFA"/>
<path d="M298.501 275.498H296.423V281.081H298.501V275.498Z" fill="#FAFAFA"/>
<path d="M302.658 275.498H300.58V281.081H302.658V275.498Z" fill="#FAFAFA"/>
<path d="M306.807 275.498H304.729V281.081H306.807V275.498Z" fill="#FAFAFA"/>
<path d="M310.964 275.498H308.886V281.081H310.964V275.498Z" fill="#FAFAFA"/>
<path d="M298.501 284.872H296.423V290.455H298.501V284.872Z" fill="#FAFAFA"/>
<path d="M302.658 284.872H300.58V290.455H302.658V284.872Z" fill="#FAFAFA"/>
<path d="M306.807 284.872H304.729V290.455H306.807V284.872Z" fill="#FAFAFA"/>
<path d="M310.964 284.872H308.886V290.455H310.964V284.872Z" fill="#FAFAFA"/>
<path d="M298.501 294.238H296.423V299.821H298.501V294.238Z" fill="#FAFAFA"/>
<path d="M302.658 294.238H300.58V299.821H302.658V294.238Z" fill="#FAFAFA"/>
<path d="M306.807 294.238H304.729V299.821H306.807V294.238Z" fill="#FAFAFA"/>
<path d="M310.964 294.238H308.886V299.821H310.964V294.238Z" fill="#FAFAFA"/>
<path d="M298.501 303.604H296.423V309.187H298.501V303.604Z" fill="#FAFAFA"/>
<path d="M302.658 303.604H300.58V309.187H302.658V303.604Z" fill="#FAFAFA"/>
<path d="M306.807 303.604H304.729V309.187H306.807V303.604Z" fill="#FAFAFA"/>
<path d="M310.964 303.604H308.886V309.187H310.964V303.604Z" fill="#FAFAFA"/>
<path d="M298.501 312.97H296.423V318.553H298.501V312.97Z" fill="#FAFAFA"/>
<path d="M302.658 312.97H300.58V318.553H302.658V312.97Z" fill="#FAFAFA"/>
<path d="M306.807 312.97H304.729V318.553H306.807V312.97Z" fill="#FAFAFA"/>
<path d="M310.964 312.97H308.886V318.553H310.964V312.97Z" fill="#FAFAFA"/>
<path d="M106.927 262.407H101.371V267.094H106.927V262.407Z" fill="#E6E6E6"/>
<path d="M118.039 262.407H112.483V267.094H118.039V262.407Z" fill="#E6E6E6"/>
<path d="M129.144 262.407H123.588V267.094H129.144V262.407Z" fill="#E6E6E6"/>
<path d="M140.256 262.407H134.7V267.094H140.256V262.407Z" fill="#E6E6E6"/>
<path d="M106.927 270.263H101.371V274.95H106.927V270.263Z" fill="#E6E6E6"/>
<path d="M118.039 270.263H112.483V274.95H118.039V270.263Z" fill="#E6E6E6"/>
<path d="M129.144 270.263H123.588V274.95H129.144V270.263Z" fill="#E6E6E6"/>
<path d="M140.256 270.263H134.7V274.95H140.256V270.263Z" fill="#E6E6E6"/>
<path d="M106.927 278.119H101.371V282.806H106.927V278.119Z" fill="#E6E6E6"/>
<path d="M118.039 278.119H112.483V282.806H118.039V278.119Z" fill="#E6E6E6"/>
<path d="M129.144 278.119H123.588V282.806H129.144V278.119Z" fill="#E6E6E6"/>
<path d="M140.256 278.119H134.7V282.806H140.256V278.119Z" fill="#E6E6E6"/>
<path d="M106.927 285.975H101.371V290.662H106.927V285.975Z" fill="#E6E6E6"/>
<path d="M118.039 285.975H112.483V290.662H118.039V285.975Z" fill="#E6E6E6"/>
<path d="M129.144 285.975H123.588V290.662H129.144V285.975Z" fill="#E6E6E6"/>
<path d="M140.256 285.975H134.7V290.662H140.256V285.975Z" fill="#E6E6E6"/>
<path d="M106.927 293.823H101.371V298.51H106.927V293.823Z" fill="#E6E6E6"/>
<path d="M118.039 293.823H112.483V298.51H118.039V293.823Z" fill="#E6E6E6"/>
<path d="M129.144 293.823H123.588V298.51H129.144V293.823Z" fill="#E6E6E6"/>
<path d="M140.256 293.823H134.7V298.51H140.256V293.823Z" fill="#E6E6E6"/>
<path d="M106.927 301.679H101.371V306.366H106.927V301.679Z" fill="#E6E6E6"/>
<path d="M118.039 301.679H112.483V306.366H118.039V301.679Z" fill="#E6E6E6"/>
<path d="M129.144 301.679H123.588V306.366H129.144V301.679Z" fill="#E6E6E6"/>
<path d="M140.256 301.679H134.7V306.366H140.256V301.679Z" fill="#E6E6E6"/>
<path d="M106.927 309.536H101.371V314.223H106.927V309.536Z" fill="#E6E6E6"/>
<path d="M118.039 309.536H112.483V314.223H118.039V309.536Z" fill="#E6E6E6"/>
<path d="M129.144 309.536H123.588V314.223H129.144V309.536Z" fill="#E6E6E6"/>
<path d="M140.256 309.536H134.7V314.223H140.256V309.536Z" fill="#E6E6E6"/>
<path d="M209.018 173.071H194.007V324.151H209.018V173.071Z" fill="#5C5C5C"/>
<path d="M209.019 173.128H193.947V178.351H209.019V173.128Z" fill="#383838"/>
<path d="M289.399 50.9024V122.89L238.497 173.793H166.509L115.606 122.89V50.9024L166.509 0H238.497L289.399 50.9024Z" fill="#6695FF"/>
<path d="M289.399 50.9026V122.89L238.497 173.793H166.509L132.45 139.734C260.454 158.599 261.782 23.2852 261.782 23.2852L289.399 50.9026Z" fill="#4974D5"/>
<path d="M289.399 86.8962C289.399 86.8962 264.928 177.76 166.509 173.793H238.496L289.399 122.89V86.8962Z" fill="#2B3871"/>
<path d="M280.953 54.4009V119.391L234.998 165.347H170.007L124.052 119.391V54.4009L170.007 8.4458H234.998L280.953 54.4009Z" stroke="white" stroke-width="12" stroke-miterlimit="10"/>
<path d="M209.019 173.071H202.991V324.151H209.019V173.071Z" fill="#383838"/>
<path d="M183.284 92.6788C182.38 92.2703 181.171 92.0631 179.693 92.0631H178.753V70.5263C178.753 67.0933 177.22 65.3525 174.199 65.3525C173.248 65.3525 172.423 65.676 171.745 66.3136C171.107 66.9128 170.286 67.8869 169.304 69.2087L154.372 89.184C153.958 89.7295 153.611 90.1898 153.329 90.5658C153.043 90.9468 152.765 91.3452 152.502 91.7497C152.228 92.17 152.019 92.5777 151.882 92.9612C151.74 93.3548 151.669 93.7508 151.669 94.1377C151.669 95.6014 152.149 96.7782 153.096 97.6352C154.035 98.4858 155.448 98.917 157.294 98.917H171.167V103.887C171.167 105.358 171.517 106.495 172.208 107.265C172.907 108.045 173.833 108.44 174.96 108.44C176.105 108.44 177.035 108.055 177.725 107.295C178.407 106.542 178.753 105.395 178.753 103.887V98.917H180.201C181.678 98.917 182.811 98.6493 183.568 98.1216C184.355 97.5728 184.755 96.6968 184.755 95.5182C184.754 94.0745 184.259 93.1193 183.284 92.6788ZM171.166 76.7864V92.0631H159.86L171.166 76.7864Z" fill="white"/>
<path d="M212.105 69.3639C210.891 68.1314 209.462 67.1816 207.856 66.5411C206.253 65.9019 204.447 65.5779 202.487 65.5779C199.516 65.5779 196.92 66.3091 194.771 67.7512C192.622 69.1938 190.962 71.3156 189.837 74.0622C189.193 75.7096 188.714 77.7026 188.412 79.9858C188.111 82.2591 187.959 84.8494 187.959 87.6853C187.959 89.8866 188.097 91.9615 188.37 93.8521C188.644 95.7499 189.08 97.5083 189.669 99.0848C190.828 101.975 192.581 104.272 194.877 105.91C197.176 107.551 199.812 108.384 202.712 108.384C205.229 108.384 207.551 107.764 209.613 106.543C211.672 105.323 213.373 103.564 214.67 101.314C215.694 99.4928 216.406 97.4347 216.786 95.1971C217.162 92.9756 217.353 90.2871 217.353 87.2064C217.353 81.5215 216.624 77.0563 215.186 73.9345C214.35 72.1295 213.313 70.5919 212.105 69.3639ZM196.865 95.4974C196.457 93.2708 196.249 90.3674 196.249 86.8683C196.249 81.7225 196.732 77.8688 197.682 75.4142C198.613 73.0092 200.222 71.8401 202.599 71.8401C204.237 71.8401 205.534 72.3729 206.452 73.4238C207.392 74.4998 208.073 76.1251 208.475 78.2546C208.884 80.4178 209.09 83.2401 209.09 86.6429C209.09 90.2354 208.893 93.1772 208.503 95.3867C208.118 97.5656 207.445 99.2586 206.503 100.419C205.572 101.565 204.313 102.122 202.656 102.122C201.053 102.122 199.821 101.587 198.89 100.486C197.949 99.3717 197.267 97.6936 196.865 95.4974Z" fill="white"/>
<path d="M251.864 92.6788C250.959 92.2703 249.751 92.0631 248.272 92.0631H247.332V70.5263C247.332 67.0933 245.8 65.3525 242.778 65.3525C241.828 65.3525 241.002 65.676 240.324 66.3136C239.687 66.913 238.865 67.8872 237.884 69.2087L222.952 89.184C222.538 89.7295 222.19 90.1898 221.908 90.5658C221.623 90.9468 221.344 91.3452 221.081 91.7497C220.807 92.1703 220.598 92.578 220.461 92.9612C220.32 93.3548 220.248 93.7508 220.248 94.1377C220.248 95.6014 220.728 96.7782 221.675 97.6352C222.614 98.4858 224.027 98.917 225.873 98.917H239.746V103.887C239.746 105.358 240.096 106.495 240.787 107.265C241.486 108.045 242.412 108.44 243.539 108.44C244.684 108.44 245.615 108.055 246.304 107.295C246.986 106.542 247.332 105.395 247.332 103.887V98.917H248.78C250.257 98.917 251.39 98.6493 252.147 98.1216C252.934 97.5728 253.334 96.6968 253.334 95.5182C253.334 94.0745 252.839 93.1193 251.864 92.6788ZM239.746 76.7864V92.0631H228.44L239.746 76.7864Z" fill="white"/>
<path d="M313.114 329.263H89.4055C87.8872 329.263 86.6562 328.032 86.6562 326.514V326.435C86.6562 324.916 87.8872 323.685 89.4055 323.685H313.114C314.632 323.685 315.863 324.916 315.863 326.435V326.514C315.863 328.032 314.632 329.263 313.114 329.263Z" fill="#5C5C5C"/>
<path d="M93.6465 329.263H57.4202C55.9018 329.263 54.6709 328.032 54.6709 326.514V326.435C54.6709 324.916 55.9018 323.685 57.4202 323.685H93.6465C95.1648 323.685 96.3958 324.916 96.3958 326.435V326.514C96.3958 328.032 95.1648 329.263 93.6465 329.263Z" fill="#5C5C5C"/>
<path d="M40.8096 329.263H2.74928C1.23092 329.263 0 328.032 0 326.514V326.434C0 324.916 1.23092 323.685 2.74928 323.685H40.8096C42.328 323.685 43.5589 324.916 43.5589 326.434V326.514C43.5589 328.032 42.328 329.263 40.8096 329.263Z" fill="#5C5C5C"/>
<path d="M361.411 329.263H330.168C328.65 329.263 327.419 328.032 327.419 326.514V326.435C327.419 324.916 328.65 323.685 330.168 323.685H361.411C362.93 323.685 364.161 324.916 364.161 326.435V326.514C364.161 328.032 362.93 329.263 361.411 329.263Z" fill="#5C5C5C"/>
<path d="M402.251 329.263H378.488C376.969 329.263 375.738 328.032 375.738 326.514V326.435C375.738 324.916 376.969 323.685 378.488 323.685H402.251C403.769 323.685 405 324.916 405 326.435V326.514C405 328.032 403.769 329.263 402.251 329.263Z" fill="#5C5C5C"/>
<path d="M171.934 313.084H92.9609L94.3977 307.881L97.2037 297.724L98.9032 291.573L101.408 282.505L106.238 265.024L108.744 255.956L126.356 192.207H138.539L144.994 215.57L156.151 255.956L158.657 265.024L163.486 282.505L165.992 291.573L170.497 307.881L171.934 313.084Z" fill="#6695FF"/>
<path d="M188.092 313.084H76.8027V323.665H188.092V313.084Z" fill="#334B82"/>
<path d="M171.934 313.084H92.9609L94.3977 307.881H170.497L171.934 313.084Z" fill="#383838"/>
<path d="M158.657 265.024C158.657 265.024 157.003 299.927 116.903 307.91L170.498 307.881L158.657 265.024Z" fill="#4974D5"/>
<path d="M158.657 265.024H106.238L108.744 255.956H156.151L158.657 265.024Z" fill="white"/>
<path d="M165.992 291.573H98.9033L101.409 282.505H163.487L165.992 291.573Z" fill="white"/>
<path d="M162.35 313.084C162.35 313.084 147.599 324.22 92.9609 323.665H188.092V313.083L162.35 313.084Z" fill="#4974D5"/>
<path d="M418.917 60.7928C417.387 59.635 415.157 59.504 413.503 60.4749C411.308 56.0306 405.192 54.0695 400.829 56.4108C399.692 51.6222 394.982 47.9413 390.069 48.0007C385.156 48.0601 380.537 51.8528 379.514 56.6679C379.352 57.4333 379.244 58.271 378.698 58.8302C377.811 59.7381 376.329 59.4338 375.065 59.3343C371.086 59.0235 367.083 61.8217 366 65.6709L420.793 65.4711C421.272 63.6124 420.446 61.9505 418.917 60.7928Z" fill="#E6E6E6"/>
</svg>
