<svg width="26" height="26" viewBox="0 0 26 26" fill="none" xmlns="http://www.w3.org/2000/svg">
<path fill-rule="evenodd" clip-rule="evenodd" d="M2.16699 13C2.16699 7.01677 7.01708 2.16669 13.0003 2.16669C18.9836 2.16669 23.8337 7.01677 23.8337 13C23.8337 18.9833 18.9836 23.8334 13.0003 23.8334C7.01708 23.8334 2.16699 18.9833 2.16699 13ZM13.0003 4.33335C10.7018 4.33335 8.49738 5.24645 6.87207 6.87176C5.24675 8.49708 4.33366 10.7015 4.33366 13C4.33366 15.2986 5.24675 17.503 6.87207 19.1283C8.49738 20.7536 10.7018 21.6667 13.0003 21.6667C15.2989 21.6667 17.5033 20.7536 19.1286 19.1283C20.7539 17.503 21.667 15.2986 21.667 13C21.667 10.7015 20.7539 8.49708 19.1286 6.87176C17.5033 5.24645 15.2989 4.33335 13.0003 4.33335Z" fill="#6695FF"/>
<path fill-rule="evenodd" clip-rule="evenodd" d="M14.0833 7.58333C14.0833 7.29602 13.9692 7.02047 13.766 6.8173C13.5629 6.61414 13.2873 6.5 13 6.5C12.7127 6.5 12.4371 6.61414 12.234 6.8173C12.0308 7.02047 11.9167 7.29602 11.9167 7.58333V11.9167H7.58333C7.29602 11.9167 7.02047 12.0308 6.8173 12.234C6.61414 12.4371 6.5 12.7127 6.5 13C6.5 13.2873 6.61414 13.5629 6.8173 13.766C7.02047 13.9692 7.29602 14.0833 7.58333 14.0833H11.9167V18.4167C11.9167 18.704 12.0308 18.9795 12.234 19.1827C12.4371 19.3859 12.7127 19.5 13 19.5C13.2873 19.5 13.5629 19.3859 13.766 19.1827C13.9692 18.9795 14.0833 18.704 14.0833 18.4167V14.0833H18.4167C18.704 14.0833 18.9795 13.9692 19.1827 13.766C19.3859 13.5629 19.5 13.2873 19.5 13C19.5 12.7127 19.3859 12.4371 19.1827 12.234C18.9795 12.0308 18.704 11.9167 18.4167 11.9167H14.0833V7.58333Z" fill="#6695FF"/>
</svg>
