<svg width="212" height="211" viewBox="0 0 212 211" fill="none" xmlns="http://www.w3.org/2000/svg">
<circle cx="91.5" cy="91.5" r="91.5" fill="#6695FF"/>
<g filter="url(#filter0_d_170_14854)">
<circle cx="164.226" cy="144.096" r="18.741" fill="white"/>
</g>
<g clip-path="url(#clip0_170_14854)">
<path d="M153.491 146.263C153.673 146.263 153.847 146.335 153.976 146.464C154.105 146.592 154.177 146.767 154.177 146.949V150.38C154.177 150.744 154.322 151.093 154.579 151.351C154.837 151.608 155.186 151.753 155.55 151.753H172.02C172.384 151.753 172.733 151.608 172.99 151.351C173.248 151.093 173.392 150.744 173.392 150.38V146.949C173.392 146.767 173.464 146.592 173.593 146.464C173.722 146.335 173.896 146.263 174.078 146.263C174.26 146.263 174.435 146.335 174.564 146.464C174.692 146.592 174.765 146.767 174.765 146.949V150.38C174.765 151.108 174.475 151.806 173.961 152.321C173.446 152.836 172.748 153.125 172.02 153.125H155.55C154.822 153.125 154.123 152.836 153.609 152.321C153.094 151.806 152.805 151.108 152.805 150.38V146.949C152.805 146.767 152.877 146.592 153.006 146.464C153.134 146.335 153.309 146.263 153.491 146.263Z" fill="#363848"/>
<path d="M163.299 134.248C163.363 134.184 163.439 134.133 163.522 134.099C163.605 134.064 163.695 134.046 163.785 134.046C163.875 134.046 163.965 134.064 164.048 134.099C164.131 134.133 164.207 134.184 164.271 134.248L168.388 138.365C168.517 138.494 168.59 138.669 168.59 138.851C168.59 139.033 168.517 139.208 168.388 139.337C168.26 139.466 168.085 139.538 167.903 139.538C167.72 139.538 167.546 139.466 167.417 139.337L164.471 136.39V148.459C164.471 148.641 164.399 148.815 164.27 148.944C164.142 149.073 163.967 149.145 163.785 149.145C163.603 149.145 163.429 149.073 163.3 148.944C163.171 148.815 163.099 148.641 163.099 148.459V136.39L160.153 139.337C160.09 139.401 160.014 139.452 159.931 139.486C159.847 139.521 159.758 139.538 159.668 139.538C159.577 139.538 159.488 139.521 159.405 139.486C159.321 139.452 159.246 139.401 159.182 139.337C159.118 139.273 159.067 139.198 159.033 139.114C158.998 139.031 158.98 138.941 158.98 138.851C158.98 138.761 158.998 138.672 159.033 138.588C159.067 138.505 159.118 138.429 159.182 138.365L163.299 134.248Z" fill="#363848"/>
</g>
<path d="M33.7364 96.9182C32.9389 101.842 32.9486 109.214 38.059 115.069C40.5317 117.903 42.0712 121.418 42.5172 125.154C43.4408 132.89 47.7271 144.898 65.4511 144.716C107.973 134.245 46.4906 66.3292 33.7364 96.9182Z" fill="black"/>
<path d="M149.24 96.9182C150.037 101.842 150.028 109.214 144.917 115.069C142.445 117.903 140.905 121.418 140.459 125.154C139.536 132.89 135.249 144.898 117.525 144.716C75.0033 134.245 136.485 66.3292 149.24 96.9182Z" fill="black"/>
<path d="M110.143 133.435C99.108 124.75 85.3224 124.759 72.8333 133.435C67.5291 138.413 64.2148 145.487 64.2148 151.513H72.8333H82.3971H100.579H110.143H118.762C118.762 145.487 115.448 138.413 110.143 133.435Z" fill="#C1D4FF"/>
<path d="M110.143 133.435V151.513C107.212 151.513 103.966 151.513 100.579 151.513V133.435C100.579 127.721 110.143 127.721 110.143 133.435Z" fill="#5C5C5C"/>
<path d="M82.3968 133.435V151.513C78.9882 151.513 75.7396 151.513 72.833 151.513V133.435C72.8328 126.832 82.3968 126.832 82.3968 133.435Z" fill="#5C5C5C"/>
<path d="M148.43 81.4195C148.43 87.5493 124.943 87.5493 124.943 81.4195V79.2642C124.943 69.521 132.842 61.6226 142.585 61.6226C144.82 65.2299 148.163 72.1246 148.43 81.4195Z" fill="black"/>
<path d="M34.5459 81.4195C34.5459 87.5493 58.0325 87.5493 58.0325 81.4195V79.2642C58.0325 69.521 50.134 61.6226 40.3908 61.6226C38.1557 65.2299 34.8127 72.1246 34.5459 81.4195Z" fill="black"/>
<path d="M151.49 89.6937C151.49 97.15 145.074 103.104 137.488 102.358C126.301 102.803 125.299 77.6144 136.486 77.1696C144.323 75.7521 151.49 81.7848 151.49 89.6937Z" fill="#FFCEBF"/>
<path d="M46.4913 77.1696C58.8987 77.6629 57.8974 102.851 45.49 102.358C37.8936 103.105 31.4873 97.1411 31.4873 89.6936C31.4873 81.8483 38.5846 75.7392 46.4913 77.1696Z" fill="#FFB09E"/>
<path d="M138.762 91.5119C138.762 83.2092 136.609 75.4573 132.697 68.7791C127.584 62.8415 117.002 58.9145 104.965 57.1835C41.1274 57.8639 41.9561 135.616 105.793 134.936C124.909 129.328 138.762 112.632 138.762 91.5119Z" fill="#FFDFCF"/>
<path d="M72.8326 91.5118C72.8326 85.0925 74.12 78.9993 76.5152 73.4763C78.2979 69.3653 81.263 65.8519 85.1086 63.552C90.3335 60.4274 97.3086 58.3211 104.964 57.1834C84.1976 54.1968 59.1008 57.745 50.2795 68.779C46.3652 75.4608 44.2139 83.2135 44.2139 91.5118C44.2139 117.528 65.2835 136.968 91.4879 136.968C96.4744 136.968 101.28 136.26 105.793 134.936C86.6361 129.316 72.8326 112.569 72.8326 91.5118Z" fill="#FFCEBF"/>
<path d="M125.392 47.8841C120.362 39.4317 110.875 33.8751 99.4754 32.1139C75.003 31.5103 53.8404 48.7861 73.7829 60.4115C94.7002 64.5058 127.934 59.8991 125.392 47.8841Z" fill="#C1D4FF"/>
<path d="M75.9581 48.1058C81.5831 39.4552 89.906 33.8771 99.4763 32.114C96.9014 31.7161 94.2295 31.5104 91.4885 31.5104C76.6129 31.5104 63.7497 37.5226 57.5846 47.8842C56.1731 54.2721 63.4862 58.3959 73.7838 60.4116C72.8513 56.3491 73.4878 51.9054 75.9581 48.1058Z" fill="#DEE8FE"/>
<path d="M132.402 51.1327C129.485 48.0109 124.888 46.9318 120.775 48.786C111.611 52.9315 99.9118 57.3219 91.4874 57.3219C84.6272 57.3219 75.8901 54.4056 69.5365 51.8998C55.3099 47.8742 49.1717 60.7233 63.4211 68.5131C89.267 77.4042 141.839 71.1309 132.402 51.1327Z" fill="#F1F1FA"/>
<path d="M69.538 51.8997C66.993 50.896 64.5159 49.8334 62.2009 48.7859C58.0754 46.9262 53.4824 48.0205 50.5738 51.1326C47.3282 59.2856 53.3547 65.0494 63.4226 68.5128C59.8295 62.3289 62.7173 54.3114 69.538 51.8997Z" fill="#D8D8FA"/>
<path d="M142.427 51.443C139.782 48.7981 135.552 48.5557 132.66 50.9265C112.073 67.9841 82.7424 70.169 59.9331 57.4958C47.911 52.5979 40.3909 61.0261 53.8513 70.8103C82.0001 85.9141 116.914 82.7015 141.853 62.306C145.297 59.4682 145.426 54.4464 142.427 51.443Z" fill="#C1D4FF"/>
<path d="M59.9338 57.496C56.5737 55.629 53.3515 53.4412 50.3166 50.9267C47.4402 48.5672 43.2084 48.7835 40.549 51.4432C37.5463 54.4483 37.6813 59.4696 41.1237 62.3065C45.149 65.5982 49.4148 68.4298 53.852 70.8107C51.9935 65.456 54.6802 59.5954 59.9338 57.496Z" fill="#DEE8FE"/>
<path d="M110.49 94.8916C106.616 94.8916 103.479 97.3911 103.479 100.475C103.479 103.558 106.616 106.058 110.49 106.058C114.362 106.058 117.501 103.558 117.501 100.475C117.501 97.3911 114.362 94.8916 110.49 94.8916ZM79.4978 100.475C79.4978 97.3911 76.3584 94.8916 72.4867 94.8916C68.615 94.8916 65.4756 97.3911 65.4756 100.475C65.4756 103.558 68.615 106.058 72.4867 106.058C76.3584 106.058 79.4978 103.558 79.4978 100.475Z" fill="#FFDFCF"/>
<path d="M110.49 106.058C114.362 106.058 117.501 103.558 117.501 100.475C117.501 97.3913 114.362 94.8916 110.49 94.8916C106.618 94.8916 103.479 97.3913 103.479 100.475C103.479 103.558 106.618 106.058 110.49 106.058Z" fill="#FFA0AB"/>
<path d="M72.4867 106.058C76.3589 106.058 79.4978 103.558 79.4978 100.475C79.4978 97.3913 76.3589 94.8916 72.4867 94.8916C68.6146 94.8916 65.4756 97.3913 65.4756 100.475C65.4756 103.558 68.6146 106.058 72.4867 106.058Z" fill="#FFA0AB"/>
<path d="M153.301 89.6937C153.301 86.4142 152.2 83.2801 150.216 80.7449C149.84 72.1051 146.9 65.4784 144.774 61.7605C147.303 58.0478 146.748 53.2081 143.708 50.1619C140.683 47.1367 136.081 46.6338 132.543 48.7946C130.798 47.3722 128.673 46.4508 126.454 46.1629C116.553 30.6697 93.8272 26.6502 76.6912 31.7906C75.7333 32.0779 75.1896 33.0874 75.4771 34.0455C75.7645 35.0034 76.7747 35.5471 77.7321 35.2596C92.5499 30.8146 112.566 33.6838 122.202 46.3931C121.466 46.5703 120.741 46.8156 120.03 47.136C107.919 52.6149 98.0491 55.5111 91.4885 55.5111C84.9279 55.5111 75.0585 52.6151 62.9447 47.1353C62.2345 46.8151 61.5051 46.5703 60.7667 46.3964C63.1851 43.2008 66.3673 40.5061 70.261 38.3652C71.1375 37.8832 71.4572 36.7819 70.9755 35.9057C70.4935 35.029 69.3922 34.7103 68.516 35.1912C63.3996 38.0044 59.3668 41.6977 56.5125 46.1757C54.3129 46.457 52.1997 47.3475 50.432 48.7926C46.9 46.6331 42.2959 47.1348 39.2678 50.1627C36.1743 53.2586 35.7129 58.1572 38.197 61.7699C36.0717 65.4897 33.1356 72.1126 32.7606 80.7458C30.7771 83.2787 29.6758 86.4125 29.6758 89.6932C29.6758 92.4071 30.4451 95.0453 31.8453 97.3191C31.083 102.737 31.3983 110.192 36.6944 116.259C38.9204 118.81 40.3119 121.96 40.719 125.368C42.1841 137.639 49.6429 145.765 63.0507 146.475C62.6281 148.185 62.4038 149.882 62.4038 151.513C62.4038 152.514 63.2144 153.324 64.2147 153.324H118.761C119.762 153.324 120.572 152.514 120.572 151.513C120.572 149.882 120.348 148.185 119.925 146.475C133.35 145.763 140.796 137.604 142.257 125.369C142.664 121.961 144.056 118.81 146.281 116.26C151.578 110.192 151.893 102.737 151.131 97.3191C152.532 95.0453 153.301 92.4071 153.301 89.6937ZM142.108 64.4215C143.656 67.3134 145.493 71.7043 146.265 77.243C143.698 75.6915 140.715 74.9726 137.703 75.1941C136.973 73.1989 136.109 71.2598 135.111 69.3924C137.524 67.864 139.86 66.2061 142.108 64.4215ZM139.731 100.561C141.047 93.6342 140.874 86.0892 138.853 78.7789C144.841 78.8241 149.679 83.7039 149.679 89.6937C149.679 95.1803 145.527 100.036 139.731 100.561ZM91.4883 59.1329C98.6609 59.1329 108.766 56.207 121.52 50.4369C124.22 49.2195 127.171 49.5153 129.55 51.0814C107.422 67.9159 75.5515 67.9151 53.4176 51.0741C54.6676 50.2392 56.0922 49.7717 57.5551 49.6947C57.565 49.6947 57.5745 49.6962 57.5844 49.6962C57.6244 49.6962 57.6631 49.6906 57.7027 49.6882C58.9563 49.6447 60.2348 49.8867 61.4539 50.436C74.2107 56.207 84.3156 59.1329 91.4883 59.1329ZM41.8294 52.7235C43.8386 50.7139 46.9937 50.5432 49.1607 52.3213C73.4967 72.4854 109.627 72.3632 133.808 52.3271C135.983 50.5444 139.138 50.7141 141.146 52.7223C143.386 54.9657 143.324 58.7476 140.707 60.9045C112.19 84.2264 70.7932 84.2274 42.2742 60.9084C39.6305 58.729 39.6078 54.9471 41.8294 52.7235ZM33.2976 89.6937C33.2976 83.6911 38.1494 78.8296 44.1235 78.7801C42.1073 86.0738 41.9233 93.5864 43.2557 100.561C37.5878 100.053 33.2976 95.3188 33.2976 89.6937ZM45.2735 75.1936C42.2655 74.9726 39.2818 75.6936 36.7111 77.2479C37.4825 71.7067 39.3205 67.3142 40.8689 64.4213C43.1161 66.2064 45.4522 67.8647 47.8651 69.3929C46.8671 71.26 46.0035 73.1992 45.2735 75.1936ZM44.3154 124.939C43.8217 120.805 42.13 116.98 39.4233 113.878C35.9775 109.93 35.0795 105.178 35.1653 101.068C37.6778 103.068 40.8209 104.207 44.11 104.23C47.8796 117.88 57.5011 128.414 69.7025 134.065C67.3647 136.705 65.4848 139.759 64.2181 142.896C49.5408 142.546 45.2786 133.005 44.3154 124.939ZM108.332 136.021V149.703H102.39V137.648C104.412 137.222 106.396 136.679 108.332 136.021ZM98.7686 149.702H84.2082V138.286C88.9998 138.941 93.9139 138.947 98.7686 138.277V149.702ZM80.5863 149.702H74.6444V136.041C76.5787 136.696 78.562 137.239 80.5863 137.662V149.702ZM71.0223 138.161V149.703H66.1309C66.5969 145.594 68.5418 141.449 71.0223 138.161ZM111.954 149.702V138.16C114.435 141.448 116.38 145.593 116.846 149.702H111.954ZM143.553 113.878C140.846 116.98 139.155 120.805 138.661 124.94C137.698 133.005 133.438 142.547 118.758 142.896C117.49 139.755 115.606 136.696 113.263 134.053C117.205 132.23 120.883 129.903 124.186 127.109C124.95 126.462 125.045 125.32 124.399 124.556C123.753 123.793 122.611 123.698 121.847 124.344C113.605 131.317 102.824 135.157 91.4885 135.157C65.9952 135.157 46.0254 115.986 46.0254 91.5118C46.0254 84.3534 47.734 77.3937 50.9731 71.2656C76.0796 85.6336 106.876 85.6401 132.003 71.2641C139.539 85.516 138.809 104.593 127.538 118.531C126.91 119.309 127.03 120.449 127.808 121.078C128.583 121.704 129.723 121.59 130.355 120.809C134.348 115.87 137.216 110.266 138.879 104.232C142.109 104.212 145.201 103.148 147.812 101.07C147.897 105.179 146.999 109.931 143.553 113.878Z" fill="black"/>
<path d="M76.5738 89.2501C73.7346 89.2501 71.4248 91.5599 71.4248 94.3991C71.4248 95.3995 72.2354 96.2101 73.2357 96.2101C74.2361 96.2101 75.0466 95.3995 75.0466 94.3991C75.0466 93.5572 75.7319 92.8719 76.5738 92.8719C77.4146 92.8719 78.0986 93.5572 78.0986 94.3991C78.0986 95.3995 78.9092 96.2101 79.9095 96.2101C80.9099 96.2101 81.7204 95.3995 81.7204 94.3991C81.7204 91.5601 79.4117 89.2501 76.5738 89.2501Z" fill="black"/>
<path d="M106.403 89.2501C103.566 89.2501 101.257 91.5599 101.257 94.3991C101.257 95.3995 102.067 96.2101 103.068 96.2101C104.068 96.2101 104.879 95.3995 104.879 94.3991C104.879 93.5572 105.563 92.8719 106.403 92.8719C107.245 92.8719 107.931 93.5572 107.931 94.3991C107.931 95.3995 108.741 96.2101 109.742 96.2101C110.742 96.2101 111.552 95.3995 111.552 94.3991C111.552 91.5601 109.243 89.2501 106.403 89.2501Z" fill="black"/>
<path d="M96.2181 96.9351C95.4647 96.2781 94.3207 96.3559 93.663 97.1097C93.1052 97.7488 92.3331 98.1011 91.4885 98.1011C90.6436 98.1011 89.8712 97.7491 89.3134 97.1097C88.6557 96.3559 87.5119 96.2784 86.7584 96.9351C86.0045 97.5929 85.9265 98.7366 86.5838 99.4902C87.8217 100.909 89.6092 101.723 91.4885 101.723C93.3675 101.723 95.155 100.909 96.3927 99.4902C97.0499 98.7366 96.9719 97.5926 96.2181 96.9351Z" fill="black"/>
<defs>
<filter id="filter0_d_170_14854" x="116.485" y="115.355" width="95.4819" height="95.4819" filterUnits="userSpaceOnUse" color-interpolation-filters="sRGB">
<feFlood flood-opacity="0" result="BackgroundImageFix"/>
<feColorMatrix in="SourceAlpha" type="matrix" values="0 0 0 0 0 0 0 0 0 0 0 0 0 0 0 0 0 0 127 0" result="hardAlpha"/>
<feOffset dy="19"/>
<feGaussianBlur stdDeviation="14.5"/>
<feComposite in2="hardAlpha" operator="out"/>
<feColorMatrix type="matrix" values="0 0 0 0 0.243137 0 0 0 0 0.207843 0 0 0 0 0.470588 0 0 0 0.14 0"/>
<feBlend mode="normal" in2="BackgroundImageFix" result="effect1_dropShadow_170_14854"/>
<feBlend mode="normal" in="SourceGraphic" in2="effect1_dropShadow_170_14854" result="shape"/>
</filter>
<clipPath id="clip0_170_14854">
<rect width="21.96" height="21.96" fill="white" transform="translate(152.805 132.675)"/>
</clipPath>
</defs>
</svg>
