<svg width="132" height="92" viewBox="0 0 132 92" fill="none" xmlns="http://www.w3.org/2000/svg">
<circle cx="12" cy="12" r="12" fill="#6695FF"/>
<path d="M41.44 12.272C42.0693 12.3893 42.5867 12.704 42.992 13.216C43.3973 13.728 43.6 14.3147 43.6 14.976C43.6 15.5733 43.4507 16.1013 43.152 16.56C42.864 17.008 42.4427 17.36 41.888 17.616C41.3333 17.872 40.6773 18 39.92 18H35.104V6.832H39.712C40.4693 6.832 41.12 6.95467 41.664 7.2C42.2187 7.44533 42.6347 7.78667 42.912 8.224C43.2 8.66133 43.344 9.15733 43.344 9.712C43.344 10.3627 43.168 10.9067 42.816 11.344C42.4747 11.7813 42.016 12.0907 41.44 12.272ZM37.344 11.44H39.392C39.9253 11.44 40.336 11.3227 40.624 11.088C40.912 10.8427 41.056 10.496 41.056 10.048C41.056 9.6 40.912 9.25333 40.624 9.008C40.336 8.76267 39.9253 8.64 39.392 8.64H37.344V11.44ZM39.6 16.176C40.144 16.176 40.5653 16.048 40.864 15.792C41.1733 15.536 41.328 15.1733 41.328 14.704C41.328 14.224 41.168 13.8507 40.848 13.584C40.528 13.3067 40.096 13.168 39.552 13.168H37.344V16.176H39.6ZM49.3213 18.144C48.4679 18.144 47.6999 17.9573 47.0173 17.584C46.3346 17.2 45.7959 16.6613 45.4013 15.968C45.0173 15.2747 44.8253 14.4747 44.8253 13.568C44.8253 12.6613 45.0226 11.8613 45.4173 11.168C45.8226 10.4747 46.3719 9.94133 47.0653 9.568C47.7586 9.184 48.5319 8.992 49.3853 8.992C50.2386 8.992 51.0119 9.184 51.7053 9.568C52.3986 9.94133 52.9426 10.4747 53.3373 11.168C53.7426 11.8613 53.9453 12.6613 53.9453 13.568C53.9453 14.4747 53.7373 15.2747 53.3212 15.968C52.9159 16.6613 52.3613 17.2 51.6573 17.584C50.9639 17.9573 50.1853 18.144 49.3213 18.144ZM49.3213 16.192C49.7266 16.192 50.1053 16.096 50.4573 15.904C50.8199 15.7013 51.1079 15.4027 51.3213 15.008C51.5346 14.6133 51.6413 14.1333 51.6413 13.568C51.6413 12.7253 51.4173 12.08 50.9693 11.632C50.5319 11.1733 49.9933 10.944 49.3533 10.944C48.7133 10.944 48.1746 11.1733 47.7373 11.632C47.3106 12.08 47.0973 12.7253 47.0973 13.568C47.0973 14.4107 47.3053 15.0613 47.7213 15.52C48.1479 15.968 48.6813 16.192 49.3213 16.192ZM59.5244 18.144C58.671 18.144 57.903 17.9573 57.2204 17.584C56.5377 17.2 55.999 16.6613 55.6044 15.968C55.2204 15.2747 55.0284 14.4747 55.0284 13.568C55.0284 12.6613 55.2257 11.8613 55.6204 11.168C56.0257 10.4747 56.575 9.94133 57.2684 9.568C57.9617 9.184 58.735 8.992 59.5884 8.992C60.4417 8.992 61.215 9.184 61.9084 9.568C62.6017 9.94133 63.1457 10.4747 63.5404 11.168C63.9457 11.8613 64.1484 12.6613 64.1484 13.568C64.1484 14.4747 63.9404 15.2747 63.5244 15.968C63.119 16.6613 62.5644 17.2 61.8604 17.584C61.167 17.9573 60.3884 18.144 59.5244 18.144ZM59.5244 16.192C59.9297 16.192 60.3084 16.096 60.6604 15.904C61.023 15.7013 61.311 15.4027 61.5244 15.008C61.7377 14.6133 61.8444 14.1333 61.8444 13.568C61.8444 12.7253 61.6204 12.08 61.1724 11.632C60.735 11.1733 60.1964 10.944 59.5564 10.944C58.9164 10.944 58.3777 11.1733 57.9404 11.632C57.5137 12.08 57.3004 12.7253 57.3004 13.568C57.3004 14.4107 57.5084 15.0613 57.9244 15.52C58.351 15.968 58.8844 16.192 59.5244 16.192ZM71.0395 18L68.0315 14.224V18H65.7915V6.16H68.0315V12.896L71.0075 9.136H73.9195L70.0155 13.584L73.9515 18H71.0395ZM83.3753 13.376C83.3753 13.696 83.3539 13.984 83.3113 14.24H76.8313C76.8846 14.88 77.1086 15.3813 77.5033 15.744C77.8979 16.1067 78.3833 16.288 78.9593 16.288C79.7913 16.288 80.3833 15.9307 80.7353 15.216H83.1513C82.8953 16.0693 82.4046 16.7733 81.6793 17.328C80.9539 17.872 80.0633 18.144 79.0073 18.144C78.1539 18.144 77.3859 17.9573 76.7033 17.584C76.0313 17.2 75.5033 16.6613 75.1193 15.968C74.7459 15.2747 74.5592 14.4747 74.5592 13.568C74.5592 12.6507 74.7459 11.8453 75.1193 11.152C75.4926 10.4587 76.0153 9.92533 76.6873 9.552C77.3593 9.17867 78.1326 8.992 79.0073 8.992C79.8499 8.992 80.6019 9.17333 81.2633 9.536C81.9353 9.89867 82.4526 10.416 82.8153 11.088C83.1886 11.7493 83.3753 12.512 83.3753 13.376ZM81.0553 12.736C81.0446 12.16 80.8366 11.7013 80.4313 11.36C80.0259 11.008 79.5299 10.832 78.9433 10.832C78.3886 10.832 77.9193 11.0027 77.5353 11.344C77.1619 11.6747 76.9326 12.1387 76.8473 12.736H81.0553ZM84.4342 13.536C84.4342 12.64 84.6102 11.8453 84.9622 11.152C85.3249 10.4587 85.8156 9.92533 86.4343 9.552C87.0529 9.17867 87.7409 8.992 88.4983 8.992C89.0743 8.992 89.6236 9.12 90.1463 9.376C90.6689 9.62133 91.0849 9.952 91.3943 10.368V6.16H93.6663V18H91.3943V16.688C91.1169 17.1253 90.7276 17.4773 90.2263 17.744C89.7249 18.0107 89.1436 18.144 88.4823 18.144C87.7356 18.144 87.0529 17.952 86.4343 17.568C85.8156 17.184 85.3249 16.6453 84.9622 15.952C84.6102 15.248 84.4342 14.4427 84.4342 13.536ZM91.4103 13.568C91.4103 13.024 91.3036 12.56 91.0903 12.176C90.8769 11.7813 90.5889 11.4827 90.2263 11.28C89.8636 11.0667 89.4743 10.96 89.0583 10.96C88.6423 10.96 88.2583 11.0613 87.9062 11.264C87.5543 11.4667 87.2663 11.7653 87.0423 12.16C86.8289 12.544 86.7223 13.0027 86.7223 13.536C86.7223 14.0693 86.8289 14.5387 87.0423 14.944C87.2663 15.3387 87.5543 15.6427 87.9062 15.856C88.2689 16.0693 88.6529 16.176 89.0583 16.176C89.4743 16.176 89.8636 16.0747 90.2263 15.872C90.5889 15.6587 90.8769 15.36 91.0903 14.976C91.3036 14.5813 91.4103 14.112 91.4103 13.568Z" fill="#3E3E3E"/>
<circle cx="12" cy="46" r="12" fill="#D9D9D9"/>
<path d="M41.952 49.872H37.504L36.768 52H34.416L38.432 40.816H41.04L45.056 52H42.688L41.952 49.872ZM41.344 48.08L39.728 43.408L38.112 48.08H41.344ZM50.2531 49.936L52.4931 43.136H54.8771L51.5971 52H48.8771L45.6131 43.136H48.0131L50.2531 49.936ZM55.5592 47.536C55.5592 46.64 55.7352 45.8453 56.0872 45.152C56.4499 44.4587 56.9353 43.9253 57.5433 43.552C58.1619 43.1787 58.8499 42.992 59.6073 42.992C60.2686 42.992 60.8446 43.1253 61.3353 43.392C61.8366 43.6587 62.2366 43.9947 62.5353 44.4V43.136H64.7913V52H62.5353V50.704C62.2473 51.12 61.8473 51.4667 61.3353 51.744C60.8339 52.0107 60.2526 52.144 59.5913 52.144C58.8446 52.144 58.1619 51.952 57.5433 51.568C56.9353 51.184 56.4499 50.6453 56.0872 49.952C55.7352 49.248 55.5592 48.4427 55.5592 47.536ZM62.5353 47.568C62.5353 47.024 62.4286 46.56 62.2153 46.176C62.0019 45.7813 61.7139 45.4827 61.3513 45.28C60.9886 45.0667 60.5993 44.96 60.1833 44.96C59.7673 44.96 59.3833 45.0613 59.0312 45.264C58.6793 45.4667 58.3913 45.7653 58.1673 46.16C57.9539 46.544 57.8473 47.0027 57.8473 47.536C57.8473 48.0693 57.9539 48.5387 58.1673 48.944C58.3913 49.3387 58.6793 49.6427 59.0312 49.856C59.3939 50.0693 59.7779 50.176 60.1833 50.176C60.5993 50.176 60.9886 50.0747 61.3513 49.872C61.7139 49.6587 62.0019 49.36 62.2153 48.976C62.4286 48.5813 62.5353 48.112 62.5353 47.568ZM68.115 42.08C67.7203 42.08 67.3897 41.9573 67.123 41.712C66.867 41.456 66.739 41.1413 66.739 40.768C66.739 40.3947 66.867 40.0853 67.123 39.84C67.3897 39.584 67.7203 39.456 68.115 39.456C68.5097 39.456 68.835 39.584 69.091 39.84C69.3577 40.0853 69.491 40.3947 69.491 40.768C69.491 41.1413 69.3577 41.456 69.091 41.712C68.835 41.9573 68.5097 42.08 68.115 42.08ZM69.219 43.136V52H66.979V43.136H69.219ZM73.6721 40.16V52H71.4321V40.16H73.6721ZM75.3092 47.536C75.3092 46.64 75.4852 45.8453 75.8372 45.152C76.1999 44.4587 76.6853 43.9253 77.2933 43.552C77.9119 43.1787 78.5999 42.992 79.3573 42.992C80.0186 42.992 80.5946 43.1253 81.0853 43.392C81.5866 43.6587 81.9866 43.9947 82.2853 44.4V43.136H84.5413V52H82.2853V50.704C81.9973 51.12 81.5973 51.4667 81.0853 51.744C80.5839 52.0107 80.0026 52.144 79.3413 52.144C78.5946 52.144 77.9119 51.952 77.2933 51.568C76.6853 51.184 76.1999 50.6453 75.8372 49.952C75.4852 49.248 75.3092 48.4427 75.3092 47.536ZM82.2853 47.568C82.2853 47.024 82.1786 46.56 81.9653 46.176C81.7519 45.7813 81.4639 45.4827 81.1013 45.28C80.7386 45.0667 80.3493 44.96 79.9333 44.96C79.5173 44.96 79.1333 45.0613 78.7812 45.264C78.4293 45.4667 78.1413 45.7653 77.9173 46.16C77.7039 46.544 77.5973 47.0027 77.5973 47.536C77.5973 48.0693 77.7039 48.5387 77.9173 48.944C78.1413 49.3387 78.4293 49.6427 78.7812 49.856C79.1439 50.0693 79.5279 50.176 79.9333 50.176C80.3493 50.176 80.7386 50.0747 81.1013 49.872C81.4639 49.6587 81.7519 49.36 81.9653 48.976C82.1786 48.5813 82.2853 48.112 82.2853 47.568ZM88.969 44.432C89.257 44.0053 89.6517 43.6587 90.153 43.392C90.665 43.1253 91.2463 42.992 91.897 42.992C92.6543 42.992 93.337 43.1787 93.945 43.552C94.5637 43.9253 95.049 44.4587 95.401 45.152C95.7637 45.8347 95.945 46.6293 95.945 47.536C95.945 48.4427 95.7637 49.248 95.401 49.952C95.049 50.6453 94.5637 51.184 93.945 51.568C93.337 51.952 92.6543 52.144 91.897 52.144C91.2357 52.144 90.6543 52.016 90.153 51.76C89.6623 51.4933 89.2677 51.152 88.969 50.736V52H86.729V40.16H88.969V44.432ZM93.657 47.536C93.657 47.0027 93.545 46.544 93.321 46.16C93.1077 45.7653 92.8197 45.4667 92.457 45.264C92.105 45.0613 91.721 44.96 91.305 44.96C90.8997 44.96 90.5157 45.0667 90.153 45.28C89.801 45.4827 89.513 45.7813 89.289 46.176C89.0757 46.5707 88.969 47.0347 88.969 47.568C88.969 48.1013 89.0757 48.5653 89.289 48.96C89.513 49.3547 89.801 49.6587 90.153 49.872C90.5157 50.0747 90.8997 50.176 91.305 50.176C91.721 50.176 92.105 50.0693 92.457 49.856C92.8197 49.6427 93.1077 49.3387 93.321 48.944C93.545 48.5493 93.657 48.08 93.657 47.536ZM99.8128 40.16V52H97.5728V40.16H99.8128ZM110.266 47.376C110.266 47.696 110.245 47.984 110.202 48.24H103.722C103.775 48.88 103.999 49.3813 104.394 49.744C104.789 50.1067 105.274 50.288 105.85 50.288C106.682 50.288 107.274 49.9307 107.626 49.216H110.042C109.786 50.0693 109.295 50.7733 108.57 51.328C107.845 51.872 106.954 52.144 105.898 52.144C105.045 52.144 104.277 51.9573 103.594 51.584C102.922 51.2 102.394 50.6613 102.01 49.968C101.637 49.2747 101.45 48.4747 101.45 47.568C101.45 46.6507 101.637 45.8453 102.01 45.152C102.383 44.4587 102.906 43.9253 103.578 43.552C104.25 43.1787 105.023 42.992 105.898 42.992C106.741 42.992 107.493 43.1733 108.154 43.536C108.826 43.8987 109.343 44.416 109.706 45.088C110.079 45.7493 110.266 46.512 110.266 47.376ZM107.946 46.736C107.935 46.16 107.727 45.7013 107.322 45.36C106.917 45.008 106.421 44.832 105.834 44.832C105.279 44.832 104.81 45.0027 104.426 45.344C104.053 45.6747 103.823 46.1387 103.738 46.736H107.946Z" fill="#3E3E3E"/>
<circle cx="12" cy="80" r="12" fill="#888888"/>
<path d="M37.312 74.832V81.744C37.312 82.5013 37.5093 83.0827 37.904 83.488C38.2987 83.8827 38.8533 84.08 39.568 84.08C40.2933 84.08 40.8533 83.8827 41.248 83.488C41.6427 83.0827 41.84 82.5013 41.84 81.744V74.832H44.096V81.728C44.096 82.6773 43.888 83.4827 43.472 84.144C43.0667 84.7947 42.5173 85.2853 41.824 85.616C41.1413 85.9467 40.3787 86.112 39.536 86.112C38.704 86.112 37.9467 85.9467 37.264 85.616C36.592 85.2853 36.0587 84.7947 35.664 84.144C35.2693 83.4827 35.072 82.6773 35.072 81.728V74.832H37.312ZM51.1723 77.008C52.2283 77.008 53.0816 77.344 53.7323 78.016C54.3829 78.6773 54.7083 79.6053 54.7083 80.8V86H52.4683V81.104C52.4683 80.4 52.2923 79.8613 51.9403 79.488C51.5883 79.104 51.1083 78.912 50.5003 78.912C49.8816 78.912 49.3909 79.104 49.0283 79.488C48.6763 79.8613 48.5003 80.4 48.5003 81.104V86H46.2603V77.136H48.5003V78.24C48.7989 77.856 49.1776 77.5573 49.6363 77.344C50.1056 77.12 50.6176 77.008 51.1723 77.008ZM56.2624 81.536C56.2624 80.64 56.4384 79.8453 56.7904 79.152C57.153 78.4587 57.6384 77.9253 58.2464 77.552C58.865 77.1787 59.553 76.992 60.3104 76.992C60.9717 76.992 61.5477 77.1253 62.0384 77.392C62.5397 77.6587 62.9397 77.9947 63.2384 78.4V77.136H65.4944V86H63.2384V84.704C62.9504 85.12 62.5504 85.4667 62.0384 85.744C61.537 86.0107 60.9557 86.144 60.2944 86.144C59.5477 86.144 58.865 85.952 58.2464 85.568C57.6384 85.184 57.153 84.6453 56.7904 83.952C56.4384 83.248 56.2624 82.4427 56.2624 81.536ZM63.2384 81.568C63.2384 81.024 63.1317 80.56 62.9184 80.176C62.705 79.7813 62.417 79.4827 62.0544 79.28C61.6917 79.0667 61.3024 78.96 60.8864 78.96C60.4704 78.96 60.0864 79.0613 59.7344 79.264C59.3824 79.4667 59.0944 79.7653 58.8704 80.16C58.657 80.544 58.5504 81.0027 58.5504 81.536C58.5504 82.0693 58.657 82.5387 58.8704 82.944C59.0944 83.3387 59.3824 83.6427 59.7344 83.856C60.097 84.0693 60.481 84.176 60.8864 84.176C61.3024 84.176 61.6917 84.0747 62.0544 83.872C62.417 83.6587 62.705 83.36 62.9184 82.976C63.1317 82.5813 63.2384 82.112 63.2384 81.568ZM71.3781 83.936L73.6181 77.136H76.0021L72.7221 86H70.0021L66.7381 77.136H69.1381L71.3781 83.936ZM76.6842 81.536C76.6842 80.64 76.8602 79.8453 77.2122 79.152C77.5749 78.4587 78.0603 77.9253 78.6683 77.552C79.2869 77.1787 79.9749 76.992 80.7323 76.992C81.3936 76.992 81.9696 77.1253 82.4603 77.392C82.9616 77.6587 83.3616 77.9947 83.6603 78.4V77.136H85.9163V86H83.6603V84.704C83.3723 85.12 82.9723 85.4667 82.4603 85.744C81.9589 86.0107 81.3776 86.144 80.7163 86.144C79.9696 86.144 79.2869 85.952 78.6683 85.568C78.0603 85.184 77.5749 84.6453 77.2122 83.952C76.8602 83.248 76.6842 82.4427 76.6842 81.536ZM83.6603 81.568C83.6603 81.024 83.5536 80.56 83.3403 80.176C83.1269 79.7813 82.8389 79.4827 82.4763 79.28C82.1136 79.0667 81.7243 78.96 81.3083 78.96C80.8923 78.96 80.5083 79.0613 80.1562 79.264C79.8043 79.4667 79.5163 79.7653 79.2923 80.16C79.0789 80.544 78.9723 81.0027 78.9723 81.536C78.9723 82.0693 79.0789 82.5387 79.2923 82.944C79.5163 83.3387 79.8043 83.6427 80.1562 83.856C80.5189 84.0693 80.9029 84.176 81.3083 84.176C81.7243 84.176 82.1136 84.0747 82.4763 83.872C82.8389 83.6587 83.1269 83.36 83.3403 82.976C83.5536 82.5813 83.6603 82.112 83.6603 81.568ZM89.24 76.08C88.8453 76.08 88.5147 75.9573 88.248 75.712C87.992 75.456 87.864 75.1413 87.864 74.768C87.864 74.3947 87.992 74.0853 88.248 73.84C88.5147 73.584 88.8453 73.456 89.24 73.456C89.6347 73.456 89.96 73.584 90.216 73.84C90.4827 74.0853 90.616 74.3947 90.616 74.768C90.616 75.1413 90.4827 75.456 90.216 75.712C89.96 75.9573 89.6347 76.08 89.24 76.08ZM90.344 77.136V86H88.104V77.136H90.344ZM94.7971 74.16V86H92.5571V74.16H94.7971ZM96.4342 81.536C96.4342 80.64 96.6102 79.8453 96.9622 79.152C97.3249 78.4587 97.8103 77.9253 98.4183 77.552C99.0369 77.1787 99.7249 76.992 100.482 76.992C101.144 76.992 101.72 77.1253 102.21 77.392C102.712 77.6587 103.112 77.9947 103.41 78.4V77.136H105.666V86H103.41V84.704C103.122 85.12 102.722 85.4667 102.21 85.744C101.709 86.0107 101.128 86.144 100.466 86.144C99.7196 86.144 99.0369 85.952 98.4183 85.568C97.8103 85.184 97.3249 84.6453 96.9622 83.952C96.6102 83.248 96.4342 82.4427 96.4342 81.536ZM103.41 81.568C103.41 81.024 103.304 80.56 103.09 80.176C102.877 79.7813 102.589 79.4827 102.226 79.28C101.864 79.0667 101.474 78.96 101.058 78.96C100.642 78.96 100.258 79.0613 99.9062 79.264C99.5543 79.4667 99.2663 79.7653 99.0423 80.16C98.8289 80.544 98.7223 81.0027 98.7223 81.536C98.7223 82.0693 98.8289 82.5387 99.0423 82.944C99.2663 83.3387 99.5543 83.6427 99.9062 83.856C100.269 84.0693 100.653 84.176 101.058 84.176C101.474 84.176 101.864 84.0747 102.226 83.872C102.589 83.6587 102.877 83.36 103.09 82.976C103.304 82.5813 103.41 82.112 103.41 81.568ZM110.094 78.432C110.382 78.0053 110.777 77.6587 111.278 77.392C111.79 77.1253 112.371 76.992 113.022 76.992C113.779 76.992 114.462 77.1787 115.07 77.552C115.689 77.9253 116.174 78.4587 116.526 79.152C116.889 79.8347 117.07 80.6293 117.07 81.536C117.07 82.4427 116.889 83.248 116.526 83.952C116.174 84.6453 115.689 85.184 115.07 85.568C114.462 85.952 113.779 86.144 113.022 86.144C112.361 86.144 111.779 86.016 111.278 85.76C110.787 85.4933 110.393 85.152 110.094 84.736V86H107.854V74.16H110.094V78.432ZM114.782 81.536C114.782 81.0027 114.67 80.544 114.446 80.16C114.233 79.7653 113.945 79.4667 113.582 79.264C113.23 79.0613 112.846 78.96 112.43 78.96C112.025 78.96 111.641 79.0667 111.278 79.28C110.926 79.4827 110.638 79.7813 110.414 80.176C110.201 80.5707 110.094 81.0347 110.094 81.568C110.094 82.1013 110.201 82.5653 110.414 82.96C110.638 83.3547 110.926 83.6587 111.278 83.872C111.641 84.0747 112.025 84.176 112.43 84.176C112.846 84.176 113.23 84.0693 113.582 83.856C113.945 83.6427 114.233 83.3387 114.446 82.944C114.67 82.5493 114.782 82.08 114.782 81.536ZM120.938 74.16V86H118.698V74.16H120.938ZM131.391 81.376C131.391 81.696 131.37 81.984 131.327 82.24H124.847C124.9 82.88 125.124 83.3813 125.519 83.744C125.914 84.1067 126.399 84.288 126.975 84.288C127.807 84.288 128.399 83.9307 128.751 83.216H131.167C130.911 84.0693 130.42 84.7733 129.695 85.328C128.97 85.872 128.079 86.144 127.023 86.144C126.17 86.144 125.402 85.9573 124.719 85.584C124.047 85.2 123.519 84.6613 123.135 83.968C122.762 83.2747 122.575 82.4747 122.575 81.568C122.575 80.6507 122.762 79.8453 123.135 79.152C123.508 78.4587 124.031 77.9253 124.703 77.552C125.375 77.1787 126.148 76.992 127.023 76.992C127.866 76.992 128.618 77.1733 129.279 77.536C129.951 77.8987 130.468 78.416 130.831 79.088C131.204 79.7493 131.391 80.512 131.391 81.376ZM129.071 80.736C129.06 80.16 128.852 79.7013 128.447 79.36C128.042 79.008 127.546 78.832 126.959 78.832C126.404 78.832 125.935 79.0027 125.551 79.344C125.178 79.6747 124.948 80.1387 124.863 80.736H129.071Z" fill="#3E3E3E"/>
</svg>
