<svg width="62" height="62" viewBox="0 0 62 62" fill="none" xmlns="http://www.w3.org/2000/svg">
<g clip-path="url(#clip0_2023_4914)">
<path d="M16.7915 43.9167C18.9316 43.9167 20.6665 42.1819 20.6665 40.0417C20.6665 37.9016 18.9316 36.1667 16.7915 36.1667C14.6514 36.1667 12.9165 37.9016 12.9165 40.0417C12.9165 42.1819 14.6514 43.9167 16.7915 43.9167Z" fill="#6695FF"/>
<path d="M24.9347 22.2002C22.5071 25.9137 8.63037 33.062 8.63037 29.0216V41.5216L34.7121 46.9565C38.657 46.6471 38.8846 44.2488 38.5053 43.0884C40.6294 43.0884 40.6547 40.2517 40.4018 38.8334C43.1329 37.5956 42.5512 33.6758 41.9191 31.8707C43.1329 30.9423 42.9305 28.6472 42.6777 27.6157C42.9811 23.2833 37.4938 24.1303 34.7121 24.1303C35.9259 16.7034 33.5682 12.0448 30.913 12.1738C26.0578 11.5549 26.0217 18.6955 24.9347 22.2002Z" fill="#6695FF"/>
<path d="M9.9561 30.6413V46.2H16.5431L16.8757 46.2392C22.9909 47.6653 27.0431 48.6935 29.0626 49.3305C31.7452 50.1761 32.7452 50.3826 34.5648 50.5044C35.9257 50.5979 37.4713 50.074 38.1757 49.3566C38.5648 48.9609 38.8561 48.1479 38.9713 46.887C38.9952 46.6226 39.0897 46.3695 39.245 46.1541C39.4003 45.9388 39.6106 45.7692 39.8539 45.6631C40.3952 45.4283 40.8452 45.0457 41.2213 44.4892C41.5691 43.9805 41.7952 43.0326 41.8365 41.6609C41.8438 41.4087 41.9153 41.1626 42.0443 40.9457C42.1732 40.7289 42.3554 40.5486 42.5735 40.4218C43.8387 39.6892 44.4648 38.8631 44.5952 37.8935C44.7387 36.8218 44.3909 35.6153 43.48 34.2413C43.2663 33.9191 43.1867 33.5263 43.2582 33.1463C43.3296 32.7663 43.5465 32.4291 43.8626 32.2066C44.7344 31.5935 45.2126 30.7413 45.3322 29.5326C45.5235 27.6066 44.2952 26.1826 41.5148 25.8979C39.0384 25.6529 36.5382 25.8614 34.1365 26.5131C33.8641 26.5843 33.577 26.5762 33.309 26.4898C33.041 26.4033 32.8033 26.2421 32.6238 26.0252C32.4443 25.8082 32.3305 25.5445 32.2958 25.2651C32.2611 24.9857 32.3069 24.7021 32.4278 24.4479C33.5148 22.1479 34.1191 20.25 34.2605 18.7805C34.4452 16.8305 33.9952 15.4174 32.9431 14.2522C32.1452 13.3696 30.8691 12.8653 30.3909 12.9696C29.7605 13.1044 29.3496 13.4696 28.8148 14.7479C28.4996 15.5044 28.3474 16.1479 28.0865 17.65C27.8365 19.0761 27.6996 19.7196 27.4148 20.5631C26.5561 23.1196 24.4496 25.7696 21.6213 27.5979C19.6391 28.8777 17.4909 29.8798 15.2365 30.5761C15.0957 30.6195 14.9491 30.6415 14.8018 30.6413H9.9561ZM9.8648 49.1631C9.16262 49.1826 8.53219 49.0261 8.00393 48.6566C7.33002 48.1848 7.01262 47.4413 7.0061 46.5848L7.01262 30.6653C6.93871 29.8174 7.18871 29.0392 7.78002 28.4609C8.33436 27.9174 9.05828 27.6609 9.82349 27.6783H14.5735C16.4949 27.0661 18.3268 26.202 20.0213 25.1087C22.2996 23.6348 23.9778 21.5218 24.6191 19.6174C24.8387 18.9609 24.9561 18.4174 25.1778 17.1392C25.4778 15.424 25.6648 14.6261 26.0952 13.6C26.9865 11.4653 28.1561 10.4218 29.7691 10.0718C31.3561 9.7283 33.667 10.6435 35.1278 12.2609C36.7474 14.0522 37.4626 16.2935 37.1974 19.0631C37.0844 20.2544 36.7539 21.587 36.2105 23.0718C38.0665 22.8013 39.9488 22.7604 41.8148 22.95C46.1778 23.3957 48.6278 26.237 48.2713 29.8283C48.1148 31.3761 47.5539 32.6913 46.5996 33.724C47.4018 35.2696 47.7213 36.7979 47.5213 38.2892C47.2909 40.0066 46.3344 41.437 44.7431 42.5479C44.6191 44.0544 44.2735 45.2566 43.6605 46.1566C43.1774 46.8837 42.5472 47.5013 41.8105 47.9696C41.5757 49.4566 41.0822 50.6196 40.2757 51.437C38.9387 52.7979 36.5496 53.6087 34.367 53.4609C32.2952 53.3218 31.0691 53.0696 28.1778 52.1566C26.2713 51.5544 22.3235 50.5544 16.3735 49.1631H9.86262H9.8648ZM13.5626 29.9653C13.5621 29.7708 13.5999 29.5781 13.6739 29.3982C13.7479 29.2184 13.8567 29.0549 13.9941 28.9172C14.1314 28.7794 14.2945 28.6701 14.4742 28.5956C14.6538 28.521 14.8464 28.4826 15.0409 28.4826C15.235 28.4832 15.4271 28.522 15.6063 28.5968C15.7854 28.6717 15.948 28.781 16.0849 28.9187C16.2218 29.0564 16.3302 29.2196 16.4039 29.3992C16.4777 29.5788 16.5154 29.7711 16.5148 29.9653V46.6566C16.5151 46.8507 16.4771 47.043 16.4031 47.2224C16.3291 47.4019 16.2204 47.565 16.0834 47.7025C15.9463 47.84 15.7835 47.9491 15.6043 48.0236C15.425 48.0982 15.2328 48.1367 15.0387 48.137C14.8446 48.1367 14.6524 48.0982 14.4732 48.0236C14.2939 47.9491 14.1311 47.84 13.9941 47.7025C13.857 47.565 13.7483 47.4019 13.6743 47.2224C13.6003 47.043 13.5623 46.8507 13.5626 46.6566V29.9653Z" fill="#5C5C5C"/>
<path d="M7.18364 13.5902C7.75535 11.8306 10.2446 11.8306 10.8164 13.5902C11.072 14.3771 11.8053 14.9098 12.6327 14.9098C14.4828 14.9098 15.252 17.2773 13.7553 18.3647C13.0859 18.8511 12.8058 19.7131 13.0615 20.5C13.6332 22.2595 11.6193 23.7227 10.1226 22.6353C9.4532 22.1489 8.5468 22.1489 7.87743 22.6353C6.38067 23.7227 4.36679 22.2595 4.9385 20.5C5.19418 19.7131 4.91409 18.8511 4.24472 18.3647C2.74796 17.2773 3.51719 14.9098 5.36729 14.9098C6.19468 14.9098 6.92797 14.3771 7.18364 13.5902Z" fill="#6695FF"/>
<path d="M11.0918 12.7951C11.3777 11.9153 12.6223 11.9153 12.9082 12.7951C13.036 13.1885 13.4027 13.4549 13.8164 13.4549C14.7414 13.4549 15.126 14.6386 14.3776 15.1824C14.043 15.4255 13.9029 15.8566 14.0307 16.25C14.3166 17.1298 13.3097 17.8614 12.5613 17.3176C12.2266 17.0745 11.7734 17.0745 11.4387 17.3176C10.6903 17.8614 9.6834 17.1298 9.96925 16.25C10.0971 15.8566 9.95704 15.4255 9.62236 15.1824C8.87398 14.6386 9.25859 13.4549 10.1836 13.4549C10.5973 13.4549 10.964 13.1885 11.0918 12.7951Z" fill="#5C5C5C"/>
<path d="M53.2735 30.2361C53.5021 29.5322 54.4979 29.5322 54.7265 30.2361C54.8288 30.5508 55.1221 30.7639 55.4531 30.7639C56.1931 30.7639 56.5008 31.7109 55.9021 32.1459C55.6344 32.3404 55.5223 32.6852 55.6246 33C55.8533 33.7038 55.0477 34.2891 54.449 33.8541C54.1813 33.6596 53.8187 33.6596 53.551 33.8541C52.9523 34.2891 52.1467 33.7038 52.3754 33C52.4777 32.6852 52.3656 32.3404 52.0979 32.1459C51.4992 31.7109 51.8069 30.7639 52.5469 30.7639C52.8779 30.7639 53.1712 30.5508 53.2735 30.2361Z" fill="#5C5C5C"/>
<ellipse cx="27.1085" cy="57.2826" rx="14.6739" ry="2.71739" fill="#6695FF"/>
</g>
<defs>
<clipPath id="clip0_2023_4914">
<rect width="62" height="62" fill="white"/>
</clipPath>
</defs>
</svg>
