<svg width="50" height="50" viewBox="0 0 50 50" fill="none" xmlns="http://www.w3.org/2000/svg">
<path d="M33.4708 18.7395C33.6201 18.5954 33.7392 18.423 33.8212 18.2324C33.9032 18.0419 33.9464 17.8368 33.9483 17.6294C33.9502 17.4219 33.9108 17.2161 33.8323 17.0241C33.7538 16.832 33.6379 16.6575 33.4912 16.5107C33.3446 16.364 33.1702 16.2479 32.9782 16.1692C32.7862 16.0906 32.5805 16.0509 32.373 16.0526C32.1656 16.0543 31.9605 16.0973 31.7698 16.1791C31.5792 16.2609 31.4067 16.3799 31.2625 16.529L25 22.7895L18.7396 16.529C18.5965 16.3755 18.424 16.2524 18.2324 16.167C18.0407 16.0816 17.8338 16.0357 17.624 16.032C17.4142 16.0283 17.2058 16.0669 17.0112 16.1455C16.8167 16.224 16.64 16.341 16.4916 16.4894C16.3432 16.6378 16.2262 16.8145 16.1477 17.0091C16.0691 17.2036 16.0305 17.412 16.0342 17.6218C16.0379 17.8316 16.0838 18.0385 16.1692 18.2302C16.2546 18.4218 16.3777 18.5943 16.5312 18.7374L22.7875 24.9999L16.5271 31.2603C16.2511 31.5565 16.1008 31.9483 16.108 32.3531C16.1151 32.7578 16.2791 33.1441 16.5654 33.4303C16.8516 33.7166 17.2379 33.8806 17.6427 33.8877C18.0474 33.8949 18.4392 33.7446 18.7354 33.4686L25 27.2082L31.2604 33.4707C31.5566 33.7467 31.9484 33.897 32.3532 33.8898C32.758 33.8827 33.1442 33.7187 33.4305 33.4324C33.7167 33.1461 33.8807 32.7599 33.8879 32.3551C33.895 31.9503 33.7447 31.5586 33.4687 31.2624L27.2125 24.9999L33.4708 18.7395Z" fill="black"/>
</svg>
