<svg width="19" height="20" viewBox="0 0 19 20" fill="none" xmlns="http://www.w3.org/2000/svg">
<path d="M13.474 3.90795L15.592 6.02495M14.836 2.04295L9.109 7.76995C8.81309 8.06545 8.61128 8.44193 8.529 8.85195L8 11.4999L10.648 10.9699C11.058 10.8879 11.434 10.6869 11.73 10.3909L17.457 4.66395C17.6291 4.49185 17.7656 4.28754 17.8588 4.06269C17.9519 3.83783 17.9998 3.59683 17.9998 3.35345C17.9998 3.11007 17.9519 2.86907 17.8588 2.64421C17.7656 2.41936 17.6291 2.21505 17.457 2.04295C17.2849 1.87085 17.0806 1.73434 16.8557 1.6412C16.6309 1.54806 16.3899 1.50012 16.1465 1.50012C15.9031 1.50012 15.6621 1.54806 15.4373 1.6412C15.2124 1.73434 15.0081 1.87085 14.836 2.04295V2.04295Z" stroke="white" stroke-width="2" stroke-linecap="round" stroke-linejoin="round"/>
<path d="M16 13.5V16.5C16 17.0304 15.7893 17.5391 15.4142 17.9142C15.0391 18.2893 14.5304 18.5 14 18.5H3C2.46957 18.5 1.96086 18.2893 1.58579 17.9142C1.21071 17.5391 1 17.0304 1 16.5V5.5C1 4.96957 1.21071 4.46086 1.58579 4.08579C1.96086 3.71071 2.46957 3.5 3 3.5H6" stroke="white" stroke-width="2" stroke-linecap="round" stroke-linejoin="round"/>
</svg>
