<svg width="133" height="50" viewBox="0 0 133 50" fill="none" xmlns="http://www.w3.org/2000/svg">
<path d="M43.9908 33.3333H12.7715C11.9888 33.3353 11.3548 33.9558 11.3522 34.7218V40.2776C11.3548 41.0436 11.9888 41.6641 12.7715 41.6666H43.9908C44.7734 41.6641 45.4074 41.0436 45.4095 40.2776V34.7218C45.4074 33.9558 44.7734 33.3353 43.9908 33.3333ZM18.4478 38.8885H15.6094C14.8257 38.8885 14.1907 38.267 14.1907 37.4999C14.1907 36.7324 14.8257 36.1109 15.6094 36.1109H18.4478C19.2315 36.1109 19.8666 36.7324 19.8666 37.4999C19.8666 38.267 19.2315 38.8885 18.4478 38.8885ZM41.1524 38.8885H38.3144C37.5308 38.8885 36.8952 38.267 36.8952 37.4999C36.8952 36.7324 37.5308 36.1109 38.3144 36.1109H41.1524C41.936 36.1109 42.5716 36.7324 42.5716 37.4999C42.5716 38.267 41.936 38.8885 41.1524 38.8885Z" fill="#C1D4FF"/>
<path d="M14.1907 45.8336C14.1907 46.6007 14.8257 47.2222 15.6094 47.2222C16.393 47.2222 17.0286 46.6007 17.0286 45.8336V44.4446H14.1907V45.8336Z" fill="#6695FF"/>
<path d="M39.7336 44.4446V45.8336C39.7336 46.6007 40.3687 47.2222 41.1523 47.2222C41.936 47.2222 42.5716 46.6007 42.5716 45.8336V44.4446H39.7336Z" fill="#6695FF"/>
<path d="M38.6834 19.4441H18.0789L14.673 30.5551H42.0893L38.6834 19.4441Z" fill="#6695FF"/>
<path d="M55.8934 11.2191L28.9312 0.107575C28.5794 -0.0358583 28.1829 -0.0358583 27.8311 0.107575L0.868893 11.2191C0.342464 11.4358 0 11.9403 0 12.4998V48.6109C0 49.3779 0.63556 50 1.41923 50C2.20289 50 2.83793 49.3779 2.83793 48.6109V13.4214L28.3809 2.89537L53.9239 13.4214V48.6109C53.9239 49.3779 54.5594 50 55.3431 50C56.1268 50 56.7623 49.3779 56.7623 48.6109V12.4998C56.7623 11.9403 56.4198 11.4358 55.8934 11.2191Z" fill="#5C5C5C"/>
<path d="M45.0978 30.722L41.0957 17.6522C40.9107 17.0678 40.3589 16.668 39.7337 16.6665H17.0287C16.403 16.668 15.8516 17.0678 15.6666 17.6522L11.6646 30.722C9.81249 31.2067 8.52214 32.8455 8.51434 34.7218V40.2776C8.5237 42.0374 9.65866 43.6035 11.3523 44.194V45.8333C11.3523 48.1344 13.2584 50 15.6094 50C17.961 50 19.8666 48.1344 19.8666 45.8333V44.4443H36.8952V45.8333C36.8952 48.1344 38.8014 50 41.1524 50C43.5039 50 45.4096 48.1344 45.4096 45.8333V44.194C47.1037 43.6035 48.2387 42.0379 48.248 40.2776V34.7218C48.2402 32.8455 46.9493 31.2067 45.0978 30.722ZM18.0789 19.4441H38.6834L42.0894 30.5551H14.673L18.0789 19.4441ZM17.0287 45.8333C17.0287 46.6003 16.3931 47.2219 15.6094 47.2219C14.8258 47.2219 14.1907 46.6003 14.1907 45.8333V44.4443H17.0287V45.8333ZM42.5716 45.8333C42.5716 46.6003 41.9361 47.2219 41.1524 47.2219C40.3687 47.2219 39.7337 46.6003 39.7337 45.8333V44.4443H42.5716V45.8333ZM45.4096 40.2776C45.4075 41.0436 44.7735 41.6641 43.9908 41.6666H12.7715C11.9889 41.6641 11.3549 41.0436 11.3523 40.2776V34.7218C11.3549 33.9558 11.9889 33.3353 12.7715 33.3333H43.9908C44.7735 33.3353 45.4075 33.9558 45.4096 34.7218V40.2776Z" fill="#5C5C5C"/>
<path d="M18.4478 36.1108H15.6094C14.8257 36.1108 14.1907 36.7324 14.1907 37.4999C14.1907 38.2669 14.8257 38.8885 15.6094 38.8885H18.4478C19.2315 38.8885 19.8665 38.2669 19.8665 37.4999C19.8665 36.7324 19.2315 36.1108 18.4478 36.1108Z" fill="#5C5C5C"/>
<path d="M41.1524 36.1108H38.3144C37.5308 36.1108 36.8952 36.7324 36.8952 37.4999C36.8952 38.2669 37.5308 38.8885 38.3144 38.8885H41.1524C41.936 38.8885 42.5716 38.2669 42.5716 37.4999C42.5716 36.7324 41.936 36.1108 41.1524 36.1108Z" fill="#5C5C5C"/>
<path d="M124.252 38.3516L128.102 38.2641C128.243 38.2641 128.349 38.3065 128.419 38.3913C128.489 38.4708 128.525 38.545 128.525 38.6139C128.525 38.6828 128.506 38.7968 128.468 38.9558C128.43 39.1148 128.381 39.3082 128.321 39.5361C128.262 39.7587 128.224 39.9018 128.208 39.9654C128.63 39.4725 129.158 39.0379 129.792 38.6616C130.425 38.2853 130.983 38.0972 131.465 38.0972C132.488 38.0972 133 38.3145 133 38.7491C133 39.1784 132.862 39.6951 132.586 40.2993C132.31 40.8982 132.05 41.293 131.806 41.4838C131.687 41.5686 131.541 41.611 131.367 41.611C131.2 41.611 131.042 41.558 130.896 41.452C130.241 40.975 129.526 40.7365 128.752 40.7365C128.454 40.7365 128.194 40.7577 127.972 40.8001C127.761 41.5103 127.425 42.5544 126.965 43.9324C126.505 45.3051 126.25 46.0709 126.201 46.2299C126.12 46.479 125.969 46.6036 125.747 46.6036C124.961 46.6036 124.119 46.6433 123.221 46.7228C122.322 46.8076 121.804 46.85 121.669 46.85C121.539 46.85 121.436 46.8129 121.36 46.7387C121.29 46.6698 121.255 46.5877 121.255 46.4923C121.255 46.3916 121.369 46.0365 121.596 45.427C121.829 44.8122 122.083 44.1523 122.36 43.4474C122.641 42.7426 122.896 41.9688 123.123 41.1261C123.356 40.2834 123.472 39.5917 123.472 39.0512L123.464 38.7491C123.464 38.4841 123.727 38.3516 124.252 38.3516Z" fill="#5C5C5C"/>
<path d="M122.416 44.2663C122.606 44.2663 122.701 44.3537 122.701 44.5286C122.701 44.6982 122.571 44.8572 122.311 45.0056C122.056 45.1487 121.74 45.3051 121.361 45.4747C120.981 45.639 120.459 45.8351 119.793 46.063C118.26 46.5877 116.53 46.85 114.603 46.85C110.942 46.85 109.112 45.7476 109.112 43.5428C109.112 42.467 109.458 41.513 110.151 40.6809C110.85 39.8435 111.784 39.2049 112.954 38.765C114.123 38.3198 115.399 38.0972 116.779 38.0972C118.16 38.0972 119.17 38.3065 119.809 38.7252C120.453 39.1439 120.776 39.7189 120.776 40.4503C120.776 41.2029 120.467 41.8177 119.85 42.2947C119.238 42.7717 118.423 43.1268 117.405 43.36C116.381 43.5932 115.209 43.7575 113.888 43.8529C113.974 44.6744 114.575 45.1858 115.691 45.3872C115.978 45.4349 116.281 45.4588 116.601 45.4588C117.868 45.4588 119.695 45.0851 122.083 44.3378C122.23 44.2901 122.341 44.2663 122.416 44.2663ZM113.896 42.9784C114.838 42.724 115.583 42.3345 116.13 41.8098C116.677 41.2851 116.95 40.6517 116.95 39.9097C116.95 39.7136 116.885 39.5573 116.755 39.4407C116.625 39.3241 116.427 39.2658 116.162 39.2658C115.902 39.2658 115.629 39.3771 115.342 39.5997C115.06 39.8223 114.822 40.1138 114.627 40.4742C114.215 41.2215 113.972 42.0562 113.896 42.9784Z" fill="#5C5C5C"/>
<path d="M97.5452 38.3516L101.842 38.2642C102.021 38.2642 102.11 38.3808 102.11 38.614C102.11 38.7412 102.061 38.8684 101.964 38.9956C101.482 39.605 101.092 40.2967 100.794 41.0705C100.502 41.8443 100.356 42.5995 100.356 43.3362C100.356 43.7178 100.437 44.0517 100.599 44.3379C100.762 44.6241 100.959 44.7672 101.192 44.7672C101.609 44.7672 102.083 44.428 102.614 43.7496C103.15 43.0712 103.618 42.2762 104.019 41.3646C104.425 40.453 104.688 39.6368 104.807 38.9161C104.839 38.72 104.888 38.5822 104.953 38.5027C105.018 38.4232 105.151 38.3834 105.351 38.3834L108.527 38.296C108.722 38.296 108.819 38.3702 108.819 38.5186V38.6299C108.819 39.2764 108.551 40.0767 108.015 41.0307C108.178 41.0572 108.373 41.0705 108.6 41.0705C109.45 41.0705 110.224 40.8797 110.923 40.4981C111.075 40.4133 111.202 40.3709 111.305 40.3709C111.521 40.3709 111.63 40.4689 111.63 40.665C111.63 40.8558 111.513 41.0387 111.28 41.2136C110.501 41.7966 109.45 42.0881 108.129 42.0881C107.82 42.0881 107.568 42.0722 107.373 42.0404C107.336 42.104 107.273 42.1941 107.187 42.3107C106.613 43.095 105.784 43.8662 104.701 44.6241C103.624 45.382 102.543 45.9862 101.46 46.4367C100.377 46.8871 99.4919 47.1124 98.8042 47.1124C98.3006 47.1124 97.7835 46.9295 97.2528 46.5639C96.1915 45.8378 95.6608 44.7248 95.6608 43.2249C95.6608 42.5836 95.7827 41.8204 96.0263 40.9353C96.2754 40.0502 96.5543 39.34 96.8629 38.8048C97.0362 38.508 97.2637 38.3569 97.5452 38.3516Z" fill="#5C5C5C"/>
<path d="M85.9219 44.8307C86.9399 44.8307 87.7901 44.0675 88.4723 42.5412C88.7864 41.8416 88.9434 41.2745 88.9434 40.8399C88.9434 40.4053 88.8676 40.1058 88.716 39.9415C88.5698 39.7772 88.2774 39.6951 87.8388 39.6951C87.4056 39.6951 86.9345 39.8938 86.4255 40.2913C85.9219 40.6835 85.5157 41.1791 85.2071 41.778C84.8984 42.3769 84.7441 42.9175 84.7441 43.3997C84.7441 43.8767 84.8524 44.2345 85.069 44.473C85.2856 44.7115 85.5699 44.8307 85.9219 44.8307ZM90.1456 38.0972L93.8657 38.2641C94.0065 38.2641 94.1121 38.3065 94.1825 38.3913C94.2529 38.4708 94.2881 38.5609 94.2881 38.6616C94.2881 39.0485 94.1229 39.6659 93.7926 40.5139C93.4677 41.3566 93.1401 42.194 92.8098 43.0261C92.4849 43.8529 92.3224 44.4014 92.3224 44.6717C92.3224 44.9367 92.363 45.1063 92.4443 45.1805C92.5309 45.2547 92.6933 45.2918 92.9316 45.2918C93.1699 45.2918 93.6031 45.1805 94.2312 44.9579C94.8648 44.73 95.2925 44.5578 95.5146 44.4412C95.742 44.3246 95.9153 44.2663 96.0344 44.2663C96.2456 44.2663 96.3512 44.359 96.3512 44.5445C96.3512 44.9367 95.5389 45.4508 93.9144 46.0868C93.3675 46.3041 92.7069 46.4843 91.9325 46.6274C91.1636 46.7758 90.3811 46.85 89.5851 46.85C88.2584 46.85 87.4597 46.4366 87.189 45.6098C86.3442 46.4366 85.2071 46.85 83.7775 46.85C82.7974 46.85 81.9689 46.6195 81.292 46.1584C80.5556 45.6549 80.1874 44.8625 80.1874 43.7813C80.1874 42.6419 80.5312 41.5925 81.2189 40.6332C81.9716 39.5679 82.9788 38.8339 84.2405 38.4311C84.939 38.2085 85.689 38.0972 86.4904 38.0972C87.7197 38.0972 88.6754 38.394 89.3577 38.9876C89.3631 38.9558 89.3658 38.9054 89.3658 38.8365L89.3577 38.4947C89.3577 38.2297 89.6203 38.0972 90.1456 38.0972Z" fill="#5C5C5C"/>
<path d="M65.2339 45.9121C65.0985 45.8485 65.0308 45.716 65.0308 45.5146C65.0308 45.3132 65.196 44.8839 65.5263 44.2267C65.8566 43.5642 66.1165 43.233 66.306 43.233C66.4143 43.233 66.5822 43.3072 66.8096 43.4556C67.0371 43.5987 67.2997 43.7736 67.5975 43.9803C67.9008 44.187 68.2284 44.391 68.5803 44.5924C69.4359 45.0906 70.2671 45.3397 71.074 45.3397C71.4747 45.3397 71.7617 45.2602 71.9349 45.1012C72.1082 44.9422 72.1949 44.7832 72.1949 44.6242C72.1949 44.4599 72.1028 44.2771 71.9187 44.0757C71.7346 43.869 71.4936 43.657 71.1958 43.4397C70.9034 43.2224 70.5785 42.9945 70.2211 42.756C69.8637 42.5122 69.5063 42.2552 69.1489 41.9849C68.7915 41.7146 68.4666 41.4443 68.1742 41.174C67.5082 40.5592 67.1752 39.9603 67.1752 39.3773C67.1752 38.9639 67.2862 38.5903 67.5082 38.2564C67.7356 37.9225 68.0226 37.6522 68.3692 37.4455C68.7211 37.2388 69.1191 37.0665 69.5632 36.9287C70.3592 36.6743 71.1796 36.5471 72.0243 36.5471C72.2571 36.5471 72.4304 36.5816 72.5441 36.6505C72.6578 36.7194 72.7147 36.7989 72.7147 36.889C72.7147 36.9791 72.6741 37.1169 72.5929 37.3024C72.5116 37.4826 72.471 37.6442 72.471 37.7873C72.471 37.9304 72.5685 38.1133 72.7634 38.3359C72.9638 38.5585 73.221 38.7864 73.5351 39.0196C73.8491 39.2528 74.1957 39.5019 74.5748 39.7668C74.9538 40.0318 75.3329 40.3127 75.7119 40.6095C76.091 40.9063 76.4375 41.2084 76.7516 41.5158C77.461 42.2101 77.8156 42.8832 77.8156 43.5351C77.8156 44.1817 77.6424 44.7223 77.2958 45.1569C76.9547 45.5915 76.4781 45.928 75.8662 46.1665C75.2543 46.405 74.5829 46.5773 73.8519 46.6833C73.1208 46.7946 72.2301 46.8502 71.1796 46.8502C70.129 46.8502 68.9702 46.7442 67.7031 46.5322C66.4414 46.3149 65.6183 46.1082 65.2339 45.9121ZM78.6848 38.1292C77.9754 37.3024 77.0954 36.6876 76.0449 36.2848C74.9998 35.8767 73.9087 35.6727 72.7716 35.6727C70.6868 35.6727 68.6778 36.0569 66.7447 36.8254C66.4847 36.9261 66.3006 36.9764 66.1923 36.9764C65.9757 36.9764 65.8674 36.8757 65.8674 36.6743C65.8674 36.51 66.0109 36.3139 66.2979 36.086C66.5903 35.8581 67.0073 35.625 67.5488 35.3865C68.0957 35.1427 68.713 34.9174 69.4007 34.7107C70.9711 34.239 72.6551 34.0032 74.4529 34.0032C77.1117 34.0032 79.118 34.3689 80.4717 35.1003C80.5475 35.1427 80.58 35.2699 80.5692 35.4819C80.5638 35.6886 80.4663 36.0092 80.2768 36.4438C80.0872 36.8784 79.8571 37.2812 79.5864 37.6522C79.321 38.0232 79.0936 38.2087 78.9041 38.2087C78.8553 38.1557 78.7822 38.1292 78.6848 38.1292Z" fill="#5C5C5C"/>
<path d="M117.019 18.8084L119.155 18.5381C119.556 18.5381 119.756 18.6918 119.756 18.9992C119.756 19.3066 119.567 19.5 119.188 19.5795C118.809 19.6537 117.953 19.7544 116.621 19.8816C116.437 20.3533 116.161 21.0078 115.793 21.8452C115.04 23.5624 114.664 24.5932 114.664 24.9377C114.664 25.314 114.902 25.5022 115.378 25.5022C116.916 25.5022 118.297 25.2504 119.521 24.7469C119.699 24.6727 119.84 24.6356 119.943 24.6356C120.143 24.6356 120.244 24.7231 120.244 24.898C120.244 25.0729 120.114 25.2451 119.854 25.4147C119.058 25.9288 117.858 26.3581 116.256 26.7026C114.653 27.0471 113.174 27.2194 111.821 27.2194C111.052 27.2194 110.464 27.1028 110.058 26.8696C109.652 26.6311 109.449 26.3051 109.449 25.8917C109.449 25.473 109.73 24.6913 110.294 23.5465C110.927 22.2639 111.382 21.1377 111.658 20.1678C111.322 20.1837 111.09 20.1917 110.96 20.1917C110.64 20.1917 110.48 20.0645 110.48 19.8101C110.48 19.6246 110.532 19.5 110.635 19.4364C110.738 19.3728 110.843 19.3278 110.952 19.3013C111.065 19.2748 111.16 19.2589 111.236 19.2536C111.317 19.243 111.428 19.2324 111.569 19.2218C111.71 19.2112 111.813 19.2032 111.877 19.1979C111.948 18.7951 111.983 18.4162 111.983 18.0611L111.975 17.759C111.975 17.5205 112.284 17.3588 112.901 17.274C113.107 17.2475 113.754 17.115 114.842 16.8765C115.931 16.638 116.597 16.5188 116.84 16.5188C117.23 16.5188 117.425 16.6513 117.425 16.9163C117.425 17.3721 117.29 18.0028 117.019 18.8084Z" fill="#5C5C5C"/>
<path d="M97.1108 26.3685C96.0928 25.7696 95.5837 24.8607 95.5837 23.6417C95.5837 23.0057 95.7164 22.4095 95.9817 21.853C96.2525 21.2912 96.6207 20.8062 97.0864 20.3981C97.5575 19.99 98.1044 19.6402 98.7272 19.3487C99.9726 18.7605 101.399 18.4663 103.008 18.4663C106.17 18.4663 107.879 19.4468 108.133 21.4078C108.512 21.5297 108.902 21.5906 109.303 21.5906C109.709 21.5906 110.047 21.5615 110.318 21.5032C110.589 21.4449 110.843 21.3574 111.081 21.2408C111.325 21.1242 111.498 21.0659 111.601 21.0659C111.807 21.0659 111.91 21.164 111.91 21.3601C111.91 21.5562 111.75 21.7602 111.431 21.9722C110.83 22.375 110.034 22.5764 109.043 22.5764C108.669 22.5764 108.366 22.5579 108.133 22.5208C107.96 23.8563 107.256 24.9667 106.021 25.8518C105.431 26.2758 104.705 26.6097 103.844 26.8534C102.989 27.0972 102.101 27.2191 101.18 27.2191C100.265 27.2191 99.4798 27.1476 98.8246 27.0045C98.1694 26.8667 97.5981 26.6547 97.1108 26.3685ZM100.059 24.3413C100.059 25.3218 100.425 25.812 101.156 25.812C101.621 25.812 102.055 25.5629 102.455 25.0647C102.862 24.5665 103.176 23.9491 103.398 23.2124C103.625 22.4757 103.739 21.7258 103.739 20.9626C103.739 20.1941 103.465 19.8098 102.918 19.8098C102.442 19.8098 101.979 20.0298 101.529 20.4697C101.085 20.9096 100.728 21.482 100.457 22.1869C100.192 22.8864 100.059 23.6046 100.059 24.3413Z" fill="#5C5C5C"/>
<path d="M82.7583 18.7207L86.4459 18.6333C86.5867 18.6333 86.6923 18.6757 86.7627 18.7605C86.8331 18.84 86.8683 18.9327 86.8683 19.0387C86.8683 19.1394 86.8493 19.3169 86.8114 19.5713C86.7735 19.8204 86.7545 20.0033 86.7545 20.1199C87.7509 19.0175 89.0803 18.4663 90.7427 18.4663C91.7553 18.4663 92.5513 18.7207 93.1307 19.2295C93.7155 19.733 94.0079 20.4485 94.0079 21.376C94.0079 23.1779 93.285 24.6513 91.8392 25.7961C93.5179 25.6795 94.8067 25.3748 95.7055 24.8819C96.0034 24.7176 96.2227 24.6354 96.3635 24.6354C96.5476 24.6354 96.6396 24.7335 96.6396 24.9296C96.6396 25.0674 96.5395 25.2078 96.3391 25.3509C95.4186 25.9816 94.2327 26.448 92.7814 26.7501C91.3356 27.0522 89.7788 27.2032 88.111 27.2032C87.9052 27.2138 87.7509 27.2191 87.648 27.2191C87.074 27.2191 86.5 27.1343 85.926 26.9647C85.352 26.7951 84.8755 26.5567 84.4965 26.2493C84.1228 27.3675 83.936 28.6581 83.936 30.1209L83.9441 30.3514C83.9441 30.6164 83.6815 30.7489 83.1563 30.7489L79.3793 30.8443C79.2493 30.8443 79.1464 30.8045 79.0706 30.725C78.9948 30.6508 78.9569 30.5661 78.9569 30.4707C78.9569 29.5644 79.4632 27.8074 80.4758 25.1999C81.4884 22.587 81.9947 20.838 81.9947 19.9529L81.9623 19.2931C81.9623 19.097 82.011 18.9539 82.1085 18.8638C82.2113 18.7684 82.4279 18.7207 82.7583 18.7207ZM88.3465 20.4856C87.3285 20.4856 86.4784 21.2488 85.7961 22.7752C85.482 23.4747 85.325 24.0418 85.325 24.4764C85.325 24.911 85.3981 25.2105 85.5443 25.3748C85.6959 25.5391 85.9883 25.6212 86.4215 25.6212C86.8601 25.6212 87.3312 25.4251 87.8348 25.0329C88.3438 24.6354 88.7527 24.1372 89.0613 23.5383C89.37 22.9395 89.5243 22.4015 89.5243 21.9245C89.5243 21.4422 89.416 21.0818 89.1994 20.8433C88.9828 20.6048 88.6985 20.4856 88.3465 20.4856Z" fill="#5C5C5C"/>
<path d="M65.5224 26.2813C65.387 26.2177 65.3193 26.0852 65.3193 25.8838C65.3193 25.6824 65.4845 25.2531 65.8148 24.5959C66.1451 23.9334 66.405 23.6021 66.5946 23.6021C66.7029 23.6021 66.8707 23.6763 67.0982 23.8247C67.3256 23.9678 67.5882 24.1427 67.886 24.3494C68.1893 24.5561 68.5169 24.7602 68.8689 24.9616C69.7244 25.4598 70.5556 25.7089 71.3625 25.7089C71.7632 25.7089 72.0502 25.6294 72.2235 25.4704C72.3967 25.3114 72.4834 25.1524 72.4834 24.9934C72.4834 24.8291 72.3913 24.6462 72.2072 24.4448C72.0231 24.2381 71.7821 24.0261 71.4843 23.8088C71.1919 23.5915 70.867 23.3636 70.5096 23.1251C70.1522 22.8814 69.7948 22.6243 69.4374 22.354C69.08 22.0837 68.7551 21.8134 68.4627 21.5431C67.7967 20.9283 67.4637 20.3294 67.4637 19.7464C67.4637 19.333 67.5747 18.9594 67.7967 18.6255C68.0241 18.2916 68.3111 18.0213 68.6577 17.8146C69.0096 17.6079 69.4077 17.4357 69.8517 17.2979C70.6477 17.0435 71.4681 16.9163 72.3128 16.9163C72.5456 16.9163 72.7189 16.9507 72.8326 17.0196C72.9464 17.0885 73.0032 17.168 73.0032 17.2581C73.0032 17.3482 72.9626 17.486 72.8814 17.6715C72.8002 17.8517 72.7595 18.0134 72.7595 18.1565C72.7595 18.2996 72.857 18.4824 73.052 18.705C73.2523 18.9276 73.5095 19.1555 73.8236 19.3887C74.1377 19.6219 74.4842 19.871 74.8633 20.136C75.2423 20.401 75.6214 20.6819 76.0004 20.9787C76.3795 21.2755 76.726 21.5776 77.0401 21.885C77.7495 22.5793 78.1042 23.2523 78.1042 23.9042C78.1042 24.5508 77.9309 25.0914 77.5843 25.526C77.2432 25.9606 76.7666 26.2972 76.1548 26.5357C75.5429 26.7742 74.8714 26.9464 74.1404 27.0524C73.4093 27.1637 72.5186 27.2193 71.4681 27.2193C70.4176 27.2193 69.2587 27.1133 67.9916 26.9014C66.7299 26.6841 65.9068 26.4774 65.5224 26.2813ZM78.9733 18.4983C78.2639 17.6715 77.384 17.0567 76.3334 16.6539C75.2884 16.2458 74.1972 16.0418 73.0601 16.0418C70.9753 16.0418 68.9663 16.426 67.0332 17.1945C66.7733 17.2952 66.5891 17.3456 66.4808 17.3456C66.2642 17.3456 66.1559 17.2449 66.1559 17.0435C66.1559 16.8792 66.2994 16.6831 66.5864 16.4552C66.8788 16.2273 67.2958 15.9941 67.8373 15.7556C68.3842 15.5118 69.0015 15.2866 69.6892 15.0799C71.2596 14.6082 72.9437 14.3723 74.7414 14.3723C77.4002 14.3723 79.4065 14.738 80.7602 15.4694C80.836 15.5118 80.8685 15.639 80.8577 15.851C80.8523 16.0577 80.7548 16.3783 80.5653 16.8129C80.3758 17.2475 80.1456 17.6503 79.8749 18.0213C79.6095 18.3923 79.3821 18.5778 79.1926 18.5778C79.1438 18.5248 79.0707 18.4983 78.9733 18.4983Z" fill="#5C5C5C"/>
</svg>
