<svg width="304" height="357" viewBox="0 0 304 357" fill="none" xmlns="http://www.w3.org/2000/svg">
<rect x="3" y="48.5" width="298" height="306" rx="9.5" fill="#FAFBFF" stroke="#6695FF" stroke-width="5"/>
<path d="M3 58C3 52.7533 7.25329 48.5 12.5 48.5H291.5C296.747 48.5 301 52.7533 301 58V188.5H3V58Z" fill="#6695FF" stroke="#6695FF" stroke-width="5"/>
<path d="M99.84 105.54C99.84 106.66 99.57 107.71 99.03 108.69C98.51 109.67 97.68 110.46 96.54 111.06C95.42 111.66 94 111.96 92.28 111.96H88.77V120H84.57V99.06H92.28C93.9 99.06 95.28 99.34 96.42 99.9C97.56 100.46 98.41 101.23 98.97 102.21C99.55 103.19 99.84 104.3 99.84 105.54ZM92.1 108.57C93.26 108.57 94.12 108.31 94.68 107.79C95.24 107.25 95.52 106.5 95.52 105.54C95.52 103.5 94.38 102.48 92.1 102.48H88.77V108.57H92.1ZM107.022 105.96C107.562 105.08 108.262 104.39 109.122 103.89C110.002 103.39 111.002 103.14 112.122 103.14V107.55H111.012C109.692 107.55 108.692 107.86 108.012 108.48C107.352 109.1 107.022 110.18 107.022 111.72V120H102.822V103.38H107.022V105.96ZM130.401 111.33C130.401 111.93 130.361 112.47 130.281 112.95H118.131C118.231 114.15 118.651 115.09 119.391 115.77C120.131 116.45 121.041 116.79 122.121 116.79C123.681 116.79 124.791 116.12 125.451 114.78H129.981C129.501 116.38 128.581 117.7 127.221 118.74C125.861 119.76 124.191 120.27 122.211 120.27C120.611 120.27 119.171 119.92 117.891 119.22C116.631 118.5 115.641 117.49 114.921 116.19C114.221 114.89 113.871 113.39 113.871 111.69C113.871 109.97 114.221 108.46 114.921 107.16C115.621 105.86 116.601 104.86 117.861 104.16C119.121 103.46 120.571 103.11 122.211 103.11C123.791 103.11 125.201 103.45 126.441 104.13C127.701 104.81 128.671 105.78 129.351 107.04C130.051 108.28 130.401 109.71 130.401 111.33ZM126.051 110.13C126.031 109.05 125.641 108.19 124.881 107.55C124.121 106.89 123.191 106.56 122.091 106.56C121.051 106.56 120.171 106.88 119.451 107.52C118.751 108.14 118.321 109.01 118.161 110.13H126.051ZM154.106 103.14C156.146 103.14 157.786 103.77 159.026 105.03C160.286 106.27 160.916 108.01 160.916 110.25V120H156.716V110.82C156.716 109.52 156.386 108.53 155.726 107.85C155.066 107.15 154.166 106.8 153.026 106.8C151.886 106.8 150.976 107.15 150.296 107.85C149.636 108.53 149.306 109.52 149.306 110.82V120H145.106V110.82C145.106 109.52 144.776 108.53 144.116 107.85C143.456 107.15 142.556 106.8 141.416 106.8C140.256 106.8 139.336 107.15 138.656 107.85C137.996 108.53 137.666 109.52 137.666 110.82V120H133.466V103.38H137.666V105.39C138.206 104.69 138.896 104.14 139.736 103.74C140.596 103.34 141.536 103.14 142.556 103.14C143.856 103.14 145.016 103.42 146.036 103.98C147.056 104.52 147.846 105.3 148.406 106.32C148.946 105.36 149.726 104.59 150.746 104.01C151.786 103.43 152.906 103.14 154.106 103.14ZM167.032 101.4C166.292 101.4 165.672 101.17 165.172 100.71C164.692 100.23 164.452 99.64 164.452 98.94C164.452 98.24 164.692 97.66 165.172 97.2C165.672 96.72 166.292 96.48 167.032 96.48C167.772 96.48 168.382 96.72 168.862 97.2C169.362 97.66 169.612 98.24 169.612 98.94C169.612 99.64 169.362 100.23 168.862 100.71C168.382 101.17 167.772 101.4 167.032 101.4ZM169.102 103.38V120H164.902V103.38H169.102ZM188.942 103.38V120H184.712V117.9C184.172 118.62 183.462 119.19 182.582 119.61C181.722 120.01 180.782 120.21 179.762 120.21C178.462 120.21 177.312 119.94 176.312 119.4C175.312 118.84 174.522 118.03 173.942 116.97C173.382 115.89 173.102 114.61 173.102 113.13V103.38H177.302V112.53C177.302 113.85 177.632 114.87 178.292 115.59C178.952 116.29 179.852 116.64 180.992 116.64C182.152 116.64 183.062 116.29 183.722 115.59C184.382 114.87 184.712 113.85 184.712 112.53V103.38H188.942ZM213.726 103.14C215.766 103.14 217.406 103.77 218.646 105.03C219.906 106.27 220.536 108.01 220.536 110.25V120H216.336V110.82C216.336 109.52 216.006 108.53 215.346 107.85C214.686 107.15 213.786 106.8 212.646 106.8C211.506 106.8 210.596 107.15 209.916 107.85C209.256 108.53 208.926 109.52 208.926 110.82V120H204.726V110.82C204.726 109.52 204.396 108.53 203.736 107.85C203.076 107.15 202.176 106.8 201.036 106.8C199.876 106.8 198.956 107.15 198.276 107.85C197.616 108.53 197.286 109.52 197.286 110.82V120H193.086V103.38H197.286V105.39C197.826 104.69 198.516 104.14 199.356 103.74C200.216 103.34 201.156 103.14 202.176 103.14C203.476 103.14 204.636 103.42 205.656 103.98C206.676 104.52 207.466 105.3 208.026 106.32C208.566 105.36 209.346 104.59 210.366 104.01C211.406 103.43 212.526 103.14 213.726 103.14Z" fill="white"/>
<path d="M107.925 158.975C107.925 159.842 107.7 160.658 107.25 161.425C106.817 162.175 106.167 162.8 105.3 163.3C104.45 163.783 103.442 164.067 102.275 164.15V166.175H100.675V164.125C99.0083 163.975 97.6667 163.475 96.65 162.625C95.6333 161.758 95.1083 160.592 95.075 159.125H98.825C98.925 160.325 99.5417 161.05 100.675 161.3V156.525C99.475 156.225 98.5083 155.925 97.775 155.625C97.0417 155.325 96.4083 154.842 95.875 154.175C95.3417 153.508 95.075 152.6 95.075 151.45C95.075 150 95.5917 148.817 96.625 147.9C97.675 146.983 99.025 146.458 100.675 146.325V144.3H102.275V146.325C103.875 146.458 105.15 146.942 106.1 147.775C107.067 148.608 107.608 149.758 107.725 151.225H103.95C103.9 150.742 103.725 150.325 103.425 149.975C103.142 149.608 102.758 149.35 102.275 149.2V153.925C103.525 154.242 104.508 154.55 105.225 154.85C105.958 155.133 106.592 155.608 107.125 156.275C107.658 156.925 107.925 157.825 107.925 158.975ZM98.725 151.275C98.725 151.825 98.8917 152.275 99.225 152.625C99.5583 152.958 100.042 153.233 100.675 153.45V149.125C100.075 149.208 99.6 149.433 99.25 149.8C98.9 150.167 98.725 150.658 98.725 151.275ZM102.275 161.35C102.908 161.233 103.4 160.975 103.75 160.575C104.117 160.175 104.3 159.692 104.3 159.125C104.3 158.575 104.125 158.133 103.775 157.8C103.425 157.467 102.925 157.192 102.275 156.975V161.35ZM111.007 149V145.775H117.032V164H113.432V149H111.007ZM120.49 154.65C120.49 151.767 121.007 149.508 122.04 147.875C123.09 146.242 124.823 145.425 127.24 145.425C129.657 145.425 131.382 146.242 132.415 147.875C133.465 149.508 133.99 151.767 133.99 154.65C133.99 157.55 133.465 159.825 132.415 161.475C131.382 163.125 129.657 163.95 127.24 163.95C124.823 163.95 123.09 163.125 122.04 161.475C121.007 159.825 120.49 157.55 120.49 154.65ZM130.54 154.65C130.54 153.417 130.457 152.383 130.29 151.55C130.14 150.7 129.823 150.008 129.34 149.475C128.873 148.942 128.173 148.675 127.24 148.675C126.307 148.675 125.598 148.942 125.115 149.475C124.648 150.008 124.332 150.7 124.165 151.55C124.015 152.383 123.94 153.417 123.94 154.65C123.94 155.917 124.015 156.983 124.165 157.85C124.315 158.7 124.632 159.392 125.115 159.925C125.598 160.442 126.307 160.7 127.24 160.7C128.173 160.7 128.882 160.442 129.365 159.925C129.848 159.392 130.165 158.7 130.315 157.85C130.465 156.983 130.54 155.917 130.54 154.65ZM142.447 148.896L138.095 166.8H136.303L140.639 148.896H142.447ZM152.522 156.192C152.522 156.757 152.389 157.291 152.122 157.792C151.855 158.293 151.429 158.704 150.842 159.024C150.255 159.333 149.503 159.488 148.586 159.488H146.57V164H144.746V152.88H148.586C149.439 152.88 150.159 153.029 150.746 153.328C151.343 153.616 151.786 154.011 152.074 154.512C152.373 155.013 152.522 155.573 152.522 156.192ZM148.586 158C149.279 158 149.797 157.845 150.138 157.536C150.479 157.216 150.65 156.768 150.65 156.192C150.65 154.976 149.962 154.368 148.586 154.368H146.57V158H148.586ZM162.342 159.376C162.342 159.707 162.32 160.005 162.278 160.272H155.542C155.595 160.976 155.856 161.541 156.326 161.968C156.795 162.395 157.371 162.608 158.054 162.608C159.035 162.608 159.728 162.197 160.134 161.376H162.102C161.835 162.187 161.35 162.853 160.646 163.376C159.952 163.888 159.088 164.144 158.054 164.144C157.211 164.144 156.454 163.957 155.782 163.584C155.12 163.2 154.598 162.667 154.214 161.984C153.84 161.291 153.654 160.491 153.654 159.584C153.654 158.677 153.835 157.883 154.198 157.2C154.571 156.507 155.088 155.973 155.75 155.6C156.422 155.227 157.19 155.04 158.054 155.04C158.886 155.04 159.627 155.221 160.278 155.584C160.928 155.947 161.435 156.459 161.798 157.12C162.16 157.771 162.342 158.523 162.342 159.376ZM160.438 158.8C160.427 158.128 160.187 157.589 159.718 157.184C159.248 156.779 158.667 156.576 157.974 156.576C157.344 156.576 156.806 156.779 156.358 157.184C155.91 157.579 155.643 158.117 155.558 158.8H160.438ZM165.961 156.464C166.227 156.016 166.579 155.669 167.017 155.424C167.465 155.168 167.993 155.04 168.601 155.04V156.928H168.137C167.422 156.928 166.878 157.109 166.505 157.472C166.142 157.835 165.961 158.464 165.961 159.36V164H164.137V155.184H165.961V156.464ZM176.561 156.672V161.552C176.561 161.883 176.636 162.123 176.785 162.272C176.945 162.411 177.212 162.48 177.585 162.48H178.705V164H177.265C176.444 164 175.815 163.808 175.377 163.424C174.94 163.04 174.721 162.416 174.721 161.552V156.672H173.681V155.184H174.721V152.992H176.561V155.184H178.705V156.672H176.561ZM181.315 154.016C180.984 154.016 180.707 153.904 180.483 153.68C180.259 153.456 180.147 153.179 180.147 152.848C180.147 152.517 180.259 152.24 180.483 152.016C180.707 151.792 180.984 151.68 181.315 151.68C181.635 151.68 181.907 151.792 182.131 152.016C182.355 152.24 182.467 152.517 182.467 152.848C182.467 153.179 182.355 153.456 182.131 153.68C181.907 153.904 181.635 154.016 181.315 154.016ZM182.211 155.184V164H180.387V155.184H182.211ZM195.277 155.04C195.971 155.04 196.589 155.184 197.133 155.472C197.688 155.76 198.12 156.187 198.429 156.752C198.749 157.317 198.909 158 198.909 158.8V164H197.101V159.072C197.101 158.283 196.904 157.68 196.509 157.264C196.115 156.837 195.576 156.624 194.893 156.624C194.211 156.624 193.667 156.837 193.261 157.264C192.867 157.68 192.669 158.283 192.669 159.072V164H190.861V159.072C190.861 158.283 190.664 157.68 190.269 157.264C189.875 156.837 189.336 156.624 188.653 156.624C187.971 156.624 187.427 156.837 187.021 157.264C186.627 157.68 186.429 158.283 186.429 159.072V164H184.605V155.184H186.429V156.192C186.728 155.829 187.107 155.547 187.565 155.344C188.024 155.141 188.515 155.04 189.037 155.04C189.741 155.04 190.371 155.189 190.925 155.488C191.48 155.787 191.907 156.219 192.205 156.784C192.472 156.251 192.888 155.829 193.453 155.52C194.019 155.2 194.627 155.04 195.277 155.04ZM209.31 159.376C209.31 159.707 209.289 160.005 209.246 160.272H202.51C202.564 160.976 202.825 161.541 203.294 161.968C203.764 162.395 204.34 162.608 205.022 162.608C206.004 162.608 206.697 162.197 207.102 161.376H209.07C208.804 162.187 208.318 162.853 207.614 163.376C206.921 163.888 206.057 164.144 205.022 164.144C204.18 164.144 203.422 163.957 202.75 163.584C202.089 163.2 201.566 162.667 201.182 161.984C200.809 161.291 200.622 160.491 200.622 159.584C200.622 158.677 200.804 157.883 201.166 157.2C201.54 156.507 202.057 155.973 202.718 155.6C203.39 155.227 204.158 155.04 205.022 155.04C205.854 155.04 206.596 155.221 207.246 155.584C207.897 155.947 208.404 156.459 208.766 157.12C209.129 157.771 209.31 158.523 209.31 159.376ZM207.406 158.8C207.396 158.128 207.156 157.589 206.686 157.184C206.217 156.779 205.636 156.576 204.942 156.576C204.313 156.576 203.774 156.779 203.326 157.184C202.878 157.579 202.612 158.117 202.526 158.8H207.406Z" fill="white"/>
<path d="M73.748 221.08C73.46 220.525 73.06 220.109 72.548 219.832C72.036 219.544 71.444 219.4 70.772 219.4C70.036 219.4 69.38 219.565 68.804 219.896C68.228 220.227 67.7747 220.696 67.444 221.304C67.124 221.912 66.964 222.616 66.964 223.416C66.964 224.216 67.124 224.925 67.444 225.544C67.7747 226.152 68.228 226.621 68.804 226.952C69.38 227.283 70.036 227.448 70.772 227.448C71.764 227.448 72.5693 227.171 73.188 226.616C73.8067 226.061 74.1853 225.309 74.324 224.36H70.148V222.904H76.276V224.328C76.1587 225.192 75.8493 225.987 75.348 226.712C74.8573 227.437 74.212 228.019 73.412 228.456C72.6227 228.883 71.7427 229.096 70.772 229.096C69.7267 229.096 68.772 228.856 67.908 228.376C67.044 227.885 66.356 227.208 65.844 226.344C65.3427 225.48 65.092 224.504 65.092 223.416C65.092 222.328 65.3427 221.352 65.844 220.488C66.356 219.624 67.044 218.952 67.908 218.472C68.7827 217.981 69.7373 217.736 70.772 217.736C71.956 217.736 73.0067 218.029 73.924 218.616C74.852 219.192 75.524 220.013 75.94 221.08H73.748ZM81.899 229.144C81.067 229.144 80.315 228.957 79.643 228.584C78.971 228.2 78.443 227.667 78.059 226.984C77.675 226.291 77.483 225.491 77.483 224.584C77.483 223.688 77.6803 222.893 78.075 222.2C78.4697 221.507 79.0083 220.973 79.691 220.6C80.3737 220.227 81.1363 220.04 81.979 220.04C82.8217 220.04 83.5843 220.227 84.267 220.6C84.9497 220.973 85.4883 221.507 85.883 222.2C86.2777 222.893 86.475 223.688 86.475 224.584C86.475 225.48 86.2723 226.275 85.867 226.968C85.4617 227.661 84.907 228.2 84.203 228.584C83.5097 228.957 82.7417 229.144 81.899 229.144ZM81.899 227.56C82.3683 227.56 82.8057 227.448 83.211 227.224C83.627 227 83.963 226.664 84.219 226.216C84.475 225.768 84.603 225.224 84.603 224.584C84.603 223.944 84.4803 223.405 84.235 222.968C83.9897 222.52 83.6643 222.184 83.259 221.96C82.8537 221.736 82.4163 221.624 81.947 221.624C81.4777 221.624 81.0403 221.736 80.635 221.96C80.2403 222.184 79.9257 222.52 79.691 222.968C79.4563 223.405 79.339 223.944 79.339 224.584C79.339 225.533 79.579 226.269 80.059 226.792C80.5497 227.304 81.163 227.56 81.899 227.56ZM92.1021 229.144C91.2701 229.144 90.5181 228.957 89.8461 228.584C89.1741 228.2 88.6461 227.667 88.2621 226.984C87.8781 226.291 87.6861 225.491 87.6861 224.584C87.6861 223.688 87.8835 222.893 88.2781 222.2C88.6728 221.507 89.2115 220.973 89.8941 220.6C90.5768 220.227 91.3395 220.04 92.1821 220.04C93.0248 220.04 93.7875 220.227 94.4701 220.6C95.1528 220.973 95.6915 221.507 96.0861 222.2C96.4808 222.893 96.6781 223.688 96.6781 224.584C96.6781 225.48 96.4755 226.275 96.0701 226.968C95.6648 227.661 95.1101 228.2 94.4061 228.584C93.7128 228.957 92.9448 229.144 92.1021 229.144ZM92.1021 227.56C92.5715 227.56 93.0088 227.448 93.4141 227.224C93.8301 227 94.1661 226.664 94.4221 226.216C94.6781 225.768 94.8061 225.224 94.8061 224.584C94.8061 223.944 94.6835 223.405 94.4381 222.968C94.1928 222.52 93.8675 222.184 93.4621 221.96C93.0568 221.736 92.6195 221.624 92.1501 221.624C91.6808 221.624 91.2435 221.736 90.8381 221.96C90.4435 222.184 90.1288 222.52 89.8941 222.968C89.6595 223.405 89.5421 223.944 89.5421 224.584C89.5421 225.533 89.7821 226.269 90.2621 226.792C90.7528 227.304 91.3661 227.56 92.1021 227.56ZM97.8733 224.552C97.8733 223.667 98.0546 222.883 98.4173 222.2C98.7906 221.517 99.2919 220.989 99.9213 220.616C100.561 220.232 101.271 220.04 102.049 220.04C102.625 220.04 103.191 220.168 103.745 220.424C104.311 220.669 104.759 221 105.089 221.416V217.16H106.929V229H105.089V227.672C104.791 228.099 104.375 228.451 103.841 228.728C103.319 229.005 102.716 229.144 102.033 229.144C101.265 229.144 100.561 228.952 99.9213 228.568C99.2919 228.173 98.7906 227.629 98.4173 226.936C98.0546 226.232 97.8733 225.437 97.8733 224.552ZM105.089 224.584C105.089 223.976 104.961 223.448 104.705 223C104.46 222.552 104.135 222.211 103.729 221.976C103.324 221.741 102.887 221.624 102.417 221.624C101.948 221.624 101.511 221.741 101.105 221.976C100.7 222.2 100.369 222.536 100.113 222.984C99.8679 223.421 99.7453 223.944 99.7453 224.552C99.7453 225.16 99.8679 225.693 100.113 226.152C100.369 226.611 100.7 226.963 101.105 227.208C101.521 227.443 101.959 227.56 102.417 227.56C102.887 227.56 103.324 227.443 103.729 227.208C104.135 226.973 104.46 226.632 104.705 226.184C104.961 225.725 105.089 225.192 105.089 224.584ZM117.177 221.672H115.545V229H113.705V221.672H112.665V220.184H113.705V219.56C113.705 218.547 113.972 217.811 114.505 217.352C115.049 216.883 115.897 216.648 117.049 216.648V218.168C116.495 218.168 116.105 218.275 115.881 218.488C115.657 218.691 115.545 219.048 115.545 219.56V220.184H117.177V221.672ZM122.618 229.144C121.786 229.144 121.034 228.957 120.362 228.584C119.69 228.2 119.162 227.667 118.778 226.984C118.394 226.291 118.202 225.491 118.202 224.584C118.202 223.688 118.399 222.893 118.794 222.2C119.188 221.507 119.727 220.973 120.41 220.6C121.092 220.227 121.855 220.04 122.698 220.04C123.54 220.04 124.303 220.227 124.986 220.6C125.668 220.973 126.207 221.507 126.602 222.2C126.996 222.893 127.194 223.688 127.194 224.584C127.194 225.48 126.991 226.275 126.586 226.968C126.18 227.661 125.626 228.2 124.922 228.584C124.228 228.957 123.46 229.144 122.618 229.144ZM122.618 227.56C123.087 227.56 123.524 227.448 123.93 227.224C124.346 227 124.682 226.664 124.938 226.216C125.194 225.768 125.322 225.224 125.322 224.584C125.322 223.944 125.199 223.405 124.954 222.968C124.708 222.52 124.383 222.184 123.978 221.96C123.572 221.736 123.135 221.624 122.666 221.624C122.196 221.624 121.759 221.736 121.354 221.96C120.959 222.184 120.644 222.52 120.41 222.968C120.175 223.405 120.058 223.944 120.058 224.584C120.058 225.533 120.298 226.269 120.778 226.792C121.268 227.304 121.882 227.56 122.618 227.56ZM130.821 221.464C131.088 221.016 131.44 220.669 131.877 220.424C132.325 220.168 132.853 220.04 133.461 220.04V221.928H132.997C132.282 221.928 131.738 222.109 131.365 222.472C131.002 222.835 130.821 223.464 130.821 224.36V229H128.997V220.184H130.821V221.464ZM142.99 221.672H141.358V229H139.518V221.672H138.478V220.184H139.518V219.56C139.518 218.547 139.784 217.811 140.318 217.352C140.862 216.883 141.71 216.648 142.862 216.648V218.168C142.307 218.168 141.918 218.275 141.694 218.488C141.47 218.691 141.358 219.048 141.358 219.56V220.184H142.99V221.672ZM146.43 221.464C146.697 221.016 147.049 220.669 147.486 220.424C147.934 220.168 148.462 220.04 149.07 220.04V221.928H148.606C147.892 221.928 147.348 222.109 146.974 222.472C146.612 222.835 146.43 223.464 146.43 224.36V229H144.606V220.184H146.43V221.464ZM158.827 224.376C158.827 224.707 158.806 225.005 158.763 225.272H152.027C152.08 225.976 152.342 226.541 152.811 226.968C153.28 227.395 153.856 227.608 154.539 227.608C155.52 227.608 156.214 227.197 156.619 226.376H158.587C158.32 227.187 157.835 227.853 157.131 228.376C156.438 228.888 155.574 229.144 154.539 229.144C153.696 229.144 152.939 228.957 152.267 228.584C151.606 228.2 151.083 227.667 150.699 226.984C150.326 226.291 150.139 225.491 150.139 224.584C150.139 223.677 150.32 222.883 150.683 222.2C151.056 221.507 151.574 220.973 152.235 220.6C152.907 220.227 153.675 220.04 154.539 220.04C155.371 220.04 156.112 220.221 156.763 220.584C157.414 220.947 157.92 221.459 158.283 222.12C158.646 222.771 158.827 223.523 158.827 224.376ZM156.923 223.8C156.912 223.128 156.672 222.589 156.203 222.184C155.734 221.779 155.152 221.576 154.459 221.576C153.83 221.576 153.291 221.779 152.843 222.184C152.395 222.579 152.128 223.117 152.043 223.8H156.923ZM160.014 224.552C160.014 223.667 160.195 222.883 160.558 222.2C160.931 221.517 161.433 220.989 162.062 220.616C162.702 220.232 163.411 220.04 164.19 220.04C164.873 220.04 165.475 220.179 165.998 220.456C166.531 220.733 166.942 221.069 167.23 221.464V220.184H169.07V233.192H167.23V227.72C166.942 228.115 166.526 228.451 165.982 228.728C165.438 229.005 164.819 229.144 164.126 229.144C163.369 229.144 162.675 228.952 162.046 228.568C161.427 228.173 160.931 227.629 160.558 226.936C160.195 226.232 160.014 225.437 160.014 224.552ZM167.23 224.584C167.23 223.976 167.102 223.448 166.846 223C166.601 222.552 166.275 222.211 165.87 221.976C165.465 221.741 165.027 221.624 164.558 221.624C164.089 221.624 163.651 221.741 163.246 221.976C162.841 222.2 162.51 222.536 162.254 222.984C162.009 223.421 161.886 223.944 161.886 224.552C161.886 225.16 162.009 225.693 162.254 226.152C162.51 226.611 162.841 226.963 163.246 227.208C163.662 227.443 164.099 227.56 164.558 227.56C165.027 227.56 165.465 227.443 165.87 227.208C166.275 226.973 166.601 226.632 166.846 226.184C167.102 225.725 167.23 225.192 167.23 224.584ZM179.45 220.184V229H177.626V227.96C177.338 228.323 176.959 228.611 176.49 228.824C176.031 229.027 175.54 229.128 175.018 229.128C174.324 229.128 173.7 228.984 173.146 228.696C172.602 228.408 172.17 227.981 171.85 227.416C171.54 226.851 171.386 226.168 171.386 225.368V220.184H173.194V225.096C173.194 225.885 173.391 226.493 173.786 226.92C174.18 227.336 174.719 227.544 175.402 227.544C176.084 227.544 176.623 227.336 177.018 226.92C177.423 226.493 177.626 225.885 177.626 225.096V220.184H179.45ZM189.936 224.376C189.936 224.707 189.915 225.005 189.872 225.272H183.136C183.19 225.976 183.451 226.541 183.92 226.968C184.39 227.395 184.966 227.608 185.648 227.608C186.63 227.608 187.323 227.197 187.728 226.376H189.696C189.43 227.187 188.944 227.853 188.24 228.376C187.547 228.888 186.683 229.144 185.648 229.144C184.806 229.144 184.048 228.957 183.376 228.584C182.715 228.2 182.192 227.667 181.808 226.984C181.435 226.291 181.248 225.491 181.248 224.584C181.248 223.677 181.43 222.883 181.792 222.2C182.166 221.507 182.683 220.973 183.344 220.6C184.016 220.227 184.784 220.04 185.648 220.04C186.48 220.04 187.222 220.221 187.872 220.584C188.523 220.947 189.03 221.459 189.392 222.12C189.755 222.771 189.936 223.523 189.936 224.376ZM188.032 223.8C188.022 223.128 187.782 222.589 187.312 222.184C186.843 221.779 186.262 221.576 185.568 221.576C184.939 221.576 184.4 221.779 183.952 222.184C183.504 222.579 183.238 223.117 183.152 223.8H188.032ZM196.179 220.04C196.873 220.04 197.491 220.184 198.035 220.472C198.59 220.76 199.022 221.187 199.331 221.752C199.641 222.317 199.795 223 199.795 223.8V229H197.987V224.072C197.987 223.283 197.79 222.68 197.395 222.264C197.001 221.837 196.462 221.624 195.779 221.624C195.097 221.624 194.553 221.837 194.147 222.264C193.753 222.68 193.555 223.283 193.555 224.072V229H191.731V220.184H193.555V221.192C193.854 220.829 194.233 220.547 194.691 220.344C195.161 220.141 195.657 220.04 196.179 220.04ZM204.25 221.672V226.552C204.25 226.883 204.325 227.123 204.474 227.272C204.634 227.411 204.901 227.48 205.274 227.48H206.394V229H204.954C204.133 229 203.503 228.808 203.066 228.424C202.629 228.04 202.41 227.416 202.41 226.552V221.672H201.37V220.184H202.41V217.992H204.25V220.184H206.394V221.672H204.25ZM214.055 221.48C214.365 221.075 214.786 220.733 215.319 220.456C215.853 220.179 216.455 220.04 217.127 220.04C217.895 220.04 218.594 220.232 219.223 220.616C219.863 220.989 220.365 221.517 220.727 222.2C221.09 222.883 221.271 223.667 221.271 224.552C221.271 225.437 221.09 226.232 220.727 226.936C220.365 227.629 219.863 228.173 219.223 228.568C218.594 228.952 217.895 229.144 217.127 229.144C216.455 229.144 215.858 229.011 215.335 228.744C214.813 228.467 214.386 228.125 214.055 227.72V233.192H212.231V220.184H214.055V221.48ZM219.415 224.552C219.415 223.944 219.287 223.421 219.031 222.984C218.786 222.536 218.455 222.2 218.039 221.976C217.634 221.741 217.197 221.624 216.727 221.624C216.269 221.624 215.831 221.741 215.415 221.976C215.01 222.211 214.679 222.552 214.423 223C214.178 223.448 214.055 223.976 214.055 224.584C214.055 225.192 214.178 225.725 214.423 226.184C214.679 226.632 215.01 226.973 215.415 227.208C215.831 227.443 216.269 227.56 216.727 227.56C217.197 227.56 217.634 227.443 218.039 227.208C218.455 226.963 218.786 226.611 219.031 226.152C219.287 225.693 219.415 225.16 219.415 224.552ZM222.467 224.552C222.467 223.667 222.648 222.883 223.011 222.2C223.384 221.517 223.886 220.989 224.515 220.616C225.155 220.232 225.859 220.04 226.627 220.04C227.32 220.04 227.923 220.179 228.435 220.456C228.958 220.723 229.374 221.059 229.683 221.464V220.184H231.523V229H229.683V227.688C229.374 228.104 228.952 228.451 228.419 228.728C227.886 229.005 227.278 229.144 226.595 229.144C225.838 229.144 225.144 228.952 224.515 228.568C223.886 228.173 223.384 227.629 223.011 226.936C222.648 226.232 222.467 225.437 222.467 224.552ZM229.683 224.584C229.683 223.976 229.555 223.448 229.299 223C229.054 222.552 228.728 222.211 228.323 221.976C227.918 221.741 227.48 221.624 227.011 221.624C226.542 221.624 226.104 221.741 225.699 221.976C225.294 222.2 224.963 222.536 224.707 222.984C224.462 223.421 224.339 223.944 224.339 224.552C224.339 225.16 224.462 225.693 224.707 226.152C224.963 226.611 225.294 226.963 225.699 227.208C226.115 227.443 226.552 227.56 227.011 227.56C227.48 227.56 227.918 227.443 228.323 227.208C228.728 226.973 229.054 226.632 229.299 226.184C229.555 225.725 229.683 225.192 229.683 224.584ZM235.743 221.464C236.009 221.016 236.361 220.669 236.799 220.424C237.247 220.168 237.775 220.04 238.383 220.04V221.928H237.919C237.204 221.928 236.66 222.109 236.287 222.472C235.924 222.835 235.743 223.464 235.743 224.36V229H233.919V220.184H235.743V221.464ZM243.547 224.6L247.611 229H245.147L241.883 225.208V229H240.059V217.16H241.883V224.04L245.083 220.184H247.611L243.547 224.6ZM256.999 224.376C256.999 224.707 256.977 225.005 256.935 225.272H250.199C250.252 225.976 250.513 226.541 250.983 226.968C251.452 227.395 252.028 227.608 252.711 227.608C253.692 227.608 254.385 227.197 254.791 226.376H256.759C256.492 227.187 256.007 227.853 255.303 228.376C254.609 228.888 253.745 229.144 252.711 229.144C251.868 229.144 251.111 228.957 250.439 228.584C249.777 228.2 249.255 227.667 248.871 226.984C248.497 226.291 248.311 225.491 248.311 224.584C248.311 223.677 248.492 222.883 248.855 222.2C249.228 221.507 249.745 220.973 250.407 220.6C251.079 220.227 251.847 220.04 252.711 220.04C253.543 220.04 254.284 220.221 254.935 220.584C255.585 220.947 256.092 221.459 256.455 222.12C256.817 222.771 256.999 223.523 256.999 224.376ZM255.095 223.8C255.084 223.128 254.844 222.589 254.375 222.184C253.905 221.779 253.324 221.576 252.631 221.576C252.001 221.576 251.463 221.779 251.015 222.184C250.567 222.579 250.3 223.117 250.215 223.8H255.095ZM260.618 221.464C260.884 221.016 261.236 220.669 261.674 220.424C262.122 220.168 262.65 220.04 263.258 220.04V221.928H262.794C262.079 221.928 261.535 222.109 261.162 222.472C260.799 222.835 260.618 223.464 260.618 224.36V229H258.794V220.184H260.618V221.464ZM268.134 229.144C267.441 229.144 266.817 229.021 266.262 228.776C265.718 228.52 265.286 228.179 264.966 227.752C264.646 227.315 264.476 226.829 264.454 226.296H266.342C266.374 226.669 266.55 226.984 266.87 227.24C267.201 227.485 267.612 227.608 268.102 227.608C268.614 227.608 269.009 227.512 269.286 227.32C269.574 227.117 269.718 226.861 269.718 226.552C269.718 226.221 269.558 225.976 269.238 225.816C268.929 225.656 268.433 225.48 267.75 225.288C267.089 225.107 266.55 224.931 266.134 224.76C265.718 224.589 265.356 224.328 265.046 223.976C264.748 223.624 264.598 223.16 264.598 222.584C264.598 222.115 264.737 221.688 265.014 221.304C265.292 220.909 265.686 220.6 266.198 220.376C266.721 220.152 267.318 220.04 267.99 220.04C268.993 220.04 269.798 220.296 270.406 220.808C271.025 221.309 271.356 221.997 271.398 222.872H269.574C269.542 222.477 269.382 222.163 269.094 221.928C268.806 221.693 268.417 221.576 267.926 221.576C267.446 221.576 267.078 221.667 266.822 221.848C266.566 222.029 266.438 222.269 266.438 222.568C266.438 222.803 266.524 223 266.694 223.16C266.865 223.32 267.073 223.448 267.318 223.544C267.564 223.629 267.926 223.741 268.406 223.88C269.046 224.051 269.569 224.227 269.974 224.408C270.39 224.579 270.748 224.835 271.046 225.176C271.345 225.517 271.5 225.971 271.51 226.536C271.51 227.037 271.372 227.485 271.094 227.88C270.817 228.275 270.422 228.584 269.91 228.808C269.409 229.032 268.817 229.144 268.134 229.144Z" fill="#555555"/>
<path d="M36.5 223L41.75 228.25L52.25 217" stroke="#6695FF" stroke-width="2" stroke-linecap="round" stroke-linejoin="round"/>
<path d="M72.404 262.728H67.748L66.948 265H65.044L69.028 253.864H71.14L75.124 265H73.204L72.404 262.728ZM71.892 261.24L70.084 256.072L68.26 261.24H71.892ZM76.2483 260.552C76.2483 259.667 76.4296 258.883 76.7923 258.2C77.1656 257.517 77.6669 256.989 78.2963 256.616C78.9363 256.232 79.6456 256.04 80.4243 256.04C81.0003 256.04 81.5656 256.168 82.1203 256.424C82.6856 256.669 83.1336 257 83.4643 257.416V253.16H85.3043V265H83.4643V263.672C83.1656 264.099 82.7496 264.451 82.2163 264.728C81.6936 265.005 81.0909 265.144 80.4083 265.144C79.6403 265.144 78.9363 264.952 78.2963 264.568C77.6669 264.173 77.1656 263.629 76.7923 262.936C76.4296 262.232 76.2483 261.437 76.2483 260.552ZM83.4643 260.584C83.4643 259.976 83.3363 259.448 83.0803 259C82.8349 258.552 82.5096 258.211 82.1043 257.976C81.6989 257.741 81.2616 257.624 80.7923 257.624C80.3229 257.624 79.8856 257.741 79.4803 257.976C79.0749 258.2 78.7443 258.536 78.4883 258.984C78.2429 259.421 78.1203 259.944 78.1203 260.552C78.1203 261.16 78.2429 261.693 78.4883 262.152C78.7443 262.611 79.0749 262.963 79.4803 263.208C79.8963 263.443 80.3336 263.56 80.7923 263.56C81.2616 263.56 81.6989 263.443 82.1043 263.208C82.5096 262.973 82.8349 262.632 83.0803 262.184C83.3363 261.725 83.4643 261.192 83.4643 260.584ZM91.108 263.368L93.604 256.184H95.54L92.18 265H90.004L86.66 256.184H88.612L91.108 263.368ZM96.3108 260.552C96.3108 259.667 96.4921 258.883 96.8548 258.2C97.2281 257.517 97.7294 256.989 98.3588 256.616C98.9988 256.232 99.7028 256.04 100.471 256.04C101.164 256.04 101.767 256.179 102.279 256.456C102.801 256.723 103.217 257.059 103.527 257.464V256.184H105.367V265H103.527V263.688C103.217 264.104 102.796 264.451 102.263 264.728C101.729 265.005 101.121 265.144 100.439 265.144C99.6814 265.144 98.9881 264.952 98.3588 264.568C97.7294 264.173 97.2281 263.629 96.8548 262.936C96.4921 262.232 96.3108 261.437 96.3108 260.552ZM103.527 260.584C103.527 259.976 103.399 259.448 103.143 259C102.897 258.552 102.572 258.211 102.167 257.976C101.761 257.741 101.324 257.624 100.855 257.624C100.385 257.624 99.9481 257.741 99.5428 257.976C99.1374 258.2 98.8068 258.536 98.5508 258.984C98.3054 259.421 98.1828 259.944 98.1828 260.552C98.1828 261.16 98.3054 261.693 98.5508 262.152C98.8068 262.611 99.1374 262.963 99.5428 263.208C99.9588 263.443 100.396 263.56 100.855 263.56C101.324 263.56 101.761 263.443 102.167 263.208C102.572 262.973 102.897 262.632 103.143 262.184C103.399 261.725 103.527 261.192 103.527 260.584ZM112.211 256.04C112.904 256.04 113.523 256.184 114.067 256.472C114.621 256.76 115.053 257.187 115.363 257.752C115.672 258.317 115.827 259 115.827 259.8V265H114.019V260.072C114.019 259.283 113.821 258.68 113.427 258.264C113.032 257.837 112.493 257.624 111.811 257.624C111.128 257.624 110.584 257.837 110.179 258.264C109.784 258.68 109.587 259.283 109.587 260.072V265H107.763V256.184H109.587V257.192C109.885 256.829 110.264 256.547 110.723 256.344C111.192 256.141 111.688 256.04 112.211 256.04ZM117.545 260.584C117.545 259.677 117.726 258.883 118.089 258.2C118.462 257.507 118.974 256.973 119.625 256.6C120.276 256.227 121.022 256.04 121.865 256.04C122.932 256.04 123.812 256.296 124.505 256.808C125.209 257.309 125.684 258.029 125.929 258.968H123.961C123.801 258.531 123.545 258.189 123.193 257.944C122.841 257.699 122.398 257.576 121.865 257.576C121.118 257.576 120.521 257.843 120.073 258.376C119.636 258.899 119.417 259.635 119.417 260.584C119.417 261.533 119.636 262.275 120.073 262.808C120.521 263.341 121.118 263.608 121.865 263.608C122.921 263.608 123.62 263.144 123.961 262.216H125.929C125.673 263.112 125.193 263.827 124.489 264.36C123.785 264.883 122.91 265.144 121.865 265.144C121.022 265.144 120.276 264.957 119.625 264.584C118.974 264.2 118.462 263.667 118.089 262.984C117.726 262.291 117.545 261.491 117.545 260.584ZM135.827 260.376C135.827 260.707 135.806 261.005 135.763 261.272H129.027C129.08 261.976 129.342 262.541 129.811 262.968C130.28 263.395 130.856 263.608 131.539 263.608C132.52 263.608 133.214 263.197 133.619 262.376H135.587C135.32 263.187 134.835 263.853 134.131 264.376C133.438 264.888 132.574 265.144 131.539 265.144C130.696 265.144 129.939 264.957 129.267 264.584C128.606 264.2 128.083 263.667 127.699 262.984C127.326 262.291 127.139 261.491 127.139 260.584C127.139 259.677 127.32 258.883 127.683 258.2C128.056 257.507 128.574 256.973 129.235 256.6C129.907 256.227 130.675 256.04 131.539 256.04C132.371 256.04 133.112 256.221 133.763 256.584C134.414 256.947 134.92 257.459 135.283 258.12C135.646 258.771 135.827 259.523 135.827 260.376ZM133.923 259.8C133.912 259.128 133.672 258.589 133.203 258.184C132.734 257.779 132.152 257.576 131.459 257.576C130.83 257.576 130.291 257.779 129.843 258.184C129.395 258.579 129.128 259.117 129.043 259.8H133.923ZM137.014 260.552C137.014 259.667 137.195 258.883 137.558 258.2C137.931 257.517 138.433 256.989 139.062 256.616C139.702 256.232 140.411 256.04 141.19 256.04C141.766 256.04 142.331 256.168 142.886 256.424C143.451 256.669 143.899 257 144.23 257.416V253.16H146.07V265H144.23V263.672C143.931 264.099 143.515 264.451 142.982 264.728C142.459 265.005 141.857 265.144 141.174 265.144C140.406 265.144 139.702 264.952 139.062 264.568C138.433 264.173 137.931 263.629 137.558 262.936C137.195 262.232 137.014 261.437 137.014 260.552ZM144.23 260.584C144.23 259.976 144.102 259.448 143.846 259C143.601 258.552 143.275 258.211 142.87 257.976C142.465 257.741 142.027 257.624 141.558 257.624C141.089 257.624 140.651 257.741 140.246 257.976C139.841 258.2 139.51 258.536 139.254 258.984C139.009 259.421 138.886 259.944 138.886 260.552C138.886 261.16 139.009 261.693 139.254 262.152C139.51 262.611 139.841 262.963 140.246 263.208C140.662 263.443 141.099 263.56 141.558 263.56C142.027 263.56 142.465 263.443 142.87 263.208C143.275 262.973 143.601 262.632 143.846 262.184C144.102 261.725 144.23 261.192 144.23 260.584ZM155.822 265.144C155.129 265.144 154.505 265.021 153.95 264.776C153.406 264.52 152.974 264.179 152.654 263.752C152.334 263.315 152.163 262.829 152.142 262.296H154.03C154.062 262.669 154.238 262.984 154.558 263.24C154.889 263.485 155.299 263.608 155.79 263.608C156.302 263.608 156.697 263.512 156.974 263.32C157.262 263.117 157.406 262.861 157.406 262.552C157.406 262.221 157.246 261.976 156.926 261.816C156.617 261.656 156.121 261.48 155.438 261.288C154.777 261.107 154.238 260.931 153.822 260.76C153.406 260.589 153.043 260.328 152.734 259.976C152.435 259.624 152.286 259.16 152.286 258.584C152.286 258.115 152.425 257.688 152.702 257.304C152.979 256.909 153.374 256.6 153.886 256.376C154.409 256.152 155.006 256.04 155.678 256.04C156.681 256.04 157.486 256.296 158.094 256.808C158.713 257.309 159.043 257.997 159.086 258.872H157.262C157.23 258.477 157.07 258.163 156.782 257.928C156.494 257.693 156.105 257.576 155.614 257.576C155.134 257.576 154.766 257.667 154.51 257.848C154.254 258.029 154.126 258.269 154.126 258.568C154.126 258.803 154.211 259 154.382 259.16C154.553 259.32 154.761 259.448 155.006 259.544C155.251 259.629 155.614 259.741 156.094 259.88C156.734 260.051 157.257 260.227 157.662 260.408C158.078 260.579 158.435 260.835 158.734 261.176C159.033 261.517 159.187 261.971 159.198 262.536C159.198 263.037 159.059 263.485 158.782 263.88C158.505 264.275 158.11 264.584 157.598 264.808C157.097 265.032 156.505 265.144 155.822 265.144ZM169.249 260.376C169.249 260.707 169.227 261.005 169.185 261.272H162.449C162.502 261.976 162.763 262.541 163.233 262.968C163.702 263.395 164.278 263.608 164.961 263.608C165.942 263.608 166.635 263.197 167.041 262.376H169.009C168.742 263.187 168.257 263.853 167.553 264.376C166.859 264.888 165.995 265.144 164.961 265.144C164.118 265.144 163.361 264.957 162.689 264.584C162.027 264.2 161.505 263.667 161.121 262.984C160.747 262.291 160.561 261.491 160.561 260.584C160.561 259.677 160.742 258.883 161.105 258.2C161.478 257.507 161.995 256.973 162.657 256.6C163.329 256.227 164.097 256.04 164.961 256.04C165.793 256.04 166.534 256.221 167.185 256.584C167.835 256.947 168.342 257.459 168.705 258.12C169.067 258.771 169.249 259.523 169.249 260.376ZM167.345 259.8C167.334 259.128 167.094 258.589 166.625 258.184C166.155 257.779 165.574 257.576 164.881 257.576C164.251 257.576 163.713 257.779 163.265 258.184C162.817 258.579 162.55 259.117 162.465 259.8H167.345ZM170.436 260.584C170.436 259.677 170.617 258.883 170.98 258.2C171.353 257.507 171.865 256.973 172.516 256.6C173.166 256.227 173.913 256.04 174.756 256.04C175.822 256.04 176.702 256.296 177.396 256.808C178.1 257.309 178.574 258.029 178.82 258.968H176.852C176.692 258.531 176.436 258.189 176.084 257.944C175.732 257.699 175.289 257.576 174.756 257.576C174.009 257.576 173.412 257.843 172.964 258.376C172.526 258.899 172.308 259.635 172.308 260.584C172.308 261.533 172.526 262.275 172.964 262.808C173.412 263.341 174.009 263.608 174.756 263.608C175.812 263.608 176.51 263.144 176.852 262.216H178.82C178.564 263.112 178.084 263.827 177.38 264.36C176.676 264.883 175.801 265.144 174.756 265.144C173.913 265.144 173.166 264.957 172.516 264.584C171.865 264.2 171.353 263.667 170.98 262.984C170.617 262.291 170.436 261.491 170.436 260.584ZM188.622 256.184V265H186.798V263.96C186.51 264.323 186.131 264.611 185.662 264.824C185.203 265.027 184.712 265.128 184.19 265.128C183.496 265.128 182.872 264.984 182.318 264.696C181.774 264.408 181.342 263.981 181.022 263.416C180.712 262.851 180.558 262.168 180.558 261.368V256.184H182.366V261.096C182.366 261.885 182.563 262.493 182.958 262.92C183.352 263.336 183.891 263.544 184.574 263.544C185.256 263.544 185.795 263.336 186.19 262.92C186.595 262.493 186.798 261.885 186.798 261.096V256.184H188.622ZM192.852 257.464C193.119 257.016 193.471 256.669 193.908 256.424C194.356 256.168 194.884 256.04 195.492 256.04V257.928H195.028C194.313 257.928 193.769 258.109 193.396 258.472C193.033 258.835 192.852 259.464 192.852 260.36V265H191.028V256.184H192.852V257.464ZM198.097 255.016C197.766 255.016 197.489 254.904 197.265 254.68C197.041 254.456 196.929 254.179 196.929 253.848C196.929 253.517 197.041 253.24 197.265 253.016C197.489 252.792 197.766 252.68 198.097 252.68C198.417 252.68 198.689 252.792 198.913 253.016C199.137 253.24 199.249 253.517 199.249 253.848C199.249 254.179 199.137 254.456 198.913 254.68C198.689 254.904 198.417 255.016 198.097 255.016ZM198.993 256.184V265H197.169V256.184H198.993ZM203.516 257.672V262.552C203.516 262.883 203.59 263.123 203.74 263.272C203.9 263.411 204.166 263.48 204.54 263.48H205.66V265H204.22C203.398 265 202.769 264.808 202.332 264.424C201.894 264.04 201.676 263.416 201.676 262.552V257.672H200.636V256.184H201.676V253.992H203.516V256.184H205.66V257.672H203.516ZM215.277 256.184L209.869 269.144H207.981L209.773 264.856L206.301 256.184H208.333L210.813 262.904L213.389 256.184H215.277Z" fill="#555555"/>
<path d="M36.5 259L41.75 264.25L52.25 253" stroke="#6695FF" stroke-width="2" stroke-linecap="round" stroke-linejoin="round"/>
<path d="M67.524 291.352V294.616H71.364V296.104H67.524V299.512H71.844V301H65.7V289.864H71.844V291.352H67.524ZM77.8666 296.536L80.7146 301H78.6506L76.7466 298.008L74.9546 301H73.0506L75.8986 296.664L73.0506 292.184H75.1146L77.0186 295.176L78.8106 292.184H80.7146L77.8666 296.536ZM81.467 296.584C81.467 295.677 81.6483 294.883 82.011 294.2C82.3843 293.507 82.8963 292.973 83.547 292.6C84.1977 292.227 84.9443 292.04 85.787 292.04C86.8537 292.04 87.7337 292.296 88.427 292.808C89.131 293.309 89.6057 294.029 89.851 294.968H87.883C87.723 294.531 87.467 294.189 87.115 293.944C86.763 293.699 86.3203 293.576 85.787 293.576C85.0403 293.576 84.443 293.843 83.995 294.376C83.5577 294.899 83.339 295.635 83.339 296.584C83.339 297.533 83.5577 298.275 83.995 298.808C84.443 299.341 85.0403 299.608 85.787 299.608C86.843 299.608 87.5417 299.144 87.883 298.216H89.851C89.595 299.112 89.115 299.827 88.411 300.36C87.707 300.883 86.8323 301.144 85.787 301.144C84.9443 301.144 84.1977 300.957 83.547 300.584C82.8963 300.2 82.3843 299.667 82.011 298.984C81.6483 298.291 81.467 297.491 81.467 296.584ZM93.4928 289.16V301H91.6688V289.16H93.4928ZM103.872 292.184V301H102.048V299.96C101.76 300.323 101.381 300.611 100.912 300.824C100.453 301.027 99.9622 301.128 99.4395 301.128C98.7462 301.128 98.1222 300.984 97.5675 300.696C97.0235 300.408 96.5915 299.981 96.2715 299.416C95.9622 298.851 95.8075 298.168 95.8075 297.368V292.184H97.6155V297.096C97.6155 297.885 97.8128 298.493 98.2075 298.92C98.6022 299.336 99.1408 299.544 99.8235 299.544C100.506 299.544 101.045 299.336 101.44 298.92C101.845 298.493 102.048 297.885 102.048 297.096V292.184H103.872ZM109.478 301.144C108.785 301.144 108.161 301.021 107.606 300.776C107.062 300.52 106.63 300.179 106.31 299.752C105.99 299.315 105.819 298.829 105.798 298.296H107.686C107.718 298.669 107.894 298.984 108.214 299.24C108.545 299.485 108.955 299.608 109.446 299.608C109.958 299.608 110.353 299.512 110.63 299.32C110.918 299.117 111.062 298.861 111.062 298.552C111.062 298.221 110.902 297.976 110.582 297.816C110.273 297.656 109.777 297.48 109.094 297.288C108.433 297.107 107.894 296.931 107.478 296.76C107.062 296.589 106.699 296.328 106.39 295.976C106.091 295.624 105.942 295.16 105.942 294.584C105.942 294.115 106.081 293.688 106.358 293.304C106.635 292.909 107.03 292.6 107.542 292.376C108.065 292.152 108.662 292.04 109.334 292.04C110.337 292.04 111.142 292.296 111.75 292.808C112.369 293.309 112.699 293.997 112.742 294.872H110.918C110.886 294.477 110.726 294.163 110.438 293.928C110.15 293.693 109.761 293.576 109.27 293.576C108.79 293.576 108.422 293.667 108.166 293.848C107.91 294.029 107.782 294.269 107.782 294.568C107.782 294.803 107.867 295 108.038 295.16C108.209 295.32 108.417 295.448 108.662 295.544C108.907 295.629 109.27 295.741 109.75 295.88C110.39 296.051 110.913 296.227 111.318 296.408C111.734 296.579 112.091 296.835 112.39 297.176C112.689 297.517 112.843 297.971 112.854 298.536C112.854 299.037 112.715 299.485 112.438 299.88C112.161 300.275 111.766 300.584 111.254 300.808C110.753 301.032 110.161 301.144 109.478 301.144ZM115.753 291.016C115.422 291.016 115.145 290.904 114.921 290.68C114.697 290.456 114.585 290.179 114.585 289.848C114.585 289.517 114.697 289.24 114.921 289.016C115.145 288.792 115.422 288.68 115.753 288.68C116.073 288.68 116.345 288.792 116.569 289.016C116.793 289.24 116.905 289.517 116.905 289.848C116.905 290.179 116.793 290.456 116.569 290.68C116.345 290.904 116.073 291.016 115.753 291.016ZM116.649 292.184V301H114.825V292.184H116.649ZM122.452 299.368L124.948 292.184H126.884L123.524 301H121.348L118.004 292.184H119.956L122.452 299.368ZM136.343 296.376C136.343 296.707 136.321 297.005 136.279 297.272H129.543C129.596 297.976 129.857 298.541 130.327 298.968C130.796 299.395 131.372 299.608 132.055 299.608C133.036 299.608 133.729 299.197 134.135 298.376H136.102C135.836 299.187 135.351 299.853 134.647 300.376C133.953 300.888 133.089 301.144 132.055 301.144C131.212 301.144 130.455 300.957 129.783 300.584C129.121 300.2 128.599 299.667 128.215 298.984C127.841 298.291 127.655 297.491 127.655 296.584C127.655 295.677 127.836 294.883 128.199 294.2C128.572 293.507 129.089 292.973 129.751 292.6C130.423 292.227 131.191 292.04 132.055 292.04C132.887 292.04 133.628 292.221 134.279 292.584C134.929 292.947 135.436 293.459 135.799 294.12C136.161 294.771 136.343 295.523 136.343 296.376ZM134.439 295.8C134.428 295.128 134.188 294.589 133.719 294.184C133.249 293.779 132.668 293.576 131.975 293.576C131.345 293.576 130.807 293.779 130.359 294.184C129.911 294.579 129.644 295.117 129.559 295.8H134.439ZM144.118 293.48C144.427 293.075 144.848 292.733 145.382 292.456C145.915 292.179 146.518 292.04 147.19 292.04C147.958 292.04 148.656 292.232 149.286 292.616C149.926 292.989 150.427 293.517 150.79 294.2C151.152 294.883 151.334 295.667 151.334 296.552C151.334 297.437 151.152 298.232 150.79 298.936C150.427 299.629 149.926 300.173 149.286 300.568C148.656 300.952 147.958 301.144 147.19 301.144C146.518 301.144 145.92 301.011 145.398 300.744C144.875 300.467 144.448 300.125 144.118 299.72V305.192H142.294V292.184H144.118V293.48ZM149.478 296.552C149.478 295.944 149.35 295.421 149.094 294.984C148.848 294.536 148.518 294.2 148.102 293.976C147.696 293.741 147.259 293.624 146.79 293.624C146.331 293.624 145.894 293.741 145.478 293.976C145.072 294.211 144.742 294.552 144.486 295C144.24 295.448 144.118 295.976 144.118 296.584C144.118 297.192 144.24 297.725 144.486 298.184C144.742 298.632 145.072 298.973 145.478 299.208C145.894 299.443 146.331 299.56 146.79 299.56C147.259 299.56 147.696 299.443 148.102 299.208C148.518 298.963 148.848 298.611 149.094 298.152C149.35 297.693 149.478 297.16 149.478 296.552ZM161.218 296.376C161.218 296.707 161.196 297.005 161.154 297.272H154.418C154.471 297.976 154.732 298.541 155.202 298.968C155.671 299.395 156.247 299.608 156.93 299.608C157.911 299.608 158.604 299.197 159.01 298.376H160.977C160.711 299.187 160.226 299.853 159.522 300.376C158.828 300.888 157.964 301.144 156.93 301.144C156.087 301.144 155.33 300.957 154.658 300.584C153.996 300.2 153.474 299.667 153.09 298.984C152.716 298.291 152.53 297.491 152.53 296.584C152.53 295.677 152.711 294.883 153.074 294.2C153.447 293.507 153.964 292.973 154.626 292.6C155.298 292.227 156.066 292.04 156.93 292.04C157.762 292.04 158.503 292.221 159.154 292.584C159.804 292.947 160.311 293.459 160.674 294.12C161.036 294.771 161.218 295.523 161.218 296.376ZM159.314 295.8C159.303 295.128 159.063 294.589 158.594 294.184C158.124 293.779 157.543 293.576 156.85 293.576C156.22 293.576 155.682 293.779 155.234 294.184C154.786 294.579 154.519 295.117 154.434 295.8H159.314ZM164.837 293.464C165.103 293.016 165.455 292.669 165.893 292.424C166.341 292.168 166.869 292.04 167.477 292.04V293.928H167.013C166.298 293.928 165.754 294.109 165.381 294.472C165.018 294.835 164.837 295.464 164.837 296.36V301H163.013V292.184H164.837V293.464ZM172.641 296.6L176.705 301H174.241L170.977 297.208V301H169.153V289.16H170.977V296.04L174.177 292.184H176.705L172.641 296.6ZM181.213 301.144C180.519 301.144 179.895 301.021 179.341 300.776C178.797 300.52 178.365 300.179 178.045 299.752C177.725 299.315 177.554 298.829 177.533 298.296H179.421C179.453 298.669 179.629 298.984 179.949 299.24C180.279 299.485 180.69 299.608 181.181 299.608C181.693 299.608 182.087 299.512 182.365 299.32C182.653 299.117 182.797 298.861 182.797 298.552C182.797 298.221 182.637 297.976 182.317 297.816C182.007 297.656 181.511 297.48 180.829 297.288C180.167 297.107 179.629 296.931 179.213 296.76C178.797 296.589 178.434 296.328 178.125 295.976C177.826 295.624 177.677 295.16 177.677 294.584C177.677 294.115 177.815 293.688 178.093 293.304C178.37 292.909 178.765 292.6 179.277 292.376C179.799 292.152 180.397 292.04 181.069 292.04C182.071 292.04 182.877 292.296 183.485 292.808C184.103 293.309 184.434 293.997 184.477 294.872H182.653C182.621 294.477 182.461 294.163 182.173 293.928C181.885 293.693 181.495 293.576 181.005 293.576C180.525 293.576 180.157 293.667 179.901 293.848C179.645 294.029 179.517 294.269 179.517 294.568C179.517 294.803 179.602 295 179.773 295.16C179.943 295.32 180.151 295.448 180.397 295.544C180.642 295.629 181.005 295.741 181.485 295.88C182.125 296.051 182.647 296.227 183.053 296.408C183.469 296.579 183.826 296.835 184.125 297.176C184.423 297.517 184.578 297.971 184.589 298.536C184.589 299.037 184.45 299.485 184.173 299.88C183.895 300.275 183.501 300.584 182.989 300.808C182.487 301.032 181.895 301.144 181.213 301.144Z" fill="#555555"/>
<path d="M36.5 295L41.75 300.25L52.25 289" stroke="#6695FF" stroke-width="2" stroke-linecap="round" stroke-linejoin="round"/>
<circle cx="152" cy="41.5" r="39.5" fill="#FAFBFF" stroke="#6695FF" stroke-width="4"/>
<path d="M156.625 59C156.625 59.2984 156.507 59.5845 156.296 59.7955C156.085 60.0065 155.798 60.125 155.5 60.125H149.5C149.202 60.125 148.916 60.0065 148.705 59.7955C148.494 59.5845 148.375 59.2984 148.375 59C148.375 58.7017 148.494 58.4155 148.705 58.2045C148.916 57.9935 149.202 57.875 149.5 57.875H155.5C155.798 57.875 156.085 57.9935 156.296 58.2045C156.507 58.4155 156.625 58.7017 156.625 59ZM152.5 37.625C152.871 37.625 153.233 37.5151 153.542 37.309C153.85 37.103 154.09 36.8102 154.232 36.4676C154.374 36.1249 154.411 35.7479 154.339 35.3842C154.267 35.0205 154.088 34.6864 153.826 34.4242C153.564 34.162 153.23 33.9834 152.866 33.911C152.502 33.8387 152.125 33.8758 151.782 34.0177C151.44 34.1597 151.147 34.4 150.941 34.7083C150.735 35.0167 150.625 35.3792 150.625 35.75C150.625 36.2473 150.823 36.7242 151.174 37.0758C151.526 37.4275 152.003 37.625 152.5 37.625ZM170.063 46.1375L167.746 56.5625C167.65 56.996 167.446 57.3982 167.153 57.7314C166.859 58.0646 166.486 58.318 166.068 58.4678C165.65 58.6177 165.201 58.6591 164.763 58.5882C164.325 58.5173 163.912 58.3365 163.563 58.0625L158.352 54.125H146.654L141.438 58.0625C141.088 58.3378 140.675 58.5198 140.236 58.5914C139.797 58.663 139.347 58.6219 138.928 58.472C138.509 58.322 138.135 58.0681 137.842 57.7341C137.548 57.4001 137.344 56.997 137.249 56.5625L134.937 46.1375C134.851 45.7457 134.855 45.3393 134.949 44.9494C135.044 44.5595 135.226 44.1963 135.483 43.8875L140.92 37.37C141.088 35.0068 141.625 32.6844 142.51 30.4869C144.895 24.5094 149.17 20.7594 150.897 19.4244C151.357 19.0674 151.923 18.8737 152.506 18.8737C153.088 18.8737 153.654 19.0674 154.114 19.4244C155.841 20.7594 160.114 24.5094 162.501 30.4869C163.387 32.6844 163.923 35.0068 164.091 37.37L169.529 43.8875C169.783 44.1973 169.963 44.5609 170.056 44.9508C170.148 45.3407 170.151 45.7465 170.063 46.1375ZM146.924 51.875H158.076C162.188 44.6638 162.974 37.7506 160.407 31.3213C158.166 25.6963 153.966 22.1581 152.733 21.1963C152.666 21.144 152.584 21.1155 152.5 21.1155C152.416 21.1155 152.334 21.144 152.268 21.1963C151.034 22.1506 146.83 25.6963 144.593 31.3213C142.026 37.7506 142.812 44.6638 146.924 51.875ZM144.813 52.7C142.563 48.6706 141.269 44.7125 140.946 40.8519L137.211 45.3275C137.175 45.3714 137.148 45.4231 137.135 45.4787C137.121 45.5343 137.12 45.5922 137.133 45.6481L139.452 56.0806C139.466 56.1428 139.495 56.2004 139.537 56.248C139.579 56.2957 139.633 56.3318 139.693 56.353C139.753 56.3742 139.818 56.3798 139.88 56.3692C139.943 56.3586 140.002 56.3322 140.052 56.2925L140.076 56.2719L144.813 52.7ZM167.794 45.3275L164.065 40.8519C163.743 44.7125 162.453 48.6706 160.199 52.7L164.929 56.2625L164.954 56.2831C165.004 56.3228 165.063 56.3492 165.125 56.3598C165.188 56.3704 165.253 56.3648 165.313 56.3436C165.373 56.3224 165.426 56.2863 165.468 56.2387C165.511 56.191 165.54 56.1334 165.554 56.0713L167.875 45.6481C167.886 45.5917 167.884 45.5334 167.869 45.4778C167.854 45.4222 167.827 45.3708 167.789 45.3275H167.794Z" fill="#5C5C5C"/>
</svg>
