<svg width="304" height="357" viewBox="0 0 304 357" fill="none" xmlns="http://www.w3.org/2000/svg">
<rect x="3" y="48.5" width="298" height="306" rx="9.5" fill="#FAFBFF" stroke="#6695FF" stroke-width="5"/>
<path d="M3 58C3 52.7533 7.25329 48.5 12.5 48.5H291.5C296.747 48.5 301 52.7533 301 58V188.5H3V58Z" fill="#6695FF" stroke="#6695FF" stroke-width="5"/>
<path d="M98.45 109.26C99.63 109.48 100.6 110.07 101.36 111.03C102.12 111.99 102.5 113.09 102.5 114.33C102.5 115.45 102.22 116.44 101.66 117.3C101.12 118.14 100.33 118.8 99.29 119.28C98.25 119.76 97.02 120 95.6 120H86.57V99.06H95.21C96.63 99.06 97.85 99.29 98.87 99.75C99.91 100.21 100.69 100.85 101.21 101.67C101.75 102.49 102.02 103.42 102.02 104.46C102.02 105.68 101.69 106.7 101.03 107.52C100.39 108.34 99.53 108.92 98.45 109.26ZM90.77 107.7H94.61C95.61 107.7 96.38 107.48 96.92 107.04C97.46 106.58 97.73 105.93 97.73 105.09C97.73 104.25 97.46 103.6 96.92 103.14C96.38 102.68 95.61 102.45 94.61 102.45H90.77V107.7ZM95 116.58C96.02 116.58 96.81 116.34 97.37 115.86C97.95 115.38 98.24 114.7 98.24 113.82C98.24 112.92 97.94 112.22 97.34 111.72C96.74 111.2 95.93 110.94 94.91 110.94H90.77V116.58H95ZM121.537 103.38V120H117.307V117.9C116.767 118.62 116.057 119.19 115.177 119.61C114.317 120.01 113.377 120.21 112.357 120.21C111.057 120.21 109.907 119.94 108.907 119.4C107.907 118.84 107.117 118.03 106.537 116.97C105.977 115.89 105.697 114.61 105.697 113.13V103.38H109.897V112.53C109.897 113.85 110.227 114.87 110.887 115.59C111.547 116.29 112.447 116.64 113.587 116.64C114.747 116.64 115.657 116.29 116.317 115.59C116.977 114.87 117.307 113.85 117.307 112.53V103.38H121.537ZM132.041 120.27C130.681 120.27 129.461 120.03 128.381 119.55C127.301 119.05 126.441 118.38 125.801 117.54C125.181 116.7 124.841 115.77 124.781 114.75H129.011C129.091 115.39 129.401 115.92 129.941 116.34C130.501 116.76 131.191 116.97 132.011 116.97C132.811 116.97 133.431 116.81 133.871 116.49C134.331 116.17 134.561 115.76 134.561 115.26C134.561 114.72 134.281 114.32 133.721 114.06C133.181 113.78 132.311 113.48 131.111 113.16C129.871 112.86 128.851 112.55 128.051 112.23C127.271 111.91 126.591 111.42 126.011 110.76C125.451 110.1 125.171 109.21 125.171 108.09C125.171 107.17 125.431 106.33 125.951 105.57C126.491 104.81 127.251 104.21 128.231 103.77C129.231 103.33 130.401 103.11 131.741 103.11C133.721 103.11 135.301 103.61 136.481 104.61C137.661 105.59 138.311 106.92 138.431 108.6H134.411C134.351 107.94 134.071 107.42 133.571 107.04C133.091 106.64 132.441 106.44 131.621 106.44C130.861 106.44 130.271 106.58 129.851 106.86C129.451 107.14 129.251 107.53 129.251 108.03C129.251 108.59 129.531 109.02 130.091 109.32C130.651 109.6 131.521 109.89 132.701 110.19C133.901 110.49 134.891 110.8 135.671 111.12C136.451 111.44 137.121 111.94 137.681 112.62C138.261 113.28 138.561 114.16 138.581 115.26C138.581 116.22 138.311 117.08 137.771 117.84C137.251 118.6 136.491 119.2 135.491 119.64C134.511 120.06 133.361 120.27 132.041 120.27ZM144.159 101.4C143.419 101.4 142.799 101.17 142.299 100.71C141.819 100.23 141.579 99.64 141.579 98.94C141.579 98.24 141.819 97.66 142.299 97.2C142.799 96.72 143.419 96.48 144.159 96.48C144.899 96.48 145.509 96.72 145.989 97.2C146.489 97.66 146.739 98.24 146.739 98.94C146.739 99.64 146.489 100.23 145.989 100.71C145.509 101.17 144.899 101.4 144.159 101.4ZM146.229 103.38V120H142.029V103.38H146.229ZM159.589 103.14C161.569 103.14 163.169 103.77 164.389 105.03C165.609 106.27 166.219 108.01 166.219 110.25V120H162.019V110.82C162.019 109.5 161.689 108.49 161.029 107.79C160.369 107.07 159.469 106.71 158.329 106.71C157.169 106.71 156.249 107.07 155.569 107.79C154.909 108.49 154.579 109.5 154.579 110.82V120H150.379V103.38H154.579V105.45C155.139 104.73 155.849 104.17 156.709 103.77C157.589 103.35 158.549 103.14 159.589 103.14ZM185.663 111.33C185.663 111.93 185.623 112.47 185.543 112.95H173.393C173.493 114.15 173.913 115.09 174.653 115.77C175.393 116.45 176.303 116.79 177.383 116.79C178.943 116.79 180.053 116.12 180.713 114.78H185.243C184.763 116.38 183.843 117.7 182.483 118.74C181.123 119.76 179.453 120.27 177.473 120.27C175.873 120.27 174.433 119.92 173.153 119.22C171.893 118.5 170.903 117.49 170.183 116.19C169.483 114.89 169.133 113.39 169.133 111.69C169.133 109.97 169.483 108.46 170.183 107.16C170.883 105.86 171.863 104.86 173.123 104.16C174.383 103.46 175.833 103.11 177.473 103.11C179.053 103.11 180.463 103.45 181.703 104.13C182.963 104.81 183.933 105.78 184.613 107.04C185.313 108.28 185.663 109.71 185.663 111.33ZM181.313 110.13C181.293 109.05 180.903 108.19 180.143 107.55C179.383 106.89 178.453 106.56 177.353 106.56C176.313 106.56 175.433 106.88 174.713 107.52C174.013 108.14 173.583 109.01 173.423 110.13H181.313ZM195.088 120.27C193.728 120.27 192.508 120.03 191.428 119.55C190.348 119.05 189.488 118.38 188.848 117.54C188.228 116.7 187.888 115.77 187.828 114.75H192.058C192.138 115.39 192.448 115.92 192.988 116.34C193.548 116.76 194.238 116.97 195.058 116.97C195.858 116.97 196.478 116.81 196.918 116.49C197.378 116.17 197.608 115.76 197.608 115.26C197.608 114.72 197.328 114.32 196.768 114.06C196.228 113.78 195.358 113.48 194.158 113.16C192.918 112.86 191.898 112.55 191.098 112.23C190.318 111.91 189.638 111.42 189.058 110.76C188.498 110.1 188.218 109.21 188.218 108.09C188.218 107.17 188.478 106.33 188.998 105.57C189.538 104.81 190.298 104.21 191.278 103.77C192.278 103.33 193.448 103.11 194.788 103.11C196.768 103.11 198.348 103.61 199.528 104.61C200.708 105.59 201.358 106.92 201.478 108.6H197.458C197.398 107.94 197.118 107.42 196.618 107.04C196.138 106.64 195.488 106.44 194.668 106.44C193.908 106.44 193.318 106.58 192.898 106.86C192.498 107.14 192.298 107.53 192.298 108.03C192.298 108.59 192.578 109.02 193.138 109.32C193.698 109.6 194.568 109.89 195.748 110.19C196.948 110.49 197.938 110.8 198.718 111.12C199.498 111.44 200.168 111.94 200.728 112.62C201.308 113.28 201.608 114.16 201.628 115.26C201.628 116.22 201.358 117.08 200.818 117.84C200.298 118.6 199.538 119.2 198.538 119.64C197.558 120.06 196.408 120.27 195.088 120.27ZM211.436 120.27C210.076 120.27 208.856 120.03 207.776 119.55C206.696 119.05 205.836 118.38 205.196 117.54C204.576 116.7 204.236 115.77 204.176 114.75H208.406C208.486 115.39 208.796 115.92 209.336 116.34C209.896 116.76 210.586 116.97 211.406 116.97C212.206 116.97 212.826 116.81 213.266 116.49C213.726 116.17 213.956 115.76 213.956 115.26C213.956 114.72 213.676 114.32 213.116 114.06C212.576 113.78 211.706 113.48 210.506 113.16C209.266 112.86 208.246 112.55 207.446 112.23C206.666 111.91 205.986 111.42 205.406 110.76C204.846 110.1 204.566 109.21 204.566 108.09C204.566 107.17 204.826 106.33 205.346 105.57C205.886 104.81 206.646 104.21 207.626 103.77C208.626 103.33 209.796 103.11 211.136 103.11C213.116 103.11 214.696 103.61 215.876 104.61C217.056 105.59 217.706 106.92 217.826 108.6H213.806C213.746 107.94 213.466 107.42 212.966 107.04C212.486 106.64 211.836 106.44 211.016 106.44C210.256 106.44 209.666 106.58 209.246 106.86C208.846 107.14 208.646 107.53 208.646 108.03C208.646 108.59 208.926 109.02 209.486 109.32C210.046 109.6 210.916 109.89 212.096 110.19C213.296 110.49 214.286 110.8 215.066 111.12C215.846 111.44 216.516 111.94 217.076 112.62C217.656 113.28 217.956 114.16 217.976 115.26C217.976 116.22 217.706 117.08 217.166 117.84C216.646 118.6 215.886 119.2 214.886 119.64C213.906 120.06 212.756 120.27 211.436 120.27Z" fill="white"/>
<path d="M108.925 158.975C108.925 159.842 108.7 160.658 108.25 161.425C107.817 162.175 107.167 162.8 106.3 163.3C105.45 163.783 104.442 164.067 103.275 164.15V166.175H101.675V164.125C100.008 163.975 98.6667 163.475 97.65 162.625C96.6333 161.758 96.1083 160.592 96.075 159.125H99.825C99.925 160.325 100.542 161.05 101.675 161.3V156.525C100.475 156.225 99.5083 155.925 98.775 155.625C98.0417 155.325 97.4083 154.842 96.875 154.175C96.3417 153.508 96.075 152.6 96.075 151.45C96.075 150 96.5917 148.817 97.625 147.9C98.675 146.983 100.025 146.458 101.675 146.325V144.3H103.275V146.325C104.875 146.458 106.15 146.942 107.1 147.775C108.067 148.608 108.608 149.758 108.725 151.225H104.95C104.9 150.742 104.725 150.325 104.425 149.975C104.142 149.608 103.758 149.35 103.275 149.2V153.925C104.525 154.242 105.508 154.55 106.225 154.85C106.958 155.133 107.592 155.608 108.125 156.275C108.658 156.925 108.925 157.825 108.925 158.975ZM99.725 151.275C99.725 151.825 99.8917 152.275 100.225 152.625C100.558 152.958 101.042 153.233 101.675 153.45V149.125C101.075 149.208 100.6 149.433 100.25 149.8C99.9 150.167 99.725 150.658 99.725 151.275ZM103.275 161.35C103.908 161.233 104.4 160.975 104.75 160.575C105.117 160.175 105.3 159.692 105.3 159.125C105.3 158.575 105.125 158.133 104.775 157.8C104.425 157.467 103.925 157.192 103.275 156.975V161.35ZM112.007 149V145.775H118.032V164H114.432V149H112.007ZM122.59 160.05C124.19 158.717 125.465 157.608 126.415 156.725C127.365 155.825 128.157 154.892 128.79 153.925C129.423 152.958 129.74 152.008 129.74 151.075C129.74 150.225 129.54 149.558 129.14 149.075C128.74 148.592 128.123 148.35 127.29 148.35C126.457 148.35 125.815 148.633 125.365 149.2C124.915 149.75 124.682 150.508 124.665 151.475H121.265C121.332 149.475 121.923 147.958 123.04 146.925C124.173 145.892 125.607 145.375 127.34 145.375C129.24 145.375 130.698 145.883 131.715 146.9C132.732 147.9 133.24 149.225 133.24 150.875C133.24 152.175 132.89 153.417 132.19 154.6C131.49 155.783 130.69 156.817 129.79 157.7C128.89 158.567 127.715 159.617 126.265 160.85H133.64V163.75H121.29V161.15L122.59 160.05ZM141.641 148.896L137.289 166.8H135.497L139.833 148.896H141.641ZM151.715 156.192C151.715 156.757 151.582 157.291 151.315 157.792C151.049 158.293 150.622 158.704 150.035 159.024C149.449 159.333 148.697 159.488 147.779 159.488H145.763V164H143.939V152.88H147.779C148.633 152.88 149.353 153.029 149.939 153.328C150.537 153.616 150.979 154.011 151.267 154.512C151.566 155.013 151.715 155.573 151.715 156.192ZM147.779 158C148.473 158 148.99 157.845 149.331 157.536C149.673 157.216 149.843 156.768 149.843 156.192C149.843 154.976 149.155 154.368 147.779 154.368H145.763V158H147.779ZM161.535 159.376C161.535 159.707 161.514 160.005 161.471 160.272H154.735C154.788 160.976 155.05 161.541 155.519 161.968C155.988 162.395 156.564 162.608 157.247 162.608C158.228 162.608 158.922 162.197 159.327 161.376H161.295C161.028 162.187 160.543 162.853 159.839 163.376C159.146 163.888 158.282 164.144 157.247 164.144C156.404 164.144 155.647 163.957 154.975 163.584C154.314 163.2 153.791 162.667 153.407 161.984C153.034 161.291 152.847 160.491 152.847 159.584C152.847 158.677 153.028 157.883 153.391 157.2C153.764 156.507 154.282 155.973 154.943 155.6C155.615 155.227 156.383 155.04 157.247 155.04C158.079 155.04 158.82 155.221 159.471 155.584C160.122 155.947 160.628 156.459 160.991 157.12C161.354 157.771 161.535 158.523 161.535 159.376ZM159.631 158.8C159.62 158.128 159.38 157.589 158.911 157.184C158.442 156.779 157.86 156.576 157.167 156.576C156.538 156.576 155.999 156.779 155.551 157.184C155.103 157.579 154.836 158.117 154.751 158.8H159.631ZM165.154 156.464C165.421 156.016 165.773 155.669 166.21 155.424C166.658 155.168 167.186 155.04 167.794 155.04V156.928H167.33C166.615 156.928 166.071 157.109 165.698 157.472C165.335 157.835 165.154 158.464 165.154 159.36V164H163.33V155.184H165.154V156.464ZM175.755 156.672V161.552C175.755 161.883 175.829 162.123 175.979 162.272C176.139 162.411 176.405 162.48 176.779 162.48H177.899V164H176.459C175.637 164 175.008 163.808 174.571 163.424C174.133 163.04 173.915 162.416 173.915 161.552V156.672H172.875V155.184H173.915V152.992H175.755V155.184H177.899V156.672H175.755ZM180.508 154.016C180.177 154.016 179.9 153.904 179.676 153.68C179.452 153.456 179.34 153.179 179.34 152.848C179.34 152.517 179.452 152.24 179.676 152.016C179.9 151.792 180.177 151.68 180.508 151.68C180.828 151.68 181.1 151.792 181.324 152.016C181.548 152.24 181.66 152.517 181.66 152.848C181.66 153.179 181.548 153.456 181.324 153.68C181.1 153.904 180.828 154.016 180.508 154.016ZM181.404 155.184V164H179.58V155.184H181.404ZM194.471 155.04C195.164 155.04 195.783 155.184 196.327 155.472C196.881 155.76 197.313 156.187 197.623 156.752C197.943 157.317 198.103 158 198.103 158.8V164H196.295V159.072C196.295 158.283 196.097 157.68 195.703 157.264C195.308 156.837 194.769 156.624 194.087 156.624C193.404 156.624 192.86 156.837 192.455 157.264C192.06 157.68 191.863 158.283 191.863 159.072V164H190.055V159.072C190.055 158.283 189.857 157.68 189.463 157.264C189.068 156.837 188.529 156.624 187.847 156.624C187.164 156.624 186.62 156.837 186.215 157.264C185.82 157.68 185.623 158.283 185.623 159.072V164H183.799V155.184H185.623V156.192C185.921 155.829 186.3 155.547 186.759 155.344C187.217 155.141 187.708 155.04 188.231 155.04C188.935 155.04 189.564 155.189 190.119 155.488C190.673 155.787 191.1 156.219 191.399 156.784C191.665 156.251 192.081 155.829 192.647 155.52C193.212 155.2 193.82 155.04 194.471 155.04ZM208.504 159.376C208.504 159.707 208.482 160.005 208.44 160.272H201.704C201.757 160.976 202.018 161.541 202.488 161.968C202.957 162.395 203.533 162.608 204.216 162.608C205.197 162.608 205.89 162.197 206.296 161.376H208.264C207.997 162.187 207.512 162.853 206.808 163.376C206.114 163.888 205.25 164.144 204.216 164.144C203.373 164.144 202.616 163.957 201.944 163.584C201.282 163.2 200.76 162.667 200.376 161.984C200.002 161.291 199.816 160.491 199.816 159.584C199.816 158.677 199.997 157.883 200.36 157.2C200.733 156.507 201.25 155.973 201.912 155.6C202.584 155.227 203.352 155.04 204.216 155.04C205.048 155.04 205.789 155.221 206.44 155.584C207.09 155.947 207.597 156.459 207.96 157.12C208.322 157.771 208.504 158.523 208.504 159.376ZM206.6 158.8C206.589 158.128 206.349 157.589 205.88 157.184C205.41 156.779 204.829 156.576 204.136 156.576C203.506 156.576 202.968 156.779 202.52 157.184C202.072 157.579 201.805 158.117 201.72 158.8H206.6Z" fill="white"/>
<path d="M72.244 217.88V219.368H67.524V222.648H71.204V224.136H67.524V229H65.7V217.88H72.244ZM77.7584 229.144C76.9264 229.144 76.1744 228.957 75.5024 228.584C74.8304 228.2 74.3024 227.667 73.9184 226.984C73.5344 226.291 73.3424 225.491 73.3424 224.584C73.3424 223.688 73.5397 222.893 73.9344 222.2C74.329 221.507 74.8677 220.973 75.5504 220.6C76.233 220.227 76.9957 220.04 77.8384 220.04C78.681 220.04 79.4437 220.227 80.1264 220.6C80.809 220.973 81.3477 221.507 81.7424 222.2C82.137 222.893 82.3344 223.688 82.3344 224.584C82.3344 225.48 82.1317 226.275 81.7264 226.968C81.321 227.661 80.7664 228.2 80.0624 228.584C79.369 228.957 78.601 229.144 77.7584 229.144ZM77.7584 227.56C78.2277 227.56 78.665 227.448 79.0704 227.224C79.4864 227 79.8224 226.664 80.0784 226.216C80.3344 225.768 80.4624 225.224 80.4624 224.584C80.4624 223.944 80.3397 223.405 80.0944 222.968C79.849 222.52 79.5237 222.184 79.1184 221.96C78.713 221.736 78.2757 221.624 77.8064 221.624C77.337 221.624 76.8997 221.736 76.4944 221.96C76.0997 222.184 75.785 222.52 75.5504 222.968C75.3157 223.405 75.1984 223.944 75.1984 224.584C75.1984 225.533 75.4384 226.269 75.9184 226.792C76.409 227.304 77.0224 227.56 77.7584 227.56ZM85.9615 221.464C86.2282 221.016 86.5802 220.669 87.0175 220.424C87.4655 220.168 87.9935 220.04 88.6015 220.04V221.928H88.1375C87.4228 221.928 86.8788 222.109 86.5055 222.472C86.1428 222.835 85.9615 223.464 85.9615 224.36V229H84.1375V220.184H85.9615V221.464ZM93.8264 224.584C93.8264 223.677 94.0077 222.883 94.3704 222.2C94.7437 221.507 95.2557 220.973 95.9064 220.6C96.557 220.227 97.3037 220.04 98.1464 220.04C99.213 220.04 100.093 220.296 100.786 220.808C101.49 221.309 101.965 222.029 102.21 222.968H100.242C100.082 222.531 99.8264 222.189 99.4744 221.944C99.1224 221.699 98.6797 221.576 98.1464 221.576C97.3997 221.576 96.8024 221.843 96.3544 222.376C95.917 222.899 95.6984 223.635 95.6984 224.584C95.6984 225.533 95.917 226.275 96.3544 226.808C96.8024 227.341 97.3997 227.608 98.1464 227.608C99.2024 227.608 99.901 227.144 100.242 226.216H102.21C101.954 227.112 101.474 227.827 100.77 228.36C100.066 228.883 99.1917 229.144 98.1464 229.144C97.3037 229.144 96.557 228.957 95.9064 228.584C95.2557 228.2 94.7437 227.667 94.3704 226.984C94.0077 226.291 93.8264 225.491 93.8264 224.584ZM107.852 229.144C107.02 229.144 106.268 228.957 105.596 228.584C104.924 228.2 104.396 227.667 104.012 226.984C103.628 226.291 103.436 225.491 103.436 224.584C103.436 223.688 103.633 222.893 104.028 222.2C104.423 221.507 104.961 220.973 105.644 220.6C106.327 220.227 107.089 220.04 107.932 220.04C108.775 220.04 109.537 220.227 110.22 220.6C110.903 220.973 111.441 221.507 111.836 222.2C112.231 222.893 112.428 223.688 112.428 224.584C112.428 225.48 112.225 226.275 111.82 226.968C111.415 227.661 110.86 228.2 110.156 228.584C109.463 228.957 108.695 229.144 107.852 229.144ZM107.852 227.56C108.321 227.56 108.759 227.448 109.164 227.224C109.58 227 109.916 226.664 110.172 226.216C110.428 225.768 110.556 225.224 110.556 224.584C110.556 223.944 110.433 223.405 110.188 222.968C109.943 222.52 109.617 222.184 109.212 221.96C108.807 221.736 108.369 221.624 107.9 221.624C107.431 221.624 106.993 221.736 106.588 221.96C106.193 222.184 105.879 222.52 105.644 222.968C105.409 223.405 105.292 223.944 105.292 224.584C105.292 225.533 105.532 226.269 106.012 226.792C106.503 227.304 107.116 227.56 107.852 227.56ZM124.903 220.04C125.597 220.04 126.215 220.184 126.759 220.472C127.314 220.76 127.746 221.187 128.055 221.752C128.375 222.317 128.535 223 128.535 223.8V229H126.727V224.072C126.727 223.283 126.53 222.68 126.135 222.264C125.741 221.837 125.202 221.624 124.519 221.624C123.837 221.624 123.293 221.837 122.887 222.264C122.493 222.68 122.295 223.283 122.295 224.072V229H120.487V224.072C120.487 223.283 120.29 222.68 119.895 222.264C119.501 221.837 118.962 221.624 118.279 221.624C117.597 221.624 117.053 221.837 116.647 222.264C116.253 222.68 116.055 223.283 116.055 224.072V229H114.231V220.184H116.055V221.192C116.354 220.829 116.733 220.547 117.191 220.344C117.65 220.141 118.141 220.04 118.663 220.04C119.367 220.04 119.997 220.189 120.551 220.488C121.106 220.787 121.533 221.219 121.831 221.784C122.098 221.251 122.514 220.829 123.079 220.52C123.645 220.2 124.253 220.04 124.903 220.04ZM141.528 220.04C142.222 220.04 142.84 220.184 143.384 220.472C143.939 220.76 144.371 221.187 144.68 221.752C145 222.317 145.16 223 145.16 223.8V229H143.352V224.072C143.352 223.283 143.155 222.68 142.76 222.264C142.366 221.837 141.827 221.624 141.144 221.624C140.462 221.624 139.918 221.837 139.512 222.264C139.118 222.68 138.92 223.283 138.92 224.072V229H137.112V224.072C137.112 223.283 136.915 222.68 136.52 222.264C136.126 221.837 135.587 221.624 134.904 221.624C134.222 221.624 133.678 221.837 133.272 222.264C132.878 222.68 132.68 223.283 132.68 224.072V229H130.856V220.184H132.68V221.192C132.979 220.829 133.358 220.547 133.816 220.344C134.275 220.141 134.766 220.04 135.288 220.04C135.992 220.04 136.622 220.189 137.176 220.488C137.731 220.787 138.158 221.219 138.456 221.784C138.723 221.251 139.139 220.829 139.704 220.52C140.27 220.2 140.878 220.04 141.528 220.04ZM155.561 224.376C155.561 224.707 155.54 225.005 155.497 225.272H148.761C148.815 225.976 149.076 226.541 149.545 226.968C150.015 227.395 150.591 227.608 151.273 227.608C152.255 227.608 152.948 227.197 153.353 226.376H155.321C155.055 227.187 154.569 227.853 153.865 228.376C153.172 228.888 152.308 229.144 151.273 229.144C150.431 229.144 149.673 228.957 149.001 228.584C148.34 228.2 147.817 227.667 147.433 226.984C147.06 226.291 146.873 225.491 146.873 224.584C146.873 223.677 147.055 222.883 147.417 222.2C147.791 221.507 148.308 220.973 148.969 220.6C149.641 220.227 150.409 220.04 151.273 220.04C152.105 220.04 152.847 220.221 153.497 220.584C154.148 220.947 154.655 221.459 155.017 222.12C155.38 222.771 155.561 223.523 155.561 224.376ZM153.657 223.8C153.647 223.128 153.407 222.589 152.937 222.184C152.468 221.779 151.887 221.576 151.193 221.576C150.564 221.576 150.025 221.779 149.577 222.184C149.129 222.579 148.863 223.117 148.777 223.8H153.657ZM159.18 221.464C159.447 221.016 159.799 220.669 160.236 220.424C160.684 220.168 161.212 220.04 161.82 220.04V221.928H161.356C160.642 221.928 160.098 222.109 159.724 222.472C159.362 222.835 159.18 223.464 159.18 224.36V229H157.356V220.184H159.18V221.464ZM162.889 224.584C162.889 223.677 163.07 222.883 163.433 222.2C163.806 221.507 164.318 220.973 164.969 220.6C165.62 220.227 166.366 220.04 167.209 220.04C168.276 220.04 169.156 220.296 169.849 220.808C170.553 221.309 171.028 222.029 171.273 222.968H169.305C169.145 222.531 168.889 222.189 168.537 221.944C168.185 221.699 167.742 221.576 167.209 221.576C166.462 221.576 165.865 221.843 165.417 222.376C164.98 222.899 164.761 223.635 164.761 224.584C164.761 225.533 164.98 226.275 165.417 226.808C165.865 227.341 166.462 227.608 167.209 227.608C168.265 227.608 168.964 227.144 169.305 226.216H171.273C171.017 227.112 170.537 227.827 169.833 228.36C169.129 228.883 168.254 229.144 167.209 229.144C166.366 229.144 165.62 228.957 164.969 228.584C164.318 228.2 163.806 227.667 163.433 226.984C163.07 226.291 162.889 225.491 162.889 224.584ZM174.019 219.016C173.688 219.016 173.411 218.904 173.187 218.68C172.963 218.456 172.851 218.179 172.851 217.848C172.851 217.517 172.963 217.24 173.187 217.016C173.411 216.792 173.688 216.68 174.019 216.68C174.339 216.68 174.611 216.792 174.835 217.016C175.059 217.24 175.171 217.517 175.171 217.848C175.171 218.179 175.059 218.456 174.835 218.68C174.611 218.904 174.339 219.016 174.019 219.016ZM174.915 220.184V229H173.091V220.184H174.915ZM176.701 224.552C176.701 223.667 176.883 222.883 177.245 222.2C177.619 221.517 178.12 220.989 178.749 220.616C179.389 220.232 180.093 220.04 180.861 220.04C181.555 220.04 182.157 220.179 182.669 220.456C183.192 220.723 183.608 221.059 183.917 221.464V220.184H185.757V229H183.917V227.688C183.608 228.104 183.187 228.451 182.653 228.728C182.12 229.005 181.512 229.144 180.829 229.144C180.072 229.144 179.379 228.952 178.749 228.568C178.12 228.173 177.619 227.629 177.245 226.936C176.883 226.232 176.701 225.437 176.701 224.552ZM183.917 224.584C183.917 223.976 183.789 223.448 183.533 223C183.288 222.552 182.963 222.211 182.557 221.976C182.152 221.741 181.715 221.624 181.245 221.624C180.776 221.624 180.339 221.741 179.933 221.976C179.528 222.2 179.197 222.536 178.941 222.984C178.696 223.421 178.573 223.944 178.573 224.552C178.573 225.16 178.696 225.693 178.941 226.152C179.197 226.611 179.528 226.963 179.933 227.208C180.349 227.443 180.787 227.56 181.245 227.56C181.715 227.56 182.152 227.443 182.557 227.208C182.963 226.973 183.288 226.632 183.533 226.184C183.789 225.725 183.917 225.192 183.917 224.584ZM189.977 217.16V229H188.153V217.16H189.977ZM200.976 220.04C201.669 220.04 202.288 220.184 202.832 220.472C203.387 220.76 203.819 221.187 204.128 221.752C204.437 222.317 204.592 223 204.592 223.8V229H202.784V224.072C202.784 223.283 202.587 222.68 202.192 222.264C201.797 221.837 201.259 221.624 200.576 221.624C199.893 221.624 199.349 221.837 198.944 222.264C198.549 222.68 198.352 223.283 198.352 224.072V229H196.528V220.184H198.352V221.192C198.651 220.829 199.029 220.547 199.488 220.344C199.957 220.141 200.453 220.04 200.976 220.04ZM214.999 224.376C214.999 224.707 214.977 225.005 214.935 225.272H208.199C208.252 225.976 208.513 226.541 208.983 226.968C209.452 227.395 210.028 227.608 210.711 227.608C211.692 227.608 212.385 227.197 212.791 226.376H214.759C214.492 227.187 214.007 227.853 213.303 228.376C212.609 228.888 211.745 229.144 210.711 229.144C209.868 229.144 209.111 228.957 208.439 228.584C207.777 228.2 207.255 227.667 206.871 226.984C206.497 226.291 206.311 225.491 206.311 224.584C206.311 223.677 206.492 222.883 206.855 222.2C207.228 221.507 207.745 220.973 208.407 220.6C209.079 220.227 209.847 220.04 210.711 220.04C211.543 220.04 212.284 220.221 212.935 220.584C213.585 220.947 214.092 221.459 214.455 222.12C214.817 222.771 214.999 223.523 214.999 224.376ZM213.095 223.8C213.084 223.128 212.844 222.589 212.375 222.184C211.905 221.779 211.324 221.576 210.631 221.576C210.001 221.576 209.463 221.779 209.015 222.184C208.567 222.579 208.3 223.117 208.215 223.8H213.095ZM224.874 224.376C224.874 224.707 224.852 225.005 224.81 225.272H218.074C218.127 225.976 218.388 226.541 218.858 226.968C219.327 227.395 219.903 227.608 220.586 227.608C221.567 227.608 222.26 227.197 222.666 226.376H224.634C224.367 227.187 223.882 227.853 223.178 228.376C222.484 228.888 221.62 229.144 220.586 229.144C219.743 229.144 218.986 228.957 218.314 228.584C217.652 228.2 217.13 227.667 216.746 226.984C216.372 226.291 216.186 225.491 216.186 224.584C216.186 223.677 216.367 222.883 216.73 222.2C217.103 221.507 217.62 220.973 218.282 220.6C218.954 220.227 219.722 220.04 220.586 220.04C221.418 220.04 222.159 220.221 222.81 220.584C223.46 220.947 223.967 221.459 224.33 222.12C224.692 222.771 224.874 223.523 224.874 224.376ZM222.97 223.8C222.959 223.128 222.719 222.589 222.25 222.184C221.78 221.779 221.199 221.576 220.506 221.576C219.876 221.576 219.338 221.779 218.89 222.184C218.442 222.579 218.175 223.117 218.09 223.8H222.97ZM226.061 224.552C226.061 223.667 226.242 222.883 226.605 222.2C226.978 221.517 227.479 220.989 228.109 220.616C228.749 220.232 229.458 220.04 230.237 220.04C230.813 220.04 231.378 220.168 231.933 220.424C232.498 220.669 232.946 221 233.277 221.416V217.16H235.117V229H233.277V227.672C232.978 228.099 232.562 228.451 232.029 228.728C231.506 229.005 230.903 229.144 230.221 229.144C229.453 229.144 228.749 228.952 228.109 228.568C227.479 228.173 226.978 227.629 226.605 226.936C226.242 226.232 226.061 225.437 226.061 224.552ZM233.277 224.584C233.277 223.976 233.149 223.448 232.893 223C232.647 222.552 232.322 222.211 231.917 221.976C231.511 221.741 231.074 221.624 230.605 221.624C230.135 221.624 229.698 221.741 229.293 221.976C228.887 222.2 228.557 222.536 228.301 222.984C228.055 223.421 227.933 223.944 227.933 224.552C227.933 225.16 228.055 225.693 228.301 226.152C228.557 226.611 228.887 226.963 229.293 227.208C229.709 227.443 230.146 227.56 230.605 227.56C231.074 227.56 231.511 227.443 231.917 227.208C232.322 226.973 232.647 226.632 232.893 226.184C233.149 225.725 233.277 225.192 233.277 224.584ZM240.713 229.144C240.019 229.144 239.395 229.021 238.841 228.776C238.297 228.52 237.865 228.179 237.545 227.752C237.225 227.315 237.054 226.829 237.033 226.296H238.921C238.953 226.669 239.129 226.984 239.449 227.24C239.779 227.485 240.19 227.608 240.681 227.608C241.193 227.608 241.587 227.512 241.865 227.32C242.153 227.117 242.297 226.861 242.297 226.552C242.297 226.221 242.137 225.976 241.817 225.816C241.507 225.656 241.011 225.48 240.329 225.288C239.667 225.107 239.129 224.931 238.713 224.76C238.297 224.589 237.934 224.328 237.625 223.976C237.326 223.624 237.177 223.16 237.177 222.584C237.177 222.115 237.315 221.688 237.593 221.304C237.87 220.909 238.265 220.6 238.777 220.376C239.299 220.152 239.897 220.04 240.569 220.04C241.571 220.04 242.377 220.296 242.985 220.808C243.603 221.309 243.934 221.997 243.977 222.872H242.153C242.121 222.477 241.961 222.163 241.673 221.928C241.385 221.693 240.995 221.576 240.505 221.576C240.025 221.576 239.657 221.667 239.401 221.848C239.145 222.029 239.017 222.269 239.017 222.568C239.017 222.803 239.102 223 239.273 223.16C239.443 223.32 239.651 223.448 239.897 223.544C240.142 223.629 240.505 223.741 240.985 223.88C241.625 224.051 242.147 224.227 242.553 224.408C242.969 224.579 243.326 224.835 243.625 225.176C243.923 225.517 244.078 225.971 244.089 226.536C244.089 227.037 243.95 227.485 243.673 227.88C243.395 228.275 243.001 228.584 242.489 228.808C241.987 229.032 241.395 229.144 240.713 229.144Z" fill="#555555"/>
<path d="M36.5 223L41.75 228.25L52.25 217" stroke="#6695FF" stroke-width="2" stroke-linecap="round" stroke-linejoin="round"/>
<path d="M67.524 255.352V258.616H71.364V260.104H67.524V263.512H71.844V265H65.7V253.864H71.844V255.352H67.524ZM78.5386 256.04C79.232 256.04 79.8506 256.184 80.3946 256.472C80.9493 256.76 81.3813 257.187 81.6906 257.752C82 258.317 82.1546 259 82.1546 259.8V265H80.3466V260.072C80.3466 259.283 80.1493 258.68 79.7546 258.264C79.36 257.837 78.8213 257.624 78.1386 257.624C77.456 257.624 76.912 257.837 76.5066 258.264C76.112 258.68 75.9146 259.283 75.9146 260.072V265H74.0906V256.184H75.9146V257.192C76.2133 256.829 76.592 256.547 77.0506 256.344C77.52 256.141 78.016 256.04 78.5386 256.04ZM89.0413 256.04C89.7133 256.04 90.3106 256.184 90.8333 256.472C91.3666 256.76 91.7826 257.187 92.0813 257.752C92.3906 258.317 92.5453 259 92.5453 259.8V265H90.7373V260.072C90.7373 259.283 90.5399 258.68 90.1453 258.264C89.7506 257.837 89.2119 257.624 88.5293 257.624C87.8466 257.624 87.3026 257.837 86.8973 258.264C86.5026 258.68 86.3053 259.283 86.3053 260.072V265H84.4813V253.16H86.3053V257.208C86.6146 256.835 87.0039 256.547 87.4733 256.344C87.9533 256.141 88.4759 256.04 89.0413 256.04ZM94.2639 260.552C94.2639 259.667 94.4452 258.883 94.8079 258.2C95.1812 257.517 95.6825 256.989 96.3119 256.616C96.9519 256.232 97.6559 256.04 98.4239 256.04C99.1172 256.04 99.7199 256.179 100.232 256.456C100.755 256.723 101.171 257.059 101.48 257.464V256.184H103.32V265H101.48V263.688C101.171 264.104 100.749 264.451 100.216 264.728C99.6825 265.005 99.0745 265.144 98.3919 265.144C97.6345 265.144 96.9412 264.952 96.3119 264.568C95.6825 264.173 95.1812 263.629 94.8079 262.936C94.4452 262.232 94.2639 261.437 94.2639 260.552ZM101.48 260.584C101.48 259.976 101.352 259.448 101.096 259C100.851 258.552 100.525 258.211 100.12 257.976C99.7145 257.741 99.2772 257.624 98.8079 257.624C98.3385 257.624 97.9012 257.741 97.4959 257.976C97.0905 258.2 96.7599 258.536 96.5039 258.984C96.2585 259.421 96.1359 259.944 96.1359 260.552C96.1359 261.16 96.2585 261.693 96.5039 262.152C96.7599 262.611 97.0905 262.963 97.4959 263.208C97.9119 263.443 98.3492 263.56 98.8079 263.56C99.2772 263.56 99.7145 263.443 100.12 263.208C100.525 262.973 100.851 262.632 101.096 262.184C101.352 261.725 101.48 261.192 101.48 260.584ZM110.164 256.04C110.857 256.04 111.476 256.184 112.02 256.472C112.574 256.76 113.006 257.187 113.316 257.752C113.625 258.317 113.78 259 113.78 259.8V265H111.972V260.072C111.972 259.283 111.774 258.68 111.38 258.264C110.985 257.837 110.446 257.624 109.764 257.624C109.081 257.624 108.537 257.837 108.132 258.264C107.737 258.68 107.54 259.283 107.54 260.072V265H105.716V256.184H107.54V257.192C107.838 256.829 108.217 256.547 108.676 256.344C109.145 256.141 109.641 256.04 110.164 256.04ZM115.498 260.584C115.498 259.677 115.68 258.883 116.042 258.2C116.416 257.507 116.928 256.973 117.578 256.6C118.229 256.227 118.976 256.04 119.818 256.04C120.885 256.04 121.765 256.296 122.458 256.808C123.162 257.309 123.637 258.029 123.882 258.968H121.914C121.754 258.531 121.498 258.189 121.146 257.944C120.794 257.699 120.352 257.576 119.818 257.576C119.072 257.576 118.474 257.843 118.026 258.376C117.589 258.899 117.37 259.635 117.37 260.584C117.37 261.533 117.589 262.275 118.026 262.808C118.474 263.341 119.072 263.608 119.818 263.608C120.874 263.608 121.573 263.144 121.914 262.216H123.882C123.626 263.112 123.146 263.827 122.442 264.36C121.738 264.883 120.864 265.144 119.818 265.144C118.976 265.144 118.229 264.957 117.578 264.584C116.928 264.2 116.416 263.667 116.042 262.984C115.68 262.291 115.498 261.491 115.498 260.584ZM133.78 260.376C133.78 260.707 133.759 261.005 133.716 261.272H126.98C127.033 261.976 127.295 262.541 127.764 262.968C128.233 263.395 128.809 263.608 129.492 263.608C130.473 263.608 131.167 263.197 131.572 262.376H133.54C133.273 263.187 132.788 263.853 132.084 264.376C131.391 264.888 130.527 265.144 129.492 265.144C128.649 265.144 127.892 264.957 127.22 264.584C126.559 264.2 126.036 263.667 125.652 262.984C125.279 262.291 125.092 261.491 125.092 260.584C125.092 259.677 125.273 258.883 125.636 258.2C126.009 257.507 126.527 256.973 127.188 256.6C127.86 256.227 128.628 256.04 129.492 256.04C130.324 256.04 131.065 256.221 131.716 256.584C132.367 256.947 132.873 257.459 133.236 258.12C133.599 258.771 133.78 259.523 133.78 260.376ZM131.876 259.8C131.865 259.128 131.625 258.589 131.156 258.184C130.687 257.779 130.105 257.576 129.412 257.576C128.783 257.576 128.244 257.779 127.796 258.184C127.348 258.579 127.081 259.117 126.996 259.8H131.876ZM134.967 260.552C134.967 259.667 135.148 258.883 135.511 258.2C135.884 257.517 136.386 256.989 137.015 256.616C137.655 256.232 138.364 256.04 139.143 256.04C139.719 256.04 140.284 256.168 140.839 256.424C141.404 256.669 141.852 257 142.183 257.416V253.16H144.023V265H142.183V263.672C141.884 264.099 141.468 264.451 140.935 264.728C140.412 265.005 139.81 265.144 139.127 265.144C138.359 265.144 137.655 264.952 137.015 264.568C136.386 264.173 135.884 263.629 135.511 262.936C135.148 262.232 134.967 261.437 134.967 260.552ZM142.183 260.584C142.183 259.976 142.055 259.448 141.799 259C141.554 258.552 141.228 258.211 140.823 257.976C140.418 257.741 139.98 257.624 139.511 257.624C139.042 257.624 138.604 257.741 138.199 257.976C137.794 258.2 137.463 258.536 137.207 258.984C136.962 259.421 136.839 259.944 136.839 260.552C136.839 261.16 136.962 261.693 137.207 262.152C137.463 262.611 137.794 262.963 138.199 263.208C138.615 263.443 139.052 263.56 139.511 263.56C139.98 263.56 140.418 263.443 140.823 263.208C141.228 262.973 141.554 262.632 141.799 262.184C142.055 261.725 142.183 261.192 142.183 260.584ZM154.271 257.672H152.639V265H150.799V257.672H149.759V256.184H150.799V255.56C150.799 254.547 151.066 253.811 151.599 253.352C152.143 252.883 152.991 252.648 154.143 252.648V254.168C153.588 254.168 153.199 254.275 152.975 254.488C152.751 254.691 152.639 255.048 152.639 255.56V256.184H154.271V257.672ZM163.968 260.376C163.968 260.707 163.946 261.005 163.904 261.272H157.168C157.221 261.976 157.482 262.541 157.952 262.968C158.421 263.395 158.997 263.608 159.68 263.608C160.661 263.608 161.354 263.197 161.76 262.376H163.727C163.461 263.187 162.976 263.853 162.272 264.376C161.578 264.888 160.714 265.144 159.68 265.144C158.837 265.144 158.08 264.957 157.408 264.584C156.746 264.2 156.224 263.667 155.84 262.984C155.466 262.291 155.28 261.491 155.28 260.584C155.28 259.677 155.461 258.883 155.824 258.2C156.197 257.507 156.714 256.973 157.376 256.6C158.048 256.227 158.816 256.04 159.68 256.04C160.512 256.04 161.253 256.221 161.904 256.584C162.554 256.947 163.061 257.459 163.424 258.12C163.786 258.771 163.968 259.523 163.968 260.376ZM162.064 259.8C162.053 259.128 161.813 258.589 161.344 258.184C160.874 257.779 160.293 257.576 159.6 257.576C158.97 257.576 158.432 257.779 157.984 258.184C157.536 258.579 157.269 259.117 157.184 259.8H162.064ZM165.155 260.552C165.155 259.667 165.336 258.883 165.699 258.2C166.072 257.517 166.573 256.989 167.203 256.616C167.843 256.232 168.547 256.04 169.315 256.04C170.008 256.04 170.611 256.179 171.123 256.456C171.645 256.723 172.061 257.059 172.371 257.464V256.184H174.211V265H172.371V263.688C172.061 264.104 171.64 264.451 171.107 264.728C170.573 265.005 169.965 265.144 169.283 265.144C168.525 265.144 167.832 264.952 167.203 264.568C166.573 264.173 166.072 263.629 165.699 262.936C165.336 262.232 165.155 261.437 165.155 260.552ZM172.371 260.584C172.371 259.976 172.243 259.448 171.987 259C171.741 258.552 171.416 258.211 171.011 257.976C170.605 257.741 170.168 257.624 169.699 257.624C169.229 257.624 168.792 257.741 168.387 257.976C167.981 258.2 167.651 258.536 167.395 258.984C167.149 259.421 167.027 259.944 167.027 260.552C167.027 261.16 167.149 261.693 167.395 262.152C167.651 262.611 167.981 262.963 168.387 263.208C168.803 263.443 169.24 263.56 169.699 263.56C170.168 263.56 170.605 263.443 171.011 263.208C171.416 262.973 171.741 262.632 171.987 262.184C172.243 261.725 172.371 261.192 172.371 260.584ZM178.734 257.672V262.552C178.734 262.883 178.809 263.123 178.958 263.272C179.118 263.411 179.385 263.48 179.758 263.48H180.878V265H179.438C178.617 265 177.988 264.808 177.55 264.424C177.113 264.04 176.894 263.416 176.894 262.552V257.672H175.854V256.184H176.894V253.992H178.734V256.184H180.878V257.672H178.734ZM190.543 256.184V265H188.719V263.96C188.431 264.323 188.053 264.611 187.583 264.824C187.125 265.027 186.634 265.128 186.111 265.128C185.418 265.128 184.794 264.984 184.239 264.696C183.695 264.408 183.263 263.981 182.943 263.416C182.634 262.851 182.479 262.168 182.479 261.368V256.184H184.287V261.096C184.287 261.885 184.485 262.493 184.879 262.92C185.274 263.336 185.813 263.544 186.495 263.544C187.178 263.544 187.717 263.336 188.111 262.92C188.517 262.493 188.719 261.885 188.719 261.096V256.184H190.543ZM194.774 257.464C195.041 257.016 195.393 256.669 195.83 256.424C196.278 256.168 196.806 256.04 197.414 256.04V257.928H196.95C196.235 257.928 195.691 258.109 195.318 258.472C194.955 258.835 194.774 259.464 194.774 260.36V265H192.95V256.184H194.774V257.464ZM207.171 260.376C207.171 260.707 207.149 261.005 207.107 261.272H200.371C200.424 261.976 200.685 262.541 201.155 262.968C201.624 263.395 202.2 263.608 202.883 263.608C203.864 263.608 204.557 263.197 204.963 262.376H206.931C206.664 263.187 206.179 263.853 205.475 264.376C204.781 264.888 203.917 265.144 202.883 265.144C202.04 265.144 201.283 264.957 200.611 264.584C199.949 264.2 199.427 263.667 199.043 262.984C198.669 262.291 198.483 261.491 198.483 260.584C198.483 259.677 198.664 258.883 199.027 258.2C199.4 257.507 199.917 256.973 200.579 256.6C201.251 256.227 202.019 256.04 202.883 256.04C203.715 256.04 204.456 256.221 205.107 256.584C205.757 256.947 206.264 257.459 206.627 258.12C206.989 258.771 207.171 259.523 207.171 260.376ZM205.267 259.8C205.256 259.128 205.016 258.589 204.547 258.184C204.077 257.779 203.496 257.576 202.803 257.576C202.173 257.576 201.635 257.779 201.187 258.184C200.739 258.579 200.472 259.117 200.387 259.8H205.267ZM212.166 265.144C211.472 265.144 210.848 265.021 210.294 264.776C209.75 264.52 209.318 264.179 208.998 263.752C208.678 263.315 208.507 262.829 208.486 262.296H210.374C210.406 262.669 210.582 262.984 210.902 263.24C211.232 263.485 211.643 263.608 212.134 263.608C212.646 263.608 213.04 263.512 213.318 263.32C213.606 263.117 213.75 262.861 213.75 262.552C213.75 262.221 213.59 261.976 213.27 261.816C212.96 261.656 212.464 261.48 211.782 261.288C211.12 261.107 210.582 260.931 210.166 260.76C209.75 260.589 209.387 260.328 209.078 259.976C208.779 259.624 208.63 259.16 208.63 258.584C208.63 258.115 208.768 257.688 209.046 257.304C209.323 256.909 209.718 256.6 210.23 256.376C210.752 256.152 211.35 256.04 212.022 256.04C213.024 256.04 213.83 256.296 214.438 256.808C215.056 257.309 215.387 257.997 215.43 258.872H213.606C213.574 258.477 213.414 258.163 213.126 257.928C212.838 257.693 212.448 257.576 211.958 257.576C211.478 257.576 211.11 257.667 210.854 257.848C210.598 258.029 210.47 258.269 210.47 258.568C210.47 258.803 210.555 259 210.726 259.16C210.896 259.32 211.104 259.448 211.35 259.544C211.595 259.629 211.958 259.741 212.438 259.88C213.078 260.051 213.6 260.227 214.006 260.408C214.422 260.579 214.779 260.835 215.078 261.176C215.376 261.517 215.531 261.971 215.542 262.536C215.542 263.037 215.403 263.485 215.126 263.88C214.848 264.275 214.454 264.584 213.942 264.808C213.44 265.032 212.848 265.144 212.166 265.144Z" fill="#555555"/>
<path d="M36.5 259L41.75 264.25L52.25 253" stroke="#6695FF" stroke-width="2" stroke-linecap="round" stroke-linejoin="round"/>
<path d="M73.476 293.192C73.476 293.757 73.3427 294.291 73.076 294.792C72.8093 295.293 72.3827 295.704 71.796 296.024C71.2093 296.333 70.4573 296.488 69.54 296.488H67.524V301H65.7V289.88H69.54C70.3933 289.88 71.1133 290.029 71.7 290.328C72.2973 290.616 72.74 291.011 73.028 291.512C73.3267 292.013 73.476 292.573 73.476 293.192ZM69.54 295C70.2333 295 70.7507 294.845 71.092 294.536C71.4333 294.216 71.604 293.768 71.604 293.192C71.604 291.976 70.916 291.368 69.54 291.368H67.524V295H69.54ZM77.0396 293.464C77.3063 293.016 77.6583 292.669 78.0956 292.424C78.5436 292.168 79.0716 292.04 79.6796 292.04V293.928H79.2156C78.501 293.928 77.957 294.109 77.5836 294.472C77.221 294.835 77.0396 295.464 77.0396 296.36V301H75.2156V292.184H77.0396V293.464ZM82.2843 291.016C81.9536 291.016 81.6763 290.904 81.4523 290.68C81.2283 290.456 81.1163 290.179 81.1163 289.848C81.1163 289.517 81.2283 289.24 81.4523 289.016C81.6763 288.792 81.9536 288.68 82.2843 288.68C82.6043 288.68 82.8763 288.792 83.1003 289.016C83.3243 289.24 83.4363 289.517 83.4363 289.848C83.4363 290.179 83.3243 290.456 83.1003 290.68C82.8763 290.904 82.6043 291.016 82.2843 291.016ZM83.1803 292.184V301H81.3563V292.184H83.1803ZM89.399 301.144C88.567 301.144 87.815 300.957 87.143 300.584C86.471 300.2 85.943 299.667 85.559 298.984C85.175 298.291 84.983 297.491 84.983 296.584C84.983 295.688 85.1803 294.893 85.575 294.2C85.9697 293.507 86.5083 292.973 87.191 292.6C87.8737 292.227 88.6363 292.04 89.479 292.04C90.3217 292.04 91.0843 292.227 91.767 292.6C92.4497 292.973 92.9883 293.507 93.383 294.2C93.7777 294.893 93.975 295.688 93.975 296.584C93.975 297.48 93.7723 298.275 93.367 298.968C92.9617 299.661 92.407 300.2 91.703 300.584C91.0097 300.957 90.2417 301.144 89.399 301.144ZM89.399 299.56C89.8683 299.56 90.3057 299.448 90.711 299.224C91.127 299 91.463 298.664 91.719 298.216C91.975 297.768 92.103 297.224 92.103 296.584C92.103 295.944 91.9803 295.405 91.735 294.968C91.4897 294.52 91.1643 294.184 90.759 293.96C90.3537 293.736 89.9163 293.624 89.447 293.624C88.9777 293.624 88.5403 293.736 88.135 293.96C87.7403 294.184 87.4257 294.52 87.191 294.968C86.9563 295.405 86.839 295.944 86.839 296.584C86.839 297.533 87.079 298.269 87.559 298.792C88.0497 299.304 88.663 299.56 89.399 299.56ZM97.6021 293.464C97.8688 293.016 98.2208 292.669 98.6581 292.424C99.1061 292.168 99.6341 292.04 100.242 292.04V293.928H99.7781C99.0635 293.928 98.5195 294.109 98.1461 294.472C97.7835 294.835 97.6021 295.464 97.6021 296.36V301H95.7781V292.184H97.6021V293.464ZM102.847 291.016C102.516 291.016 102.239 290.904 102.015 290.68C101.791 290.456 101.679 290.179 101.679 289.848C101.679 289.517 101.791 289.24 102.015 289.016C102.239 288.792 102.516 288.68 102.847 288.68C103.167 288.68 103.439 288.792 103.663 289.016C103.887 289.24 103.999 289.517 103.999 289.848C103.999 290.179 103.887 290.456 103.663 290.68C103.439 290.904 103.167 291.016 102.847 291.016ZM103.743 292.184V301H101.919V292.184H103.743ZM108.266 293.672V298.552C108.266 298.883 108.34 299.123 108.49 299.272C108.65 299.411 108.916 299.48 109.29 299.48H110.41V301H108.97C108.148 301 107.519 300.808 107.082 300.424C106.644 300.04 106.426 299.416 106.426 298.552V293.672H105.386V292.184H106.426V289.992H108.266V292.184H110.41V293.672H108.266ZM120.027 292.184L114.619 305.144H112.731L114.523 300.856L111.051 292.184H113.083L115.563 298.904L118.139 292.184H120.027ZM128.759 301.144C128.066 301.144 127.442 301.021 126.887 300.776C126.343 300.52 125.911 300.179 125.591 299.752C125.271 299.315 125.101 298.829 125.079 298.296H126.967C126.999 298.669 127.175 298.984 127.495 299.24C127.826 299.485 128.237 299.608 128.727 299.608C129.239 299.608 129.634 299.512 129.911 299.32C130.199 299.117 130.343 298.861 130.343 298.552C130.343 298.221 130.183 297.976 129.863 297.816C129.554 297.656 129.058 297.48 128.375 297.288C127.714 297.107 127.175 296.931 126.759 296.76C126.343 296.589 125.981 296.328 125.671 295.976C125.373 295.624 125.223 295.16 125.223 294.584C125.223 294.115 125.362 293.688 125.639 293.304C125.917 292.909 126.311 292.6 126.823 292.376C127.346 292.152 127.943 292.04 128.615 292.04C129.618 292.04 130.423 292.296 131.031 292.808C131.65 293.309 131.981 293.997 132.023 294.872H130.199C130.167 294.477 130.007 294.163 129.719 293.928C129.431 293.693 129.042 293.576 128.551 293.576C128.071 293.576 127.703 293.667 127.447 293.848C127.191 294.029 127.063 294.269 127.063 294.568C127.063 294.803 127.149 295 127.319 295.16C127.49 295.32 127.698 295.448 127.943 295.544C128.189 295.629 128.551 295.741 129.031 295.88C129.671 296.051 130.194 296.227 130.599 296.408C131.015 296.579 131.373 296.835 131.671 297.176C131.97 297.517 132.125 297.971 132.135 298.536C132.135 299.037 131.997 299.485 131.719 299.88C131.442 300.275 131.047 300.584 130.535 300.808C130.034 301.032 129.442 301.144 128.759 301.144ZM142.09 292.184V301H140.266V299.96C139.978 300.323 139.6 300.611 139.13 300.824C138.672 301.027 138.181 301.128 137.658 301.128C136.965 301.128 136.341 300.984 135.786 300.696C135.242 300.408 134.81 299.981 134.49 299.416C134.181 298.851 134.026 298.168 134.026 297.368V292.184H135.834V297.096C135.834 297.885 136.032 298.493 136.426 298.92C136.821 299.336 137.36 299.544 138.042 299.544C138.725 299.544 139.264 299.336 139.658 298.92C140.064 298.493 140.266 297.885 140.266 297.096V292.184H142.09ZM146.321 293.48C146.63 293.075 147.052 292.733 147.585 292.456C148.118 292.179 148.721 292.04 149.393 292.04C150.161 292.04 150.86 292.232 151.489 292.616C152.129 292.989 152.63 293.517 152.993 294.2C153.356 294.883 153.537 295.667 153.537 296.552C153.537 297.437 153.356 298.232 152.993 298.936C152.63 299.629 152.129 300.173 151.489 300.568C150.86 300.952 150.161 301.144 149.393 301.144C148.721 301.144 148.124 301.011 147.601 300.744C147.078 300.467 146.652 300.125 146.321 299.72V305.192H144.497V292.184H146.321V293.48ZM151.681 296.552C151.681 295.944 151.553 295.421 151.297 294.984C151.052 294.536 150.721 294.2 150.305 293.976C149.9 293.741 149.462 293.624 148.993 293.624C148.534 293.624 148.097 293.741 147.681 293.976C147.276 294.211 146.945 294.552 146.689 295C146.444 295.448 146.321 295.976 146.321 296.584C146.321 297.192 146.444 297.725 146.689 298.184C146.945 298.632 147.276 298.973 147.681 299.208C148.097 299.443 148.534 299.56 148.993 299.56C149.462 299.56 149.9 299.443 150.305 299.208C150.721 298.963 151.052 298.611 151.297 298.152C151.553 297.693 151.681 297.16 151.681 296.552ZM157.165 293.48C157.474 293.075 157.895 292.733 158.429 292.456C158.962 292.179 159.565 292.04 160.237 292.04C161.005 292.04 161.703 292.232 162.333 292.616C162.973 292.989 163.474 293.517 163.837 294.2C164.199 294.883 164.381 295.667 164.381 296.552C164.381 297.437 164.199 298.232 163.837 298.936C163.474 299.629 162.973 300.173 162.333 300.568C161.703 300.952 161.005 301.144 160.237 301.144C159.565 301.144 158.967 301.011 158.445 300.744C157.922 300.467 157.495 300.125 157.165 299.72V305.192H155.341V292.184H157.165V293.48ZM162.525 296.552C162.525 295.944 162.397 295.421 162.141 294.984C161.895 294.536 161.565 294.2 161.149 293.976C160.743 293.741 160.306 293.624 159.837 293.624C159.378 293.624 158.941 293.741 158.525 293.976C158.119 294.211 157.789 294.552 157.533 295C157.287 295.448 157.165 295.976 157.165 296.584C157.165 297.192 157.287 297.725 157.533 298.184C157.789 298.632 158.119 298.973 158.525 299.208C158.941 299.443 159.378 299.56 159.837 299.56C160.306 299.56 160.743 299.443 161.149 299.208C161.565 298.963 161.895 298.611 162.141 298.152C162.397 297.693 162.525 297.16 162.525 296.552ZM170.008 301.144C169.176 301.144 168.424 300.957 167.752 300.584C167.08 300.2 166.552 299.667 166.168 298.984C165.784 298.291 165.592 297.491 165.592 296.584C165.592 295.688 165.79 294.893 166.184 294.2C166.579 293.507 167.118 292.973 167.8 292.6C168.483 292.227 169.246 292.04 170.088 292.04C170.931 292.04 171.694 292.227 172.376 292.6C173.059 292.973 173.598 293.507 173.992 294.2C174.387 294.893 174.584 295.688 174.584 296.584C174.584 297.48 174.382 298.275 173.976 298.968C173.571 299.661 173.016 300.2 172.312 300.584C171.619 300.957 170.851 301.144 170.008 301.144ZM170.008 299.56C170.478 299.56 170.915 299.448 171.32 299.224C171.736 299 172.072 298.664 172.328 298.216C172.584 297.768 172.712 297.224 172.712 296.584C172.712 295.944 172.59 295.405 172.344 294.968C172.099 294.52 171.774 294.184 171.368 293.96C170.963 293.736 170.526 293.624 170.056 293.624C169.587 293.624 169.15 293.736 168.744 293.96C168.35 294.184 168.035 294.52 167.8 294.968C167.566 295.405 167.448 295.944 167.448 296.584C167.448 297.533 167.688 298.269 168.168 298.792C168.659 299.304 169.272 299.56 170.008 299.56ZM178.212 293.464C178.478 293.016 178.83 292.669 179.268 292.424C179.716 292.168 180.244 292.04 180.852 292.04V293.928H180.388C179.673 293.928 179.129 294.109 178.756 294.472C178.393 294.835 178.212 295.464 178.212 296.36V301H176.388V292.184H178.212V293.464ZM184.656 293.672V298.552C184.656 298.883 184.731 299.123 184.88 299.272C185.04 299.411 185.307 299.48 185.68 299.48H186.8V301H185.36C184.539 301 183.909 300.808 183.472 300.424C183.035 300.04 182.816 299.416 182.816 298.552V293.672H181.776V292.184H182.816V289.992H184.656V292.184H186.8V293.672H184.656Z" fill="#555555"/>
<path d="M36.5 295L41.75 300.25L52.25 289" stroke="#6695FF" stroke-width="2" stroke-linecap="round" stroke-linejoin="round"/>
<circle cx="152" cy="41.5" r="39.5" fill="#FAFBFF" stroke="#6695FF" stroke-width="4"/>
<path d="M170.786 35.2857L163.929 26.1429H141.092L134.214 35.2857M170.786 35.2857L152.5 58.1429M170.786 35.2857H134.214M152.5 58.1429L134.214 35.2857M152.5 58.1429L145.643 35.2857M152.5 58.1429L159.357 35.2857" stroke="#5C5C5C" stroke-width="1.5" stroke-linecap="round" stroke-linejoin="round"/>
<path d="M141.092 26.1429L145.643 35.2857L152.5 26.1429L159.357 35.2857L163.928 26.1429" stroke="#5C5C5C" stroke-width="1.5" stroke-linecap="round" stroke-linejoin="round"/>
</svg>
