<svg width="304" height="357" viewBox="0 0 304 357" fill="none" xmlns="http://www.w3.org/2000/svg">
<rect x="3" y="48.5" width="298" height="306" rx="9.5" fill="#FAFBFF" stroke="#6695FF" stroke-width="5"/>
<path d="M3 58C3 52.7533 7.25329 48.5 12.5 48.5H291.5C296.747 48.5 301 52.7533 301 58V188.5H3V58Z" fill="#6695FF" stroke="#6695FF" stroke-width="5"/>
<path d="M124.45 109.26C125.63 109.48 126.6 110.07 127.36 111.03C128.12 111.99 128.5 113.09 128.5 114.33C128.5 115.45 128.22 116.44 127.66 117.3C127.12 118.14 126.33 118.8 125.29 119.28C124.25 119.76 123.02 120 121.6 120H112.57V99.06H121.21C122.63 99.06 123.85 99.29 124.87 99.75C125.91 100.21 126.69 100.85 127.21 101.67C127.75 102.49 128.02 103.42 128.02 104.46C128.02 105.68 127.69 106.7 127.03 107.52C126.39 108.34 125.53 108.92 124.45 109.26ZM116.77 107.7H120.61C121.61 107.7 122.38 107.48 122.92 107.04C123.46 106.58 123.73 105.93 123.73 105.09C123.73 104.25 123.46 103.6 122.92 103.14C122.38 102.68 121.61 102.45 120.61 102.45H116.77V107.7ZM121 116.58C122.02 116.58 122.81 116.34 123.37 115.86C123.95 115.38 124.24 114.7 124.24 113.82C124.24 112.92 123.94 112.22 123.34 111.72C122.74 111.2 121.93 110.94 120.91 110.94H116.77V116.58H121ZM130.767 111.63C130.767 109.95 131.097 108.46 131.757 107.16C132.437 105.86 133.347 104.86 134.487 104.16C135.647 103.46 136.937 103.11 138.357 103.11C139.597 103.11 140.677 103.36 141.597 103.86C142.537 104.36 143.287 104.99 143.847 105.75V103.38H148.077V120H143.847V117.57C143.307 118.35 142.557 119 141.597 119.52C140.657 120.02 139.567 120.27 138.327 120.27C136.927 120.27 135.647 119.91 134.487 119.19C133.347 118.47 132.437 117.46 131.757 116.16C131.097 114.84 130.767 113.33 130.767 111.63ZM143.847 111.69C143.847 110.67 143.647 109.8 143.247 109.08C142.847 108.34 142.307 107.78 141.627 107.4C140.947 107 140.217 106.8 139.437 106.8C138.657 106.8 137.937 106.99 137.277 107.37C136.617 107.75 136.077 108.31 135.657 109.05C135.257 109.77 135.057 110.63 135.057 111.63C135.057 112.63 135.257 113.51 135.657 114.27C136.077 115.01 136.617 115.58 137.277 115.98C137.957 116.38 138.677 116.58 139.437 116.58C140.217 116.58 140.947 116.39 141.627 116.01C142.307 115.61 142.847 115.05 143.247 114.33C143.647 113.59 143.847 112.71 143.847 111.69ZM158.539 120.27C157.179 120.27 155.959 120.03 154.879 119.55C153.799 119.05 152.939 118.38 152.299 117.54C151.679 116.7 151.339 115.77 151.279 114.75H155.509C155.589 115.39 155.899 115.92 156.439 116.34C156.999 116.76 157.689 116.97 158.509 116.97C159.309 116.97 159.929 116.81 160.369 116.49C160.829 116.17 161.059 115.76 161.059 115.26C161.059 114.72 160.779 114.32 160.219 114.06C159.679 113.78 158.809 113.48 157.609 113.16C156.369 112.86 155.349 112.55 154.549 112.23C153.769 111.91 153.089 111.42 152.509 110.76C151.949 110.1 151.669 109.21 151.669 108.09C151.669 107.17 151.929 106.33 152.449 105.57C152.989 104.81 153.749 104.21 154.729 103.77C155.729 103.33 156.899 103.11 158.239 103.11C160.219 103.11 161.799 103.61 162.979 104.61C164.159 105.59 164.809 106.92 164.929 108.6H160.909C160.849 107.94 160.569 107.42 160.069 107.04C159.589 106.64 158.939 106.44 158.119 106.44C157.359 106.44 156.769 106.58 156.349 106.86C155.949 107.14 155.749 107.53 155.749 108.03C155.749 108.59 156.029 109.02 156.589 109.32C157.149 109.6 158.019 109.89 159.199 110.19C160.399 110.49 161.389 110.8 162.169 111.12C162.949 111.44 163.619 111.94 164.179 112.62C164.759 113.28 165.059 114.16 165.079 115.26C165.079 116.22 164.809 117.08 164.269 117.84C163.749 118.6 162.989 119.2 161.989 119.64C161.009 120.06 159.859 120.27 158.539 120.27ZM170.657 101.4C169.917 101.4 169.297 101.17 168.797 100.71C168.317 100.23 168.077 99.64 168.077 98.94C168.077 98.24 168.317 97.66 168.797 97.2C169.297 96.72 169.917 96.48 170.657 96.48C171.397 96.48 172.007 96.72 172.487 97.2C172.987 97.66 173.237 98.24 173.237 98.94C173.237 99.64 172.987 100.23 172.487 100.71C172.007 101.17 171.397 101.4 170.657 101.4ZM172.727 103.38V120H168.527V103.38H172.727ZM175.797 111.69C175.797 109.97 176.147 108.47 176.847 107.19C177.547 105.89 178.517 104.89 179.757 104.19C180.997 103.47 182.417 103.11 184.017 103.11C186.077 103.11 187.777 103.63 189.117 104.67C190.477 105.69 191.387 107.13 191.847 108.99H187.317C187.077 108.27 186.667 107.71 186.087 107.31C185.527 106.89 184.827 106.68 183.987 106.68C182.787 106.68 181.837 107.12 181.137 108C180.437 108.86 180.087 110.09 180.087 111.69C180.087 113.27 180.437 114.5 181.137 115.38C181.837 116.24 182.787 116.67 183.987 116.67C185.687 116.67 186.797 115.91 187.317 114.39H191.847C191.387 116.19 190.477 117.62 189.117 118.68C187.757 119.74 186.057 120.27 184.017 120.27C182.417 120.27 180.997 119.92 179.757 119.22C178.517 118.5 177.547 117.5 176.847 116.22C176.147 114.92 175.797 113.41 175.797 111.69Z" fill="white"/>
<path d="M112.675 158.975C112.675 159.842 112.45 160.658 112 161.425C111.567 162.175 110.917 162.8 110.05 163.3C109.2 163.783 108.192 164.067 107.025 164.15V166.175H105.425V164.125C103.758 163.975 102.417 163.475 101.4 162.625C100.383 161.758 99.8583 160.592 99.825 159.125H103.575C103.675 160.325 104.292 161.05 105.425 161.3V156.525C104.225 156.225 103.258 155.925 102.525 155.625C101.792 155.325 101.158 154.842 100.625 154.175C100.092 153.508 99.825 152.6 99.825 151.45C99.825 150 100.342 148.817 101.375 147.9C102.425 146.983 103.775 146.458 105.425 146.325V144.3H107.025V146.325C108.625 146.458 109.9 146.942 110.85 147.775C111.817 148.608 112.358 149.758 112.475 151.225H108.7C108.65 150.742 108.475 150.325 108.175 149.975C107.892 149.608 107.508 149.35 107.025 149.2V153.925C108.275 154.242 109.258 154.55 109.975 154.85C110.708 155.133 111.342 155.608 111.875 156.275C112.408 156.925 112.675 157.825 112.675 158.975ZM103.475 151.275C103.475 151.825 103.642 152.275 103.975 152.625C104.308 152.958 104.792 153.233 105.425 153.45V149.125C104.825 149.208 104.35 149.433 104 149.8C103.65 150.167 103.475 150.658 103.475 151.275ZM107.025 161.35C107.658 161.233 108.15 160.975 108.5 160.575C108.867 160.175 109.05 159.692 109.05 159.125C109.05 158.575 108.875 158.133 108.525 157.8C108.175 157.467 107.675 157.192 107.025 156.975V161.35ZM119.232 154.35C117.566 153.483 116.732 152.142 116.732 150.325C116.732 149.425 116.957 148.608 117.407 147.875C117.874 147.125 118.566 146.533 119.482 146.1C120.416 145.65 121.549 145.425 122.882 145.425C124.216 145.425 125.341 145.65 126.257 146.1C127.191 146.533 127.882 147.125 128.332 147.875C128.799 148.608 129.032 149.425 129.032 150.325C129.032 151.242 128.807 152.05 128.357 152.75C127.907 153.433 127.307 153.967 126.557 154.35C127.474 154.75 128.191 155.333 128.707 156.1C129.224 156.867 129.482 157.775 129.482 158.825C129.482 159.958 129.191 160.95 128.607 161.8C128.041 162.633 127.257 163.275 126.257 163.725C125.257 164.175 124.132 164.4 122.882 164.4C121.632 164.4 120.507 164.175 119.507 163.725C118.524 163.275 117.741 162.633 117.157 161.8C116.591 160.95 116.307 159.958 116.307 158.825C116.307 157.775 116.566 156.867 117.082 156.1C117.599 155.317 118.316 154.733 119.232 154.35ZM125.632 150.825C125.632 150.008 125.382 149.375 124.882 148.925C124.399 148.475 123.732 148.25 122.882 148.25C122.049 148.25 121.382 148.475 120.882 148.925C120.399 149.375 120.157 150.017 120.157 150.85C120.157 151.6 120.407 152.2 120.907 152.65C121.424 153.1 122.082 153.325 122.882 153.325C123.682 153.325 124.341 153.1 124.857 152.65C125.374 152.183 125.632 151.575 125.632 150.825ZM122.882 155.875C121.932 155.875 121.157 156.117 120.557 156.6C119.974 157.083 119.682 157.775 119.682 158.675C119.682 159.508 119.966 160.192 120.532 160.725C121.116 161.242 121.899 161.5 122.882 161.5C123.866 161.5 124.641 161.233 125.207 160.7C125.774 160.167 126.057 159.492 126.057 158.675C126.057 157.792 125.766 157.108 125.182 156.625C124.599 156.125 123.832 155.875 122.882 155.875ZM138.042 148.896L133.69 166.8H131.898L136.234 148.896H138.042ZM148.117 156.192C148.117 156.757 147.983 157.291 147.717 157.792C147.45 158.293 147.023 158.704 146.437 159.024C145.85 159.333 145.098 159.488 144.181 159.488H142.165V164H140.341V152.88H144.181C145.034 152.88 145.754 153.029 146.341 153.328C146.938 153.616 147.381 154.011 147.669 154.512C147.967 155.013 148.117 155.573 148.117 156.192ZM144.181 158C144.874 158 145.391 157.845 145.733 157.536C146.074 157.216 146.245 156.768 146.245 156.192C146.245 154.976 145.557 154.368 144.181 154.368H142.165V158H144.181ZM157.936 159.376C157.936 159.707 157.915 160.005 157.872 160.272H151.136C151.19 160.976 151.451 161.541 151.92 161.968C152.39 162.395 152.966 162.608 153.648 162.608C154.63 162.608 155.323 162.197 155.728 161.376H157.696C157.43 162.187 156.944 162.853 156.24 163.376C155.547 163.888 154.683 164.144 153.648 164.144C152.806 164.144 152.048 163.957 151.376 163.584C150.715 163.2 150.192 162.667 149.808 161.984C149.435 161.291 149.248 160.491 149.248 159.584C149.248 158.677 149.43 157.883 149.792 157.2C150.166 156.507 150.683 155.973 151.344 155.6C152.016 155.227 152.784 155.04 153.648 155.04C154.48 155.04 155.222 155.221 155.872 155.584C156.523 155.947 157.03 156.459 157.392 157.12C157.755 157.771 157.936 158.523 157.936 159.376ZM156.032 158.8C156.022 158.128 155.782 157.589 155.312 157.184C154.843 156.779 154.262 156.576 153.568 156.576C152.939 156.576 152.4 156.779 151.952 157.184C151.504 157.579 151.238 158.117 151.152 158.8H156.032ZM161.555 156.464C161.822 156.016 162.174 155.669 162.611 155.424C163.059 155.168 163.587 155.04 164.195 155.04V156.928H163.731C163.017 156.928 162.473 157.109 162.099 157.472C161.737 157.835 161.555 158.464 161.555 159.36V164H159.731V155.184H161.555V156.464ZM172.156 156.672V161.552C172.156 161.883 172.231 162.123 172.38 162.272C172.54 162.411 172.807 162.48 173.18 162.48H174.3V164H172.86C172.039 164 171.409 163.808 170.972 163.424C170.535 163.04 170.316 162.416 170.316 161.552V156.672H169.276V155.184H170.316V152.992H172.156V155.184H174.3V156.672H172.156ZM176.909 154.016C176.579 154.016 176.301 153.904 176.077 153.68C175.853 153.456 175.741 153.179 175.741 152.848C175.741 152.517 175.853 152.24 176.077 152.016C176.301 151.792 176.579 151.68 176.909 151.68C177.229 151.68 177.501 151.792 177.725 152.016C177.949 152.24 178.061 152.517 178.061 152.848C178.061 153.179 177.949 153.456 177.725 153.68C177.501 153.904 177.229 154.016 176.909 154.016ZM177.805 155.184V164H175.981V155.184H177.805ZM190.872 155.04C191.565 155.04 192.184 155.184 192.728 155.472C193.283 155.76 193.715 156.187 194.024 156.752C194.344 157.317 194.504 158 194.504 158.8V164H192.696V159.072C192.696 158.283 192.499 157.68 192.104 157.264C191.709 156.837 191.171 156.624 190.488 156.624C189.805 156.624 189.261 156.837 188.856 157.264C188.461 157.68 188.264 158.283 188.264 159.072V164H186.456V159.072C186.456 158.283 186.259 157.68 185.864 157.264C185.469 156.837 184.931 156.624 184.248 156.624C183.565 156.624 183.021 156.837 182.616 157.264C182.221 157.68 182.024 158.283 182.024 159.072V164H180.2V155.184H182.024V156.192C182.323 155.829 182.701 155.547 183.16 155.344C183.619 155.141 184.109 155.04 184.632 155.04C185.336 155.04 185.965 155.189 186.52 155.488C187.075 155.787 187.501 156.219 187.8 156.784C188.067 156.251 188.483 155.829 189.048 155.52C189.613 155.2 190.221 155.04 190.872 155.04ZM204.905 159.376C204.905 159.707 204.884 160.005 204.841 160.272H198.105C198.158 160.976 198.42 161.541 198.889 161.968C199.358 162.395 199.934 162.608 200.617 162.608C201.598 162.608 202.292 162.197 202.697 161.376H204.665C204.398 162.187 203.913 162.853 203.209 163.376C202.516 163.888 201.652 164.144 200.617 164.144C199.774 164.144 199.017 163.957 198.345 163.584C197.684 163.2 197.161 162.667 196.777 161.984C196.404 161.291 196.217 160.491 196.217 159.584C196.217 158.677 196.398 157.883 196.761 157.2C197.134 156.507 197.652 155.973 198.313 155.6C198.985 155.227 199.753 155.04 200.617 155.04C201.449 155.04 202.19 155.221 202.841 155.584C203.492 155.947 203.998 156.459 204.361 157.12C204.724 157.771 204.905 158.523 204.905 159.376ZM203.001 158.8C202.99 158.128 202.75 157.589 202.281 157.184C201.812 156.779 201.23 156.576 200.537 156.576C199.908 156.576 199.369 156.779 198.921 157.184C198.473 157.579 198.206 158.117 198.121 158.8H203.001Z" fill="white"/>
<path d="M67.524 217.88V229H65.7V217.88H67.524ZM69.3108 224.552C69.3108 223.667 69.4921 222.883 69.8548 222.2C70.2281 221.517 70.7294 220.989 71.3588 220.616C71.9988 220.232 72.7081 220.04 73.4868 220.04C74.0628 220.04 74.6281 220.168 75.1828 220.424C75.7481 220.669 76.1961 221 76.5268 221.416V217.16H78.3668V229H76.5268V227.672C76.2281 228.099 75.8121 228.451 75.2788 228.728C74.7561 229.005 74.1534 229.144 73.4708 229.144C72.7028 229.144 71.9988 228.952 71.3588 228.568C70.7294 228.173 70.2281 227.629 69.8548 226.936C69.4921 226.232 69.3108 225.437 69.3108 224.552ZM76.5268 224.584C76.5268 223.976 76.3988 223.448 76.1428 223C75.8974 222.552 75.5721 222.211 75.1668 221.976C74.7614 221.741 74.3241 221.624 73.8548 221.624C73.3854 221.624 72.9481 221.741 72.5428 221.976C72.1374 222.2 71.8068 222.536 71.5508 222.984C71.3054 223.421 71.1828 223.944 71.1828 224.552C71.1828 225.16 71.3054 225.693 71.5508 226.152C71.8068 226.611 72.1374 226.963 72.5428 227.208C72.9588 227.443 73.3961 227.56 73.8548 227.56C74.3241 227.56 74.7614 227.443 75.1668 227.208C75.5721 226.973 75.8974 226.632 76.1428 226.184C76.3988 225.725 76.5268 225.192 76.5268 224.584ZM88.8425 224.376C88.8425 224.707 88.8212 225.005 88.7785 225.272H82.0425C82.0958 225.976 82.3572 226.541 82.8265 226.968C83.2958 227.395 83.8718 227.608 84.5545 227.608C85.5358 227.608 86.2292 227.197 86.6345 226.376H88.6025C88.3358 227.187 87.8505 227.853 87.1465 228.376C86.4532 228.888 85.5892 229.144 84.5545 229.144C83.7118 229.144 82.9545 228.957 82.2825 228.584C81.6212 228.2 81.0985 227.667 80.7145 226.984C80.3412 226.291 80.1545 225.491 80.1545 224.584C80.1545 223.677 80.3358 222.883 80.6985 222.2C81.0718 221.507 81.5892 220.973 82.2505 220.6C82.9225 220.227 83.6905 220.04 84.5545 220.04C85.3865 220.04 86.1278 220.221 86.7785 220.584C87.4292 220.947 87.9358 221.459 88.2985 222.12C88.6612 222.771 88.8425 223.523 88.8425 224.376ZM86.9385 223.8C86.9278 223.128 86.6878 222.589 86.2185 222.184C85.7492 221.779 85.1678 221.576 84.4745 221.576C83.8452 221.576 83.3065 221.779 82.8585 222.184C82.4105 222.579 82.1438 223.117 82.0585 223.8H86.9385ZM90.0295 224.552C90.0295 223.667 90.2108 222.883 90.5735 222.2C90.9468 221.517 91.4482 220.989 92.0775 220.616C92.7175 220.232 93.4215 220.04 94.1895 220.04C94.8828 220.04 95.4855 220.179 95.9975 220.456C96.5202 220.723 96.9362 221.059 97.2455 221.464V220.184H99.0855V229H97.2455V227.688C96.9362 228.104 96.5148 228.451 95.9815 228.728C95.4482 229.005 94.8402 229.144 94.1575 229.144C93.4002 229.144 92.7068 228.952 92.0775 228.568C91.4482 228.173 90.9468 227.629 90.5735 226.936C90.2108 226.232 90.0295 225.437 90.0295 224.552ZM97.2455 224.584C97.2455 223.976 97.1175 223.448 96.8615 223C96.6162 222.552 96.2908 222.211 95.8855 221.976C95.4802 221.741 95.0428 221.624 94.5735 221.624C94.1042 221.624 93.6668 221.741 93.2615 221.976C92.8562 222.2 92.5255 222.536 92.2695 222.984C92.0242 223.421 91.9015 223.944 91.9015 224.552C91.9015 225.16 92.0242 225.693 92.2695 226.152C92.5255 226.611 92.8562 226.963 93.2615 227.208C93.6775 227.443 94.1148 227.56 94.5735 227.56C95.0428 227.56 95.4802 227.443 95.8855 227.208C96.2908 226.973 96.6162 226.632 96.8615 226.184C97.1175 225.725 97.2455 225.192 97.2455 224.584ZM103.305 217.16V229H101.481V217.16H103.305ZM113.552 221.672H111.92V229H110.08V221.672H109.04V220.184H110.08V219.56C110.08 218.547 110.347 217.811 110.88 217.352C111.424 216.883 112.272 216.648 113.424 216.648V218.168C112.87 218.168 112.48 218.275 112.256 218.488C112.032 218.691 111.92 219.048 111.92 219.56V220.184H113.552V221.672ZM118.993 229.144C118.161 229.144 117.409 228.957 116.737 228.584C116.065 228.2 115.537 227.667 115.153 226.984C114.769 226.291 114.577 225.491 114.577 224.584C114.577 223.688 114.774 222.893 115.169 222.2C115.563 221.507 116.102 220.973 116.785 220.6C117.467 220.227 118.23 220.04 119.073 220.04C119.915 220.04 120.678 220.227 121.361 220.6C122.043 220.973 122.582 221.507 122.977 222.2C123.371 222.893 123.569 223.688 123.569 224.584C123.569 225.48 123.366 226.275 122.961 226.968C122.555 227.661 122.001 228.2 121.297 228.584C120.603 228.957 119.835 229.144 118.993 229.144ZM118.993 227.56C119.462 227.56 119.899 227.448 120.305 227.224C120.721 227 121.057 226.664 121.313 226.216C121.569 225.768 121.697 225.224 121.697 224.584C121.697 223.944 121.574 223.405 121.329 222.968C121.083 222.52 120.758 222.184 120.353 221.96C119.947 221.736 119.51 221.624 119.041 221.624C118.571 221.624 118.134 221.736 117.729 221.96C117.334 222.184 117.019 222.52 116.785 222.968C116.55 223.405 116.433 223.944 116.433 224.584C116.433 225.533 116.673 226.269 117.153 226.792C117.643 227.304 118.257 227.56 118.993 227.56ZM127.196 221.464C127.463 221.016 127.815 220.669 128.252 220.424C128.7 220.168 129.228 220.04 129.836 220.04V221.928H129.372C128.657 221.928 128.113 222.109 127.74 222.472C127.377 222.835 127.196 223.464 127.196 224.36V229H125.372V220.184H127.196V221.464ZM139.493 229.144C138.661 229.144 137.909 228.957 137.237 228.584C136.565 228.2 136.037 227.667 135.653 226.984C135.269 226.291 135.077 225.491 135.077 224.584C135.077 223.688 135.274 222.893 135.669 222.2C136.063 221.507 136.602 220.973 137.285 220.6C137.967 220.227 138.73 220.04 139.573 220.04C140.415 220.04 141.178 220.227 141.861 220.6C142.543 220.973 143.082 221.507 143.477 222.2C143.871 222.893 144.069 223.688 144.069 224.584C144.069 225.48 143.866 226.275 143.461 226.968C143.055 227.661 142.501 228.2 141.797 228.584C141.103 228.957 140.335 229.144 139.493 229.144ZM139.493 227.56C139.962 227.56 140.399 227.448 140.805 227.224C141.221 227 141.557 226.664 141.813 226.216C142.069 225.768 142.197 225.224 142.197 224.584C142.197 223.944 142.074 223.405 141.829 222.968C141.583 222.52 141.258 222.184 140.853 221.96C140.447 221.736 140.01 221.624 139.541 221.624C139.071 221.624 138.634 221.736 138.229 221.96C137.834 222.184 137.519 222.52 137.285 222.968C137.05 223.405 136.933 223.944 136.933 224.584C136.933 225.533 137.173 226.269 137.653 226.792C138.143 227.304 138.757 227.56 139.493 227.56ZM145.264 224.584C145.264 223.677 145.445 222.883 145.808 222.2C146.181 221.507 146.693 220.973 147.344 220.6C147.995 220.227 148.741 220.04 149.584 220.04C150.651 220.04 151.531 220.296 152.224 220.808C152.928 221.309 153.403 222.029 153.648 222.968H151.68C151.52 222.531 151.264 222.189 150.912 221.944C150.56 221.699 150.117 221.576 149.584 221.576C148.837 221.576 148.24 221.843 147.792 222.376C147.355 222.899 147.136 223.635 147.136 224.584C147.136 225.533 147.355 226.275 147.792 226.808C148.24 227.341 148.837 227.608 149.584 227.608C150.64 227.608 151.339 227.144 151.68 226.216H153.648C153.392 227.112 152.912 227.827 152.208 228.36C151.504 228.883 150.629 229.144 149.584 229.144C148.741 229.144 147.995 228.957 147.344 228.584C146.693 228.2 146.181 227.667 145.808 226.984C145.445 226.291 145.264 225.491 145.264 224.584ZM154.858 224.584C154.858 223.677 155.039 222.883 155.402 222.2C155.775 221.507 156.287 220.973 156.938 220.6C157.588 220.227 158.335 220.04 159.178 220.04C160.244 220.04 161.124 220.296 161.818 220.808C162.522 221.309 162.996 222.029 163.242 222.968H161.274C161.114 222.531 160.858 222.189 160.506 221.944C160.154 221.699 159.711 221.576 159.178 221.576C158.431 221.576 157.834 221.843 157.386 222.376C156.948 222.899 156.73 223.635 156.73 224.584C156.73 225.533 156.948 226.275 157.386 226.808C157.834 227.341 158.431 227.608 159.178 227.608C160.234 227.608 160.932 227.144 161.274 226.216H163.242C162.986 227.112 162.506 227.827 161.802 228.36C161.098 228.883 160.223 229.144 159.178 229.144C158.335 229.144 157.588 228.957 156.938 228.584C156.287 228.2 155.775 227.667 155.402 226.984C155.039 226.291 154.858 225.491 154.858 224.584ZM164.451 224.552C164.451 223.667 164.633 222.883 164.995 222.2C165.369 221.517 165.87 220.989 166.499 220.616C167.139 220.232 167.843 220.04 168.611 220.04C169.305 220.04 169.907 220.179 170.419 220.456C170.942 220.723 171.358 221.059 171.667 221.464V220.184H173.507V229H171.667V227.688C171.358 228.104 170.937 228.451 170.403 228.728C169.87 229.005 169.262 229.144 168.579 229.144C167.822 229.144 167.129 228.952 166.499 228.568C165.87 228.173 165.369 227.629 164.995 226.936C164.633 226.232 164.451 225.437 164.451 224.552ZM171.667 224.584C171.667 223.976 171.539 223.448 171.283 223C171.038 222.552 170.713 222.211 170.307 221.976C169.902 221.741 169.465 221.624 168.995 221.624C168.526 221.624 168.089 221.741 167.683 221.976C167.278 222.2 166.947 222.536 166.691 222.984C166.446 223.421 166.323 223.944 166.323 224.552C166.323 225.16 166.446 225.693 166.691 226.152C166.947 226.611 167.278 226.963 167.683 227.208C168.099 227.443 168.537 227.56 168.995 227.56C169.465 227.56 169.902 227.443 170.307 227.208C170.713 226.973 171.038 226.632 171.283 226.184C171.539 225.725 171.667 225.192 171.667 224.584ZM179.103 229.144C178.41 229.144 177.786 229.021 177.231 228.776C176.687 228.52 176.255 228.179 175.935 227.752C175.615 227.315 175.444 226.829 175.423 226.296H177.311C177.343 226.669 177.519 226.984 177.839 227.24C178.17 227.485 178.58 227.608 179.071 227.608C179.583 227.608 179.978 227.512 180.255 227.32C180.543 227.117 180.687 226.861 180.687 226.552C180.687 226.221 180.527 225.976 180.207 225.816C179.898 225.656 179.402 225.48 178.719 225.288C178.058 225.107 177.519 224.931 177.103 224.76C176.687 224.589 176.324 224.328 176.015 223.976C175.716 223.624 175.567 223.16 175.567 222.584C175.567 222.115 175.706 221.688 175.983 221.304C176.26 220.909 176.655 220.6 177.167 220.376C177.69 220.152 178.287 220.04 178.959 220.04C179.962 220.04 180.767 220.296 181.375 220.808C181.994 221.309 182.324 221.997 182.367 222.872H180.543C180.511 222.477 180.351 222.163 180.063 221.928C179.775 221.693 179.386 221.576 178.895 221.576C178.415 221.576 178.047 221.667 177.791 221.848C177.535 222.029 177.407 222.269 177.407 222.568C177.407 222.803 177.492 223 177.663 223.16C177.834 223.32 178.042 223.448 178.287 223.544C178.532 223.629 178.895 223.741 179.375 223.88C180.015 224.051 180.538 224.227 180.943 224.408C181.359 224.579 181.716 224.835 182.015 225.176C182.314 225.517 182.468 225.971 182.479 226.536C182.479 227.037 182.34 227.485 182.063 227.88C181.786 228.275 181.391 228.584 180.879 228.808C180.378 229.032 179.786 229.144 179.103 229.144ZM185.378 219.016C185.047 219.016 184.77 218.904 184.546 218.68C184.322 218.456 184.21 218.179 184.21 217.848C184.21 217.517 184.322 217.24 184.546 217.016C184.77 216.792 185.047 216.68 185.378 216.68C185.698 216.68 185.97 216.792 186.194 217.016C186.418 217.24 186.53 217.517 186.53 217.848C186.53 218.179 186.418 218.456 186.194 218.68C185.97 218.904 185.698 219.016 185.378 219.016ZM186.274 220.184V229H184.45V220.184H186.274ZM192.493 229.144C191.661 229.144 190.909 228.957 190.237 228.584C189.565 228.2 189.037 227.667 188.653 226.984C188.269 226.291 188.077 225.491 188.077 224.584C188.077 223.688 188.274 222.893 188.669 222.2C189.063 221.507 189.602 220.973 190.285 220.6C190.967 220.227 191.73 220.04 192.573 220.04C193.415 220.04 194.178 220.227 194.861 220.6C195.543 220.973 196.082 221.507 196.477 222.2C196.871 222.893 197.069 223.688 197.069 224.584C197.069 225.48 196.866 226.275 196.461 226.968C196.055 227.661 195.501 228.2 194.797 228.584C194.103 228.957 193.335 229.144 192.493 229.144ZM192.493 227.56C192.962 227.56 193.399 227.448 193.805 227.224C194.221 227 194.557 226.664 194.813 226.216C195.069 225.768 195.197 225.224 195.197 224.584C195.197 223.944 195.074 223.405 194.829 222.968C194.583 222.52 194.258 222.184 193.853 221.96C193.447 221.736 193.01 221.624 192.541 221.624C192.071 221.624 191.634 221.736 191.229 221.96C190.834 222.184 190.519 222.52 190.285 222.968C190.05 223.405 189.933 223.944 189.933 224.584C189.933 225.533 190.173 226.269 190.653 226.792C191.143 227.304 191.757 227.56 192.493 227.56ZM203.32 220.04C204.013 220.04 204.632 220.184 205.176 220.472C205.731 220.76 206.163 221.187 206.472 221.752C206.781 222.317 206.936 223 206.936 223.8V229H205.128V224.072C205.128 223.283 204.931 222.68 204.536 222.264C204.141 221.837 203.603 221.624 202.92 221.624C202.237 221.624 201.693 221.837 201.288 222.264C200.893 222.68 200.696 223.283 200.696 224.072V229H198.872V220.184H200.696V221.192C200.995 220.829 201.373 220.547 201.832 220.344C202.301 220.141 202.797 220.04 203.32 220.04ZM208.655 224.552C208.655 223.667 208.836 222.883 209.199 222.2C209.572 221.517 210.073 220.989 210.703 220.616C211.343 220.232 212.047 220.04 212.815 220.04C213.508 220.04 214.111 220.179 214.623 220.456C215.145 220.723 215.561 221.059 215.871 221.464V220.184H217.711V229H215.871V227.688C215.561 228.104 215.14 228.451 214.607 228.728C214.073 229.005 213.465 229.144 212.783 229.144C212.025 229.144 211.332 228.952 210.703 228.568C210.073 228.173 209.572 227.629 209.199 226.936C208.836 226.232 208.655 225.437 208.655 224.552ZM215.871 224.584C215.871 223.976 215.743 223.448 215.487 223C215.241 222.552 214.916 222.211 214.511 221.976C214.105 221.741 213.668 221.624 213.199 221.624C212.729 221.624 212.292 221.741 211.887 221.976C211.481 222.2 211.151 222.536 210.895 222.984C210.649 223.421 210.527 223.944 210.527 224.552C210.527 225.16 210.649 225.693 210.895 226.152C211.151 226.611 211.481 226.963 211.887 227.208C212.303 227.443 212.74 227.56 213.199 227.56C213.668 227.56 214.105 227.443 214.511 227.208C214.916 226.973 215.241 226.632 215.487 226.184C215.743 225.725 215.871 225.192 215.871 224.584ZM221.93 217.16V229H220.106V217.16H221.93ZM236.465 220.184V229H234.641V227.96C234.353 228.323 233.975 228.611 233.505 228.824C233.047 229.027 232.556 229.128 232.033 229.128C231.34 229.128 230.716 228.984 230.161 228.696C229.617 228.408 229.185 227.981 228.865 227.416C228.556 226.851 228.401 226.168 228.401 225.368V220.184H230.209V225.096C230.209 225.885 230.407 226.493 230.801 226.92C231.196 227.336 231.735 227.544 232.417 227.544C233.1 227.544 233.639 227.336 234.033 226.92C234.439 226.493 234.641 225.885 234.641 225.096V220.184H236.465ZM242.072 229.144C241.379 229.144 240.755 229.021 240.2 228.776C239.656 228.52 239.224 228.179 238.904 227.752C238.584 227.315 238.413 226.829 238.392 226.296H240.28C240.312 226.669 240.488 226.984 240.808 227.24C241.139 227.485 241.549 227.608 242.04 227.608C242.552 227.608 242.947 227.512 243.224 227.32C243.512 227.117 243.656 226.861 243.656 226.552C243.656 226.221 243.496 225.976 243.176 225.816C242.867 225.656 242.371 225.48 241.688 225.288C241.027 225.107 240.488 224.931 240.072 224.76C239.656 224.589 239.293 224.328 238.984 223.976C238.685 223.624 238.536 223.16 238.536 222.584C238.536 222.115 238.675 221.688 238.952 221.304C239.229 220.909 239.624 220.6 240.136 220.376C240.659 220.152 241.256 220.04 241.928 220.04C242.931 220.04 243.736 220.296 244.344 220.808C244.963 221.309 245.293 221.997 245.336 222.872H243.512C243.48 222.477 243.32 222.163 243.032 221.928C242.744 221.693 242.355 221.576 241.864 221.576C241.384 221.576 241.016 221.667 240.76 221.848C240.504 222.029 240.376 222.269 240.376 222.568C240.376 222.803 240.461 223 240.632 223.16C240.803 223.32 241.011 223.448 241.256 223.544C241.501 223.629 241.864 223.741 242.344 223.88C242.984 224.051 243.507 224.227 243.912 224.408C244.328 224.579 244.685 224.835 244.984 225.176C245.283 225.517 245.437 225.971 245.448 226.536C245.448 227.037 245.309 227.485 245.032 227.88C244.755 228.275 244.36 228.584 243.848 228.808C243.347 229.032 242.755 229.144 242.072 229.144ZM255.499 224.376C255.499 224.707 255.477 225.005 255.435 225.272H248.699C248.752 225.976 249.013 226.541 249.483 226.968C249.952 227.395 250.528 227.608 251.211 227.608C252.192 227.608 252.885 227.197 253.291 226.376H255.259C254.992 227.187 254.507 227.853 253.803 228.376C253.109 228.888 252.245 229.144 251.211 229.144C250.368 229.144 249.611 228.957 248.939 228.584C248.277 228.2 247.755 227.667 247.371 226.984C246.997 226.291 246.811 225.491 246.811 224.584C246.811 223.677 246.992 222.883 247.355 222.2C247.728 221.507 248.245 220.973 248.907 220.6C249.579 220.227 250.347 220.04 251.211 220.04C252.043 220.04 252.784 220.221 253.435 220.584C254.085 220.947 254.592 221.459 254.955 222.12C255.317 222.771 255.499 223.523 255.499 224.376ZM253.595 223.8C253.584 223.128 253.344 222.589 252.875 222.184C252.405 221.779 251.824 221.576 251.131 221.576C250.501 221.576 249.963 221.779 249.515 222.184C249.067 222.579 248.8 223.117 248.715 223.8H253.595ZM259.118 221.464C259.384 221.016 259.736 220.669 260.174 220.424C260.622 220.168 261.15 220.04 261.758 220.04V221.928H261.294C260.579 221.928 260.035 222.109 259.662 222.472C259.299 222.835 259.118 223.464 259.118 224.36V229H257.294V220.184H259.118V221.464ZM266.634 229.144C265.941 229.144 265.317 229.021 264.762 228.776C264.218 228.52 263.786 228.179 263.466 227.752C263.146 227.315 262.976 226.829 262.954 226.296H264.842C264.874 226.669 265.05 226.984 265.37 227.24C265.701 227.485 266.112 227.608 266.602 227.608C267.114 227.608 267.509 227.512 267.786 227.32C268.074 227.117 268.218 226.861 268.218 226.552C268.218 226.221 268.058 225.976 267.738 225.816C267.429 225.656 266.933 225.48 266.25 225.288C265.589 225.107 265.05 224.931 264.634 224.76C264.218 224.589 263.856 224.328 263.546 223.976C263.248 223.624 263.098 223.16 263.098 222.584C263.098 222.115 263.237 221.688 263.514 221.304C263.792 220.909 264.186 220.6 264.698 220.376C265.221 220.152 265.818 220.04 266.49 220.04C267.493 220.04 268.298 220.296 268.906 220.808C269.525 221.309 269.856 221.997 269.898 222.872H268.074C268.042 222.477 267.882 222.163 267.594 221.928C267.306 221.693 266.917 221.576 266.426 221.576C265.946 221.576 265.578 221.667 265.322 221.848C265.066 222.029 264.938 222.269 264.938 222.568C264.938 222.803 265.024 223 265.194 223.16C265.365 223.32 265.573 223.448 265.818 223.544C266.064 223.629 266.426 223.741 266.906 223.88C267.546 224.051 268.069 224.227 268.474 224.408C268.89 224.579 269.248 224.835 269.546 225.176C269.845 225.517 270 225.971 270.01 226.536C270.01 227.037 269.872 227.485 269.594 227.88C269.317 228.275 268.922 228.584 268.41 228.808C267.909 229.032 267.317 229.144 266.634 229.144Z" fill="#555555"/>
<path d="M36.5 223L41.75 228.25L52.25 217" stroke="#6695FF" stroke-width="2" stroke-linecap="round" stroke-linejoin="round"/>
<path d="M69.364 265.112C68.6173 265.112 67.9453 264.984 67.348 264.728C66.7507 264.461 66.2813 264.088 65.94 263.608C65.5987 263.128 65.428 262.568 65.428 261.928H67.38C67.4227 262.408 67.6093 262.803 67.94 263.112C68.2813 263.421 68.756 263.576 69.364 263.576C69.9933 263.576 70.484 263.427 70.836 263.128C71.188 262.819 71.364 262.424 71.364 261.944C71.364 261.571 71.252 261.267 71.028 261.032C70.8147 260.797 70.5427 260.616 70.212 260.488C69.892 260.36 69.444 260.221 68.868 260.072C68.1427 259.88 67.5507 259.688 67.092 259.496C66.644 259.293 66.26 258.984 65.94 258.568C65.62 258.152 65.46 257.597 65.46 256.904C65.46 256.264 65.62 255.704 65.94 255.224C66.26 254.744 66.708 254.376 67.284 254.12C67.86 253.864 68.5267 253.736 69.284 253.736C70.3613 253.736 71.2413 254.008 71.924 254.552C72.6173 255.085 73.0013 255.821 73.076 256.76H71.06C71.028 256.355 70.836 256.008 70.484 255.72C70.132 255.432 69.668 255.288 69.092 255.288C68.5693 255.288 68.1427 255.421 67.812 255.688C67.4813 255.955 67.316 256.339 67.316 256.84C67.316 257.181 67.4173 257.464 67.62 257.688C67.8333 257.901 68.1 258.072 68.42 258.2C68.74 258.328 69.1773 258.467 69.732 258.616C70.468 258.819 71.0653 259.021 71.524 259.224C71.9933 259.427 72.388 259.741 72.708 260.168C73.0387 260.584 73.204 261.144 73.204 261.848C73.204 262.413 73.0493 262.947 72.74 263.448C72.4413 263.949 71.9987 264.355 71.412 264.664C70.836 264.963 70.1533 265.112 69.364 265.112ZM83.4363 260.376C83.4363 260.707 83.4149 261.005 83.3723 261.272H76.6363C76.6896 261.976 76.9509 262.541 77.4203 262.968C77.8896 263.395 78.4656 263.608 79.1483 263.608C80.1296 263.608 80.8229 263.197 81.2283 262.376H83.1962C82.9296 263.187 82.4443 263.853 81.7403 264.376C81.0469 264.888 80.1829 265.144 79.1483 265.144C78.3056 265.144 77.5483 264.957 76.8763 264.584C76.2149 264.2 75.6923 263.667 75.3083 262.984C74.9349 262.291 74.7483 261.491 74.7483 260.584C74.7483 259.677 74.9296 258.883 75.2923 258.2C75.6656 257.507 76.1829 256.973 76.8443 256.6C77.5163 256.227 78.2843 256.04 79.1483 256.04C79.9803 256.04 80.7216 256.221 81.3723 256.584C82.0229 256.947 82.5296 257.459 82.8923 258.12C83.2549 258.771 83.4363 259.523 83.4363 260.376ZM81.5323 259.8C81.5216 259.128 81.2816 258.589 80.8123 258.184C80.3429 257.779 79.7616 257.576 79.0683 257.576C78.4389 257.576 77.9003 257.779 77.4523 258.184C77.0043 258.579 76.7376 259.117 76.6523 259.8H81.5323ZM84.6233 260.584C84.6233 259.677 84.8046 258.883 85.1673 258.2C85.5406 257.507 86.0526 256.973 86.7033 256.6C87.3539 256.227 88.1006 256.04 88.9433 256.04C90.0099 256.04 90.8899 256.296 91.5833 256.808C92.2873 257.309 92.7619 258.029 93.0073 258.968H91.0393C90.8793 258.531 90.6233 258.189 90.2713 257.944C89.9193 257.699 89.4766 257.576 88.9433 257.576C88.1966 257.576 87.5993 257.843 87.1513 258.376C86.7139 258.899 86.4953 259.635 86.4953 260.584C86.4953 261.533 86.7139 262.275 87.1513 262.808C87.5993 263.341 88.1966 263.608 88.9433 263.608C89.9993 263.608 90.6979 263.144 91.0393 262.216H93.0073C92.7513 263.112 92.2713 263.827 91.5673 264.36C90.8633 264.883 89.9886 265.144 88.9433 265.144C88.1006 265.144 87.3539 264.957 86.7033 264.584C86.0526 264.2 85.5406 263.667 85.1673 262.984C84.8046 262.291 84.6233 261.491 84.6233 260.584ZM102.809 256.184V265H100.985V263.96C100.697 264.323 100.318 264.611 99.849 264.824C99.3903 265.027 98.8997 265.128 98.377 265.128C97.6837 265.128 97.0597 264.984 96.505 264.696C95.961 264.408 95.529 263.981 95.209 263.416C94.8997 262.851 94.745 262.168 94.745 261.368V256.184H96.553V261.096C96.553 261.885 96.7503 262.493 97.145 262.92C97.5397 263.336 98.0783 263.544 98.761 263.544C99.4437 263.544 99.9823 263.336 100.377 262.92C100.782 262.493 100.985 261.885 100.985 261.096V256.184H102.809ZM107.04 257.464C107.306 257.016 107.658 256.669 108.096 256.424C108.544 256.168 109.072 256.04 109.68 256.04V257.928H109.216C108.501 257.928 107.957 258.109 107.584 258.472C107.221 258.835 107.04 259.464 107.04 260.36V265H105.216V256.184H107.04V257.464ZM119.436 260.376C119.436 260.707 119.415 261.005 119.372 261.272H112.636C112.69 261.976 112.951 262.541 113.42 262.968C113.89 263.395 114.466 263.608 115.148 263.608C116.13 263.608 116.823 263.197 117.228 262.376H119.196C118.93 263.187 118.444 263.853 117.74 264.376C117.047 264.888 116.183 265.144 115.148 265.144C114.306 265.144 113.548 264.957 112.876 264.584C112.215 264.2 111.692 263.667 111.308 262.984C110.935 262.291 110.748 261.491 110.748 260.584C110.748 259.677 110.93 258.883 111.292 258.2C111.666 257.507 112.183 256.973 112.844 256.6C113.516 256.227 114.284 256.04 115.148 256.04C115.98 256.04 116.722 256.221 117.372 256.584C118.023 256.947 118.53 257.459 118.892 258.12C119.255 258.771 119.436 259.523 119.436 260.376ZM117.532 259.8C117.522 259.128 117.282 258.589 116.812 258.184C116.343 257.779 115.762 257.576 115.068 257.576C114.439 257.576 113.9 257.779 113.452 258.184C113.004 258.579 112.738 259.117 112.652 259.8H117.532ZM127.212 257.464C127.478 257.016 127.83 256.669 128.268 256.424C128.716 256.168 129.244 256.04 129.852 256.04V257.928H129.388C128.673 257.928 128.129 258.109 127.756 258.472C127.393 258.835 127.212 259.464 127.212 260.36V265H125.388V256.184H127.212V257.464ZM139.608 260.376C139.608 260.707 139.587 261.005 139.544 261.272H132.808C132.861 261.976 133.123 262.541 133.592 262.968C134.061 263.395 134.637 263.608 135.32 263.608C136.301 263.608 136.995 263.197 137.4 262.376H139.368C139.101 263.187 138.616 263.853 137.912 264.376C137.219 264.888 136.355 265.144 135.32 265.144C134.477 265.144 133.72 264.957 133.048 264.584C132.387 264.2 131.864 263.667 131.48 262.984C131.107 262.291 130.92 261.491 130.92 260.584C130.92 259.677 131.101 258.883 131.464 258.2C131.837 257.507 132.355 256.973 133.016 256.6C133.688 256.227 134.456 256.04 135.32 256.04C136.152 256.04 136.893 256.221 137.544 256.584C138.195 256.947 138.701 257.459 139.064 258.12C139.427 258.771 139.608 259.523 139.608 260.376ZM137.704 259.8C137.693 259.128 137.453 258.589 136.984 258.184C136.515 257.779 135.933 257.576 135.24 257.576C134.611 257.576 134.072 257.779 133.624 258.184C133.176 258.579 132.909 259.117 132.824 259.8H137.704ZM144.603 265.144C143.91 265.144 143.286 265.021 142.731 264.776C142.187 264.52 141.755 264.179 141.435 263.752C141.115 263.315 140.944 262.829 140.923 262.296H142.811C142.843 262.669 143.019 262.984 143.339 263.24C143.67 263.485 144.08 263.608 144.571 263.608C145.083 263.608 145.478 263.512 145.755 263.32C146.043 263.117 146.187 262.861 146.187 262.552C146.187 262.221 146.027 261.976 145.707 261.816C145.398 261.656 144.902 261.48 144.219 261.288C143.558 261.107 143.019 260.931 142.603 260.76C142.187 260.589 141.824 260.328 141.515 259.976C141.216 259.624 141.067 259.16 141.067 258.584C141.067 258.115 141.206 257.688 141.483 257.304C141.76 256.909 142.155 256.6 142.667 256.376C143.19 256.152 143.787 256.04 144.459 256.04C145.462 256.04 146.267 256.296 146.875 256.808C147.494 257.309 147.824 257.997 147.867 258.872H146.043C146.011 258.477 145.851 258.163 145.563 257.928C145.275 257.693 144.886 257.576 144.395 257.576C143.915 257.576 143.547 257.667 143.291 257.848C143.035 258.029 142.907 258.269 142.907 258.568C142.907 258.803 142.992 259 143.163 259.16C143.334 259.32 143.542 259.448 143.787 259.544C144.032 259.629 144.395 259.741 144.875 259.88C145.515 260.051 146.038 260.227 146.443 260.408C146.859 260.579 147.216 260.835 147.515 261.176C147.814 261.517 147.968 261.971 147.979 262.536C147.979 263.037 147.84 263.485 147.563 263.88C147.286 264.275 146.891 264.584 146.379 264.808C145.878 265.032 145.286 265.144 144.603 265.144ZM158.03 260.376C158.03 260.707 158.009 261.005 157.966 261.272H151.23C151.283 261.976 151.545 262.541 152.014 262.968C152.483 263.395 153.059 263.608 153.742 263.608C154.723 263.608 155.417 263.197 155.822 262.376H157.79C157.523 263.187 157.038 263.853 156.334 264.376C155.641 264.888 154.777 265.144 153.742 265.144C152.899 265.144 152.142 264.957 151.47 264.584C150.809 264.2 150.286 263.667 149.902 262.984C149.529 262.291 149.342 261.491 149.342 260.584C149.342 259.677 149.523 258.883 149.886 258.2C150.259 257.507 150.777 256.973 151.438 256.6C152.11 256.227 152.878 256.04 153.742 256.04C154.574 256.04 155.315 256.221 155.966 256.584C156.617 256.947 157.123 257.459 157.486 258.12C157.849 258.771 158.03 259.523 158.03 260.376ZM156.126 259.8C156.115 259.128 155.875 258.589 155.406 258.184C154.937 257.779 154.355 257.576 153.662 257.576C153.033 257.576 152.494 257.779 152.046 258.184C151.598 258.579 151.331 259.117 151.246 259.8H156.126ZM161.649 257.464C161.916 257.016 162.268 256.669 162.705 256.424C163.153 256.168 163.681 256.04 164.289 256.04V257.928H163.825C163.11 257.928 162.566 258.109 162.193 258.472C161.83 258.835 161.649 259.464 161.649 260.36V265H159.825V256.184H161.649V257.464ZM169.374 263.368L171.87 256.184H173.806L170.446 265H168.27L164.926 256.184H166.878L169.374 263.368ZM174.576 260.552C174.576 259.667 174.758 258.883 175.12 258.2C175.494 257.517 175.995 256.989 176.624 256.616C177.264 256.232 177.968 256.04 178.736 256.04C179.43 256.04 180.032 256.179 180.544 256.456C181.067 256.723 181.483 257.059 181.792 257.464V256.184H183.632V265H181.792V263.688C181.483 264.104 181.062 264.451 180.528 264.728C179.995 265.005 179.387 265.144 178.704 265.144C177.947 265.144 177.254 264.952 176.624 264.568C175.995 264.173 175.494 263.629 175.12 262.936C174.758 262.232 174.576 261.437 174.576 260.552ZM181.792 260.584C181.792 259.976 181.664 259.448 181.408 259C181.163 258.552 180.838 258.211 180.432 257.976C180.027 257.741 179.59 257.624 179.12 257.624C178.651 257.624 178.214 257.741 177.808 257.976C177.403 258.2 177.072 258.536 176.816 258.984C176.571 259.421 176.448 259.944 176.448 260.552C176.448 261.16 176.571 261.693 176.816 262.152C177.072 262.611 177.403 262.963 177.808 263.208C178.224 263.443 178.662 263.56 179.12 263.56C179.59 263.56 180.027 263.443 180.432 263.208C180.838 262.973 181.163 262.632 181.408 262.184C181.664 261.725 181.792 261.192 181.792 260.584ZM188.156 257.672V262.552C188.156 262.883 188.231 263.123 188.38 263.272C188.54 263.411 188.807 263.48 189.18 263.48H190.3V265H188.86C188.039 265 187.409 264.808 186.972 264.424C186.535 264.04 186.316 263.416 186.316 262.552V257.672H185.276V256.184H186.316V253.992H188.156V256.184H190.3V257.672H188.156ZM192.909 255.016C192.579 255.016 192.301 254.904 192.077 254.68C191.853 254.456 191.741 254.179 191.741 253.848C191.741 253.517 191.853 253.24 192.077 253.016C192.301 252.792 192.579 252.68 192.909 252.68C193.229 252.68 193.501 252.792 193.725 253.016C193.949 253.24 194.061 253.517 194.061 253.848C194.061 254.179 193.949 254.456 193.725 254.68C193.501 254.904 193.229 255.016 192.909 255.016ZM193.805 256.184V265H191.981V256.184H193.805ZM200.024 265.144C199.192 265.144 198.44 264.957 197.768 264.584C197.096 264.2 196.568 263.667 196.184 262.984C195.8 262.291 195.608 261.491 195.608 260.584C195.608 259.688 195.805 258.893 196.2 258.2C196.595 257.507 197.133 256.973 197.816 256.6C198.499 256.227 199.261 256.04 200.104 256.04C200.947 256.04 201.709 256.227 202.392 256.6C203.075 256.973 203.613 257.507 204.008 258.2C204.403 258.893 204.6 259.688 204.6 260.584C204.6 261.48 204.397 262.275 203.992 262.968C203.587 263.661 203.032 264.2 202.328 264.584C201.635 264.957 200.867 265.144 200.024 265.144ZM200.024 263.56C200.493 263.56 200.931 263.448 201.336 263.224C201.752 263 202.088 262.664 202.344 262.216C202.6 261.768 202.728 261.224 202.728 260.584C202.728 259.944 202.605 259.405 202.36 258.968C202.115 258.52 201.789 258.184 201.384 257.96C200.979 257.736 200.541 257.624 200.072 257.624C199.603 257.624 199.165 257.736 198.76 257.96C198.365 258.184 198.051 258.52 197.816 258.968C197.581 259.405 197.464 259.944 197.464 260.584C197.464 261.533 197.704 262.269 198.184 262.792C198.675 263.304 199.288 263.56 200.024 263.56ZM210.851 256.04C211.544 256.04 212.163 256.184 212.707 256.472C213.262 256.76 213.694 257.187 214.003 257.752C214.312 258.317 214.467 259 214.467 259.8V265H212.659V260.072C212.659 259.283 212.462 258.68 212.067 258.264C211.672 257.837 211.134 257.624 210.451 257.624C209.768 257.624 209.224 257.837 208.819 258.264C208.424 258.68 208.227 259.283 208.227 260.072V265H206.403V256.184H208.227V257.192C208.526 256.829 208.904 256.547 209.363 256.344C209.832 256.141 210.328 256.04 210.851 256.04ZM219.994 265.144C219.3 265.144 218.676 265.021 218.122 264.776C217.578 264.52 217.146 264.179 216.826 263.752C216.506 263.315 216.335 262.829 216.314 262.296H218.202C218.234 262.669 218.41 262.984 218.73 263.24C219.06 263.485 219.471 263.608 219.962 263.608C220.474 263.608 220.868 263.512 221.146 263.32C221.434 263.117 221.578 262.861 221.578 262.552C221.578 262.221 221.418 261.976 221.098 261.816C220.788 261.656 220.292 261.48 219.61 261.288C218.948 261.107 218.41 260.931 217.994 260.76C217.578 260.589 217.215 260.328 216.906 259.976C216.607 259.624 216.458 259.16 216.458 258.584C216.458 258.115 216.596 257.688 216.874 257.304C217.151 256.909 217.546 256.6 218.058 256.376C218.58 256.152 219.178 256.04 219.85 256.04C220.852 256.04 221.658 256.296 222.266 256.808C222.884 257.309 223.215 257.997 223.258 258.872H221.434C221.402 258.477 221.242 258.163 220.954 257.928C220.666 257.693 220.276 257.576 219.786 257.576C219.306 257.576 218.938 257.667 218.682 257.848C218.426 258.029 218.298 258.269 218.298 258.568C218.298 258.803 218.383 259 218.554 259.16C218.724 259.32 218.932 259.448 219.178 259.544C219.423 259.629 219.786 259.741 220.266 259.88C220.906 260.051 221.428 260.227 221.834 260.408C222.25 260.579 222.607 260.835 222.906 261.176C223.204 261.517 223.359 261.971 223.37 262.536C223.37 263.037 223.231 263.485 222.954 263.88C222.676 264.275 222.282 264.584 221.77 264.808C221.268 265.032 220.676 265.144 219.994 265.144Z" fill="#555555"/>
<path d="M36.5 259L41.75 264.25L52.25 253" stroke="#6695FF" stroke-width="2" stroke-linecap="round" stroke-linejoin="round"/>
<path d="M77.412 289.88V301H75.588V293.384L72.196 301H70.932L67.524 293.384V301H65.7V289.88H67.668L71.572 298.6L75.46 289.88H77.412ZM83.6334 301.144C82.8014 301.144 82.0494 300.957 81.3774 300.584C80.7054 300.2 80.1774 299.667 79.7934 298.984C79.4094 298.291 79.2174 297.491 79.2174 296.584C79.2174 295.688 79.4147 294.893 79.8094 294.2C80.204 293.507 80.7427 292.973 81.4254 292.6C82.108 292.227 82.8707 292.04 83.7134 292.04C84.556 292.04 85.3187 292.227 86.0014 292.6C86.684 292.973 87.2227 293.507 87.6174 294.2C88.012 294.893 88.2094 295.688 88.2094 296.584C88.2094 297.48 88.0067 298.275 87.6014 298.968C87.196 299.661 86.6414 300.2 85.9374 300.584C85.244 300.957 84.476 301.144 83.6334 301.144ZM83.6334 299.56C84.1027 299.56 84.54 299.448 84.9454 299.224C85.3614 299 85.6974 298.664 85.9534 298.216C86.2094 297.768 86.3374 297.224 86.3374 296.584C86.3374 295.944 86.2147 295.405 85.9694 294.968C85.724 294.52 85.3987 294.184 84.9934 293.96C84.588 293.736 84.1507 293.624 83.6814 293.624C83.212 293.624 82.7747 293.736 82.3694 293.96C81.9747 294.184 81.66 294.52 81.4254 294.968C81.1907 295.405 81.0734 295.944 81.0734 296.584C81.0734 297.533 81.3134 298.269 81.7934 298.792C82.284 299.304 82.8974 299.56 83.6334 299.56ZM94.4605 292.04C95.1538 292.04 95.7725 292.184 96.3165 292.472C96.8712 292.76 97.3032 293.187 97.6125 293.752C97.9218 294.317 98.0765 295 98.0765 295.8V301H96.2685V296.072C96.2685 295.283 96.0712 294.68 95.6765 294.264C95.2818 293.837 94.7432 293.624 94.0605 293.624C93.3778 293.624 92.8338 293.837 92.4285 294.264C92.0338 294.68 91.8365 295.283 91.8365 296.072V301H90.0125V292.184H91.8365V293.192C92.1352 292.829 92.5138 292.547 92.9725 292.344C93.4418 292.141 93.9378 292.04 94.4605 292.04ZM102.531 293.672V298.552C102.531 298.883 102.606 299.123 102.755 299.272C102.915 299.411 103.182 299.48 103.555 299.48H104.675V301H103.235C102.414 301 101.784 300.808 101.347 300.424C100.91 300.04 100.691 299.416 100.691 298.552V293.672H99.6511V292.184H100.691V289.992H102.531V292.184H104.675V293.672H102.531ZM110.916 292.04C111.588 292.04 112.186 292.184 112.708 292.472C113.242 292.76 113.658 293.187 113.956 293.752C114.266 294.317 114.42 295 114.42 295.8V301H112.612V296.072C112.612 295.283 112.415 294.68 112.02 294.264C111.626 293.837 111.087 293.624 110.404 293.624C109.722 293.624 109.178 293.837 108.772 294.264C108.378 294.68 108.18 295.283 108.18 296.072V301H106.356V289.16H108.18V293.208C108.49 292.835 108.879 292.547 109.348 292.344C109.828 292.141 110.351 292.04 110.916 292.04ZM118.571 289.16V301H116.747V289.16H118.571ZM128.902 292.184L123.494 305.144H121.606L123.398 300.856L119.926 292.184H121.958L124.438 298.904L127.014 292.184H128.902ZM136.258 293.496C136.568 293.069 136.989 292.723 137.522 292.456C138.066 292.179 138.669 292.04 139.33 292.04C140.109 292.04 140.813 292.227 141.442 292.6C142.072 292.973 142.568 293.507 142.93 294.2C143.293 294.883 143.474 295.667 143.474 296.552C143.474 297.437 143.293 298.232 142.93 298.936C142.568 299.629 142.066 300.173 141.426 300.568C140.797 300.952 140.098 301.144 139.33 301.144C138.648 301.144 138.04 301.011 137.506 300.744C136.984 300.477 136.568 300.136 136.258 299.72V301H134.434V289.16H136.258V293.496ZM141.618 296.552C141.618 295.944 141.49 295.421 141.234 294.984C140.989 294.536 140.658 294.2 140.242 293.976C139.837 293.741 139.4 293.624 138.93 293.624C138.472 293.624 138.034 293.741 137.618 293.976C137.213 294.211 136.882 294.552 136.626 295C136.381 295.448 136.258 295.976 136.258 296.584C136.258 297.192 136.381 297.725 136.626 298.184C136.882 298.632 137.213 298.973 137.618 299.208C138.034 299.443 138.472 299.56 138.93 299.56C139.4 299.56 139.837 299.443 140.242 299.208C140.658 298.963 140.989 298.611 141.234 298.152C141.49 297.693 141.618 297.16 141.618 296.552ZM146.206 291.016C145.875 291.016 145.598 290.904 145.374 290.68C145.15 290.456 145.038 290.179 145.038 289.848C145.038 289.517 145.15 289.24 145.374 289.016C145.598 288.792 145.875 288.68 146.206 288.68C146.526 288.68 146.798 288.792 147.022 289.016C147.246 289.24 147.358 289.517 147.358 289.848C147.358 290.179 147.246 290.456 147.022 290.68C146.798 290.904 146.526 291.016 146.206 291.016ZM147.102 292.184V301H145.278V292.184H147.102ZM151.321 289.16V301H149.497V289.16H151.321ZM155.54 289.16V301H153.716V289.16H155.54ZM158.862 291.016C158.532 291.016 158.254 290.904 158.03 290.68C157.806 290.456 157.694 290.179 157.694 289.848C157.694 289.517 157.806 289.24 158.03 289.016C158.254 288.792 158.532 288.68 158.862 288.68C159.182 288.68 159.454 288.792 159.678 289.016C159.902 289.24 160.014 289.517 160.014 289.848C160.014 290.179 159.902 290.456 159.678 290.68C159.454 290.904 159.182 291.016 158.862 291.016ZM159.758 292.184V301H157.934V292.184H159.758ZM166.601 292.04C167.294 292.04 167.913 292.184 168.457 292.472C169.012 292.76 169.444 293.187 169.753 293.752C170.062 294.317 170.217 295 170.217 295.8V301H168.409V296.072C168.409 295.283 168.212 294.68 167.817 294.264C167.422 293.837 166.884 293.624 166.201 293.624C165.518 293.624 164.974 293.837 164.569 294.264C164.174 294.68 163.977 295.283 163.977 296.072V301H162.153V292.184H163.977V293.192C164.276 292.829 164.654 292.547 165.113 292.344C165.582 292.141 166.078 292.04 166.601 292.04ZM176.096 292.04C176.778 292.04 177.381 292.179 177.904 292.456C178.437 292.723 178.853 293.059 179.152 293.464V292.184H180.992V301.144C180.992 301.955 180.821 302.675 180.48 303.304C180.138 303.944 179.642 304.445 178.992 304.808C178.352 305.171 177.584 305.352 176.688 305.352C175.493 305.352 174.501 305.069 173.712 304.504C172.922 303.949 172.474 303.192 172.368 302.232H174.176C174.314 302.691 174.608 303.059 175.056 303.336C175.514 303.624 176.058 303.768 176.688 303.768C177.424 303.768 178.016 303.544 178.464 303.096C178.922 302.648 179.152 301.997 179.152 301.144V299.672C178.842 300.088 178.421 300.44 177.888 300.728C177.365 301.005 176.768 301.144 176.096 301.144C175.328 301.144 174.624 300.952 173.984 300.568C173.354 300.173 172.853 299.629 172.48 298.936C172.117 298.232 171.936 297.437 171.936 296.552C171.936 295.667 172.117 294.883 172.48 294.2C172.853 293.517 173.354 292.989 173.984 292.616C174.624 292.232 175.328 292.04 176.096 292.04ZM179.152 296.584C179.152 295.976 179.024 295.448 178.768 295C178.522 294.552 178.197 294.211 177.792 293.976C177.386 293.741 176.949 293.624 176.48 293.624C176.01 293.624 175.573 293.741 175.168 293.976C174.762 294.2 174.432 294.536 174.176 294.984C173.93 295.421 173.808 295.944 173.808 296.552C173.808 297.16 173.93 297.693 174.176 298.152C174.432 298.611 174.762 298.963 175.168 299.208C175.584 299.443 176.021 299.56 176.48 299.56C176.949 299.56 177.386 299.443 177.792 299.208C178.197 298.973 178.522 298.632 178.768 298.184C179.024 297.725 179.152 297.192 179.152 296.584Z" fill="#555555"/>
<path d="M36.5 295L41.75 300.25L52.25 289" stroke="#6695FF" stroke-width="2" stroke-linecap="round" stroke-linejoin="round"/>
<circle cx="152" cy="41.5" r="39.5" fill="#FAFBFF" stroke="#6695FF" stroke-width="4"/>
<path d="M152 24.0945C142.387 24.0945 134.595 31.8872 134.595 41.5C134.595 51.1127 142.387 58.9054 152 58.9054C161.613 58.9054 169.405 51.1127 169.405 41.5C169.405 31.8872 161.613 24.0945 152 24.0945ZM162.666 52.1665C160.022 54.8034 156.49 56.3613 152.759 56.5364C149.028 56.7115 145.366 55.4914 142.486 53.1138C139.605 50.7362 137.714 47.3714 137.179 43.6751C136.644 39.9788 137.504 36.2157 139.592 33.1191C141.68 30.0225 144.846 27.8142 148.474 26.9245C152.101 26.0349 155.93 26.5275 159.214 28.3065C162.498 30.0855 165.002 33.0234 166.238 36.5477C167.474 40.0721 167.353 43.9304 165.9 47.3709C165.143 49.1636 164.045 50.7923 162.666 52.1665Z" fill="#5C5C5C"/>
<path d="M144.458 37.4387H147.359V40.3396H144.458V37.4387ZM156.641 37.4387H159.542V40.3396H156.641V37.4387ZM157.968 45.2131C157.519 46.3458 156.739 47.317 155.73 48C154.721 48.683 153.53 49.0463 152.312 49.0423H151.688C150.47 49.0463 149.278 48.6831 148.27 48.0001C147.261 47.317 146.481 46.3458 146.032 45.2131L145.939 44.9811H143.44L143.877 46.0748C144.502 47.6358 145.58 48.974 146.972 49.9166C148.364 50.8592 150.007 51.363 151.688 51.3631H152.312C153.993 51.363 155.636 50.8592 157.028 49.9166C158.42 48.974 159.498 47.6358 160.123 46.0748L160.56 44.9811H158.061L157.968 45.2131Z" fill="#5C5C5C"/>
</svg>
