<svg width="18" height="18" viewBox="0 0 18 18" fill="none" xmlns="http://www.w3.org/2000/svg">
<path d="M17.6026 3.85262L14.1474 0.397375C13.988 0.238 13.7925 0.121125 13.58 0.0573749V0H1.68C1.30387 0 1 0.303875 1 0.68V16.32C1 16.6961 1.30387 17 1.68 17H17.32C17.6961 17 18 16.6961 18 16.32V4.81313C18 4.45188 17.8576 4.10763 17.6026 3.85262ZM6.78 1.53H12.22V3.74H6.78V1.53ZM16.47 15.47H2.53V1.53H5.42V4.42C5.42 4.79612 5.72388 5.1 6.1 5.1H12.9C13.2761 5.1 13.58 4.79612 13.58 4.42V1.99325L16.47 4.88325V15.47ZM9.5 7.0125C7.81063 7.0125 6.44 8.38313 6.44 10.0725C6.44 11.7619 7.81063 13.1325 9.5 13.1325C11.1894 13.1325 12.56 11.7619 12.56 10.0725C12.56 8.38313 11.1894 7.0125 9.5 7.0125ZM9.5 11.7725C8.56075 11.7725 7.8 11.0118 7.8 10.0725C7.8 9.13325 8.56075 8.3725 9.5 8.3725C10.4392 8.3725 11.2 9.13325 11.2 10.0725C11.2 11.0118 10.4392 11.7725 9.5 11.7725Z" fill="white"/>
</svg>
