<svg width="536" height="358" viewBox="0 0 536 358" fill="none" xmlns="http://www.w3.org/2000/svg">
<path d="M249.198 46.3581C247.668 45.201 245.438 45.0693 243.784 46.0402C241.589 41.596 235.473 39.6348 231.11 41.9762C229.973 37.1875 225.263 33.5066 220.35 33.566C215.437 33.6254 210.818 37.4181 209.795 42.2332C209.632 42.9986 209.525 43.8363 208.979 44.3955C208.092 45.3034 206.61 44.9991 205.346 44.8996C201.367 44.5888 197.364 47.387 196.281 51.2362L251.074 51.0364C251.553 49.1777 250.727 47.5158 249.198 46.3581Z" fill="#E6E6E6"/>
<path d="M303.174 75.6433C302.205 74.9094 300.79 74.8263 299.742 75.4413C298.35 72.6239 294.471 71.3802 291.705 72.8645C290.984 69.8279 287.998 67.4945 284.883 67.5317C281.767 67.5689 278.838 69.9747 278.19 73.0277C278.087 73.5124 278.018 74.0444 277.672 74.3988C277.11 74.9745 276.17 74.7812 275.368 74.7189C272.845 74.522 270.307 76.2962 269.621 78.7364L304.364 78.6096C304.668 77.4311 304.144 76.3772 303.174 75.6433Z" fill="#E6E6E6"/>
<path d="M389.706 38.1456C388.736 37.4117 387.322 37.3286 386.274 37.9437C384.882 35.1255 381.003 33.8825 378.237 35.3668C377.516 32.3302 374.53 29.9968 371.414 30.034C368.299 30.0712 365.37 32.477 364.722 35.53C364.619 36.0148 364.55 36.5467 364.204 36.9012C363.642 37.4768 362.702 37.2835 361.9 37.2212C359.377 37.0243 356.839 38.7986 356.153 41.2387L390.896 41.112C391.199 39.9327 390.675 38.8795 389.706 38.1456Z" fill="#F5F5F5"/>
<path d="M121.265 68.2684C119.735 67.1106 117.505 66.9796 115.851 67.9504C113.656 63.5062 107.539 61.5451 103.177 63.8864C102.039 59.0978 97.3297 55.4169 92.4171 55.4763C87.5038 55.5357 82.8849 59.3284 81.8622 64.1435C81.7 64.9089 81.592 65.7466 81.046 66.3058C80.1584 67.2137 78.6769 66.9094 77.4127 66.8099C73.4341 66.4991 69.4306 69.2972 68.3478 73.1465L123.141 72.9467C123.619 71.088 122.794 69.4261 121.265 68.2684Z" fill="#E6E6E6"/>
<path d="M166.541 92.1241C165.503 91.3387 163.99 91.2499 162.867 91.9086C161.377 88.8928 157.227 87.5625 154.266 89.1513C153.493 85.9021 150.298 83.404 146.964 83.4441C143.63 83.4842 140.496 86.0582 139.802 89.3253C139.692 89.8444 139.618 90.4136 139.248 90.7924C138.645 91.4089 137.641 91.2019 136.782 91.1346C134.082 90.9234 131.366 92.823 130.631 95.4342L167.814 95.2989C168.139 94.038 167.579 92.9096 166.541 92.1241Z" fill="#F5F5F5"/>
<path d="M129.886 150.67C128.848 149.885 127.334 149.796 126.212 150.455C124.723 147.439 120.572 146.108 117.611 147.696C116.839 144.447 113.643 141.949 110.31 141.989C106.976 142.029 103.841 144.603 103.146 147.87C103.036 148.39 102.963 148.959 102.593 149.338C101.99 149.954 100.985 149.747 100.127 149.68C97.427 149.469 94.7105 151.368 93.9758 153.979L131.159 153.844C131.484 152.583 130.923 151.455 129.886 150.67Z" fill="#F5F5F5"/>
<path d="M503.486 78.0039C502.448 77.2184 500.934 77.1297 499.811 77.7884C498.322 74.7726 494.171 73.4415 491.211 75.0303C490.439 71.7811 487.243 69.283 483.909 69.3231C480.575 69.3632 477.441 71.9372 476.747 75.2043C476.637 75.7234 476.563 76.2927 476.193 76.6714C475.591 77.2879 474.586 77.081 473.728 77.0137C471.028 76.8024 468.311 78.702 467.576 81.3132L504.759 81.1779C505.084 79.917 504.523 78.7893 503.486 78.0039Z" fill="#F5F5F5"/>
<path d="M476.746 152.176L476.144 119.109H457.643V126.65H444.022V44.0483H417.831V76.5598H409.974V60.3252H389.538V139.5H360.722V111.527H342.654V50.8761H320.355V91.3101H299.397V178.416H283.16V135.999H266.392V108.706H248.581V87.7508L228.708 98.2531V154.317H207.751V142.752H179.754V224.009L505.619 224.167V152.176H476.746Z" fill="#EBEBEB"/>
<path d="M267.758 224.052V103.156H245.492V224.167C252.539 223.993 267.758 224.052 267.758 224.052Z" fill="#E6E6E6"/>
<path d="M247.48 224.167V157.676H201.656V224.02L247.48 224.167Z" fill="#FAFAFA"/>
<path d="M303.157 224.069V126.459H277.198V224.056L303.157 224.069Z" fill="#E0E0E0"/>
<path d="M282.316 130.283H279.169V136.787H282.316V130.283Z" fill="#FAFAFA"/>
<path d="M288.608 130.283H285.461V136.787H288.608V130.283Z" fill="#FAFAFA"/>
<path d="M294.901 130.283H291.755V136.787H294.901V130.283Z" fill="#FAFAFA"/>
<path d="M301.195 130.283H298.048V136.787H301.195V130.283Z" fill="#FAFAFA"/>
<path d="M282.316 141.192H279.169V147.697H282.316V141.192Z" fill="#FAFAFA"/>
<path d="M288.608 141.192H285.461V147.697H288.608V141.192Z" fill="#FAFAFA"/>
<path d="M294.901 141.192H291.755V147.697H294.901V141.192Z" fill="#FAFAFA"/>
<path d="M301.195 141.192H298.048V147.697H301.195V141.192Z" fill="#FAFAFA"/>
<path d="M282.316 152.094H279.169V158.598H282.316V152.094Z" fill="#FAFAFA"/>
<path d="M288.608 152.094H285.461V158.598H288.608V152.094Z" fill="#FAFAFA"/>
<path d="M294.901 152.094H291.755V158.598H294.901V152.094Z" fill="#FAFAFA"/>
<path d="M301.195 152.094H298.048V158.598H301.195V152.094Z" fill="#FAFAFA"/>
<path d="M282.316 162.994H279.169V169.498H282.316V162.994Z" fill="#FAFAFA"/>
<path d="M288.608 162.994H285.461V169.498H288.608V162.994Z" fill="#FAFAFA"/>
<path d="M294.901 162.994H291.755V169.498H294.901V162.994Z" fill="#FAFAFA"/>
<path d="M301.195 162.994H298.048V169.498H301.195V162.994Z" fill="#FAFAFA"/>
<path d="M282.316 173.895H279.169V180.399H282.316V173.895Z" fill="#FAFAFA"/>
<path d="M288.608 173.895H285.461V180.399H288.608V173.895Z" fill="#FAFAFA"/>
<path d="M294.901 173.895H291.755V180.399H294.901V173.895Z" fill="#FAFAFA"/>
<path d="M301.195 173.895H298.048V180.399H301.195V173.895Z" fill="#FAFAFA"/>
<path d="M282.316 184.795H279.169V191.299H282.316V184.795Z" fill="#FAFAFA"/>
<path d="M288.608 184.795H285.461V191.299H288.608V184.795Z" fill="#FAFAFA"/>
<path d="M294.901 184.795H291.755V191.299H294.901V184.795Z" fill="#FAFAFA"/>
<path d="M301.195 184.795H298.048V191.299H301.195V184.795Z" fill="#FAFAFA"/>
<path d="M282.316 195.696H279.169V202.2H282.316V195.696Z" fill="#FAFAFA"/>
<path d="M288.608 195.696H285.461V202.2H288.608V195.696Z" fill="#FAFAFA"/>
<path d="M294.901 195.696H291.755V202.2H294.901V195.696Z" fill="#FAFAFA"/>
<path d="M301.195 195.696H298.048V202.2H301.195V195.696Z" fill="#FAFAFA"/>
<path d="M282.316 206.605H279.169V213.109H282.316V206.605Z" fill="#FAFAFA"/>
<path d="M288.608 206.605H285.461V213.109H288.608V206.605Z" fill="#FAFAFA"/>
<path d="M294.901 206.605H291.755V213.109H294.901V206.605Z" fill="#FAFAFA"/>
<path d="M301.195 206.605H298.048V213.109H301.195V206.605Z" fill="#FAFAFA"/>
<path d="M393.363 224.113V112.555H339.541V224.15C339.541 224.15 392.951 224.167 393.363 224.113Z" fill="#F5F5F5"/>
<path d="M350.107 117.002H343.582V124.493H350.107V117.002Z" fill="#E6E6E6"/>
<path d="M363.164 117.002H356.639V124.493H363.164V117.002Z" fill="#E6E6E6"/>
<path d="M376.214 117.002H369.689V124.493H376.214V117.002Z" fill="#E6E6E6"/>
<path d="M389.272 117.002H382.748V124.493H389.272V117.002Z" fill="#E6E6E6"/>
<path d="M350.107 129.57H343.582V137.061H350.107V129.57Z" fill="#E6E6E6"/>
<path d="M363.164 129.57H356.639V137.061H363.164V129.57Z" fill="#E6E6E6"/>
<path d="M376.214 129.57H369.689V137.061H376.214V129.57Z" fill="#E6E6E6"/>
<path d="M389.272 129.57H382.748V137.061H389.272V129.57Z" fill="#E6E6E6"/>
<path d="M350.107 142.13H343.582V149.62H350.107V142.13Z" fill="#E6E6E6"/>
<path d="M363.164 142.13H356.639V149.62H363.164V142.13Z" fill="#E6E6E6"/>
<path d="M376.214 142.13H369.689V149.62H376.214V142.13Z" fill="#E6E6E6"/>
<path d="M389.272 142.13H382.748V149.62H389.272V142.13Z" fill="#E6E6E6"/>
<path d="M350.107 154.69H343.582V162.18H350.107V154.69Z" fill="#E6E6E6"/>
<path d="M363.164 154.69H356.639V162.18H363.164V154.69Z" fill="#E6E6E6"/>
<path d="M376.214 154.69H369.689V162.18H376.214V154.69Z" fill="#E6E6E6"/>
<path d="M389.272 154.69H382.748V162.18H389.272V154.69Z" fill="#E6E6E6"/>
<path d="M350.107 167.258H343.582V174.748H350.107V167.258Z" fill="#E6E6E6"/>
<path d="M363.164 167.258H356.639V174.748H363.164V167.258Z" fill="#E6E6E6"/>
<path d="M376.214 167.258H369.689V174.748H376.214V167.258Z" fill="#E6E6E6"/>
<path d="M389.272 167.258H382.748V174.748H389.272V167.258Z" fill="#E6E6E6"/>
<path d="M350.107 179.818H343.582V187.308H350.107V179.818Z" fill="#E6E6E6"/>
<path d="M363.164 179.818H356.639V187.308H363.164V179.818Z" fill="#E6E6E6"/>
<path d="M376.214 179.818H369.689V187.308H376.214V179.818Z" fill="#E6E6E6"/>
<path d="M389.272 179.818H382.748V187.308H389.272V179.818Z" fill="#E6E6E6"/>
<path d="M350.107 192.386H343.582V199.876H350.107V192.386Z" fill="#E6E6E6"/>
<path d="M363.164 192.386H356.639V199.876H363.164V192.386Z" fill="#E6E6E6"/>
<path d="M376.214 192.386H369.689V199.876H376.214V192.386Z" fill="#E6E6E6"/>
<path d="M389.272 192.386H382.748V199.876H389.272V192.386Z" fill="#E6E6E6"/>
<path d="M350.107 204.946H343.582V212.436H350.107V204.946Z" fill="#E6E6E6"/>
<path d="M363.164 204.946H356.639V212.436H363.164V204.946Z" fill="#E6E6E6"/>
<path d="M376.214 204.946H369.689V212.436H376.214V204.946Z" fill="#E6E6E6"/>
<path d="M389.272 204.946H382.748V212.436H389.272V204.946Z" fill="#E6E6E6"/>
<path d="M255.611 111.373H249.598V118.276H255.611V111.373Z" fill="#FAFAFA"/>
<path d="M255.611 122.947H249.598V129.85H255.611V122.947Z" fill="#FAFAFA"/>
<path d="M255.611 134.529H249.598V141.432H255.611V134.529Z" fill="#FAFAFA"/>
<path d="M255.611 146.103H249.598V153.006H255.611V146.103Z" fill="#FAFAFA"/>
<path d="M255.611 157.677H249.598V164.58H255.611V157.677Z" fill="#FAFAFA"/>
<path d="M255.611 169.258H249.598V176.161H255.611V169.258Z" fill="#FAFAFA"/>
<path d="M255.611 180.832H249.598V187.735H255.611V180.832Z" fill="#FAFAFA"/>
<path d="M255.611 192.414H249.598V199.317H255.611V192.414Z" fill="#FAFAFA"/>
<path d="M263.653 111.373H257.64V118.276H263.653V111.373Z" fill="#FAFAFA"/>
<path d="M263.653 122.947H257.64V129.85H263.653V122.947Z" fill="#FAFAFA"/>
<path d="M263.653 134.529H257.64V141.432H263.653V134.529Z" fill="#FAFAFA"/>
<path d="M263.653 146.103H257.64V153.006H263.653V146.103Z" fill="#FAFAFA"/>
<path d="M263.653 157.677H257.64V164.58H263.653V157.677Z" fill="#FAFAFA"/>
<path d="M263.653 169.258H257.64V176.161H263.653V169.258Z" fill="#FAFAFA"/>
<path d="M263.653 180.832H257.64V187.735H263.653V180.832Z" fill="#FAFAFA"/>
<path d="M263.653 192.414H257.64V199.317H263.653V192.414Z" fill="#FAFAFA"/>
<path d="M331.98 58.8997H325.456V66.3904H331.98V58.8997Z" fill="#FAFAFA"/>
<path d="M331.98 71.459H325.456V78.9498H331.98V71.459Z" fill="#FAFAFA"/>
<path d="M331.98 83.1635H325.456V90.6542H331.98V83.1635Z" fill="#FAFAFA"/>
<path d="M331.98 95.7235H325.456V103.214H331.98V95.7235Z" fill="#FAFAFA"/>
<path d="M331.98 108.283H325.456V115.774H331.98V108.283Z" fill="#FAFAFA"/>
<path d="M331.98 120.851H325.456V128.342H331.98V120.851Z" fill="#FAFAFA"/>
<path d="M331.98 133.411H325.456V140.902H331.98V133.411Z" fill="#FAFAFA"/>
<path d="M331.98 145.979H325.456V153.47H331.98V145.979Z" fill="#FAFAFA"/>
<path d="M429.995 48.0056H423.47V55.4964H429.995V48.0056Z" fill="#FAFAFA"/>
<path d="M429.995 60.5658H423.47V68.0566H429.995V60.5658Z" fill="#FAFAFA"/>
<path d="M429.995 73.1337H423.47V80.6245H429.995V73.1337Z" fill="#FAFAFA"/>
<path d="M429.995 85.6937H423.47V93.1845H429.995V85.6937Z" fill="#FAFAFA"/>
<path d="M429.995 98.2617H423.47V105.753H429.995V98.2617Z" fill="#FAFAFA"/>
<path d="M429.995 110.822H423.47V118.313H429.995V110.822Z" fill="#FAFAFA"/>
<path d="M429.995 123.39H423.47V130.881H429.995V123.39Z" fill="#FAFAFA"/>
<path d="M429.995 135.95H423.47V143.441H429.995V135.95Z" fill="#FAFAFA"/>
<path d="M476.746 105.72H437.448V224.167H476.746V105.72Z" fill="#E6E6E6"/>
<path d="M454.779 111.56H443.26V119.051H454.779V111.56Z" fill="#FAFAFA"/>
<path d="M454.779 124.128H443.26V131.619H454.779V124.128Z" fill="#FAFAFA"/>
<path d="M454.779 136.688H443.26V144.179H454.779V136.688Z" fill="#FAFAFA"/>
<path d="M454.779 149.256H443.26V156.747H454.779V149.256Z" fill="#FAFAFA"/>
<path d="M454.779 161.816H443.26V169.307H454.779V161.816Z" fill="#FAFAFA"/>
<path d="M454.779 174.376H443.26V181.867H454.779V174.376Z" fill="#FAFAFA"/>
<path d="M454.779 186.944H443.26V194.435H454.779V186.944Z" fill="#FAFAFA"/>
<path d="M454.779 199.504H443.26V206.995H454.779V199.504Z" fill="#FAFAFA"/>
<path d="M470.189 111.56H458.67V119.051H470.189V111.56Z" fill="#FAFAFA"/>
<path d="M470.189 124.128H458.67V131.619H470.189V124.128Z" fill="#FAFAFA"/>
<path d="M470.189 136.688H458.67V144.179H470.189V136.688Z" fill="#FAFAFA"/>
<path d="M470.189 149.256H458.67V156.747H470.189V149.256Z" fill="#FAFAFA"/>
<path d="M470.189 161.816H458.67V169.307H470.189V161.816Z" fill="#FAFAFA"/>
<path d="M470.189 174.376H458.67V181.867H470.189V174.376Z" fill="#FAFAFA"/>
<path d="M470.189 186.944H458.67V194.435H470.189V186.944Z" fill="#FAFAFA"/>
<path d="M470.189 199.504H458.67V206.995H470.189V199.504Z" fill="#FAFAFA"/>
<path d="M416.018 224.124V142.13H398.878V224.115L416.018 224.124Z" fill="#E0E0E0"/>
<path d="M402.256 145.448H400.178V151.032H402.256V145.448Z" fill="#FAFAFA"/>
<path d="M406.412 145.448H404.334V151.032H406.412V145.448Z" fill="#FAFAFA"/>
<path d="M410.561 145.448H408.483V151.032H410.561V145.448Z" fill="#FAFAFA"/>
<path d="M414.718 145.448H412.64V151.032H414.718V145.448Z" fill="#FAFAFA"/>
<path d="M402.256 154.814H400.178V160.398H402.256V154.814Z" fill="#FAFAFA"/>
<path d="M406.412 154.814H404.334V160.398H406.412V154.814Z" fill="#FAFAFA"/>
<path d="M410.561 154.814H408.483V160.398H410.561V154.814Z" fill="#FAFAFA"/>
<path d="M414.718 154.814H412.64V160.398H414.718V154.814Z" fill="#FAFAFA"/>
<path d="M402.256 164.18H400.178V169.764H402.256V164.18Z" fill="#FAFAFA"/>
<path d="M406.412 164.18H404.334V169.764H406.412V164.18Z" fill="#FAFAFA"/>
<path d="M410.561 164.18H408.483V169.764H410.561V164.18Z" fill="#FAFAFA"/>
<path d="M414.718 164.18H412.64V169.764H414.718V164.18Z" fill="#FAFAFA"/>
<path d="M402.256 173.546H400.178V179.13H402.256V173.546Z" fill="#FAFAFA"/>
<path d="M406.412 173.546H404.334V179.13H406.412V173.546Z" fill="#FAFAFA"/>
<path d="M410.561 173.546H408.483V179.13H410.561V173.546Z" fill="#FAFAFA"/>
<path d="M414.718 173.546H412.64V179.13H414.718V173.546Z" fill="#FAFAFA"/>
<path d="M402.256 182.92H400.178V188.504H402.256V182.92Z" fill="#FAFAFA"/>
<path d="M406.412 182.92H404.334V188.504H406.412V182.92Z" fill="#FAFAFA"/>
<path d="M410.561 182.92H408.483V188.504H410.561V182.92Z" fill="#FAFAFA"/>
<path d="M414.718 182.92H412.64V188.504H414.718V182.92Z" fill="#FAFAFA"/>
<path d="M402.256 192.286H400.178V197.87H402.256V192.286Z" fill="#FAFAFA"/>
<path d="M406.412 192.286H404.334V197.87H406.412V192.286Z" fill="#FAFAFA"/>
<path d="M410.561 192.286H408.483V197.87H410.561V192.286Z" fill="#FAFAFA"/>
<path d="M414.718 192.286H412.64V197.87H414.718V192.286Z" fill="#FAFAFA"/>
<path d="M402.256 201.652H400.178V207.235H402.256V201.652Z" fill="#FAFAFA"/>
<path d="M406.412 201.652H404.334V207.235H406.412V201.652Z" fill="#FAFAFA"/>
<path d="M410.561 201.652H408.483V207.235H410.561V201.652Z" fill="#FAFAFA"/>
<path d="M414.718 201.652H412.64V207.235H414.718V201.652Z" fill="#FAFAFA"/>
<path d="M402.256 211.018H400.178V216.601H402.256V211.018Z" fill="#FAFAFA"/>
<path d="M406.412 211.018H404.334V216.601H406.412V211.018Z" fill="#FAFAFA"/>
<path d="M410.561 211.018H408.483V216.601H410.561V211.018Z" fill="#FAFAFA"/>
<path d="M414.718 211.018H412.64V216.601H414.718V211.018Z" fill="#FAFAFA"/>
<path d="M210.682 160.456H205.126V165.142H210.682V160.456Z" fill="#E6E6E6"/>
<path d="M221.794 160.456H216.238V165.142H221.794V160.456Z" fill="#E6E6E6"/>
<path d="M232.898 160.456H227.342V165.142H232.898V160.456Z" fill="#E6E6E6"/>
<path d="M244.01 160.456H238.454V165.142H244.01V160.456Z" fill="#E6E6E6"/>
<path d="M210.682 168.312H205.126V172.998H210.682V168.312Z" fill="#E6E6E6"/>
<path d="M221.794 168.312H216.238V172.998H221.794V168.312Z" fill="#E6E6E6"/>
<path d="M232.898 168.312H227.342V172.998H232.898V168.312Z" fill="#E6E6E6"/>
<path d="M244.01 168.312H238.454V172.998H244.01V168.312Z" fill="#E6E6E6"/>
<path d="M210.682 176.167H205.126V180.854H210.682V176.167Z" fill="#E6E6E6"/>
<path d="M221.794 176.167H216.238V180.854H221.794V176.167Z" fill="#E6E6E6"/>
<path d="M232.898 176.167H227.342V180.854H232.898V176.167Z" fill="#E6E6E6"/>
<path d="M244.01 176.167H238.454V180.854H244.01V176.167Z" fill="#E6E6E6"/>
<path d="M210.682 184.023H205.126V188.71H210.682V184.023Z" fill="#E6E6E6"/>
<path d="M221.794 184.023H216.238V188.71H221.794V184.023Z" fill="#E6E6E6"/>
<path d="M232.898 184.023H227.342V188.71H232.898V184.023Z" fill="#E6E6E6"/>
<path d="M244.01 184.023H238.454V188.71H244.01V184.023Z" fill="#E6E6E6"/>
<path d="M210.682 191.872H205.126V196.559H210.682V191.872Z" fill="#E6E6E6"/>
<path d="M221.794 191.872H216.238V196.559H221.794V191.872Z" fill="#E6E6E6"/>
<path d="M232.898 191.872H227.342V196.559H232.898V191.872Z" fill="#E6E6E6"/>
<path d="M244.01 191.872H238.454V196.559H244.01V191.872Z" fill="#E6E6E6"/>
<path d="M210.682 199.728H205.126V204.414H210.682V199.728Z" fill="#E6E6E6"/>
<path d="M221.794 199.728H216.238V204.414H221.794V199.728Z" fill="#E6E6E6"/>
<path d="M232.898 199.728H227.342V204.414H232.898V199.728Z" fill="#E6E6E6"/>
<path d="M244.01 199.728H238.454V204.414H244.01V199.728Z" fill="#E6E6E6"/>
<path d="M210.682 207.584H205.126V212.271H210.682V207.584Z" fill="#E6E6E6"/>
<path d="M221.794 207.584H216.238V212.271H221.794V207.584Z" fill="#E6E6E6"/>
<path d="M232.898 207.584H227.342V212.271H232.898V207.584Z" fill="#E6E6E6"/>
<path d="M244.01 207.584H238.454V212.271H244.01V207.584Z" fill="#E6E6E6"/>
<path d="M481.495 241.773H352.322C350.012 241.773 348.133 239.89 348.133 237.576V49.0724C348.133 46.7583 350.012 44.8752 352.322 44.8752H481.495C483.805 44.8752 485.685 46.7576 485.685 49.0724V237.576C485.685 239.891 483.805 241.773 481.495 241.773ZM352.322 45.0542C350.11 45.0542 348.311 46.8571 348.311 49.0724V237.576C348.311 239.792 350.111 241.594 352.322 241.594H481.495C483.707 241.594 485.506 239.792 485.506 237.576V49.0724C485.506 46.8571 483.706 45.0542 481.495 45.0542H352.322Z" fill="#E0E0E0"/>
<path d="M332.539 241.773H203.366C201.056 241.773 199.176 239.89 199.176 237.576V49.0724C199.176 46.7583 201.055 44.8752 203.366 44.8752H332.539C334.849 44.8752 336.729 46.7576 336.729 49.0724V237.576C336.728 239.891 334.848 241.773 332.539 241.773ZM203.366 45.0542C201.154 45.0542 199.355 46.8571 199.355 49.0724V237.576C199.355 239.792 201.154 241.594 203.366 241.594H332.539C334.751 241.594 336.55 239.792 336.55 237.576V49.0724C336.55 46.8571 334.751 45.0542 332.539 45.0542H203.366Z" fill="#E0E0E0"/>
<path d="M183.678 241.773H54.5047C52.1949 241.773 50.3154 239.89 50.3154 237.576V49.0724C50.3154 46.7583 52.1942 44.8752 54.5047 44.8752H183.678C185.988 44.8752 187.867 46.7576 187.867 49.0724V237.576C187.868 239.891 185.988 241.773 183.678 241.773ZM54.5047 45.0542C52.2936 45.0542 50.494 46.8571 50.494 49.0724V237.576C50.494 239.792 52.2936 241.594 54.5047 241.594H183.678C185.89 241.594 187.689 239.792 187.689 237.576V49.0724C187.689 46.8571 185.889 45.0542 183.678 45.0542H54.5047Z" fill="#E0E0E0"/>
<path d="M536 285.499H0V285.585H536V285.499Z" fill="#E0E0E0"/>
<path d="M506.952 306.532H467.125V306.834H506.952V306.532Z" fill="#EBEBEB"/>
<path d="M364.245 309.802H353.792V310.103H364.245V309.802Z" fill="#EBEBEB"/>
<path d="M80.9853 297.37H29.0476V297.671H80.9853V297.37Z" fill="#EBEBEB"/>
<path d="M99.3065 297.37H91.691V297.671H99.3065V297.37Z" fill="#EBEBEB"/>
<path d="M236.697 302.456H124.056V302.758H236.697V302.456Z" fill="#EBEBEB"/>
<path d="M472.191 313.014C472.191 314.895 392.816 316.421 294.901 316.421C196.986 316.421 117.611 314.895 117.611 313.014C117.611 311.132 196.986 309.606 294.901 309.606C392.816 309.606 472.191 311.132 472.191 313.014Z" fill="#F5F5F5"/>
<path d="M181.665 153.972H176.846V288.779H181.665V153.972Z" fill="#263238"/>
<g opacity="0.4">
<path d="M181.665 153.972H176.846V288.779H181.665V153.972Z" fill="white"/>
</g>
<path d="M218.531 156.314H140.469C138.553 156.314 137 155.431 137 154.342V109.972C137 108.883 138.553 108 140.469 108H218.531C220.447 108 222 108.883 222 109.972V154.342C221.999 155.431 220.446 156.314 218.531 156.314Z" fill="#407BFF"/>
<g opacity="0.5">
<path d="M218.531 156.314H140.469C138.553 156.314 137 155.431 137 154.342V109.972C137 108.883 138.553 108 140.469 108H218.531C220.447 108 222 108.883 222 109.972V154.342C221.999 155.431 220.446 156.314 218.531 156.314Z" fill="white"/>
</g>
<path d="M112.012 124.347C117.496 118.208 116.974 108.777 110.846 103.283C104.719 97.7885 95.3051 98.3119 89.8215 104.451C85.5878 109.19 84.9489 115.885 87.6903 121.223L86.0873 125.406L90.812 125.342C90.8727 125.398 90.9256 125.46 90.9878 125.516C97.1146 131.009 106.528 130.486 112.012 124.347Z" fill="#407BFF"/>
<path d="M109.33 99.5677C113.66 101.737 116.754 106.209 117.259 111.033" stroke="#407BFF" stroke-width="0.5" stroke-miterlimit="10" stroke-linecap="round" stroke-linejoin="round"/>
<path d="M117.413 113.253C117.545 113.981 117.524 114.736 117.353 115.456" stroke="#407BFF" stroke-width="0.5" stroke-miterlimit="10" stroke-linecap="round" stroke-linejoin="round"/>
<path d="M100.623 120.751L93.7986 115.66L95.5717 113.274L100.148 116.688L106.435 109.173L108.711 111.084L100.623 120.751Z" fill="white"/>
<path d="M497.283 278.843L121.472 287.669V223.272H500.898L497.283 278.843Z" fill="#263238"/>
<path opacity="0.5" d="M497.283 278.843L121.472 287.669V223.272H500.898L497.283 278.843Z" fill="black"/>
<path d="M107.017 239.794V272.454C107.015 279.451 111.565 285.631 118.239 287.694L120.895 288.503C122.531 289.011 124.238 289.248 125.95 289.206L143.501 288.796C141.417 281.488 141.233 273.766 142.968 266.366C148.585 242.416 172.518 227.562 196.424 233.189C220.33 238.816 235.156 262.794 229.539 286.744L408.133 282.489C407.844 280.399 407.703 278.291 407.712 276.181C407.82 251.578 427.813 231.721 452.37 231.828C476.926 231.935 496.746 251.966 496.64 276.569C496.64 277.436 496.57 278.292 496.57 279.148C496.804 279.054 497.049 278.96 497.284 278.843L503.391 276.111C509.415 273.385 513.288 267.377 513.29 260.754V194.239C513.291 187.982 509.83 182.24 504.304 179.327L458.401 155.143C457.875 154.862 457.472 154.398 457.266 153.838C456.805 152.58 457.449 151.185 458.704 150.723L464.321 148.707C464.792 148.544 465.131 148.129 465.195 147.634C465.288 146.915 464.781 146.256 464.064 146.163C442.253 143.115 357.421 132.002 312.827 137.464C261.389 143.771 212.093 188.494 212.093 188.494C174.24 187.076 138.903 200.276 123.692 206.899C118.78 209.047 115.003 213.172 113.29 218.258L108.083 233.709C107.401 235.667 107.041 237.721 107.017 239.794Z" fill="#407BFF"/>
<path d="M408.179 282.489C407.92 280.527 407.791 278.549 407.793 276.569C407.793 275.561 407.828 274.565 407.887 273.569L375.592 260.333C373.701 259.562 371.661 259.23 369.624 259.36L257.294 266.745C255.458 266.861 253.665 267.356 252.029 268.199L230.686 279.195C230.534 281.737 230.17 284.263 229.597 286.744L408.179 282.489Z" fill="#263238"/>
<path d="M513.301 260.754V259.055L495.036 264.658C496.101 268.538 496.64 272.544 496.639 276.569C496.639 277.436 496.569 278.292 496.569 279.148C496.803 279.054 497.048 278.96 497.283 278.843L503.403 276.111C509.427 273.385 513.299 267.377 513.301 260.754Z" fill="#263238"/>
<path d="M112.201 284.177C113.944 285.792 116.028 286.994 118.297 287.694L120.953 288.503C122.589 289.011 124.296 289.248 126.008 289.206L143.559 288.796C142.924 286.573 142.466 284.304 142.19 282.008L112.201 284.177Z" fill="#263238"/>
<path d="M452.293 227.837C450.274 227.836 448.257 227.961 446.254 228.213C419.604 231.547 400.697 255.895 404.025 282.595L408.238 282.49C407.948 280.4 407.808 278.291 407.817 276.181C407.925 251.579 427.918 231.721 452.475 231.829C477.031 231.936 496.851 251.967 496.745 276.569C496.745 277.437 496.675 278.293 496.675 279.148C496.908 279.055 497.154 278.961 497.389 278.843L500.899 277.249C500.899 277.015 500.899 276.791 500.899 276.569C500.867 249.663 479.101 227.862 452.246 227.836L452.293 227.837Z" fill="#263238"/>
<path d="M186.315 227.837C182.161 227.836 178.024 228.368 174.005 229.42C148.014 236.224 132.45 262.85 139.241 288.89L143.559 288.796C141.475 281.488 141.291 273.766 143.027 266.366C148.643 242.416 172.576 227.562 196.483 233.189C220.388 238.816 235.215 262.793 229.598 286.744L233.904 286.639C234.604 283.32 234.957 279.938 234.957 276.546C234.95 249.638 213.173 227.83 186.315 227.837Z" fill="#263238"/>
<path d="M228.643 190.367C228.123 190.808 227.754 191.442 227.598 192.159C227.23 193.859 228.137 195.572 229.623 195.985L248.188 201.198C249.832 201.665 251.538 201.794 253.225 201.579L390.875 184.493C394.224 184.067 397.347 182.331 399.713 179.579L417.771 158.503C418.372 157.806 418.753 156.901 418.853 155.931C419.099 153.533 417.598 151.369 415.499 151.098C382.537 146.719 340.862 142.738 314.545 145.959C280.054 150.177 245.33 176.152 228.643 190.367Z" fill="#407BFF"/>
<path opacity="0.8" d="M229.264 190.367C228.744 190.808 228.374 191.442 228.219 192.159C227.851 193.859 228.757 195.572 230.243 195.985L248.808 201.198C250.453 201.665 252.159 201.794 253.846 201.579L288.924 199.17L388.414 192.337C391.764 191.911 396.942 185.743 400.603 180.736L418.391 158.503C418.993 157.806 419.374 156.901 419.473 155.931C419.719 153.533 418.218 151.369 416.119 151.098C383.157 146.719 341.482 142.738 315.165 145.959C280.675 150.177 245.95 176.152 229.264 190.367Z" fill="white"/>
<g opacity="0.3">
<path d="M319.184 203.507C318.303 203.189 317.846 202.214 318.163 201.331C318.553 200.238 319.567 199.491 320.726 199.444L337.108 198.752C337.329 198.742 337.55 198.776 337.759 198.85C338.647 199.168 339.11 200.148 338.792 201.039C338.395 202.132 337.378 202.877 336.218 202.926L319.836 203.606C319.615 203.615 319.393 203.582 319.184 203.507Z" fill="black"/>
</g>
<path d="M441.01 156.485C439.561 157.776 439.431 159.999 440.72 161.449L444.605 165.682C445.051 166.156 445.617 166.501 446.243 166.678L493.831 179.901C494.659 180.126 495.513 180.239 496.37 180.242H505.825C505.333 179.913 504.83 179.609 504.303 179.327L458.4 155.119L458.397 155.118C457.239 154.544 456.763 153.139 457.335 151.977L442.428 155.717C441.903 155.86 441.417 156.122 441.01 156.485Z" fill="#407BFF"/>
<path d="M144.678 213.123L128.441 211.352L119.112 215.175C117.151 215.978 115.686 217.666 115.164 219.723C114.858 220.913 115.029 222.176 115.643 223.24L115.807 223.522C116.85 225.321 118.874 226.312 120.932 226.031L130.292 224.741C131.205 224.61 132.07 224.251 132.808 223.698L143.608 215.492L144.678 213.123Z" fill="white"/>
<path d="M212.128 188.471L214.714 189.21C216.723 189.784 218.886 189.318 220.482 187.967C235.53 175.212 261.694 155.647 289.928 146.527C290.053 146.486 290.159 146.398 290.223 146.284C290.365 146.03 290.275 145.708 290.022 145.566L286.511 143.761C245.78 157.909 212.128 188.471 212.128 188.471Z" fill="#407BFF"/>
<path opacity="0.8" d="M212.128 188.471L214.714 189.21C216.723 189.784 218.886 189.318 220.482 187.967C235.53 175.212 261.694 155.647 289.928 146.527C290.053 146.486 290.159 146.398 290.223 146.284C290.365 146.03 290.275 145.708 290.022 145.566L286.511 143.761C245.78 157.909 212.128 188.471 212.128 188.471Z" fill="white"/>
<path opacity="0.2" d="M366.442 205.693L229.598 215.497L232.174 232.405C232.963 237.585 234.879 242.528 237.788 246.883L249.226 264.009L366.021 248.188L421.239 205.693H366.442Z" fill="white"/>
<path d="M452.249 313.679C472.708 313.679 489.294 297.062 489.294 276.564C489.294 256.066 472.708 239.45 452.249 239.45C431.789 239.45 415.203 256.066 415.203 276.564C415.203 297.062 431.789 313.679 452.249 313.679Z" fill="#263238"/>
<path opacity="0.4" d="M452.249 299.318C464.792 299.318 474.96 289.131 474.96 276.564C474.96 263.998 464.792 253.811 452.249 253.811C439.706 253.811 429.537 263.998 429.537 276.564C429.537 289.131 439.706 299.318 452.249 299.318Z" fill="white"/>
<g opacity="0.3">
<path d="M454.071 257.918V269.582C454.071 270.585 453.259 271.399 452.257 271.399H452.245C451.243 271.399 450.432 270.586 450.432 269.582V257.918C450.432 256.914 451.243 256.1 452.245 256.1H452.257C453.259 256.1 454.071 256.914 454.071 257.918Z" fill="white"/>
</g>
<g opacity="0.3">
<path d="M454.071 283.555V295.22C454.071 296.224 453.259 297.037 452.257 297.037H452.245C451.243 297.037 450.432 296.224 450.432 295.22V283.555C450.432 282.552 451.243 281.738 452.245 281.738H452.257C453.259 281.739 454.071 282.552 454.071 283.555Z" fill="white"/>
</g>
<g opacity="0.3">
<path d="M459.189 274.657C458.319 275.154 457.211 274.85 456.716 273.978C456.715 273.977 456.713 273.975 456.713 273.973C456.214 273.103 456.514 271.992 457.382 271.492L467.457 265.631C468.33 265.127 469.445 265.425 469.949 266.299C470.444 267.17 470.147 268.279 469.282 268.784L459.208 274.645C459.201 274.65 459.195 274.653 459.189 274.657Z" fill="white"/>
</g>
<g opacity="0.3">
<path d="M437.029 287.427C436.161 287.927 435.052 287.626 434.554 286.756C434.553 286.754 434.552 286.753 434.551 286.751C434.052 285.881 434.352 284.77 435.22 284.271L445.295 278.409L445.296 278.409C446.162 277.904 447.272 278.198 447.776 279.066C448.281 279.937 447.988 281.054 447.12 281.563L437.034 287.424C437.032 287.425 437.031 287.426 437.029 287.427Z" fill="white"/>
</g>
<g opacity="0.3">
<path d="M467.457 287.471L457.382 281.61C456.51 281.105 456.212 279.987 456.716 279.113C457.224 278.244 458.339 277.951 459.208 278.457L469.282 284.318C470.147 284.823 470.445 285.932 469.949 286.803C469.444 287.677 468.33 287.976 467.457 287.471Z" fill="white"/>
</g>
<g opacity="0.3">
<path d="M447.773 273.982C447.271 274.851 446.162 275.148 445.295 274.646L435.221 268.785C435.219 268.784 435.218 268.783 435.216 268.782C434.349 268.279 434.052 267.168 434.553 266.3C434.554 266.298 434.555 266.297 434.556 266.295C435.057 265.426 436.167 265.129 437.034 265.631L447.12 271.492L447.12 271.493C447.986 271.998 448.279 273.11 447.774 273.977C447.775 273.98 447.774 273.981 447.773 273.982Z" fill="white"/>
</g>
<path d="M449.203 276.557C449.203 274.874 450.565 273.509 452.245 273.509C452.249 273.509 452.253 273.509 452.257 273.509C453.943 273.509 455.311 274.879 455.311 276.569C455.311 278.258 453.943 279.628 452.257 279.628C450.57 279.628 449.203 278.258 449.203 276.569C449.203 276.565 449.203 276.561 449.203 276.557Z" fill="#263238"/>
<path d="M186.314 313.685C206.774 313.685 223.36 297.069 223.36 276.571C223.36 256.073 206.774 239.456 186.314 239.456C165.855 239.456 149.269 256.073 149.269 276.571C149.269 297.069 165.855 313.685 186.314 313.685Z" fill="#263238"/>
<path opacity="0.4" d="M186.314 299.325C198.858 299.325 209.026 289.138 209.026 276.571C209.026 264.004 198.858 253.816 186.314 253.816C173.771 253.816 163.602 264.004 163.602 276.571C163.602 289.138 173.771 299.325 186.314 299.325Z" fill="white"/>
<g opacity="0.3">
<path d="M188.129 257.918V269.582C188.129 270.585 187.317 271.399 186.315 271.399H186.304C185.302 271.399 184.49 270.586 184.49 269.582V257.918C184.49 256.914 185.302 256.1 186.304 256.1H186.315C187.317 256.1 188.129 256.914 188.129 257.918Z" fill="white"/>
</g>
<g opacity="0.3">
<path d="M188.129 283.555V295.22C188.129 296.224 187.317 297.037 186.315 297.037H186.304C185.302 297.037 184.49 296.224 184.49 295.22V283.555C184.49 282.552 185.302 281.738 186.304 281.738H186.315C187.317 281.739 188.129 282.552 188.129 283.555Z" fill="white"/>
</g>
<g opacity="0.3">
<path d="M193.241 274.66C192.375 275.151 191.276 274.846 190.785 273.978L190.785 273.977C190.281 273.11 190.574 271.998 191.441 271.493L201.527 265.632C201.528 265.631 201.53 265.63 201.532 265.629C202.4 265.129 203.509 265.429 204.008 266.3C204.009 266.301 204.01 266.303 204.011 266.305C204.51 267.175 204.21 268.286 203.341 268.786L193.267 274.647C193.257 274.651 193.249 274.656 193.241 274.66Z" fill="white"/>
</g>
<g opacity="0.3">
<path d="M168.611 286.756C168.611 286.754 168.609 286.753 168.608 286.751C168.11 285.881 168.41 284.77 169.278 284.271L179.353 278.409C180.222 277.903 181.337 278.197 181.845 279.066C182.348 279.94 182.05 281.058 181.178 281.563L171.103 287.424C170.231 287.929 169.116 287.629 168.611 286.756Z" fill="white"/>
</g>
<g opacity="0.3">
<path d="M204.005 286.807C203.504 287.676 202.394 287.973 201.527 287.471L191.441 281.61C190.573 281.101 190.28 279.984 190.785 279.113L190.786 279.113C191.291 278.245 192.4 277.952 193.266 278.457L203.341 284.318C203.342 284.319 203.343 284.32 203.346 284.321C204.212 284.823 204.509 285.935 204.008 286.803C204.007 286.805 204.006 286.806 204.005 286.807Z" fill="white"/>
</g>
<g opacity="0.3">
<path d="M181.835 273.997C181.329 274.862 180.218 275.154 179.353 274.646L169.279 268.785C169.277 268.784 169.276 268.783 169.274 268.782C168.407 268.28 168.11 267.168 168.611 266.3C169.116 265.426 170.231 265.127 171.103 265.632L181.178 271.493C181.179 271.494 181.181 271.495 181.183 271.496C182.05 271.998 182.346 273.11 181.846 273.978C181.842 273.985 181.838 273.99 181.835 273.997Z" fill="white"/>
</g>
<path d="M186.315 273.509C188.002 273.509 189.369 274.879 189.369 276.569C189.369 278.258 188.002 279.628 186.315 279.628C184.628 279.628 183.261 278.258 183.261 276.569C183.261 274.879 184.628 273.509 186.315 273.509Z" fill="#263238"/>
<path opacity="0.3" d="M509.414 206.549C510.649 206.164 511.338 204.85 510.953 203.613C510.524 195.8 508.866 188.843 504.084 184.059C503.764 183.007 502.757 182.32 501.662 182.407L473.428 185.08C472.936 185.133 472.475 185.339 472.108 185.672C471.15 186.54 471.075 188.023 471.942 188.983L480.027 197.717C480.308 198.019 480.663 198.241 481.057 198.361L508.087 206.567C508.522 206.69 508.983 206.683 509.414 206.549Z" fill="black"/>
<path d="M227.598 192.146C227.23 193.846 228.137 195.558 229.623 195.971L248.188 201.185C249.832 201.651 250.932 201.853 253.114 201.679L259.108 201.218L253.681 171.843C240.948 180.221 240.077 180.602 228.643 190.354C228.124 190.795 227.754 191.428 227.598 192.146Z" fill="#263238"/>
<path d="M348.535 144.997L336.872 195.947L352.128 194.848L359.094 145.473C355.525 145.269 352.005 145.11 348.535 144.997Z" fill="#263238"/>
<path d="M396.942 185.319L418.369 158.504C418.985 157.801 419.375 156.882 419.474 155.895C419.715 153.496 418.209 151.337 416.11 151.072C411.719 150.475 407.048 149.9 402.377 149.338" fill="#263238"/>
<path d="M244.484 197.325C240.775 197.369 237.732 194.393 237.689 190.677C237.653 187.516 239.814 184.755 242.886 184.036L251.836 181.934L254.113 196.959L244.662 197.321C244.602 197.323 244.543 197.325 244.484 197.325Z" fill="#407BFF"/>
<path opacity="0.3" d="M251.493 197.062L254.112 196.959L251.836 181.934L249.28 182.54L251.493 197.062Z" fill="black"/>
<path d="M167.875 136.333H151.641C151.234 136.334 150.904 136.657 150.903 137.055V139.944C150.904 140.343 151.234 140.665 151.641 140.667H167.875C168.282 140.665 168.612 140.343 168.613 139.944V137.055C168.612 136.657 168.282 136.334 167.875 136.333ZM154.593 139.222H153.117C152.709 139.222 152.379 138.899 152.379 138.5C152.379 138.101 152.709 137.778 153.117 137.778H154.593C155 137.778 155.331 138.101 155.331 138.5C155.331 138.899 155 139.222 154.593 139.222ZM166.399 139.222H164.923C164.516 139.222 164.185 138.899 164.185 138.5C164.185 138.101 164.516 137.778 164.923 137.778H166.399C166.807 137.778 167.137 138.101 167.137 138.5C167.137 138.899 166.807 139.222 166.399 139.222Z" fill="#C1D4FF"/>
<path d="M152.379 142.834C152.379 143.232 152.709 143.556 153.117 143.556C153.524 143.556 153.855 143.232 153.855 142.834V142.111H152.379V142.834Z" fill="#6695FF"/>
<path d="M165.661 142.111V142.834C165.661 143.232 165.992 143.556 166.399 143.556C166.807 143.556 167.137 143.232 167.137 142.834V142.111H165.661Z" fill="#6695FF"/>
<path d="M165.115 129.111H154.401L152.63 134.889H166.886L165.115 129.111Z" fill="#6695FF"/>
<path d="M174.065 124.834L160.044 119.056C159.861 118.981 159.655 118.981 159.472 119.056L145.452 124.834C145.178 124.947 145 125.209 145 125.5V144.278C145 144.677 145.33 145 145.738 145C146.146 145 146.476 144.677 146.476 144.278V125.979L159.758 120.506L173.04 125.979V144.278C173.04 144.677 173.371 145 173.778 145C174.186 145 174.516 144.677 174.516 144.278V125.5C174.516 125.209 174.338 124.947 174.065 124.834Z" fill="#5C5C5C"/>
<path d="M168.451 134.975L166.37 128.179C166.274 127.875 165.987 127.667 165.662 127.667H153.855C153.53 127.667 153.243 127.875 153.147 128.179L151.066 134.975C150.103 135.227 149.432 136.08 149.427 137.055V139.944C149.432 140.859 150.023 141.674 150.903 141.981V142.833C150.903 144.03 151.894 145 153.117 145C154.34 145 155.331 144.03 155.331 142.833V142.111H164.186V142.833C164.186 144.03 165.177 145 166.399 145C167.622 145 168.613 144.03 168.613 142.833V141.981C169.494 141.674 170.084 140.86 170.089 139.944V137.055C170.085 136.08 169.414 135.227 168.451 134.975ZM154.401 129.111H165.115L166.887 134.889H152.63L154.401 129.111ZM153.855 142.833C153.855 143.232 153.524 143.555 153.117 143.555C152.709 143.555 152.379 143.232 152.379 142.833V142.111H153.855V142.833ZM167.137 142.833C167.137 143.232 166.807 143.555 166.399 143.555C165.992 143.555 165.662 143.232 165.662 142.833V142.111H167.137V142.833ZM168.613 139.944C168.612 140.343 168.282 140.665 167.875 140.667H151.641C151.234 140.665 150.905 140.343 150.903 139.944V137.055C150.905 136.657 151.234 136.334 151.641 136.333H167.875C168.282 136.334 168.612 136.657 168.613 137.055V139.944Z" fill="#5C5C5C"/>
<path d="M154.593 137.778H153.117C152.709 137.778 152.379 138.101 152.379 138.5C152.379 138.899 152.709 139.222 153.117 139.222H154.593C155 139.222 155.331 138.899 155.331 138.5C155.331 138.101 155 137.778 154.593 137.778Z" fill="#5C5C5C"/>
<path d="M166.399 137.778H164.924C164.516 137.778 164.186 138.101 164.186 138.5C164.186 138.899 164.516 139.222 164.924 139.222H166.399C166.807 139.222 167.137 138.899 167.137 138.5C167.137 138.101 166.807 137.778 166.399 137.778Z" fill="#5C5C5C"/>
<path d="M209.611 138.943L211.613 138.897C211.686 138.897 211.741 138.919 211.778 138.964C211.815 139.005 211.833 139.043 211.833 139.079C211.833 139.115 211.823 139.174 211.803 139.257C211.784 139.34 211.758 139.44 211.727 139.559C211.696 139.675 211.677 139.749 211.668 139.782C211.888 139.526 212.162 139.3 212.492 139.104C212.821 138.908 213.111 138.811 213.362 138.811C213.894 138.811 214.16 138.924 214.16 139.15C214.16 139.373 214.088 139.641 213.945 139.956C213.801 140.267 213.666 140.472 213.539 140.572C213.477 140.616 213.401 140.638 213.311 140.638C213.224 140.638 213.142 140.61 213.066 140.555C212.725 140.307 212.354 140.183 211.951 140.183C211.796 140.183 211.661 140.194 211.546 140.216C211.436 140.585 211.261 141.128 211.022 141.845C210.783 142.559 210.65 142.957 210.625 143.04C210.583 143.169 210.504 143.234 210.388 143.234C209.98 143.234 209.542 143.255 209.075 143.296C208.607 143.34 208.338 143.362 208.268 143.362C208.2 143.362 208.147 143.343 208.108 143.304C208.071 143.268 208.053 143.226 208.053 143.176C208.053 143.124 208.112 142.939 208.23 142.622C208.351 142.302 208.483 141.959 208.627 141.593C208.773 141.226 208.906 140.824 209.024 140.386C209.145 139.947 209.206 139.588 209.206 139.307L209.201 139.15C209.201 139.012 209.338 138.943 209.611 138.943Z" fill="#5C5C5C"/>
<path d="M208.656 142.018C208.755 142.018 208.804 142.064 208.804 142.155C208.804 142.243 208.737 142.326 208.602 142.403C208.469 142.477 208.304 142.559 208.107 142.647C207.91 142.732 207.639 142.834 207.292 142.953C206.495 143.226 205.596 143.362 204.593 143.362C202.69 143.362 201.738 142.789 201.738 141.642C201.738 141.083 201.918 140.587 202.279 140.154C202.642 139.719 203.128 139.387 203.736 139.158C204.344 138.926 205.007 138.811 205.725 138.811C206.443 138.811 206.968 138.919 207.301 139.137C207.636 139.355 207.803 139.654 207.803 140.034C207.803 140.426 207.643 140.745 207.322 140.993C207.004 141.241 206.58 141.426 206.05 141.547C205.518 141.668 204.909 141.754 204.222 141.804C204.267 142.231 204.579 142.497 205.159 142.601C205.308 142.626 205.466 142.639 205.632 142.639C206.291 142.639 207.242 142.444 208.483 142.056C208.559 142.031 208.617 142.018 208.656 142.018ZM204.226 141.349C204.716 141.217 205.103 141.014 205.387 140.741C205.672 140.468 205.814 140.139 205.814 139.753C205.814 139.651 205.78 139.57 205.713 139.509C205.645 139.449 205.542 139.418 205.404 139.418C205.269 139.418 205.127 139.476 204.978 139.592C204.831 139.708 204.707 139.859 204.606 140.047C204.392 140.435 204.265 140.869 204.226 141.349Z" fill="#5C5C5C"/>
<path d="M195.723 138.943L197.958 138.897C198.051 138.897 198.097 138.958 198.097 139.079C198.097 139.145 198.072 139.212 198.021 139.278C197.771 139.595 197.568 139.954 197.413 140.357C197.261 140.759 197.185 141.152 197.185 141.535C197.185 141.733 197.227 141.907 197.312 142.056C197.396 142.204 197.499 142.279 197.62 142.279C197.837 142.279 198.083 142.103 198.359 141.75C198.638 141.397 198.881 140.984 199.09 140.51C199.301 140.036 199.437 139.611 199.499 139.236C199.516 139.134 199.542 139.063 199.575 139.021C199.609 138.98 199.678 138.959 199.782 138.959L201.434 138.914C201.535 138.914 201.586 138.952 201.586 139.03V139.088C201.586 139.424 201.447 139.84 201.168 140.336C201.252 140.35 201.354 140.357 201.472 140.357C201.914 140.357 202.317 140.257 202.68 140.059C202.759 140.015 202.825 139.993 202.878 139.993C202.991 139.993 203.047 140.044 203.047 140.146C203.047 140.245 202.987 140.34 202.866 140.431C202.46 140.734 201.914 140.886 201.227 140.886C201.066 140.886 200.935 140.877 200.834 140.861C200.814 140.894 200.782 140.941 200.737 141.002C200.438 141.409 200.008 141.81 199.445 142.204C198.884 142.599 198.322 142.913 197.759 143.147C197.196 143.381 196.736 143.498 196.378 143.498C196.116 143.498 195.847 143.403 195.571 143.213C195.019 142.836 194.744 142.257 194.744 141.477C194.744 141.143 194.807 140.747 194.934 140.286C195.063 139.826 195.208 139.457 195.369 139.178C195.459 139.024 195.577 138.946 195.723 138.943Z" fill="#5C5C5C"/>
<path d="M189.679 142.312C190.209 142.312 190.651 141.915 191.006 141.121C191.169 140.758 191.251 140.463 191.251 140.237C191.251 140.011 191.211 139.855 191.132 139.77C191.056 139.684 190.904 139.641 190.676 139.641C190.451 139.641 190.206 139.745 189.941 139.952C189.679 140.155 189.468 140.413 189.308 140.725C189.147 141.036 189.067 141.317 189.067 141.568C189.067 141.816 189.123 142.002 189.236 142.126C189.349 142.25 189.496 142.312 189.679 142.312ZM191.876 138.811L193.81 138.897C193.883 138.897 193.938 138.919 193.975 138.964C194.012 139.005 194.03 139.052 194.03 139.104C194.03 139.305 193.944 139.626 193.772 140.067C193.603 140.505 193.433 140.941 193.261 141.374C193.092 141.804 193.008 142.089 193.008 142.229C193.008 142.367 193.029 142.455 193.071 142.494C193.116 142.532 193.201 142.552 193.324 142.552C193.448 142.552 193.674 142.494 194 142.378C194.33 142.26 194.552 142.17 194.668 142.109C194.786 142.049 194.876 142.018 194.938 142.018C195.048 142.018 195.103 142.067 195.103 142.163C195.103 142.367 194.68 142.634 193.836 142.965C193.551 143.078 193.208 143.172 192.805 143.246C192.405 143.323 191.998 143.362 191.584 143.362C190.894 143.362 190.479 143.147 190.338 142.717C189.899 143.147 189.308 143.362 188.564 143.362C188.055 143.362 187.624 143.242 187.272 143.002C186.889 142.741 186.697 142.329 186.697 141.766C186.697 141.174 186.876 140.628 187.234 140.129C187.625 139.575 188.149 139.194 188.805 138.984C189.168 138.868 189.558 138.811 189.975 138.811C190.614 138.811 191.111 138.965 191.466 139.274C191.469 139.257 191.47 139.231 191.47 139.195L191.466 139.017C191.466 138.879 191.603 138.811 191.876 138.811Z" fill="#5C5C5C"/>
<path d="M178.922 142.874C178.851 142.841 178.816 142.772 178.816 142.668C178.816 142.563 178.902 142.34 179.074 141.998C179.245 141.654 179.381 141.481 179.479 141.481C179.535 141.481 179.623 141.52 179.741 141.597C179.859 141.671 179.996 141.762 180.151 141.87C180.308 141.977 180.479 142.083 180.662 142.188C181.107 142.447 181.539 142.577 181.958 142.577C182.167 142.577 182.316 142.535 182.406 142.453C182.496 142.37 182.541 142.287 182.541 142.205C182.541 142.119 182.493 142.024 182.398 141.919C182.302 141.812 182.177 141.702 182.022 141.589C181.87 141.476 181.701 141.357 181.515 141.233C181.329 141.106 181.143 140.973 180.957 140.832C180.772 140.692 180.603 140.551 180.451 140.411C180.104 140.091 179.931 139.779 179.931 139.476C179.931 139.261 179.989 139.067 180.104 138.893C180.222 138.72 180.372 138.579 180.552 138.472C180.735 138.364 180.942 138.275 181.173 138.203C181.587 138.071 182.013 138.005 182.453 138.005C182.574 138.005 182.664 138.023 182.723 138.058C182.782 138.094 182.812 138.136 182.812 138.182C182.812 138.229 182.79 138.301 182.748 138.397C182.706 138.491 182.685 138.575 182.685 138.65C182.685 138.724 182.736 138.819 182.837 138.935C182.941 139.051 183.075 139.169 183.238 139.29C183.402 139.412 183.582 139.541 183.779 139.679C183.976 139.817 184.173 139.963 184.37 140.117C184.567 140.271 184.747 140.428 184.911 140.588C185.28 140.949 185.464 141.299 185.464 141.638C185.464 141.975 185.374 142.256 185.194 142.482C185.016 142.708 184.769 142.883 184.45 143.007C184.132 143.131 183.783 143.22 183.403 143.275C183.023 143.333 182.56 143.362 182.013 143.362C181.467 143.362 180.864 143.307 180.206 143.197C179.549 143.084 179.121 142.976 178.922 142.874ZM185.916 138.827C185.547 138.397 185.09 138.078 184.543 137.868C184 137.656 183.432 137.55 182.841 137.55C181.757 137.55 180.712 137.75 179.707 138.149C179.572 138.202 179.476 138.228 179.42 138.228C179.307 138.228 179.251 138.175 179.251 138.071C179.251 137.985 179.326 137.883 179.475 137.765C179.627 137.646 179.844 137.525 180.125 137.401C180.41 137.274 180.731 137.157 181.088 137.05C181.905 136.804 182.781 136.682 183.715 136.682C185.098 136.682 186.141 136.872 186.845 137.252C186.885 137.274 186.902 137.34 186.896 137.451C186.893 137.558 186.842 137.725 186.744 137.951C186.645 138.177 186.526 138.386 186.385 138.579C186.247 138.772 186.129 138.869 186.03 138.869C186.005 138.841 185.967 138.827 185.916 138.827Z" fill="#5C5C5C"/>
<path d="M205.85 128.78L206.961 128.64C207.169 128.64 207.273 128.72 207.273 128.88C207.273 129.039 207.175 129.14 206.978 129.181C206.781 129.22 206.336 129.272 205.643 129.338C205.547 129.584 205.404 129.924 205.212 130.359C204.821 131.252 204.625 131.788 204.625 131.968C204.625 132.163 204.749 132.261 204.997 132.261C205.796 132.261 206.514 132.13 207.151 131.868C207.244 131.83 207.317 131.81 207.37 131.81C207.475 131.81 207.527 131.856 207.527 131.947C207.527 132.038 207.459 132.127 207.324 132.216C206.91 132.483 206.286 132.706 205.453 132.885C204.619 133.064 203.851 133.154 203.147 133.154C202.747 133.154 202.441 133.093 202.23 132.972C202.019 132.848 201.913 132.679 201.913 132.464C201.913 132.246 202.06 131.839 202.353 131.244C202.682 130.577 202.919 129.992 203.062 129.487C202.888 129.495 202.767 129.5 202.699 129.5C202.533 129.5 202.45 129.433 202.45 129.301C202.45 129.205 202.477 129.14 202.53 129.107C202.584 129.074 202.639 129.05 202.695 129.037C202.754 129.023 202.803 129.015 202.843 129.012C202.885 129.006 202.943 129.001 203.016 128.995C203.089 128.99 203.143 128.986 203.176 128.983C203.213 128.773 203.231 128.576 203.231 128.392L203.227 128.235C203.227 128.111 203.388 128.027 203.709 127.982C203.816 127.969 204.152 127.9 204.718 127.776C205.284 127.652 205.63 127.59 205.757 127.59C205.96 127.59 206.061 127.659 206.061 127.796C206.061 128.033 205.991 128.361 205.85 128.78Z" fill="#5C5C5C"/>
<path d="M195.498 132.712C194.968 132.4 194.703 131.928 194.703 131.294C194.703 130.963 194.772 130.653 194.91 130.364C195.051 130.071 195.243 129.819 195.485 129.607C195.73 129.395 196.014 129.213 196.338 129.061C196.986 128.755 197.728 128.603 198.564 128.603C200.208 128.603 201.097 129.112 201.229 130.132C201.426 130.195 201.629 130.227 201.837 130.227C202.049 130.227 202.225 130.212 202.365 130.182C202.506 130.151 202.638 130.106 202.762 130.045C202.889 129.985 202.979 129.954 203.033 129.954C203.14 129.954 203.193 130.005 203.193 130.107C203.193 130.209 203.11 130.315 202.944 130.426C202.631 130.635 202.217 130.74 201.702 130.74C201.508 130.74 201.35 130.73 201.229 130.711C201.139 131.405 200.773 131.983 200.131 132.443C199.824 132.663 199.447 132.837 198.999 132.964C198.554 133.091 198.092 133.154 197.614 133.154C197.138 133.154 196.729 133.117 196.389 133.042C196.048 132.971 195.751 132.861 195.498 132.712ZM197.031 131.658C197.031 132.167 197.221 132.422 197.601 132.422C197.843 132.422 198.068 132.293 198.277 132.034C198.488 131.775 198.651 131.454 198.767 131.071C198.885 130.687 198.944 130.297 198.944 129.901C198.944 129.501 198.802 129.301 198.517 129.301C198.27 129.301 198.029 129.416 197.795 129.644C197.564 129.873 197.379 130.171 197.238 130.537C197.1 130.901 197.031 131.274 197.031 131.658Z" fill="#5C5C5C"/>
<path d="M188.034 128.735L189.952 128.689C190.025 128.689 190.08 128.711 190.117 128.755C190.153 128.797 190.171 128.845 190.171 128.9C190.171 128.953 190.162 129.045 190.142 129.177C190.122 129.307 190.112 129.402 190.112 129.462C190.63 128.889 191.322 128.603 192.186 128.603C192.713 128.603 193.127 128.735 193.428 128.999C193.732 129.261 193.884 129.633 193.884 130.116C193.884 131.053 193.508 131.819 192.756 132.414C193.629 132.353 194.299 132.195 194.767 131.939C194.922 131.853 195.036 131.81 195.109 131.81C195.205 131.81 195.253 131.861 195.253 131.963C195.253 132.035 195.2 132.108 195.096 132.183C194.618 132.51 194.001 132.753 193.246 132.91C192.494 133.067 191.685 133.146 190.818 133.146C190.711 133.151 190.63 133.154 190.577 133.154C190.278 133.154 189.98 133.11 189.681 133.022C189.383 132.934 189.135 132.81 188.938 132.65C188.744 133.231 188.647 133.902 188.647 134.663L188.651 134.783C188.651 134.921 188.514 134.989 188.241 134.989L186.277 135.039C186.21 135.039 186.156 135.018 186.117 134.977C186.077 134.938 186.058 134.894 186.058 134.845C186.058 134.374 186.321 133.46 186.847 132.104C187.374 130.745 187.637 129.836 187.637 129.376L187.62 129.032C187.62 128.93 187.646 128.856 187.696 128.809C187.75 128.76 187.862 128.735 188.034 128.735ZM190.94 129.653C190.411 129.653 189.969 130.049 189.614 130.843C189.451 131.207 189.369 131.502 189.369 131.728C189.369 131.954 189.407 132.11 189.483 132.195C189.562 132.28 189.714 132.323 189.939 132.323C190.167 132.323 190.412 132.221 190.674 132.017C190.939 131.81 191.151 131.551 191.312 131.24C191.472 130.929 191.553 130.649 191.553 130.401C191.553 130.15 191.496 129.963 191.384 129.839C191.271 129.715 191.123 129.653 190.94 129.653Z" fill="#5C5C5C"/>
<path d="M179.072 132.666C179.001 132.633 178.966 132.564 178.966 132.459C178.966 132.355 179.052 132.132 179.224 131.79C179.395 131.445 179.531 131.273 179.629 131.273C179.686 131.273 179.773 131.312 179.891 131.389C180.009 131.463 180.146 131.554 180.301 131.662C180.458 131.769 180.629 131.875 180.812 131.98C181.257 132.239 181.689 132.369 182.109 132.369C182.317 132.369 182.466 132.327 182.556 132.244C182.646 132.162 182.691 132.079 182.691 131.996C182.691 131.911 182.644 131.816 182.548 131.711C182.452 131.604 182.327 131.493 182.172 131.381C182.02 131.268 181.851 131.149 181.665 131.025C181.479 130.898 181.293 130.765 181.107 130.624C180.922 130.483 180.753 130.343 180.601 130.202C180.254 129.883 180.081 129.571 180.081 129.268C180.081 129.053 180.139 128.859 180.254 128.685C180.373 128.512 180.522 128.371 180.702 128.264C180.885 128.156 181.092 128.066 181.323 127.995C181.737 127.863 182.163 127.796 182.603 127.796C182.724 127.796 182.814 127.814 182.873 127.85C182.932 127.886 182.962 127.927 182.962 127.974C182.962 128.021 182.941 128.093 182.898 128.189C182.856 128.283 182.835 128.367 182.835 128.441C182.835 128.516 182.886 128.611 182.987 128.727C183.091 128.842 183.225 128.961 183.388 129.082C183.552 129.203 183.732 129.333 183.929 129.471C184.126 129.608 184.323 129.754 184.52 129.909C184.717 130.063 184.898 130.22 185.061 130.38C185.43 130.741 185.614 131.091 185.614 131.43C185.614 131.766 185.524 132.047 185.344 132.273C185.166 132.499 184.919 132.674 184.6 132.798C184.282 132.922 183.933 133.012 183.553 133.067C183.173 133.125 182.71 133.154 182.163 133.154C181.617 133.154 181.015 133.099 180.356 132.989C179.7 132.876 179.272 132.768 179.072 132.666ZM186.066 128.619C185.697 128.189 185.24 127.869 184.693 127.66C184.15 127.448 183.583 127.342 182.991 127.342C181.907 127.342 180.863 127.541 179.857 127.941C179.722 127.993 179.626 128.02 179.57 128.02C179.457 128.02 179.401 127.967 179.401 127.863C179.401 127.777 179.476 127.675 179.625 127.557C179.777 127.438 179.994 127.317 180.275 127.193C180.56 127.066 180.881 126.949 181.238 126.841C182.055 126.596 182.931 126.474 183.866 126.474C185.248 126.474 186.291 126.664 186.995 127.044C187.035 127.066 187.052 127.132 187.046 127.242C187.043 127.35 186.993 127.517 186.894 127.743C186.795 127.969 186.676 128.178 186.535 128.371C186.397 128.564 186.279 128.66 186.18 128.66C186.155 128.633 186.117 128.619 186.066 128.619Z" fill="#5C5C5C"/>
<path opacity="0.6" d="M351.811 194.851C351.921 200.131 351.864 205.718 351.294 208.571C350.029 214.912 340.161 261.296 340.161 261.296" stroke="black" stroke-width="0.5" stroke-miterlimit="10" stroke-linecap="round" stroke-linejoin="round"/>
<path opacity="0.6" d="M227.516 193.265C227.516 193.265 230.466 233.371 234.956 241.484C239.335 249.396 252.029 268.199 252.029 268.199" stroke="black" stroke-width="0.5" stroke-miterlimit="10" stroke-linecap="round" stroke-linejoin="round"/>
<path opacity="0.6" d="M217.218 189.451C217.218 189.451 185.668 197.26 176.384 198.75C168.761 199.974 137.769 207.528 128.441 211.352" stroke="black" stroke-width="0.5" stroke-miterlimit="10" stroke-linecap="round" stroke-linejoin="round"/>
<path opacity="0.8" d="M441.01 156.485C439.561 157.776 439.431 159.999 440.72 161.449L444.605 165.682C445.051 166.156 445.617 166.501 446.243 166.678L493.831 179.901C494.659 180.126 495.513 180.239 496.37 180.242H505.825C505.333 179.913 504.83 179.609 504.303 179.327L458.4 155.119L458.397 155.118C457.239 154.544 456.763 153.139 457.335 151.977L442.428 155.717C441.903 155.86 441.417 156.122 441.01 156.485Z" fill="white"/>
<path d="M322.482 185.438C322.482 185.438 321.874 181.53 324.054 174.706C324.054 174.699 323.697 174.528 323.697 174.521C323.998 173.566 324.314 172.685 324.611 171.922C324.618 171.9 324.617 171.893 324.617 171.893L315.065 177.45C315.225 179.656 314.32 183.885 313.801 185.667C313.801 185.667 312.526 188.886 316.838 189.147C319.99 189.337 322.482 185.438 322.482 185.438Z" fill="#B97964"/>
<path opacity="0.2" d="M314.819 180.538L320.259 179.466C319.722 181.137 318.179 183.092 314.413 183.151C314.413 183.151 314.84 181.277 314.819 180.538Z" fill="black"/>
<path d="M324.816 167.323C324.018 173.271 323.689 176.642 320.452 179.463C315.583 183.705 308.574 180.515 307.578 174.43C306.683 168.952 308.136 160.145 314.153 158.247C320.081 156.377 325.613 161.375 324.816 167.323Z" fill="#B97964"/>
<path d="M326.09 160.194C325.509 156.842 317.275 156.21 314.853 157.726C314.49 157.952 319.192 160.761 318.904 160.631L321.144 161.593C321.504 161.54 322.169 162.005 322.449 163.132C322.449 163.132 321.527 172.274 323.927 175.113C326.082 174.247 326.466 170.624 327.279 168.51C328.489 165.36 330.007 160.727 326.09 160.194Z" fill="#263238"/>
<path d="M326.812 172.474C326.225 173.978 324.995 175.063 323.77 175.566C321.927 176.323 321.404 174.325 321.709 172.455C321.982 170.772 322.625 168.743 324.575 168.782C326.496 168.821 327.484 170.755 326.812 172.474Z" fill="#B97964"/>
<path d="M316.155 168.43C316.111 169.042 315.752 169.511 315.352 169.478C314.953 169.445 314.665 168.923 314.709 168.312C314.754 167.7 315.112 167.231 315.512 167.264C315.911 167.296 316.199 167.819 316.155 168.43Z" fill="#263238"/>
<path d="M310.161 168.116C310.117 168.728 309.758 169.197 309.359 169.164C308.959 169.131 308.672 168.609 308.715 167.997C308.76 167.386 309.119 166.917 309.518 166.95C309.917 166.983 310.205 167.505 310.161 168.116Z" fill="#263238"/>
<path d="M312.133 167.918C312.133 167.918 309.982 170.817 309.273 172.009C310.067 172.839 311.556 172.59 311.556 172.59L312.133 167.918Z" fill="#A24E3F"/>
<path d="M317.854 165.656C317.759 165.687 317.651 165.667 317.571 165.595C316.619 164.734 315.594 164.985 315.584 164.987C315.431 165.027 315.273 164.934 315.232 164.782C315.192 164.628 315.283 164.473 315.436 164.433C315.49 164.419 316.774 164.104 317.955 165.173C318.073 165.279 318.082 165.46 317.977 165.576C317.942 165.615 317.9 165.642 317.854 165.656Z" fill="#263238"/>
<path d="M313.416 174.683C314.405 174.763 315.209 174.323 316.028 173.64" stroke="#263238" stroke-width="0.75" stroke-miterlimit="10" stroke-linecap="round" stroke-linejoin="round"/>
<path opacity="0.2" d="M325.569 170.724C325.354 170.35 324.873 170.183 324.449 170.256C324.024 170.328 323.656 170.602 323.377 170.93C323.041 171.324 322.811 171.807 322.716 172.316" stroke="black" stroke-width="0.5" stroke-miterlimit="10" stroke-linecap="round" stroke-linejoin="round"/>
<path d="M307.706 165.344C307.654 165.329 307.606 165.299 307.568 165.254C307.465 165.132 307.479 164.95 307.599 164.848C308.801 163.822 310.063 164.2 310.121 164.21C310.272 164.257 310.359 164.417 310.315 164.569C310.271 164.721 310.113 164.806 309.962 164.762C309.91 164.744 308.935 164.465 307.97 165.289C307.895 165.353 307.795 165.37 307.706 165.344Z" fill="#263238"/>
<path d="M327.5 157.685C327.13 156.32 325.413 155.927 324.083 156.127C324.236 154.494 322.16 153.43 320.818 153.4C319.42 153.368 318.889 153.9 318.889 153.9C318.995 153.929 318.51 153.066 318.2 152.716C317.055 151.428 315.16 150.954 313.591 151.561C312.023 152.169 310.871 153.825 310.791 155.588C309.974 154.655 308.421 154.604 307.553 155.482C306.686 156.359 306.666 157.999 307.513 158.901C306.485 158.908 305.571 159.942 305.635 161.026C305.699 162.109 306.728 163.018 307.749 162.894C307.745 164.108 307.793 165.627 307.788 166.842L309.642 162.478C310.49 162.226 310.668 161.855 310.886 160.955C311.435 162.131 312.398 162.091 313.64 162.11C314.881 162.13 316.104 161.364 316.683 160.206C317.261 161.435 318.428 162.407 319.727 162.448C321.025 162.487 322.338 161.413 322.406 160.044C323.109 161.255 324.703 161.783 325.933 161.213C327.162 160.644 327.87 159.049 327.5 157.685Z" fill="#263238"/>
<path d="M313.246 184.515L290.448 192.145L269.481 191.072L268.674 197.642C268.674 197.642 274.932 198.962 281.035 199.79L300.642 198.443C307.184 196.892 313.639 195.002 313.639 195.002L313.246 184.515Z" fill="#B97964"/>
<path d="M308.435 198.228L310.785 184.544L319.659 182.994C320.048 182.937 327.256 182.343 329.418 190.266L329.901 196.564L308.435 198.228Z" fill="#263238"/>
<path d="M315.648 197.574C315.157 197.567 301.03 198.941 301.03 198.941L298.478 188.831C298.478 188.831 304.908 186.136 310.785 184.544C317.353 182.765 323.514 182.213 324.933 185.284C327.622 191.105 315.648 197.574 315.648 197.574Z" fill="#263238"/>
<path d="M262.597 188.08C262.194 188.324 257.442 193.245 257.442 193.245L258.369 199.344L264.344 193.165L262.597 188.08Z" fill="#263238"/>
<path d="M269.754 200.804C268.703 201.323 267.431 200.891 266.913 199.838L257.432 180.593C256.914 179.541 257.345 178.266 258.396 177.747C259.446 177.228 260.718 177.66 261.236 178.712L270.717 197.958C271.236 199.01 270.804 200.285 269.754 200.804Z" fill="#263238"/>
<path d="M276.581 191.597L268.778 190.547L266.521 187.813C266.521 187.813 262.556 187.456 261.705 188.164C260.854 188.872 259.997 191.128 259.997 191.128C259.997 191.128 258.965 192.978 260.735 193.949C260.735 193.949 259.614 195.595 261.612 196.757C261.612 196.757 260.139 197.59 262.252 198.46C264.365 199.331 266.036 198.825 267.33 198.359C268.623 197.894 270.912 198.091 270.912 198.091L278.008 199.345L276.581 191.597Z" fill="#B97964"/>
<path d="M372.952 134.108C380.774 134.496 389.435 135.199 396.941 136.242" stroke="#407BFF" stroke-width="0.75" stroke-miterlimit="10" stroke-linecap="round" stroke-linejoin="round"/>
<path d="M399.621 136.536C401.009 136.671 402.418 136.812 403.839 136.959" stroke="#407BFF" stroke-width="0.75" stroke-miterlimit="10" stroke-linecap="round" stroke-linejoin="round"/>
<path d="M165.178 325.302L172.47 316.372L178.142 273.349H185.435L192.868 316.415L199.749 325.302H165.178Z" fill="#407BFF"/>
<path d="M173.761 306.58H191.17L188.663 292.053H175.676L173.761 306.58Z" fill="white"/>
<path opacity="0.3" d="M172.47 316.372L192.868 316.415L199.749 325.302H165.178L172.47 316.372Z" fill="black"/>
<path d="M307.485 325.302L314.777 316.372L320.449 273.349H327.74L335.174 316.415L342.055 325.302H307.485Z" fill="#407BFF"/>
<path d="M316.068 306.58H333.476L330.969 292.053H317.983L316.068 306.58Z" fill="white"/>
<path opacity="0.3" d="M314.777 316.372L335.174 316.415L342.055 325.302H307.485L314.777 316.372Z" fill="black"/>
<path d="M432.937 323.647L440.23 314.718L445.901 271.695H453.194L460.627 314.762L467.508 323.647H432.937Z" fill="#407BFF"/>
<path d="M441.52 304.925H458.929L456.422 290.398H443.436L441.52 304.925Z" fill="white"/>
<path opacity="0.3" d="M440.23 314.718L460.627 314.761L467.508 323.647H432.937L440.23 314.718Z" fill="black"/>
<path d="M36.2543 313.561L42.5127 314.175L47.1373 298.301L37.6172 297.264L36.2543 313.561Z" fill="#EEC1BB"/>
<path d="M43.4189 311.406H41.1848C40.6795 311.406 40.2114 311.663 39.9127 312.072C38.6242 313.834 37.6558 313.168 36.255 311.511C35.3638 311.407 35.1244 312.431 35.0515 312.707L33.3814 318.793C33.2363 319.302 33.53 319.832 34.0374 319.977C34.1275 320.003 34.2211 320.015 34.3154 320.013C37.0283 320.013 38.3118 320.013 41.6894 320.013H52.017C54.8321 320.013 55.416 317.171 54.2561 316.908C49.0411 315.754 45.3485 314.216 43.7369 312.697C43.4367 312.43 43.7433 312.23 43.4189 311.406Z" fill="#263238"/>
<path d="M48.2672 313.137C48.5023 312.967 48.6431 312.697 48.6466 312.407C48.6666 312.251 48.5959 312.097 48.4644 312.012C47.764 311.515 44.9711 312.823 44.6574 312.977C44.6223 312.989 44.5952 313.017 44.5823 313.052C44.5595 313.116 44.5923 313.188 44.6574 313.211C45.3442 313.373 46.0453 313.464 46.7506 313.481C47.2795 313.531 47.8105 313.41 48.2672 313.137ZM48.2886 312.224C48.3458 312.259 48.3743 312.326 48.3615 312.392C48.35 312.602 48.2486 312.796 48.0842 312.926C47.4496 313.4 45.918 313.196 45.094 313.042C46.2539 312.53 47.902 311.953 48.2886 312.224Z" fill="#407BFF"/>
<path d="M44.7517 313.239C45.5907 312.888 47.3481 311.507 47.253 310.777C47.2387 310.624 47.1287 310.441 46.7499 310.39C45.2184 310.214 44.5616 312.969 44.5616 313.086C44.5466 313.133 44.5609 313.185 44.5981 313.218C44.6266 313.226 44.6574 313.226 44.6852 313.218L44.7517 313.239ZM46.6985 310.616C46.9829 310.645 46.9829 310.748 46.9829 310.784C47.0629 311.229 45.7865 312.377 44.8753 312.859C45.0647 312.216 45.6265 310.609 46.597 310.609L46.6985 310.616Z" fill="#407BFF"/>
<path d="M44.9697 313.134C44.2 313.239 43.4861 313.7 43.0723 314.358" stroke="#407BFF" stroke-width="0.5" stroke-miterlimit="10" stroke-linecap="round" stroke-linejoin="round"/>
<path d="M46.3583 314.181C45.5886 314.286 44.8746 314.746 44.4608 315.405" stroke="#407BFF" stroke-width="0.5" stroke-miterlimit="10" stroke-linecap="round" stroke-linejoin="round"/>
<path d="M48.0856 315.062C47.3159 315.167 46.602 315.627 46.1882 316.286" stroke="#407BFF" stroke-width="0.5" stroke-miterlimit="10" stroke-linecap="round" stroke-linejoin="round"/>
<path opacity="0.3" d="M44.6931 306.691L44.1257 308.638L36.761 307.504L36.8947 305.908L44.6931 306.691Z" fill="black"/>
<path d="M72.6816 313.561L78.9392 314.175L83.5638 298.301L74.0437 297.264L72.6816 313.561Z" fill="#EEC1BB"/>
<path d="M79.8454 311.406H77.6114C77.1061 311.406 76.638 311.663 76.3393 312.072C75.0507 313.834 74.0824 313.168 72.6816 311.511C71.7904 311.407 71.551 312.431 71.4781 312.707L69.8079 318.793C69.6629 319.302 69.9566 319.832 70.464 319.977C70.554 320.003 70.6477 320.015 70.742 320.013C73.4549 320.013 74.7391 320.013 78.1159 320.013H88.4436C91.2587 320.013 91.8425 317.171 90.6826 316.908C85.4677 315.754 81.775 314.216 80.1635 312.697C79.8633 312.43 80.1706 312.23 79.8454 311.406Z" fill="#263238"/>
<path d="M84.6937 313.137C84.9288 312.967 85.0696 312.697 85.0732 312.407C85.0932 312.251 85.0225 312.097 84.891 312.012C84.1906 311.515 81.3977 312.823 81.0839 312.977C81.0489 312.989 81.0218 313.017 81.0089 313.052C80.986 313.116 81.0196 313.188 81.0839 313.211C81.7707 313.373 82.4718 313.464 83.1772 313.481C83.706 313.531 84.237 313.41 84.6937 313.137ZM84.7152 312.224C84.7723 312.259 84.8009 312.326 84.788 312.392C84.7766 312.602 84.6751 312.796 84.5108 312.926C83.8761 313.4 82.3446 313.196 81.5206 313.042C82.6805 312.53 84.3292 311.953 84.7152 312.224Z" fill="#407BFF"/>
<path d="M81.1783 313.239C82.0173 312.888 83.7747 311.507 83.6796 310.777C83.6653 310.624 83.556 310.441 83.1765 310.39C81.645 310.214 80.9882 312.969 80.9882 313.086C80.9732 313.133 80.9875 313.185 81.0246 313.218C81.0532 313.226 81.0839 313.226 81.1125 313.218L81.1783 313.239ZM83.1257 310.616C83.4102 310.645 83.4102 310.748 83.4102 310.784C83.4902 311.229 82.2138 312.377 81.3026 312.859C81.492 312.216 82.0537 310.609 83.0235 310.609L83.1257 310.616Z" fill="#407BFF"/>
<path d="M81.3963 313.134C80.6266 313.239 79.9126 313.7 79.4988 314.358" stroke="#407BFF" stroke-width="0.5" stroke-miterlimit="10" stroke-linecap="round" stroke-linejoin="round"/>
<path d="M82.7848 314.181C82.0151 314.286 81.3012 314.746 80.8874 315.405" stroke="#407BFF" stroke-width="0.5" stroke-miterlimit="10" stroke-linecap="round" stroke-linejoin="round"/>
<path d="M84.5129 315.062C83.7432 315.167 83.0293 315.627 82.6155 316.286" stroke="#407BFF" stroke-width="0.5" stroke-miterlimit="10" stroke-linecap="round" stroke-linejoin="round"/>
<path opacity="0.3" d="M81.1197 306.691L80.5522 308.638L73.1876 307.504L73.3212 305.908L81.1197 306.691Z" fill="black"/>
<path d="M86.0566 193.947C86.0566 193.947 91.2429 216.894 93.715 236.881C94.4682 242.973 94.6119 251.12 93.2812 257.117L83.2844 306.908L70.7048 305.646C72.6816 284.172 75.4366 257.687 76.2256 246.419C73.4584 233.213 67.5625 217.229 61.7651 201.332L86.0566 193.947Z" fill="#407BFF"/>
<path d="M44.721 250.427C45.0054 249.186 45.46 246.663 46.0174 243.336C46.0003 243.333 45.9817 243.328 45.9652 243.325C46.374 238.925 47.1301 218.517 48.5195 205.501C49.5872 197.209 51.7026 191.599 53.8323 188.851C53.9423 188.71 54.0424 188.582 54.1339 188.468C54.4876 188.025 54.7028 187.782 54.7028 187.782C55.108 187.883 55.5103 187.978 55.9105 188.065C56.0606 188.098 56.2093 188.13 56.3572 188.162C71.3938 191.312 84.6266 187.352 84.6266 187.352C86.0109 190.777 87.045 198.08 88.0548 205.653C86.4818 207.382 79.5796 209.626 71.6604 211.113L69.402 221.344C68.2135 227.688 66.6884 233.91 65.392 239.513L64.0377 245.649C63.9555 246.051 63.8748 246.451 63.7983 246.842C63.1108 250.37 46.7614 307.207 46.7614 307.207L36.11 306.582C36.11 306.582 40.8682 267.244 44.721 250.427Z" fill="#407BFF"/>
<path opacity="0.2" d="M69.2569 222.289C69.2155 222.499 74.1352 204.583 74.1352 204.583C74.1352 204.583 78.2774 220.578 71.9748 230.583L69.2569 222.289Z" fill="black"/>
<path d="M58.6713 141.459C58.6713 141.459 61.1733 143.386 64.3943 146.167C65.0654 146.746 65.8044 147.248 66.5862 147.664C68.6966 148.787 70.6212 149.429 71.1422 148.41C71.258 148.186 71.3473 147.943 71.4131 147.688C71.8554 145.981 71.6739 143.581 70.2967 142.483C68.7438 141.244 67.9948 140.184 68.275 138.508C68.4222 137.557 68.7652 136.576 69.1661 135.623L67.9441 134.192L61.5521 127.729C61.7122 132.045 62.0381 139.116 58.6713 141.459Z" fill="#EEC1BB"/>
<path opacity="0.2" d="M68.2228 138.876C66.4647 137.831 64.5358 136.017 64.7673 133.945C64.8703 133.073 65.0582 132.246 65.2669 131.716L68.8374 136.452C68.5436 137.216 68.4372 137.72 68.2228 138.876Z" fill="black"/>
<path d="M59.7426 120.796C60.3443 127.376 60.4601 130.166 63.849 133.616C68.9468 138.805 76.7895 137.06 78.1395 130.538C79.3552 124.667 78.1667 114.894 71.719 112.129C65.3677 109.404 59.1408 114.216 59.7426 120.796Z" fill="#EEC1BB"/>
<path d="M67.9226 122.87C67.9569 123.486 68.3343 123.993 68.7667 124.002C69.1983 124.011 69.5206 123.519 69.4863 122.903C69.452 122.287 69.0747 121.78 68.6423 121.771C68.2114 121.762 67.889 122.254 67.9226 122.87Z" fill="#263238"/>
<path d="M74.7291 122.777C74.7634 123.373 75.1407 123.865 75.5709 123.875C76.0012 123.884 76.3228 123.407 76.2885 122.81C76.2542 122.213 75.8768 121.721 75.4466 121.713C75.0157 121.704 74.6948 122.18 74.7291 122.777Z" fill="#263238"/>
<path d="M66.8785 120.513C66.9621 120.522 67.0471 120.498 67.1122 120.438C68.1241 119.499 69.2633 119.828 69.2762 119.833C69.4448 119.882 69.6156 119.786 69.6542 119.614C69.6921 119.441 69.5849 119.26 69.4141 119.208C69.3548 119.19 67.9247 118.776 66.6691 119.941C66.544 120.057 66.5419 120.262 66.6634 120.4C66.7234 120.466 66.8006 120.504 66.8785 120.513Z" fill="#263238"/>
<path d="M76.8302 120.185C76.9081 120.204 76.9903 120.194 77.0603 120.151C77.2047 120.06 77.2426 119.861 77.1447 119.705C76.1613 118.148 74.6998 118.053 74.6369 118.05C74.4618 118.041 74.3232 118.179 74.326 118.359C74.3289 118.538 74.4733 118.691 74.6476 118.701C74.7048 118.704 75.8383 118.794 76.6201 120.033C76.6716 120.113 76.748 120.166 76.8302 120.185Z" fill="#263238"/>
<path d="M62.5405 124.923C62.5405 124.923 64.5673 121.855 63.7318 115.878C63.5917 114.877 64.2242 113.928 65.2155 113.735C68.0484 113.184 71.8369 109.603 76.4593 116.715C76.4593 116.715 74.2553 108.196 61.3498 111.628C49.8651 114.682 57.7279 124.434 58.9128 125.438C60.0977 126.44 62.5405 124.923 62.5405 124.923Z" fill="#263238"/>
<path d="M57.7558 126.158C58.5312 127.508 59.7919 128.355 60.9475 128.645C62.6856 129.082 63.5839 126.282 62.99 124.537C62.4554 122.966 60.7474 121.926 59.0558 122.269C57.3892 122.606 56.8689 124.615 57.7558 126.158Z" fill="#EEC1BB"/>
<path d="M73.0732 129.205C72.5387 130.03 71.8962 131.627 71.8962 131.627C71.7411 131.595 71.586 131.563 71.4331 131.523C69.3427 131.032 68.5337 130.113 68.2721 129.242C68.1306 128.765 68.1585 128.299 68.2292 127.93C68.3071 127.502 68.4601 127.215 68.4601 127.215C69.4134 128.138 71.3273 128.745 72.3636 129.027C72.7959 129.149 73.0732 129.205 73.0732 129.205Z" fill="#263238"/>
<path d="M72.3635 129.027L71.9984 129.732C70.0302 129.265 68.7066 128.672 68.2299 127.93C68.3078 127.502 68.4608 127.215 68.4608 127.215C69.4134 128.138 71.3273 128.745 72.3635 129.027Z" fill="white"/>
<path d="M71.4331 131.522C69.3427 131.032 68.5337 130.112 68.2721 129.242C68.9782 129.436 69.8079 129.749 70.4861 130.247C71.0057 130.626 71.2808 131.086 71.4331 131.522Z" fill="#DC5753"/>
<path d="M72.9639 122.597C72.9639 122.597 73.9916 125.06 75.1507 126.595C75.353 126.864 75.2279 127.255 74.9128 127.371C74.1016 127.671 73.1525 127.4 73.1525 127.4L72.9639 122.597Z" fill="#D4827D"/>
<path d="M68.5115 121.757L70.0187 121.4C70.0187 121.4 69.1947 122.526 68.5115 121.757Z" fill="#263238"/>
<path d="M75.2916 121.728L76.7988 121.371C76.7988 121.371 75.9741 122.498 75.2916 121.728Z" fill="#263238"/>
<path d="M77.6092 119.498C77.6092 119.498 81.5863 114.784 78.9328 110.898C77.9358 109.438 76.1041 109.22 74.4882 108.507C70.7591 106.861 67.7368 106.529 62.9778 111.201C58.0266 116.063 57.1311 117.7 62.5919 123.69C62.5919 123.69 62.0023 122.906 64.0212 121.124C66.0402 119.342 68.2685 117.757 67.1865 116.029C67.1865 116.029 68.8653 116.677 68.9853 118.278L71.9376 117.47C71.9376 117.47 71.8097 116.326 71.0286 115.182C71.0286 115.182 72.5587 116.085 73.0553 117.41L75.6096 117.892C75.6096 117.892 75.2344 115.544 74.5133 114.701C74.5133 114.701 76.8538 117.11 77.6092 119.498Z" fill="#263238"/>
<path opacity="0.2" d="M61.6578 125.964C61.6035 125.344 61.3155 124.746 60.8646 124.317C60.4136 123.887 59.8033 123.63 59.1815 123.607" stroke="black" stroke-width="0.5" stroke-miterlimit="10" stroke-linecap="round" stroke-linejoin="round"/>
<path d="M85.104 157.702L87.2008 165.134C87.894 167.618 88.5787 170.092 89.2976 172.537C89.6528 173.755 90.0159 174.965 90.4053 176.126C90.5912 176.712 90.777 177.287 90.9721 177.816L91.2594 178.553L91.378 178.827C91.3973 178.867 91.4137 178.908 91.4288 178.95C91.3609 178.95 91.5552 179.328 91.8347 179.62C92.1627 179.964 92.5129 180.279 92.8831 180.565C93.6864 181.225 94.6755 181.924 95.5717 182.595L94.8191 186.24C93.4777 186.298 92.1363 186.135 90.8377 185.758C90.1245 185.556 89.4327 185.268 88.7752 184.899C87.9212 184.45 87.1615 183.807 86.5433 183.01C86.3818 182.79 86.2353 182.556 86.1038 182.312L85.7907 181.726C85.6135 181.376 85.4527 181.027 85.3091 180.696C85.0132 180.026 84.7509 179.393 84.4636 178.751C83.9733 177.486 83.5252 176.23 83.0943 174.973C82.2489 172.471 81.4034 169.968 80.6937 167.419C79.9834 164.869 79.2394 162.395 78.5891 159.864L85.104 157.702Z" fill="#EEC1BB"/>
<path d="M80.057 145.494C85.7522 151.781 87.263 158.963 87.263 158.963L74.9007 161.927C74.9007 161.927 71.4803 152.881 72.866 149.571C74.3096 146.123 76.5487 142.806 80.057 145.494Z" fill="#263238"/>
<g opacity="0.3">
<path d="M80.8273 151.37C81.5313 152.575 81.7728 153.261 82.2138 154.649C82.6547 156.037 82.897 158.561 83.0064 159.866L80.6287 160.552C80.7209 157.368 80.7344 154.554 80.8273 151.37Z" fill="black"/>
</g>
<path d="M49.7522 160.852L45.8401 147.487C48.315 143.787 60.5601 140.944 60.5601 140.944L66.8356 143.151L68.6273 141.386C68.6273 141.386 71.7275 142.079 74.3825 142.946C77.9265 144.104 79.8426 145.035 80.688 147.005C80.688 147.005 82.1667 151.37 81.2776 160.365C81.0332 162.838 81.3105 175.697 81.9994 179.945L86.1752 193.186C71.4352 204.687 50.8021 193.947 50.8021 193.947C51.4646 191.917 53.6729 185.681 53.9723 183.696C53.7558 181.165 54.0574 177.26 52.9868 172.827C52.7788 171.971 50.111 161.683 49.7522 160.852Z" fill="#263238"/>
<path opacity="0.3" d="M50.9914 164.519C50.9914 164.519 56.6445 157.387 55.6818 154.421L49.8658 159.873L50.9914 164.519Z" fill="black"/>
<path d="M47.5811 146.161C44.4851 147.205 41.4006 157.01 41.4006 157.01L50.4991 163.028C50.4991 163.028 55.8276 155.101 54.8657 151.004C54.0431 147.544 51.511 144.83 47.5811 146.161Z" fill="#263238"/>
<path d="M49.9109 162.638C49.9109 162.638 44.3179 174.713 44.4129 175.179C44.7646 176.899 62.7091 175.737 62.7091 175.737L63.1422 180.562C63.1422 180.562 55.0065 183.175 46.632 183.343C37.991 183.517 34.0503 178.978 36.1435 173.574C38.3783 167.805 42.4462 157.702 42.4462 157.702L49.9109 162.638Z" fill="#EEC1BB"/>
<path opacity="0.3" d="M44.4129 175.18C44.4129 175.18 42.647 174.821 40.8589 175.875C40.8589 175.875 41.034 175.078 42.499 174.534C43.3938 174.201 44.7402 174.282 44.7402 174.282L44.4129 175.18Z" fill="black"/>
<path d="M61.2683 174.86C61.2683 174.86 67.0543 176.238 67.6046 177.38C68.1549 178.521 66.3503 178.459 66.3503 178.459C66.3503 178.459 68.3314 178.649 68.3643 179.503C68.4036 180.527 66.514 180.454 66.514 180.454C66.514 180.454 68.1256 180.675 68.1041 181.437C68.082 182.226 65.943 182.295 65.943 182.295C65.943 182.295 67.0478 182.666 66.7341 183.187C66.4204 183.708 61.8829 183.943 60.5337 183.111C59.1844 182.279 59.0957 176.434 59.338 175.155C59.5803 173.876 59.6868 173.187 61.2583 171.226L61.2683 174.86Z" fill="#EEC1BB"/>
<path opacity="0.2" d="M66.3475 178.555C66.3446 178.555 66.3418 178.555 66.3396 178.554L62.9021 178.056C62.8563 178.049 62.8235 178.001 62.8299 177.949C62.8363 177.897 62.8806 177.859 62.925 177.866L66.3625 178.363C66.4082 178.371 66.4411 178.419 66.4347 178.471C66.4283 178.52 66.3904 178.556 66.3475 178.555Z" fill="black"/>
<path opacity="0.2" d="M66.4125 180.547H66.4103L63.07 180.332C63.0235 180.329 62.9885 180.284 62.9914 180.231C62.9942 180.178 63.0271 180.146 63.0807 180.141L66.4211 180.355C66.4675 180.358 66.5025 180.403 66.4997 180.456C66.4968 180.508 66.4582 180.548 66.4125 180.547Z" fill="black"/>
<path opacity="0.2" d="M65.825 182.387L63.3387 182.299C63.2923 182.297 63.2558 182.253 63.258 182.2C63.2601 182.147 63.2987 182.105 63.3459 182.107L65.8322 182.196C65.8786 182.197 65.9151 182.241 65.9129 182.294C65.9108 182.347 65.8715 182.39 65.825 182.387Z" fill="black"/>
<path d="M94.5332 175.244C94.992 169.683 99.2722 165.201 104.798 164.497L103.667 166.386L105.825 165.102L95.9282 177.539L94.5332 175.244Z" fill="#407BFF"/>
<path opacity="0.8" d="M94.5332 175.244C94.992 169.683 99.2722 165.201 104.798 164.497L103.667 166.386L105.825 165.102L95.9282 177.539L94.5332 175.244Z" fill="white"/>
<path d="M79.0279 165.036L82.4304 164.932L98.7184 170.466L83.8726 193.187L69.2626 189.532C68.4301 189.301 67.9419 188.438 68.1728 187.604C68.2071 187.479 68.2564 187.359 68.32 187.248L74.2203 176.558C74.3375 176.347 74.3375 176.09 74.2203 175.878L73.4192 174.451C73.2505 174.159 73.2505 173.799 73.4192 173.507L77.3777 166.075C77.7143 165.468 78.3368 165.075 79.0279 165.036Z" fill="#407BFF"/>
<path d="M98.7183 170.465L107.993 164.497L92.7423 187.199L83.8726 193.186L98.7183 170.465Z" fill="#407BFF"/>
<path opacity="0.2" d="M98.7183 170.465L107.993 164.497L92.7423 187.199L83.8726 193.186L98.7183 170.465Z" fill="black"/>
<path d="M96.8974 181.024C96.8974 181.024 93.2926 180.077 92.5007 180.696C91.7089 181.316 92.793 181.904 92.793 181.904C92.793 181.904 91.5524 181.345 91.1822 181.941C90.7377 182.656 91.8768 183.267 91.8768 183.267C91.8768 183.267 90.8399 182.859 90.5397 183.409C90.2281 183.979 91.4552 184.778 91.4552 184.778C91.4552 184.778 90.654 184.655 90.624 185.136C90.594 185.617 93.1597 187.374 94.2938 187.256C95.4273 187.137 97.8829 183.008 98.2667 182.012C98.6504 181.016 98.6111 180.241 97.8829 179.548L96.8974 181.024Z" fill="#EEC1BB"/>
<path opacity="0.2" d="M92.7552 181.974C92.7566 181.974 92.7587 181.976 92.7602 181.976L94.9821 182.827C95.0121 182.839 95.0507 182.816 95.0685 182.776C95.0864 182.737 95.0757 182.694 95.0471 182.684L92.8252 181.833C92.7952 181.821 92.7566 181.844 92.7387 181.884C92.7223 181.921 92.7294 181.959 92.7552 181.974Z" fill="black"/>
<path opacity="0.2" d="M91.8983 183.368L91.8997 183.369L93.9479 184.387C93.9765 184.402 94.0158 184.382 94.0358 184.343C94.0558 184.304 94.0494 184.27 94.0201 184.247L91.9719 183.229C91.9433 183.214 91.904 183.234 91.884 183.273C91.8639 183.312 91.8704 183.353 91.8983 183.368Z" fill="black"/>
<path opacity="0.2" d="M91.4859 184.885L92.981 185.694C93.0089 185.709 93.0489 185.69 93.0689 185.652C93.0896 185.614 93.0839 185.57 93.056 185.555L91.561 184.746C91.5331 184.731 91.4938 184.75 91.4731 184.788C91.4516 184.827 91.4573 184.87 91.4859 184.885Z" fill="black"/>
<path d="M60.2986 161.928H68.8374V157.702H60.2986V161.928Z" fill="#407BFF"/>
<path d="M65.8566 159.815C65.8566 160.356 66.2947 160.796 66.8349 160.796C67.3752 160.796 67.8133 160.357 67.8133 159.815C67.8133 159.274 67.3752 158.835 66.8349 158.835C66.2947 158.835 65.8566 159.274 65.8566 159.815Z" fill="white"/>
<path d="M61.4521 160.172H64.8332V159.457H61.4521V160.172Z" fill="white"/>
<path d="M70.9399 141.951L68.2199 139.311L66.8356 143.15L60.7924 138.325L57.7272 141.692L66.0073 148.92L72.5351 151.37L73.7221 146.237L70.9399 141.951Z" fill="#263238"/>
<path opacity="0.3" d="M70.94 141.951C71.1329 142.249 70.94 146.711 70.94 146.711L66.8356 143.626L65.3177 146.991L58.0238 141.951L65.4892 148.468L66.8349 144.512L71.4124 148.468L70.94 141.951Z" fill="black"/>
<path d="M60.1957 129.731C60.8895 129.731 61.452 129.168 61.452 128.473C61.452 127.777 60.8895 127.214 60.1957 127.214C59.5018 127.214 58.9393 127.777 58.9393 128.473C58.9393 129.168 59.5018 129.731 60.1957 129.731Z" fill="#407BFF"/>
</svg>
