<svg width="100" height="100" viewBox="0 0 100 100" fill="none" xmlns="http://www.w3.org/2000/svg">
<g clip-path="url(#clip0_170_15397)">
<path d="M93.8517 72.8046L21.457 78.1843C17.7996 78.4561 14.6144 75.7116 14.3426 72.0542L10.7383 23.5511C10.4665 19.8937 13.2111 16.7085 16.8684 16.4367L89.2631 11.057C92.9205 10.7852 96.1056 13.5297 96.3774 17.1871L99.9818 65.6902C100.254 69.3476 97.509 72.5328 93.8517 72.8046Z" fill="#5C5C5C"/>
<path d="M79.2348 88.9616H6.64048C2.97305 88.9616 0 85.9885 0 82.3211V33.6842C0 30.0168 2.97305 27.0437 6.64048 27.0437H79.2348C82.9022 27.0437 85.8753 30.0168 85.8753 33.6842V82.3211C85.8753 85.9885 82.9022 88.9616 79.2348 88.9616Z" fill="#6695FF"/>
<path d="M0 38.5078H85.875V51.8922H0V38.5078Z" fill="#D6E2FF"/>
<path opacity="0.1" d="M0.0136719 73.1504V82.3171C0.0136719 85.9837 2.97998 88.9504 6.64697 88.9504H79.2469C82.9134 88.9504 85.8802 85.9837 85.8802 82.3171V33.6837C85.8802 30.0171 82.9135 27.0504 79.2469 27.0504H72.7802C78.8135 42.617 73.3802 65.0838 59.7801 75.8504C47.1135 85.8838 9.41545 86.9909 0.0136719 73.1504Z" fill="black"/>
<path d="M38.5055 79.3719H33.6032C32.682 79.3719 31.9365 78.6264 31.9365 77.7052C31.9365 76.784 32.682 76.0385 33.6032 76.0385H38.5055C39.4268 76.0385 40.1722 76.784 40.1722 77.7052C40.1722 78.6264 39.4268 79.3719 38.5055 79.3719ZM52.8236 77.7052C52.8236 76.784 52.0781 76.0386 51.1569 76.0386H46.2546C45.3333 76.0386 44.5879 76.784 44.5879 77.7052C44.5879 78.6265 45.3333 79.3719 46.2546 79.3719H51.1569C52.0781 79.3719 52.8236 78.6265 52.8236 77.7052ZM65.4733 77.7052C65.4733 76.784 64.7279 76.0386 63.8067 76.0386H58.9076C57.9864 76.0386 57.2409 76.784 57.2409 77.7052C57.2409 78.6265 57.9864 79.3719 58.9076 79.3719H63.8067C64.7279 79.3719 65.4733 78.6265 65.4733 77.7052ZM78.1263 77.7052C78.1263 76.784 77.3809 76.0386 76.4596 76.0386H71.5573C70.6361 76.0386 69.8906 76.784 69.8906 77.7052C69.8906 78.6265 70.6361 79.3719 71.5573 79.3719H76.4596C77.3809 79.3719 78.1263 78.6265 78.1263 77.7052Z" fill="#C1D4FF"/>
<path d="M23.1441 80.0939H11.8453C10.5031 80.0939 9.41504 79.0058 9.41504 77.6637V69.3796C9.41504 68.0374 10.5031 66.9494 11.8453 66.9494H23.1441C24.4863 66.9494 25.5744 68.0374 25.5744 69.3796V77.6637C25.5744 79.0058 24.4863 80.0939 23.1441 80.0939Z" fill="#C1D4FF"/>
</g>
<defs>
<clipPath id="clip0_170_15397">
<rect width="100" height="100" fill="white"/>
</clipPath>
</defs>
</svg>
