<svg width="60" height="60" viewBox="0 0 60 60" fill="none" xmlns="http://www.w3.org/2000/svg">
<path d="M25.6504 32.2455C32.6881 32.2455 38.3933 26.5487 38.3933 19.5212C38.3933 12.4938 32.6881 6.79688 25.6504 6.79688C18.6128 6.79688 12.9076 12.4938 12.9076 19.5212C12.9076 26.5487 18.6128 32.2455 25.6504 32.2455Z" fill="#6695FF"/>
<path d="M25.6506 39.0424C36.4248 39.0424 45.1903 30.2852 45.1903 19.5212C45.1903 8.75719 36.4248 0 25.6506 0C14.8763 0 6.11072 8.75719 6.11072 19.5212C6.11072 30.2852 14.8762 39.0424 25.6506 39.0424ZM25.6506 2.34375C35.1324 2.34375 42.8465 10.0495 42.8465 19.5212C42.8465 28.9929 35.1324 36.6987 25.6506 36.6987C16.1686 36.6987 8.45447 28.9929 8.45447 19.5212C8.45447 10.0495 16.1686 2.34375 25.6506 2.34375Z" fill="#5C5C5C"/>
<path d="M25.6504 21.6605H28.7867C29.4339 21.6605 29.9586 21.1358 29.9586 20.4887C29.9586 19.8415 29.4339 19.3168 28.7867 19.3168H26.8223V15.2622C26.8223 14.6151 26.2976 14.0903 25.6504 14.0903C25.0032 14.0903 24.4785 14.6151 24.4785 15.2622V20.4887C24.4785 21.1358 25.0032 21.6605 25.6504 21.6605Z" fill="#5C5C5C"/>
<path d="M55.7621 47.0475H46.6781C46.0309 47.0475 45.5062 47.5722 45.5062 48.2193V48.5193H40.8577C40.617 46.9297 39.8875 45.4627 38.7446 44.303C37.3214 42.8591 35.4285 42.0641 33.414 42.0641H33.4108L19.271 42.0699C17.5269 42.0699 16.0123 43.0924 15.2731 44.5808L10.7207 37.1402C10.6753 37.0659 10.6218 36.997 10.5611 36.9346C9.02808 35.3587 6.62058 35.1386 4.83687 36.4111C2.52616 38.0593 2.70335 41.0462 4.0728 43.155L11.1487 54.9889C11.1536 54.9972 11.1588 55.0057 11.1639 55.0137C12.5554 57.2144 14.9265 58.5282 17.5068 58.5282H45.5062V58.8281C45.5062 59.4752 46.0309 60 46.6781 60H55.7621C56.4093 60 56.934 59.4752 56.934 58.8281V48.2193C56.934 47.5721 56.4093 47.0475 55.7621 47.0475ZM17.5069 56.1843C15.7395 56.1843 14.1127 55.2832 13.1524 53.7727L6.07261 41.9325C6.0644 41.9187 6.05585 41.9052 6.04718 41.8917C5.27843 40.718 5.08331 39.114 6.198 38.319C7.00085 37.7461 8.07569 37.8213 8.79722 38.4871L15.2323 49.0051C15.2396 49.0169 15.247 49.0284 15.2545 49.0399C16.1395 50.3783 17.6183 51.1891 19.2072 51.2089L19.2503 51.2093C19.2571 51.2094 19.2639 51.2095 19.2709 51.2095H32.3412C32.9885 51.2095 33.5131 50.6847 33.5131 50.0376C33.5131 49.3905 32.9885 48.8657 32.3412 48.8657H19.2799C19.2768 48.8657 19.2739 48.8656 19.271 48.8656L19.2424 48.8654C19.2416 48.8654 19.2407 48.8654 19.2399 48.8654C18.0796 48.8483 17.1359 47.8501 17.1359 46.6398C17.1359 45.4122 18.0937 44.4137 19.2716 44.4137L33.4119 44.4078H33.4141C34.7961 44.4078 36.0964 44.9548 37.0756 45.9484C38.0599 46.947 38.602 48.2763 38.602 49.6912V52.812C38.602 53.4591 39.1266 53.9839 39.7739 53.9839C40.4211 53.9839 40.9457 53.4591 40.9457 52.812V50.8631H45.5063V56.1845H17.5069V56.1843ZM54.5902 57.6562H47.85V49.3912H54.5902V57.6562Z" fill="#5C5C5C"/>
</svg>
