<svg width="60" height="60" viewBox="0 0 60 60" fill="none" xmlns="http://www.w3.org/2000/svg">
<path d="M22.5 26.25H50.625V54.375H22.5V26.25Z" fill="#6695FF"/>
<path d="M54.375 7.5H46.875V5.625C46.875 5.12772 46.6775 4.65081 46.3258 4.29917C45.9742 3.94754 45.4973 3.75 45 3.75C44.5027 3.75 44.0258 3.94754 43.6742 4.29917C43.3225 4.65081 43.125 5.12772 43.125 5.625V7.5H16.875V5.625C16.875 5.12772 16.6775 4.65081 16.3258 4.29917C15.9742 3.94754 15.4973 3.75 15 3.75C14.5027 3.75 14.0258 3.94754 13.6742 4.29917C13.3225 4.65081 13.125 5.12772 13.125 5.625V7.5H5.625C5.12772 7.5 4.65081 7.69754 4.29917 8.04918C3.94754 8.40081 3.75 8.87772 3.75 9.375V20.625C3.75 21.1223 3.94754 21.5992 4.29917 21.9508C4.65081 22.3025 5.12772 22.5 5.625 22.5H7.5V54.375C7.5 54.8723 7.69754 55.3492 8.04918 55.7008C8.40081 56.0525 8.87772 56.25 9.375 56.25H50.625C51.1223 56.25 51.5992 56.0525 51.9508 55.7008C52.3025 55.3492 52.5 54.8723 52.5 54.375V22.5H54.375C54.8723 22.5 55.3492 22.3025 55.7008 21.9508C56.0525 21.5992 56.25 21.1223 56.25 20.625V9.375C56.25 8.87772 56.0525 8.40081 55.7008 8.04918C55.3492 7.69754 54.8723 7.5 54.375 7.5ZM48.75 52.5H11.25V22.5H48.75V52.5ZM52.5 18.75H7.5V11.25H13.125V13.125C13.125 13.6223 13.3225 14.0992 13.6742 14.4508C14.0258 14.8025 14.5027 15 15 15C15.4973 15 15.9742 14.8025 16.3258 14.4508C16.6775 14.0992 16.875 13.6223 16.875 13.125V11.25H43.125V13.125C43.125 13.6223 43.3225 14.0992 43.6742 14.4508C44.0258 14.8025 44.5027 15 45 15C45.4973 15 45.9742 14.8025 46.3258 14.4508C46.6775 14.0992 46.875 13.6223 46.875 13.125V11.25H52.5V18.75Z" fill="#5C5C5C"/>
<path d="M28.6687 44.4563C28.8439 44.63 29.0517 44.7675 29.2802 44.8608C29.5086 44.9541 29.7532 45.0014 30 45H30.3C30.5918 44.9512 30.868 44.8341 31.1059 44.6581C31.3438 44.4821 31.5367 44.2523 31.6687 43.9875L37.2937 32.7375C37.4757 32.3005 37.4857 31.8107 37.3215 31.3667C37.1574 30.9226 36.8313 30.5571 36.4089 30.3435C35.9864 30.1298 35.4987 30.0839 35.0438 30.215C34.5888 30.3461 34.2003 30.6444 33.9562 31.05L29.4937 39.975L25.7437 36.225C25.5689 36.0502 25.3614 35.9115 25.133 35.8169C24.9045 35.7223 24.6597 35.6736 24.4125 35.6736C24.1653 35.6736 23.9204 35.7223 23.692 35.8169C23.4636 35.9115 23.2561 36.0502 23.0812 36.225C22.9064 36.3998 22.7677 36.6074 22.6731 36.8358C22.5785 37.0642 22.5298 37.309 22.5298 37.5563C22.5298 37.8035 22.5785 38.0483 22.6731 38.2767C22.7677 38.5051 22.9064 38.7127 23.0812 38.8875L28.6687 44.4563Z" fill="#5C5C5C"/>
</svg>
