<svg width="60" height="60" viewBox="0 0 60 60" fill="none" xmlns="http://www.w3.org/2000/svg">
<g clip-path="url(#clip0_144_1524)">
<path d="M39.1406 3.75H54.6094V19.2188H39.1406V3.75Z" fill="#6695FF"/>
<path d="M60 24.6168V0H35.3834V24.6168H46.7597V56.4844H29.8321C30.6824 55.3985 31.2943 54.1177 31.5843 52.7194H41.5739V43.0629C41.5739 37.4218 36.9845 32.8324 31.3434 32.8324H27.2045L19.4589 21.2845H0V24.8002H17.5837L22.9713 32.8324H0V36.348H31.3434C34.4378 36.348 37.0486 38.4526 37.8232 41.3051H33.4439V44.8207H38.0582V49.2038H31.6207C30.8381 44.9544 27.1085 41.7241 22.6363 41.7241C18.1641 41.7241 14.4345 44.9544 13.6519 49.2038H0V52.7194H13.6887C13.9785 54.1177 14.5905 55.3985 15.4409 56.4844H0V60H60V56.4844H50.2753V24.6168H60ZM17.0141 50.8621C17.0141 47.7619 19.5362 45.2397 22.6365 45.2397C25.7367 45.2397 28.2588 47.7618 28.2588 50.8621C28.2588 53.9623 25.7367 56.4844 22.6365 56.4844C19.5362 56.4844 17.0141 53.9623 17.0141 50.8621ZM38.899 3.51562H56.4844V21.1011H38.899V3.51562Z" fill="#5C5C5C"/>
<path d="M47.6489 6.19739H43.3165L43.3221 18.1641H46.8377V14.9226C46.8377 14.9226 47.448 14.9204 47.6489 14.9204C50.0819 14.9204 52.0613 12.9638 52.0613 10.5589C52.0613 8.15395 50.0818 6.19739 47.6489 6.19739ZM47.6489 11.4047C47.4465 11.4047 46.8464 11.407 46.8464 11.407L46.8426 9.71301H47.6489C48.1267 9.71301 48.5457 10.1083 48.5457 10.5589C48.5457 11.0095 48.1267 11.4047 47.6489 11.4047Z" fill="#5C5C5C"/>
</g>
<defs>
<clipPath id="clip0_144_1524">
<rect width="60" height="60" fill="white"/>
</clipPath>
</defs>
</svg>
